%TF.GenerationSoftware,KiCad,Pcbnew,8.0.6*%
%TF.CreationDate,2025-03-25T19:38:50+01:00*%
%TF.ProjectId,TocBoatReceiver,546f6342-6f61-4745-9265-636569766572,rev?*%
%TF.SameCoordinates,Original*%
%TF.FileFunction,Copper,L2,Bot*%
%TF.FilePolarity,Positive*%
%FSLAX46Y46*%
G04 Gerber Fmt 4.6, Leading zero omitted, Abs format (unit mm)*
G04 Created by KiCad (PCBNEW 8.0.6) date 2025-03-25 19:38:50*
%MOMM*%
%LPD*%
G01*
G04 APERTURE LIST*
G04 Aperture macros list*
%AMRoundRect*
0 Rectangle with rounded corners*
0 $1 Rounding radius*
0 $2 $3 $4 $5 $6 $7 $8 $9 X,Y pos of 4 corners*
0 Add a 4 corners polygon primitive as box body*
4,1,4,$2,$3,$4,$5,$6,$7,$8,$9,$2,$3,0*
0 Add four circle primitives for the rounded corners*
1,1,$1+$1,$2,$3*
1,1,$1+$1,$4,$5*
1,1,$1+$1,$6,$7*
1,1,$1+$1,$8,$9*
0 Add four rect primitives between the rounded corners*
20,1,$1+$1,$2,$3,$4,$5,0*
20,1,$1+$1,$4,$5,$6,$7,0*
20,1,$1+$1,$6,$7,$8,$9,0*
20,1,$1+$1,$8,$9,$2,$3,0*%
G04 Aperture macros list end*
%TA.AperFunction,ComponentPad*%
%ADD10RoundRect,0.250000X0.845000X-0.620000X0.845000X0.620000X-0.845000X0.620000X-0.845000X-0.620000X0*%
%TD*%
%TA.AperFunction,ComponentPad*%
%ADD11O,2.190000X1.740000*%
%TD*%
%TA.AperFunction,HeatsinkPad*%
%ADD12C,0.600000*%
%TD*%
%TA.AperFunction,ViaPad*%
%ADD13C,0.600000*%
%TD*%
%TA.AperFunction,Conductor*%
%ADD14C,0.200000*%
%TD*%
%TA.AperFunction,Conductor*%
%ADD15C,0.127000*%
%TD*%
%TA.AperFunction,Conductor*%
%ADD16C,1.000000*%
%TD*%
G04 APERTURE END LIST*
D10*
%TO.P,J6,1,Pin_1*%
%TO.N,+BATT*%
X182000000Y-85620000D03*
D11*
%TO.P,J6,2,Pin_2*%
%TO.N,/ESP32/GPIO16*%
X182000000Y-83080000D03*
%TO.P,J6,3,Pin_3*%
%TO.N,GND*%
X182000000Y-80540000D03*
%TD*%
D10*
%TO.P,J7,1,Pin_1*%
%TO.N,+BATT*%
X182000000Y-73540000D03*
D11*
%TO.P,J7,2,Pin_2*%
%TO.N,/ESP32/GPIO14*%
X182000000Y-71000000D03*
%TO.P,J7,3,Pin_3*%
%TO.N,GND*%
X182000000Y-68460000D03*
%TD*%
D10*
%TO.P,J3,1,Pin_1*%
%TO.N,+BATT*%
X182000000Y-115540000D03*
D11*
%TO.P,J3,2,Pin_2*%
%TO.N,GND*%
X182000000Y-113000000D03*
%TD*%
D10*
%TO.P,J4,1,Pin_1*%
%TO.N,Net-(J4-Pin_1)*%
X182000000Y-94540000D03*
D11*
%TO.P,J4,2,Pin_2*%
%TO.N,Net-(J4-Pin_2)*%
X182000000Y-92000000D03*
%TD*%
D12*
%TO.P,U3,39,GND*%
%TO.N,GND*%
X139117500Y-89875000D03*
X140642500Y-89875000D03*
X138355000Y-89112500D03*
X139880000Y-89112500D03*
X141405000Y-89112500D03*
X139117500Y-88350000D03*
X140642500Y-88350000D03*
X138355000Y-87587500D03*
X139880000Y-87587500D03*
X141405000Y-87587500D03*
X139117500Y-86825000D03*
X140642500Y-86825000D03*
%TD*%
D10*
%TO.P,J5,1,Pin_1*%
%TO.N,Net-(J5-Pin_1)*%
X182000000Y-61540000D03*
D11*
%TO.P,J5,2,Pin_2*%
%TO.N,Net-(J5-Pin_2)*%
X182000000Y-59000000D03*
%TD*%
D13*
%TO.N,GND*%
X146000000Y-124000000D03*
X144000000Y-124000000D03*
X145000000Y-124000000D03*
X147000000Y-120000000D03*
X147000000Y-119000000D03*
X147000000Y-118000000D03*
X156000000Y-123000000D03*
X156000000Y-122000000D03*
X156000000Y-121000000D03*
X156000000Y-120000000D03*
X144000000Y-99000000D03*
X143000000Y-99000000D03*
X142000000Y-99000000D03*
X141000000Y-99000000D03*
X136000000Y-105000000D03*
X136000000Y-107000000D03*
X136000000Y-106000000D03*
X144000000Y-111000000D03*
X143000000Y-111000000D03*
X142000000Y-111000000D03*
X141000000Y-107800000D03*
X141600000Y-104800000D03*
X141600000Y-104100000D03*
X143200000Y-105200000D03*
X143200000Y-104500000D03*
X143200000Y-103800000D03*
X144900000Y-101900000D03*
X144000000Y-101900000D03*
X136900000Y-101800000D03*
X140200000Y-102000000D03*
X143000000Y-101900000D03*
%TO.N,+3.3V*%
X140900000Y-109600000D03*
%TO.N,GND*%
X138800000Y-111400000D03*
X149300000Y-93300000D03*
X174600000Y-107800000D03*
X174500000Y-109800000D03*
%TO.N,Net-(J2-D+)*%
X141437500Y-122200000D03*
X142032603Y-120948454D03*
%TO.N,EN*%
X141600000Y-106650000D03*
X135900000Y-77000000D03*
X135100000Y-95200000D03*
%TO.N,GND*%
X135500000Y-75500000D03*
X141700000Y-123900000D03*
X165500000Y-123100000D03*
X143800000Y-121900000D03*
X151200000Y-124200000D03*
X168800000Y-120800000D03*
X132500000Y-100700000D03*
X147300000Y-125000000D03*
X175800000Y-115100000D03*
X132681750Y-73968250D03*
X165700000Y-125400000D03*
X158100000Y-98000000D03*
X132500000Y-97500000D03*
X158000000Y-94000000D03*
X132500000Y-80100000D03*
X158100000Y-90100000D03*
%TO.N,+3.3V*%
X135236500Y-100400000D03*
X134000000Y-80500000D03*
X176000000Y-125200000D03*
X140100000Y-100500000D03*
X168600000Y-123000000D03*
X134100000Y-77100000D03*
%TO.N,Net-(D1-K)*%
X133800000Y-132000000D03*
X162200000Y-97000000D03*
X134900000Y-52000000D03*
X181800000Y-52000000D03*
%TO.N,TX*%
X138000003Y-99100000D03*
X137300000Y-81400000D03*
%TO.N,D0*%
X148900000Y-80100000D03*
X140701500Y-103101500D03*
X138700000Y-98500000D03*
X137100000Y-102800000D03*
%TO.N,RX*%
X137200000Y-99100000D03*
X137500000Y-80300000D03*
%TO.N,+5V*%
X144573108Y-121694310D03*
X149566988Y-124266453D03*
%TO.N,Net-(J4-Pin_1)*%
X162036500Y-93300000D03*
%TO.N,/ESP32/GPIO14*%
X154300000Y-94500000D03*
X162600000Y-94600000D03*
X148000000Y-95000000D03*
X162000828Y-89800828D03*
%TO.N,Net-(Q1B-E2)*%
X144951544Y-113248456D03*
X144991317Y-111709500D03*
%TD*%
D14*
%TO.N,+3.3V*%
X142200000Y-108300000D02*
X142200000Y-102600000D01*
X140900000Y-109600000D02*
X142200000Y-108300000D01*
X142200000Y-102600000D02*
X140100000Y-100500000D01*
%TO.N,Net-(J2-D+)*%
X141437500Y-122200000D02*
X141437500Y-121543557D01*
X141437500Y-121543557D02*
X142032603Y-120948454D01*
D15*
%TO.N,EN*%
X136536500Y-103033410D02*
X136536500Y-102779752D01*
X141600000Y-106650000D02*
X140153090Y-106650000D01*
X134473000Y-100716252D02*
X134473000Y-95827000D01*
X136536500Y-102779752D02*
X134473000Y-100716252D01*
X135900000Y-94400000D02*
X135100000Y-95200000D01*
X134473000Y-95827000D02*
X135100000Y-95200000D01*
X140153090Y-106650000D02*
X136536500Y-103033410D01*
X135900000Y-77000000D02*
X135900000Y-94400000D01*
D16*
%TO.N,+3.3V*%
X135336500Y-100500000D02*
X135236500Y-100400000D01*
D15*
X134000000Y-80500000D02*
X134000000Y-77200000D01*
D16*
X176000000Y-125200000D02*
X170800000Y-125200000D01*
D15*
X134000000Y-77200000D02*
X134100000Y-77100000D01*
D16*
X140100000Y-100500000D02*
X135336500Y-100500000D01*
X170800000Y-125200000D02*
X168600000Y-123000000D01*
D15*
%TO.N,Net-(D1-K)*%
X183358500Y-53558500D02*
X183358500Y-95379626D01*
X183358500Y-95379626D02*
X181738126Y-97000000D01*
X181800000Y-52000000D02*
X183358500Y-53558500D01*
X181800000Y-52000000D02*
X134900000Y-52000000D01*
X181738126Y-97000000D02*
X162200000Y-97000000D01*
X133436500Y-131636500D02*
X133800000Y-132000000D01*
X134900000Y-52000000D02*
X133436500Y-53463500D01*
X133436500Y-53463500D02*
X133436500Y-131636500D01*
%TO.N,TX*%
X136554000Y-82146000D02*
X137300000Y-81400000D01*
X138000003Y-99100000D02*
X138000000Y-99100000D01*
X138000000Y-99100000D02*
X136554000Y-97654000D01*
X136554000Y-97654000D02*
X136554000Y-97100000D01*
X136554000Y-97100000D02*
X136554000Y-82146000D01*
%TO.N,D0*%
X144400000Y-93700000D02*
X148900000Y-89200000D01*
X140400000Y-102800000D02*
X140701500Y-103101500D01*
X138700000Y-98500000D02*
X139600000Y-98500000D01*
X137100000Y-102800000D02*
X140400000Y-102800000D01*
X148900000Y-89200000D02*
X148900000Y-80100000D01*
X139600000Y-98500000D02*
X144400000Y-93700000D01*
%TO.N,RX*%
X137200000Y-99100000D02*
X136227000Y-98127000D01*
X136227000Y-81500000D02*
X136300000Y-81500000D01*
X136300000Y-81500000D02*
X137500000Y-80300000D01*
X136227000Y-98127000D02*
X136227000Y-81500000D01*
%TO.N,+5V*%
X146994845Y-121694310D02*
X149566988Y-124266453D01*
X144573108Y-121694310D02*
X146994845Y-121694310D01*
%TO.N,Net-(J4-Pin_1)*%
X162036500Y-94833410D02*
X162036500Y-93300000D01*
X181376500Y-95163500D02*
X162366590Y-95163500D01*
X162366590Y-95163500D02*
X162036500Y-94833410D01*
X182000000Y-94540000D02*
X181376500Y-95163500D01*
%TO.N,/ESP32/GPIO14*%
X162600000Y-90400000D02*
X162000828Y-89800828D01*
X154300000Y-94500000D02*
X148500000Y-94500000D01*
X162600000Y-94600000D02*
X162600000Y-90400000D01*
X148500000Y-94500000D02*
X148000000Y-95000000D01*
%TO.N,Net-(Q1B-E2)*%
X144951544Y-111749273D02*
X144991317Y-111709500D01*
X144951544Y-113248456D02*
X144951544Y-111749273D01*
%TD*%
%TA.AperFunction,Conductor*%
%TO.N,GND*%
G36*
X139924317Y-103383685D02*
G01*
X139970072Y-103436489D01*
X139974320Y-103447048D01*
X139975709Y-103451019D01*
X139975710Y-103451022D01*
X140071684Y-103603762D01*
X140199238Y-103731316D01*
X140351978Y-103827289D01*
X140522245Y-103886868D01*
X140522250Y-103886869D01*
X140701496Y-103907065D01*
X140701500Y-103907065D01*
X140701504Y-103907065D01*
X140880749Y-103886869D01*
X140880752Y-103886868D01*
X140880755Y-103886868D01*
X141051022Y-103827289D01*
X141203762Y-103731316D01*
X141331316Y-103603762D01*
X141370506Y-103541390D01*
X141422841Y-103495100D01*
X141491894Y-103484452D01*
X141555743Y-103512827D01*
X141594115Y-103571216D01*
X141599500Y-103607363D01*
X141599500Y-105733677D01*
X141579815Y-105800716D01*
X141527011Y-105846471D01*
X141489384Y-105856897D01*
X141420750Y-105864630D01*
X141250478Y-105924210D01*
X141097737Y-106020184D01*
X141068241Y-106049681D01*
X141006918Y-106083166D01*
X140980560Y-106086000D01*
X140438069Y-106086000D01*
X140371030Y-106066315D01*
X140350388Y-106049681D01*
X137876388Y-103575681D01*
X137842903Y-103514358D01*
X137847887Y-103444666D01*
X137889759Y-103388733D01*
X137955223Y-103364316D01*
X137964069Y-103364000D01*
X139857278Y-103364000D01*
X139924317Y-103383685D01*
G37*
%TD.AperFunction*%
%TA.AperFunction,Conductor*%
G36*
X140266942Y-101520185D02*
G01*
X140287584Y-101536819D01*
X140839955Y-102089190D01*
X140873440Y-102150513D01*
X140868456Y-102220205D01*
X140826584Y-102276138D01*
X140761120Y-102300555D01*
X140738391Y-102300091D01*
X140701504Y-102295935D01*
X140694539Y-102295935D01*
X140694539Y-102294260D01*
X140634257Y-102283698D01*
X140627203Y-102279924D01*
X140617696Y-102274435D01*
X140566499Y-102260717D01*
X140566498Y-102260716D01*
X140498969Y-102242622D01*
X140474253Y-102236000D01*
X140474252Y-102236000D01*
X137719440Y-102236000D01*
X137652401Y-102216315D01*
X137631759Y-102199681D01*
X137602262Y-102170184D01*
X137449523Y-102074211D01*
X137279254Y-102014631D01*
X137279249Y-102014630D01*
X137100004Y-101994435D01*
X137099996Y-101994435D01*
X136920750Y-102014630D01*
X136920737Y-102014633D01*
X136750482Y-102074208D01*
X136747469Y-102075660D01*
X136745327Y-102076012D01*
X136743906Y-102076510D01*
X136743818Y-102076261D01*
X136678528Y-102087012D01*
X136614393Y-102059290D01*
X136605986Y-102051621D01*
X136266546Y-101712181D01*
X136233061Y-101650858D01*
X136238045Y-101581166D01*
X136279917Y-101525233D01*
X136345381Y-101500816D01*
X136354227Y-101500500D01*
X140199903Y-101500500D01*
X140266942Y-101520185D01*
G37*
%TD.AperFunction*%
%TA.AperFunction,Conductor*%
G36*
X185942539Y-49520185D02*
G01*
X185988294Y-49572989D01*
X185999500Y-49624500D01*
X185999500Y-133375500D01*
X185979815Y-133442539D01*
X185927011Y-133488294D01*
X185875500Y-133499500D01*
X132124500Y-133499500D01*
X132057461Y-133479815D01*
X132011706Y-133427011D01*
X132000500Y-133375500D01*
X132000500Y-53389248D01*
X132872500Y-53389248D01*
X132872500Y-131710752D01*
X132901974Y-131820750D01*
X132910935Y-131854195D01*
X132910936Y-131854198D01*
X132981332Y-131976128D01*
X132997165Y-132024244D01*
X133014630Y-132179250D01*
X133014631Y-132179254D01*
X133074211Y-132349523D01*
X133170184Y-132502262D01*
X133297738Y-132629816D01*
X133450478Y-132725789D01*
X133620745Y-132785368D01*
X133620750Y-132785369D01*
X133799996Y-132805565D01*
X133800000Y-132805565D01*
X133800004Y-132805565D01*
X133979249Y-132785369D01*
X133979252Y-132785368D01*
X133979255Y-132785368D01*
X134149522Y-132725789D01*
X134302262Y-132629816D01*
X134429816Y-132502262D01*
X134525789Y-132349522D01*
X134585368Y-132179255D01*
X134585369Y-132179249D01*
X134605565Y-132000003D01*
X134605565Y-131999996D01*
X134585369Y-131820750D01*
X134585368Y-131820745D01*
X134525788Y-131650476D01*
X134429815Y-131497737D01*
X134302262Y-131370184D01*
X134149524Y-131274212D01*
X134149523Y-131274211D01*
X134083544Y-131251124D01*
X134026769Y-131210402D01*
X134001022Y-131145449D01*
X134000500Y-131134083D01*
X134000500Y-124468995D01*
X136499499Y-124468995D01*
X136526418Y-124604322D01*
X136526421Y-124604332D01*
X136579221Y-124731804D01*
X136579228Y-124731817D01*
X136655885Y-124846541D01*
X136655888Y-124846545D01*
X136753454Y-124944111D01*
X136753458Y-124944114D01*
X136868182Y-125020771D01*
X136868195Y-125020778D01*
X136943143Y-125051822D01*
X136995672Y-125073580D01*
X136995676Y-125073580D01*
X136995677Y-125073581D01*
X137131004Y-125100500D01*
X137131007Y-125100500D01*
X137268995Y-125100500D01*
X137360041Y-125082389D01*
X137404328Y-125073580D01*
X137531811Y-125020775D01*
X137646542Y-124944114D01*
X137744114Y-124846542D01*
X137820775Y-124731811D01*
X137873580Y-124604328D01*
X137900500Y-124468993D01*
X137900500Y-124331007D01*
X137900500Y-124331004D01*
X137873581Y-124195677D01*
X137873580Y-124195676D01*
X137873580Y-124195672D01*
X137828649Y-124087198D01*
X137820778Y-124068195D01*
X137820771Y-124068182D01*
X137744114Y-123953458D01*
X137744111Y-123953454D01*
X137646545Y-123855888D01*
X137646541Y-123855885D01*
X137531817Y-123779228D01*
X137531804Y-123779221D01*
X137404332Y-123726421D01*
X137404322Y-123726418D01*
X137268995Y-123699500D01*
X137268993Y-123699500D01*
X137131007Y-123699500D01*
X137131005Y-123699500D01*
X136995677Y-123726418D01*
X136995667Y-123726421D01*
X136868195Y-123779221D01*
X136868182Y-123779228D01*
X136753458Y-123855885D01*
X136753454Y-123855888D01*
X136655888Y-123953454D01*
X136655885Y-123953458D01*
X136579228Y-124068182D01*
X136579221Y-124068195D01*
X136526421Y-124195667D01*
X136526418Y-124195677D01*
X136499500Y-124331004D01*
X136499500Y-124331007D01*
X136499500Y-124468993D01*
X136499500Y-124468995D01*
X136499499Y-124468995D01*
X134000500Y-124468995D01*
X134000500Y-122199996D01*
X140631935Y-122199996D01*
X140631935Y-122200003D01*
X140652130Y-122379249D01*
X140652131Y-122379254D01*
X140711711Y-122549523D01*
X140807684Y-122702262D01*
X140935238Y-122829816D01*
X141087978Y-122925789D01*
X141258245Y-122985368D01*
X141258250Y-122985369D01*
X141437496Y-123005565D01*
X141437500Y-123005565D01*
X141437504Y-123005565D01*
X141616749Y-122985369D01*
X141616752Y-122985368D01*
X141616755Y-122985368D01*
X141787022Y-122925789D01*
X141939762Y-122829816D01*
X142067316Y-122702262D01*
X142163289Y-122549522D01*
X142222868Y-122379255D01*
X142222869Y-122379249D01*
X142243065Y-122200003D01*
X142243065Y-122199996D01*
X142222869Y-122020750D01*
X142222867Y-122020742D01*
X142173175Y-121878729D01*
X142169614Y-121808951D01*
X142204343Y-121748323D01*
X142249261Y-121720733D01*
X142324787Y-121694306D01*
X143767543Y-121694306D01*
X143767543Y-121694313D01*
X143787738Y-121873559D01*
X143787739Y-121873564D01*
X143847319Y-122043833D01*
X143891012Y-122113369D01*
X143943292Y-122196572D01*
X144070846Y-122324126D01*
X144223586Y-122420099D01*
X144393853Y-122479678D01*
X144393858Y-122479679D01*
X144573104Y-122499875D01*
X144573108Y-122499875D01*
X144573112Y-122499875D01*
X144752357Y-122479679D01*
X144752360Y-122479678D01*
X144752363Y-122479678D01*
X144922630Y-122420099D01*
X145075370Y-122324126D01*
X145104867Y-122294629D01*
X145166190Y-122261144D01*
X145192548Y-122258310D01*
X146709867Y-122258310D01*
X146776906Y-122277995D01*
X146797548Y-122294629D01*
X148729731Y-124226813D01*
X148763216Y-124288136D01*
X148765270Y-124300610D01*
X148781618Y-124445703D01*
X148781619Y-124445707D01*
X148841199Y-124615976D01*
X148910382Y-124726079D01*
X148937172Y-124768715D01*
X149064726Y-124896269D01*
X149217466Y-124992242D01*
X149387733Y-125051821D01*
X149387738Y-125051822D01*
X149566984Y-125072018D01*
X149566988Y-125072018D01*
X149566992Y-125072018D01*
X149746237Y-125051822D01*
X149746240Y-125051821D01*
X149746243Y-125051821D01*
X149916510Y-124992242D01*
X150069250Y-124896269D01*
X150196804Y-124768715D01*
X150292777Y-124615975D01*
X150352356Y-124445708D01*
X150354930Y-124422863D01*
X150372553Y-124266456D01*
X150372553Y-124266449D01*
X150352357Y-124087203D01*
X150352356Y-124087198D01*
X150292776Y-123916929D01*
X150196803Y-123764190D01*
X150069250Y-123636637D01*
X149916511Y-123540664D01*
X149746242Y-123481084D01*
X149746238Y-123481083D01*
X149601145Y-123464735D01*
X149536731Y-123437668D01*
X149527348Y-123429196D01*
X148999607Y-122901455D01*
X167599500Y-122901455D01*
X167599500Y-123098544D01*
X167637947Y-123291828D01*
X167637949Y-123291836D01*
X167713367Y-123473910D01*
X167713372Y-123473920D01*
X167822860Y-123637780D01*
X167822863Y-123637784D01*
X170019735Y-125834655D01*
X170019764Y-125834686D01*
X170162214Y-125977136D01*
X170162218Y-125977139D01*
X170326079Y-126086628D01*
X170326092Y-126086635D01*
X170454833Y-126139961D01*
X170497744Y-126157735D01*
X170508164Y-126162051D01*
X170604812Y-126181275D01*
X170653135Y-126190887D01*
X170701458Y-126200500D01*
X170701459Y-126200500D01*
X176098543Y-126200500D01*
X176228582Y-126174632D01*
X176291835Y-126162051D01*
X176473914Y-126086632D01*
X176637782Y-125977139D01*
X176777139Y-125837782D01*
X176886632Y-125673914D01*
X176962051Y-125491835D01*
X177000500Y-125298541D01*
X177000500Y-125101459D01*
X177000500Y-125101456D01*
X176962052Y-124908170D01*
X176962051Y-124908169D01*
X176962051Y-124908165D01*
X176957123Y-124896268D01*
X176886635Y-124726092D01*
X176886628Y-124726079D01*
X176777139Y-124562218D01*
X176777136Y-124562214D01*
X176637785Y-124422863D01*
X176637781Y-124422860D01*
X176473920Y-124313371D01*
X176473907Y-124313364D01*
X176291839Y-124237950D01*
X176291829Y-124237947D01*
X176098543Y-124199500D01*
X176098541Y-124199500D01*
X171265782Y-124199500D01*
X171198743Y-124179815D01*
X171178101Y-124163181D01*
X169237784Y-122222863D01*
X169237780Y-122222860D01*
X169073920Y-122113372D01*
X169073910Y-122113367D01*
X168891836Y-122037949D01*
X168891828Y-122037947D01*
X168698543Y-121999500D01*
X168698540Y-121999500D01*
X168501460Y-121999500D01*
X168501457Y-121999500D01*
X168308171Y-122037947D01*
X168308163Y-122037949D01*
X168126089Y-122113367D01*
X168126079Y-122113372D01*
X167962219Y-122222860D01*
X167962215Y-122222863D01*
X167822863Y-122362215D01*
X167822860Y-122362219D01*
X167713372Y-122526079D01*
X167713367Y-122526089D01*
X167637949Y-122708163D01*
X167637947Y-122708171D01*
X167599500Y-122901455D01*
X148999607Y-122901455D01*
X147453228Y-121355077D01*
X147453226Y-121355074D01*
X147341151Y-121242999D01*
X147341149Y-121242997D01*
X147212543Y-121168746D01*
X147212542Y-121168745D01*
X147186942Y-121161886D01*
X147161344Y-121155027D01*
X147161343Y-121155026D01*
X147093814Y-121136932D01*
X147069098Y-121130310D01*
X147069097Y-121130310D01*
X145192548Y-121130310D01*
X145125509Y-121110625D01*
X145104867Y-121093991D01*
X145075370Y-121064494D01*
X144922631Y-120968521D01*
X144752362Y-120908941D01*
X144752357Y-120908940D01*
X144573112Y-120888745D01*
X144573104Y-120888745D01*
X144393858Y-120908940D01*
X144393853Y-120908941D01*
X144223584Y-120968521D01*
X144070845Y-121064494D01*
X143943292Y-121192047D01*
X143847319Y-121344786D01*
X143787739Y-121515055D01*
X143787738Y-121515060D01*
X143767543Y-121694306D01*
X142324787Y-121694306D01*
X142382125Y-121674243D01*
X142534865Y-121578270D01*
X142662419Y-121450716D01*
X142758392Y-121297976D01*
X142817971Y-121127709D01*
X142821770Y-121093991D01*
X142838168Y-120948457D01*
X142838168Y-120948450D01*
X142817972Y-120769204D01*
X142817971Y-120769199D01*
X142758391Y-120598930D01*
X142719185Y-120536534D01*
X142662419Y-120446192D01*
X142534865Y-120318638D01*
X142382126Y-120222665D01*
X142211857Y-120163085D01*
X142211852Y-120163084D01*
X142032607Y-120142889D01*
X142032599Y-120142889D01*
X141853353Y-120163084D01*
X141853348Y-120163085D01*
X141683079Y-120222665D01*
X141530340Y-120318638D01*
X141402787Y-120446191D01*
X141306813Y-120598932D01*
X141247233Y-120769204D01*
X141237440Y-120856121D01*
X141210373Y-120920535D01*
X141201902Y-120929918D01*
X141140513Y-120991306D01*
X141068785Y-121063035D01*
X141068784Y-121063036D01*
X141061718Y-121070103D01*
X141061717Y-121070103D01*
X141061714Y-121070105D01*
X141061715Y-121070106D01*
X140956978Y-121174842D01*
X140926643Y-121227386D01*
X140917630Y-121242998D01*
X140877923Y-121311772D01*
X140836999Y-121464500D01*
X140836999Y-121464502D01*
X140836999Y-121617589D01*
X140817314Y-121684628D01*
X140809945Y-121694903D01*
X140807684Y-121697737D01*
X140711711Y-121850476D01*
X140652131Y-122020745D01*
X140652130Y-122020750D01*
X140631935Y-122199996D01*
X134000500Y-122199996D01*
X134000500Y-120068995D01*
X136499499Y-120068995D01*
X136526418Y-120204322D01*
X136526421Y-120204332D01*
X136579221Y-120331804D01*
X136579228Y-120331817D01*
X136655885Y-120446541D01*
X136655888Y-120446545D01*
X136753454Y-120544111D01*
X136753458Y-120544114D01*
X136868182Y-120620771D01*
X136868195Y-120620778D01*
X136995667Y-120673578D01*
X136995672Y-120673580D01*
X136995676Y-120673580D01*
X136995677Y-120673581D01*
X137131004Y-120700500D01*
X137131007Y-120700500D01*
X137268995Y-120700500D01*
X137360041Y-120682389D01*
X137404328Y-120673580D01*
X137531811Y-120620775D01*
X137646542Y-120544114D01*
X137744114Y-120446542D01*
X137820775Y-120331811D01*
X137873580Y-120204328D01*
X137900500Y-120068993D01*
X137900500Y-119931007D01*
X137900500Y-119931004D01*
X137873581Y-119795677D01*
X137873580Y-119795676D01*
X137873580Y-119795672D01*
X137873578Y-119795667D01*
X137820778Y-119668195D01*
X137820771Y-119668182D01*
X137744114Y-119553458D01*
X137744111Y-119553454D01*
X137646545Y-119455888D01*
X137646541Y-119455885D01*
X137531817Y-119379228D01*
X137531804Y-119379221D01*
X137404332Y-119326421D01*
X137404322Y-119326418D01*
X137268995Y-119299500D01*
X137268993Y-119299500D01*
X137131007Y-119299500D01*
X137131005Y-119299500D01*
X136995677Y-119326418D01*
X136995667Y-119326421D01*
X136868195Y-119379221D01*
X136868182Y-119379228D01*
X136753458Y-119455885D01*
X136753454Y-119455888D01*
X136655888Y-119553454D01*
X136655885Y-119553458D01*
X136579228Y-119668182D01*
X136579221Y-119668195D01*
X136526421Y-119795667D01*
X136526418Y-119795677D01*
X136499500Y-119931004D01*
X136499500Y-119931007D01*
X136499500Y-120068993D01*
X136499500Y-120068995D01*
X136499499Y-120068995D01*
X134000500Y-120068995D01*
X134000500Y-114869983D01*
X180404500Y-114869983D01*
X180404500Y-116210001D01*
X180404501Y-116210018D01*
X180415000Y-116312796D01*
X180415001Y-116312799D01*
X180470185Y-116479331D01*
X180470186Y-116479334D01*
X180562288Y-116628656D01*
X180686344Y-116752712D01*
X180835666Y-116844814D01*
X181002203Y-116899999D01*
X181104991Y-116910500D01*
X182895008Y-116910499D01*
X182997797Y-116899999D01*
X183164334Y-116844814D01*
X183313656Y-116752712D01*
X183437712Y-116628656D01*
X183529814Y-116479334D01*
X183584999Y-116312797D01*
X183595500Y-116210009D01*
X183595499Y-114869992D01*
X183584999Y-114767203D01*
X183529814Y-114600666D01*
X183437712Y-114451344D01*
X183313656Y-114327288D01*
X183164334Y-114235186D01*
X183164332Y-114235185D01*
X183164325Y-114235181D01*
X183163165Y-114234640D01*
X183162503Y-114234057D01*
X183158187Y-114231395D01*
X183158642Y-114230657D01*
X183110727Y-114188466D01*
X183091577Y-114121272D01*
X183111795Y-114054392D01*
X183127892Y-114034578D01*
X183269977Y-113892493D01*
X183396728Y-113718036D01*
X183494627Y-113525901D01*
X183561266Y-113320809D01*
X183572481Y-113250000D01*
X182542709Y-113250000D01*
X182554452Y-113229661D01*
X182595000Y-113078333D01*
X182595000Y-112921667D01*
X182554452Y-112770339D01*
X182542709Y-112750000D01*
X183572481Y-112750000D01*
X183561266Y-112679190D01*
X183494627Y-112474098D01*
X183396728Y-112281963D01*
X183269974Y-112107503D01*
X183269974Y-112107502D01*
X183117497Y-111955025D01*
X182943036Y-111828271D01*
X182750901Y-111730372D01*
X182545809Y-111663734D01*
X182332820Y-111630000D01*
X182250000Y-111630000D01*
X182250000Y-112457290D01*
X182229661Y-112445548D01*
X182078333Y-112405000D01*
X181921667Y-112405000D01*
X181770339Y-112445548D01*
X181750000Y-112457290D01*
X181750000Y-111630000D01*
X181667180Y-111630000D01*
X181454190Y-111663734D01*
X181249098Y-111730372D01*
X181056963Y-111828271D01*
X180882503Y-111955025D01*
X180882502Y-111955025D01*
X180730025Y-112107502D01*
X180730025Y-112107503D01*
X180603271Y-112281963D01*
X180505372Y-112474098D01*
X180438733Y-112679190D01*
X180427519Y-112750000D01*
X181457291Y-112750000D01*
X181445548Y-112770339D01*
X181405000Y-112921667D01*
X181405000Y-113078333D01*
X181445548Y-113229661D01*
X181457291Y-113250000D01*
X180427519Y-113250000D01*
X180438733Y-113320809D01*
X180505372Y-113525901D01*
X180603271Y-113718036D01*
X180730025Y-113892496D01*
X180730025Y-113892497D01*
X180872107Y-114034579D01*
X180905592Y-114095902D01*
X180900608Y-114165594D01*
X180858736Y-114221527D01*
X180836840Y-114234638D01*
X180835672Y-114235182D01*
X180686342Y-114327289D01*
X180562289Y-114451342D01*
X180470187Y-114600663D01*
X180470186Y-114600666D01*
X180415001Y-114767203D01*
X180415001Y-114767204D01*
X180415000Y-114767204D01*
X180404500Y-114869983D01*
X134000500Y-114869983D01*
X134000500Y-113248452D01*
X144145979Y-113248452D01*
X144145979Y-113248459D01*
X144166174Y-113427705D01*
X144166175Y-113427710D01*
X144225755Y-113597979D01*
X144321728Y-113750718D01*
X144449282Y-113878272D01*
X144602022Y-113974245D01*
X144772289Y-114033824D01*
X144772294Y-114033825D01*
X144951540Y-114054021D01*
X144951544Y-114054021D01*
X144951548Y-114054021D01*
X145130793Y-114033825D01*
X145130796Y-114033824D01*
X145130799Y-114033824D01*
X145301066Y-113974245D01*
X145453806Y-113878272D01*
X145581360Y-113750718D01*
X145677333Y-113597978D01*
X145736912Y-113427711D01*
X145757109Y-113248456D01*
X145754991Y-113229661D01*
X145736913Y-113069206D01*
X145736912Y-113069201D01*
X145677333Y-112898934D01*
X145581360Y-112746194D01*
X145551863Y-112716697D01*
X145518378Y-112655374D01*
X145515544Y-112629016D01*
X145515544Y-112368713D01*
X145535229Y-112301674D01*
X145551863Y-112281032D01*
X145557716Y-112275179D01*
X145621133Y-112211762D01*
X145717106Y-112059022D01*
X145776685Y-111888755D01*
X145783500Y-111828271D01*
X145796882Y-111709503D01*
X145796882Y-111709496D01*
X145776686Y-111530250D01*
X145776685Y-111530245D01*
X145717105Y-111359976D01*
X145621132Y-111207237D01*
X145493579Y-111079684D01*
X145340840Y-110983711D01*
X145170571Y-110924131D01*
X145170566Y-110924130D01*
X144991321Y-110903935D01*
X144991313Y-110903935D01*
X144812067Y-110924130D01*
X144812062Y-110924131D01*
X144641793Y-110983711D01*
X144489054Y-111079684D01*
X144361501Y-111207237D01*
X144265528Y-111359976D01*
X144205948Y-111530245D01*
X144205947Y-111530250D01*
X144185752Y-111709496D01*
X144185752Y-111709503D01*
X144205947Y-111888749D01*
X144205948Y-111888754D01*
X144265528Y-112059023D01*
X144365206Y-112217658D01*
X144363780Y-112218553D01*
X144386899Y-112275179D01*
X144387544Y-112287808D01*
X144387544Y-112629016D01*
X144367859Y-112696055D01*
X144351225Y-112716697D01*
X144321728Y-112746193D01*
X144225755Y-112898932D01*
X144166175Y-113069201D01*
X144166174Y-113069206D01*
X144145979Y-113248452D01*
X134000500Y-113248452D01*
X134000500Y-101340730D01*
X134020185Y-101273691D01*
X134072989Y-101227936D01*
X134142147Y-101217992D01*
X134205703Y-101247017D01*
X134212181Y-101253049D01*
X135936181Y-102977049D01*
X135969666Y-103038372D01*
X135972500Y-103064730D01*
X135972500Y-103107665D01*
X135982853Y-103146304D01*
X135982854Y-103146304D01*
X136010935Y-103251106D01*
X136085187Y-103379714D01*
X136085189Y-103379716D01*
X136197261Y-103491788D01*
X136197266Y-103491792D01*
X139806786Y-107101313D01*
X139806787Y-107101314D01*
X139806789Y-107101315D01*
X139935390Y-107175563D01*
X139935391Y-107175563D01*
X139935394Y-107175565D01*
X140078838Y-107214001D01*
X140078841Y-107214001D01*
X140234939Y-107214001D01*
X140234955Y-107214000D01*
X140980560Y-107214000D01*
X141047599Y-107233685D01*
X141068241Y-107250319D01*
X141097738Y-107279816D01*
X141250478Y-107375789D01*
X141420745Y-107435368D01*
X141489384Y-107443101D01*
X141553796Y-107470166D01*
X141593352Y-107527760D01*
X141599500Y-107566321D01*
X141599500Y-107999902D01*
X141579815Y-108066941D01*
X141563181Y-108087583D01*
X140881465Y-108769298D01*
X140820142Y-108802783D01*
X140807668Y-108804837D01*
X140720750Y-108814630D01*
X140550478Y-108874210D01*
X140397737Y-108970184D01*
X140270184Y-109097737D01*
X140174211Y-109250476D01*
X140114631Y-109420745D01*
X140114630Y-109420750D01*
X140094435Y-109599996D01*
X140094435Y-109600003D01*
X140114630Y-109779249D01*
X140114631Y-109779254D01*
X140174211Y-109949523D01*
X140270184Y-110102262D01*
X140397738Y-110229816D01*
X140550478Y-110325789D01*
X140720745Y-110385368D01*
X140720750Y-110385369D01*
X140899996Y-110405565D01*
X140900000Y-110405565D01*
X140900004Y-110405565D01*
X141079249Y-110385369D01*
X141079252Y-110385368D01*
X141079255Y-110385368D01*
X141249522Y-110325789D01*
X141402262Y-110229816D01*
X141529816Y-110102262D01*
X141625789Y-109949522D01*
X141685368Y-109779255D01*
X141695161Y-109692329D01*
X141722226Y-109627918D01*
X141730690Y-109618543D01*
X142680520Y-108668716D01*
X142759577Y-108531784D01*
X142800501Y-108379057D01*
X142800501Y-108220942D01*
X142800501Y-108213347D01*
X142800500Y-108213329D01*
X142800500Y-102520942D01*
X142796990Y-102507845D01*
X142796989Y-102507841D01*
X142761585Y-102375711D01*
X142759577Y-102368216D01*
X142720513Y-102300555D01*
X142680522Y-102231287D01*
X142680521Y-102231286D01*
X142680520Y-102231284D01*
X142568716Y-102119480D01*
X142568715Y-102119479D01*
X142564385Y-102115149D01*
X142564374Y-102115139D01*
X141136819Y-100687584D01*
X141103334Y-100626261D01*
X141100500Y-100599903D01*
X141100500Y-100401456D01*
X141062052Y-100208170D01*
X141062051Y-100208169D01*
X141062051Y-100208165D01*
X141062049Y-100208160D01*
X140986635Y-100026092D01*
X140986628Y-100026079D01*
X140877139Y-99862218D01*
X140877136Y-99862214D01*
X140737785Y-99722863D01*
X140737781Y-99722860D01*
X140573920Y-99613371D01*
X140573907Y-99613364D01*
X140391839Y-99537950D01*
X140391829Y-99537947D01*
X140198543Y-99499500D01*
X140198541Y-99499500D01*
X138997114Y-99499500D01*
X138930075Y-99479815D01*
X138884320Y-99427011D01*
X138874376Y-99357853D01*
X138903401Y-99294297D01*
X138956160Y-99258458D01*
X138992531Y-99245730D01*
X139049522Y-99225789D01*
X139202262Y-99129816D01*
X139231759Y-99100319D01*
X139293082Y-99066834D01*
X139319440Y-99064000D01*
X139674251Y-99064000D01*
X139674253Y-99064000D01*
X139817696Y-99025565D01*
X139946304Y-98951313D01*
X140051313Y-98846304D01*
X140051313Y-98846302D01*
X140061517Y-98836099D01*
X140061520Y-98836094D01*
X143897620Y-94999996D01*
X147194435Y-94999996D01*
X147194435Y-95000003D01*
X147214630Y-95179249D01*
X147214631Y-95179254D01*
X147274211Y-95349523D01*
X147339782Y-95453878D01*
X147370184Y-95502262D01*
X147497738Y-95629816D01*
X147650478Y-95725789D01*
X147724739Y-95751774D01*
X147820745Y-95785368D01*
X147820750Y-95785369D01*
X147999996Y-95805565D01*
X148000000Y-95805565D01*
X148000004Y-95805565D01*
X148179249Y-95785369D01*
X148179252Y-95785368D01*
X148179255Y-95785368D01*
X148349522Y-95725789D01*
X148502262Y-95629816D01*
X148629816Y-95502262D01*
X148725789Y-95349522D01*
X148785368Y-95179255D01*
X148785594Y-95177246D01*
X148785948Y-95174112D01*
X148813017Y-95109699D01*
X148870613Y-95070146D01*
X148909168Y-95064000D01*
X153680560Y-95064000D01*
X153747599Y-95083685D01*
X153768241Y-95100319D01*
X153797738Y-95129816D01*
X153855073Y-95165842D01*
X153920804Y-95207144D01*
X153950478Y-95225789D01*
X154096351Y-95276832D01*
X154120745Y-95285368D01*
X154120750Y-95285369D01*
X154299996Y-95305565D01*
X154300000Y-95305565D01*
X154300004Y-95305565D01*
X154479249Y-95285369D01*
X154479252Y-95285368D01*
X154479255Y-95285368D01*
X154649522Y-95225789D01*
X154802262Y-95129816D01*
X154929816Y-95002262D01*
X155025789Y-94849522D01*
X155085368Y-94679255D01*
X155085369Y-94679249D01*
X155105565Y-94500003D01*
X155105565Y-94499996D01*
X155085369Y-94320750D01*
X155085368Y-94320745D01*
X155069085Y-94274211D01*
X155025789Y-94150478D01*
X154929816Y-93997738D01*
X154802262Y-93870184D01*
X154741109Y-93831759D01*
X154649523Y-93774211D01*
X154479254Y-93714631D01*
X154479249Y-93714630D01*
X154300004Y-93694435D01*
X154299996Y-93694435D01*
X154120750Y-93714630D01*
X154120745Y-93714631D01*
X153950476Y-93774211D01*
X153797737Y-93870184D01*
X153768241Y-93899681D01*
X153706918Y-93933166D01*
X153680560Y-93936000D01*
X148581865Y-93936000D01*
X148581849Y-93935999D01*
X148574253Y-93935999D01*
X148425748Y-93935999D01*
X148298168Y-93970184D01*
X148298167Y-93970183D01*
X148282303Y-93974434D01*
X148282300Y-93974436D01*
X148153699Y-94048684D01*
X148153693Y-94048689D01*
X148048685Y-94153698D01*
X148048680Y-94153703D01*
X148039634Y-94162748D01*
X147978309Y-94196230D01*
X147965842Y-94198282D01*
X147820749Y-94214630D01*
X147820745Y-94214631D01*
X147650476Y-94274211D01*
X147497737Y-94370184D01*
X147370184Y-94497737D01*
X147274211Y-94650476D01*
X147214631Y-94820745D01*
X147214630Y-94820750D01*
X147194435Y-94999996D01*
X143897620Y-94999996D01*
X144851312Y-94046304D01*
X149236094Y-89661520D01*
X149236099Y-89661517D01*
X149246302Y-89651313D01*
X149246304Y-89651313D01*
X149351313Y-89546304D01*
X149425565Y-89417696D01*
X149439337Y-89366298D01*
X149464000Y-89274253D01*
X149464000Y-89125747D01*
X149464000Y-80719440D01*
X149483685Y-80652401D01*
X149500319Y-80631759D01*
X149513745Y-80618333D01*
X149529816Y-80602262D01*
X149625789Y-80449522D01*
X149685368Y-80279255D01*
X149698970Y-80158532D01*
X149705565Y-80100003D01*
X149705565Y-80099996D01*
X149685369Y-79920750D01*
X149685368Y-79920745D01*
X149642326Y-79797738D01*
X149625789Y-79750478D01*
X149529816Y-79597738D01*
X149402262Y-79470184D01*
X149249523Y-79374211D01*
X149079254Y-79314631D01*
X149079249Y-79314630D01*
X148900004Y-79294435D01*
X148899996Y-79294435D01*
X148720750Y-79314630D01*
X148720745Y-79314631D01*
X148550476Y-79374211D01*
X148397737Y-79470184D01*
X148270184Y-79597737D01*
X148174211Y-79750476D01*
X148114631Y-79920745D01*
X148114630Y-79920750D01*
X148094435Y-80099996D01*
X148094435Y-80100003D01*
X148114630Y-80279249D01*
X148114631Y-80279254D01*
X148174211Y-80449523D01*
X148270184Y-80602262D01*
X148299681Y-80631759D01*
X148333166Y-80693082D01*
X148336000Y-80719440D01*
X148336000Y-88915022D01*
X148316315Y-88982061D01*
X148299681Y-89002703D01*
X139404912Y-97897472D01*
X139343589Y-97930957D01*
X139273897Y-97925973D01*
X139229550Y-97897472D01*
X139202262Y-97870184D01*
X139049523Y-97774211D01*
X138879254Y-97714631D01*
X138879249Y-97714630D01*
X138700004Y-97694435D01*
X138699996Y-97694435D01*
X138520750Y-97714630D01*
X138520745Y-97714631D01*
X138350476Y-97774211D01*
X138197737Y-97870184D01*
X138070182Y-97997739D01*
X138008270Y-98096272D01*
X137955936Y-98142562D01*
X137886882Y-98153210D01*
X137823034Y-98124835D01*
X137815596Y-98117980D01*
X137154319Y-97456703D01*
X137120834Y-97395380D01*
X137118000Y-97369022D01*
X137118000Y-90591660D01*
X138754392Y-90591660D01*
X138754392Y-90591661D01*
X138768192Y-90600333D01*
X138768191Y-90600333D01*
X138938361Y-90659878D01*
X139117497Y-90680062D01*
X139117503Y-90680062D01*
X139296638Y-90659878D01*
X139296641Y-90659877D01*
X139466805Y-90600334D01*
X139466806Y-90600334D01*
X139480606Y-90591661D01*
X139480606Y-90591660D01*
X140279392Y-90591660D01*
X140279392Y-90591661D01*
X140293192Y-90600333D01*
X140293191Y-90600333D01*
X140463361Y-90659878D01*
X140642497Y-90680062D01*
X140642503Y-90680062D01*
X140821638Y-90659878D01*
X140821641Y-90659877D01*
X140991805Y-90600334D01*
X140991806Y-90600334D01*
X141005606Y-90591661D01*
X141005606Y-90591660D01*
X140642501Y-90228553D01*
X140642500Y-90228553D01*
X140279392Y-90591660D01*
X139480606Y-90591660D01*
X139117501Y-90228553D01*
X139117500Y-90228553D01*
X138754392Y-90591660D01*
X137118000Y-90591660D01*
X137118000Y-89829160D01*
X137991892Y-89829160D01*
X137991892Y-89829161D01*
X138005692Y-89837833D01*
X138005691Y-89837833D01*
X138175861Y-89897378D01*
X138218482Y-89902180D01*
X138282896Y-89929246D01*
X138322451Y-89986840D01*
X138327819Y-90011515D01*
X138332621Y-90054138D01*
X138392165Y-90224304D01*
X138400838Y-90238107D01*
X138763946Y-89875000D01*
X138744055Y-89855109D01*
X139017500Y-89855109D01*
X139017500Y-89894891D01*
X139032724Y-89931645D01*
X139060855Y-89959776D01*
X139097609Y-89975000D01*
X139137391Y-89975000D01*
X139174145Y-89959776D01*
X139202276Y-89931645D01*
X139217500Y-89894891D01*
X139217500Y-89874999D01*
X139471053Y-89874999D01*
X139471053Y-89875000D01*
X139834160Y-90238106D01*
X139866122Y-90234506D01*
X139893885Y-90234507D01*
X139925838Y-90238107D01*
X140288946Y-89875000D01*
X140269055Y-89855109D01*
X140542500Y-89855109D01*
X140542500Y-89894891D01*
X140557724Y-89931645D01*
X140585855Y-89959776D01*
X140622609Y-89975000D01*
X140662391Y-89975000D01*
X140699145Y-89959776D01*
X140727276Y-89931645D01*
X140742500Y-89894891D01*
X140742500Y-89875000D01*
X140996053Y-89875000D01*
X141359160Y-90238106D01*
X141359161Y-90238106D01*
X141367834Y-90224306D01*
X141367834Y-90224305D01*
X141427378Y-90054139D01*
X141432180Y-90011518D01*
X141459246Y-89947103D01*
X141516840Y-89907548D01*
X141541518Y-89902180D01*
X141584139Y-89897378D01*
X141754305Y-89837834D01*
X141754306Y-89837834D01*
X141768106Y-89829161D01*
X141768106Y-89829160D01*
X141405000Y-89466053D01*
X141349608Y-89521446D01*
X141349607Y-89521447D01*
X140996053Y-89875000D01*
X140742500Y-89875000D01*
X140742500Y-89855109D01*
X140727276Y-89818355D01*
X140699145Y-89790224D01*
X140662391Y-89775000D01*
X140622609Y-89775000D01*
X140585855Y-89790224D01*
X140557724Y-89818355D01*
X140542500Y-89855109D01*
X140269055Y-89855109D01*
X139935392Y-89521446D01*
X139880000Y-89466053D01*
X139824608Y-89521446D01*
X139824607Y-89521447D01*
X139471053Y-89874999D01*
X139217500Y-89874999D01*
X139217500Y-89855109D01*
X139202276Y-89818355D01*
X139174145Y-89790224D01*
X139137391Y-89775000D01*
X139097609Y-89775000D01*
X139060855Y-89790224D01*
X139032724Y-89818355D01*
X139017500Y-89855109D01*
X138744055Y-89855109D01*
X138354999Y-89466053D01*
X138354998Y-89466053D01*
X137991892Y-89829160D01*
X137118000Y-89829160D01*
X137118000Y-89112497D01*
X137549938Y-89112497D01*
X137549938Y-89112502D01*
X137570121Y-89291638D01*
X137629665Y-89461804D01*
X137638338Y-89475607D01*
X138001446Y-89112500D01*
X138001446Y-89112499D01*
X137981556Y-89092609D01*
X138255000Y-89092609D01*
X138255000Y-89132391D01*
X138270224Y-89169145D01*
X138298355Y-89197276D01*
X138335109Y-89212500D01*
X138374891Y-89212500D01*
X138411645Y-89197276D01*
X138439776Y-89169145D01*
X138455000Y-89132391D01*
X138455000Y-89112500D01*
X138708553Y-89112500D01*
X138767066Y-89171012D01*
X139117500Y-89521446D01*
X139526446Y-89112500D01*
X139506555Y-89092609D01*
X139780000Y-89092609D01*
X139780000Y-89132391D01*
X139795224Y-89169145D01*
X139823355Y-89197276D01*
X139860109Y-89212500D01*
X139899891Y-89212500D01*
X139936645Y-89197276D01*
X139964776Y-89169145D01*
X139980000Y-89132391D01*
X139980000Y-89112500D01*
X140233553Y-89112500D01*
X140292066Y-89171012D01*
X140642500Y-89521446D01*
X141051446Y-89112500D01*
X141031555Y-89092609D01*
X141305000Y-89092609D01*
X141305000Y-89132391D01*
X141320224Y-89169145D01*
X141348355Y-89197276D01*
X141385109Y-89212500D01*
X141424891Y-89212500D01*
X141461645Y-89197276D01*
X141489776Y-89169145D01*
X141505000Y-89132391D01*
X141505000Y-89112500D01*
X141758553Y-89112500D01*
X142121660Y-89475606D01*
X142121661Y-89475606D01*
X142130334Y-89461806D01*
X142130334Y-89461805D01*
X142189877Y-89291641D01*
X142189878Y-89291638D01*
X142210062Y-89112502D01*
X142210062Y-89112497D01*
X142189878Y-88933361D01*
X142130333Y-88763192D01*
X142121661Y-88749392D01*
X142121660Y-88749392D01*
X141758553Y-89112500D01*
X141505000Y-89112500D01*
X141505000Y-89092609D01*
X141489776Y-89055855D01*
X141461645Y-89027724D01*
X141424891Y-89012500D01*
X141385109Y-89012500D01*
X141348355Y-89027724D01*
X141320224Y-89055855D01*
X141305000Y-89092609D01*
X141031555Y-89092609D01*
X140697892Y-88758946D01*
X140642500Y-88703553D01*
X140587108Y-88758946D01*
X140587107Y-88758947D01*
X140233553Y-89112500D01*
X139980000Y-89112500D01*
X139980000Y-89092609D01*
X139964776Y-89055855D01*
X139936645Y-89027724D01*
X139899891Y-89012500D01*
X139860109Y-89012500D01*
X139823355Y-89027724D01*
X139795224Y-89055855D01*
X139780000Y-89092609D01*
X139506555Y-89092609D01*
X139172892Y-88758946D01*
X139117500Y-88703553D01*
X139062108Y-88758946D01*
X139062107Y-88758947D01*
X138708553Y-89112500D01*
X138455000Y-89112500D01*
X138455000Y-89092609D01*
X138439776Y-89055855D01*
X138411645Y-89027724D01*
X138374891Y-89012500D01*
X138335109Y-89012500D01*
X138298355Y-89027724D01*
X138270224Y-89055855D01*
X138255000Y-89092609D01*
X137981556Y-89092609D01*
X137638338Y-88749391D01*
X137638337Y-88749391D01*
X137629667Y-88763191D01*
X137629662Y-88763201D01*
X137570122Y-88933358D01*
X137570121Y-88933361D01*
X137549938Y-89112497D01*
X137118000Y-89112497D01*
X137118000Y-88395838D01*
X137991891Y-88395838D01*
X138354998Y-88758946D01*
X138354999Y-88758946D01*
X138726782Y-88387164D01*
X138763946Y-88350000D01*
X138744055Y-88330109D01*
X139017500Y-88330109D01*
X139017500Y-88369891D01*
X139032724Y-88406645D01*
X139060855Y-88434776D01*
X139097609Y-88450000D01*
X139137391Y-88450000D01*
X139174145Y-88434776D01*
X139202276Y-88406645D01*
X139217500Y-88369891D01*
X139217500Y-88350000D01*
X139471053Y-88350000D01*
X139508217Y-88387163D01*
X139880000Y-88758946D01*
X140288946Y-88350000D01*
X140269055Y-88330109D01*
X140542500Y-88330109D01*
X140542500Y-88369891D01*
X140557724Y-88406645D01*
X140585855Y-88434776D01*
X140622609Y-88450000D01*
X140662391Y-88450000D01*
X140699145Y-88434776D01*
X140727276Y-88406645D01*
X140742500Y-88369891D01*
X140742500Y-88350000D01*
X140996053Y-88350000D01*
X141033217Y-88387163D01*
X141405000Y-88758946D01*
X141405001Y-88758946D01*
X141768107Y-88395838D01*
X141764507Y-88363885D01*
X141764506Y-88336122D01*
X141768106Y-88304160D01*
X141405000Y-87941053D01*
X141349608Y-87996446D01*
X141349607Y-87996447D01*
X140996053Y-88350000D01*
X140742500Y-88350000D01*
X140742500Y-88330109D01*
X140727276Y-88293355D01*
X140699145Y-88265224D01*
X140662391Y-88250000D01*
X140622609Y-88250000D01*
X140585855Y-88265224D01*
X140557724Y-88293355D01*
X140542500Y-88330109D01*
X140269055Y-88330109D01*
X139935392Y-87996446D01*
X139880000Y-87941053D01*
X139824608Y-87996446D01*
X139824607Y-87996447D01*
X139471053Y-88350000D01*
X139217500Y-88350000D01*
X139217500Y-88330109D01*
X139202276Y-88293355D01*
X139174145Y-88265224D01*
X139137391Y-88250000D01*
X139097609Y-88250000D01*
X139060855Y-88265224D01*
X139032724Y-88293355D01*
X139017500Y-88330109D01*
X138744055Y-88330109D01*
X138354999Y-87941053D01*
X138354998Y-87941053D01*
X137991892Y-88304160D01*
X137995493Y-88336119D01*
X137995492Y-88363884D01*
X137991891Y-88395838D01*
X137118000Y-88395838D01*
X137118000Y-87587497D01*
X137549938Y-87587497D01*
X137549938Y-87587502D01*
X137570121Y-87766638D01*
X137629665Y-87936804D01*
X137638338Y-87950607D01*
X138001446Y-87587500D01*
X138001446Y-87587499D01*
X137981556Y-87567609D01*
X138255000Y-87567609D01*
X138255000Y-87607391D01*
X138270224Y-87644145D01*
X138298355Y-87672276D01*
X138335109Y-87687500D01*
X138374891Y-87687500D01*
X138411645Y-87672276D01*
X138439776Y-87644145D01*
X138455000Y-87607391D01*
X138455000Y-87587499D01*
X138708553Y-87587499D01*
X138708553Y-87587500D01*
X138874948Y-87753895D01*
X138874963Y-87753909D01*
X139117500Y-87996446D01*
X139526446Y-87587500D01*
X139506555Y-87567609D01*
X139780000Y-87567609D01*
X139780000Y-87607391D01*
X139795224Y-87644145D01*
X139823355Y-87672276D01*
X139860109Y-87687500D01*
X139899891Y-87687500D01*
X139936645Y-87672276D01*
X139964776Y-87644145D01*
X139980000Y-87607391D01*
X139980000Y-87587499D01*
X140233553Y-87587499D01*
X140233553Y-87587500D01*
X140399948Y-87753895D01*
X140399963Y-87753909D01*
X140642500Y-87996446D01*
X141051446Y-87587500D01*
X141031555Y-87567609D01*
X141305000Y-87567609D01*
X141305000Y-87607391D01*
X141320224Y-87644145D01*
X141348355Y-87672276D01*
X141385109Y-87687500D01*
X141424891Y-87687500D01*
X141461645Y-87672276D01*
X141489776Y-87644145D01*
X141505000Y-87607391D01*
X141505000Y-87587500D01*
X141758553Y-87587500D01*
X142121660Y-87950606D01*
X142121661Y-87950606D01*
X142130334Y-87936806D01*
X142130334Y-87936805D01*
X142189877Y-87766641D01*
X142189878Y-87766638D01*
X142210062Y-87587502D01*
X142210062Y-87587497D01*
X142189878Y-87408361D01*
X142130333Y-87238192D01*
X142121661Y-87224392D01*
X142121660Y-87224392D01*
X141758553Y-87587500D01*
X141505000Y-87587500D01*
X141505000Y-87567609D01*
X141489776Y-87530855D01*
X141461645Y-87502724D01*
X141424891Y-87487500D01*
X141385109Y-87487500D01*
X141348355Y-87502724D01*
X141320224Y-87530855D01*
X141305000Y-87567609D01*
X141031555Y-87567609D01*
X140697892Y-87233946D01*
X140642500Y-87178553D01*
X140587108Y-87233946D01*
X140587107Y-87233947D01*
X140233553Y-87587499D01*
X139980000Y-87587499D01*
X139980000Y-87567609D01*
X139964776Y-87530855D01*
X139936645Y-87502724D01*
X139899891Y-87487500D01*
X139860109Y-87487500D01*
X139823355Y-87502724D01*
X139795224Y-87530855D01*
X139780000Y-87567609D01*
X139506555Y-87567609D01*
X139172892Y-87233946D01*
X139117500Y-87178553D01*
X139062108Y-87233946D01*
X139062107Y-87233947D01*
X138708553Y-87587499D01*
X138455000Y-87587499D01*
X138455000Y-87567609D01*
X138439776Y-87530855D01*
X138411645Y-87502724D01*
X138374891Y-87487500D01*
X138335109Y-87487500D01*
X138298355Y-87502724D01*
X138270224Y-87530855D01*
X138255000Y-87567609D01*
X137981556Y-87567609D01*
X137638338Y-87224391D01*
X137638337Y-87224391D01*
X137629667Y-87238191D01*
X137629662Y-87238201D01*
X137570122Y-87408358D01*
X137570121Y-87408361D01*
X137549938Y-87587497D01*
X137118000Y-87587497D01*
X137118000Y-86870837D01*
X137991891Y-86870837D01*
X137991891Y-86870838D01*
X138354998Y-87233946D01*
X138354999Y-87233946D01*
X138726783Y-86862164D01*
X138763946Y-86824999D01*
X138763946Y-86824998D01*
X138744057Y-86805109D01*
X139017500Y-86805109D01*
X139017500Y-86844891D01*
X139032724Y-86881645D01*
X139060855Y-86909776D01*
X139097609Y-86925000D01*
X139137391Y-86925000D01*
X139174145Y-86909776D01*
X139202276Y-86881645D01*
X139217500Y-86844891D01*
X139217500Y-86824998D01*
X139471053Y-86824998D01*
X139471053Y-86824999D01*
X139880000Y-87233946D01*
X140251783Y-86862164D01*
X140288946Y-86824999D01*
X140288946Y-86824998D01*
X140269057Y-86805109D01*
X140542500Y-86805109D01*
X140542500Y-86844891D01*
X140557724Y-86881645D01*
X140585855Y-86909776D01*
X140622609Y-86925000D01*
X140662391Y-86925000D01*
X140699145Y-86909776D01*
X140727276Y-86881645D01*
X140742500Y-86844891D01*
X140742500Y-86824998D01*
X140996053Y-86824998D01*
X140996053Y-86824999D01*
X141405000Y-87233946D01*
X141405001Y-87233946D01*
X141768107Y-86870838D01*
X141754304Y-86862165D01*
X141584138Y-86802621D01*
X141541515Y-86797819D01*
X141477102Y-86770752D01*
X141437547Y-86713157D01*
X141432180Y-86688482D01*
X141427378Y-86645861D01*
X141367833Y-86475692D01*
X141359161Y-86461892D01*
X141359160Y-86461892D01*
X140996053Y-86824998D01*
X140742500Y-86824998D01*
X140742500Y-86805109D01*
X140727276Y-86768355D01*
X140699145Y-86740224D01*
X140662391Y-86725000D01*
X140622609Y-86725000D01*
X140585855Y-86740224D01*
X140557724Y-86768355D01*
X140542500Y-86805109D01*
X140269057Y-86805109D01*
X139925837Y-86461890D01*
X139893885Y-86465491D01*
X139866122Y-86465492D01*
X139834160Y-86461891D01*
X139471053Y-86824998D01*
X139217500Y-86824998D01*
X139217500Y-86805109D01*
X139202276Y-86768355D01*
X139174145Y-86740224D01*
X139137391Y-86725000D01*
X139097609Y-86725000D01*
X139060855Y-86740224D01*
X139032724Y-86768355D01*
X139017500Y-86805109D01*
X138744057Y-86805109D01*
X138400838Y-86461891D01*
X138400837Y-86461891D01*
X138392167Y-86475691D01*
X138392162Y-86475701D01*
X138332622Y-86645858D01*
X138327819Y-86688484D01*
X138300752Y-86752898D01*
X138243156Y-86792452D01*
X138218484Y-86797819D01*
X138175858Y-86802622D01*
X138005701Y-86862162D01*
X138005694Y-86862166D01*
X137991891Y-86870837D01*
X137118000Y-86870837D01*
X137118000Y-86108337D01*
X138754391Y-86108337D01*
X138754391Y-86108338D01*
X139117500Y-86471446D01*
X139117501Y-86471446D01*
X139480607Y-86108338D01*
X139480605Y-86108337D01*
X140279391Y-86108337D01*
X140279391Y-86108338D01*
X140642500Y-86471446D01*
X140642501Y-86471446D01*
X141005607Y-86108338D01*
X140991804Y-86099665D01*
X140821638Y-86040121D01*
X140642503Y-86019938D01*
X140642497Y-86019938D01*
X140463361Y-86040121D01*
X140463358Y-86040122D01*
X140293201Y-86099662D01*
X140293191Y-86099667D01*
X140279391Y-86108337D01*
X139480605Y-86108337D01*
X139466804Y-86099665D01*
X139296638Y-86040121D01*
X139117503Y-86019938D01*
X139117497Y-86019938D01*
X138938361Y-86040121D01*
X138938358Y-86040122D01*
X138768201Y-86099662D01*
X138768191Y-86099667D01*
X138754391Y-86108337D01*
X137118000Y-86108337D01*
X137118000Y-82430977D01*
X137137685Y-82363938D01*
X137154310Y-82343305D01*
X137260362Y-82237252D01*
X137321681Y-82203770D01*
X137334148Y-82201717D01*
X137409077Y-82193275D01*
X137479250Y-82185369D01*
X137479253Y-82185368D01*
X137479255Y-82185368D01*
X137649522Y-82125789D01*
X137802262Y-82029816D01*
X137929816Y-81902262D01*
X138025789Y-81749522D01*
X138085368Y-81579255D01*
X138105565Y-81400000D01*
X138094918Y-81305508D01*
X138085369Y-81220750D01*
X138085366Y-81220737D01*
X138025790Y-81050481D01*
X138025789Y-81050478D01*
X138022759Y-81045656D01*
X138003760Y-80978422D01*
X138024127Y-80911586D01*
X138040073Y-80892005D01*
X138082556Y-80849522D01*
X138129816Y-80802262D01*
X138225789Y-80649522D01*
X138285368Y-80479255D01*
X138305565Y-80300000D01*
X138304438Y-80290000D01*
X138285369Y-80120750D01*
X138285368Y-80120745D01*
X138265471Y-80063882D01*
X138225789Y-79950478D01*
X138214129Y-79931922D01*
X138181857Y-79880560D01*
X138129816Y-79797738D01*
X138002262Y-79670184D01*
X137849523Y-79574211D01*
X137679254Y-79514631D01*
X137679249Y-79514630D01*
X137500004Y-79494435D01*
X137499996Y-79494435D01*
X137320750Y-79514630D01*
X137320745Y-79514631D01*
X137150476Y-79574211D01*
X136997737Y-79670184D01*
X136870184Y-79797737D01*
X136774211Y-79950476D01*
X136714631Y-80120745D01*
X136714630Y-80120749D01*
X136711220Y-80151022D01*
X136684153Y-80215436D01*
X136626559Y-80254991D01*
X136556722Y-80257128D01*
X136496815Y-80221170D01*
X136465860Y-80158532D01*
X136464000Y-80137138D01*
X136464000Y-77619440D01*
X136483685Y-77552401D01*
X136500319Y-77531759D01*
X136529816Y-77502262D01*
X136625789Y-77349522D01*
X136685368Y-77179255D01*
X136685369Y-77179249D01*
X136705565Y-77000003D01*
X136705565Y-76999996D01*
X136685369Y-76820750D01*
X136685368Y-76820745D01*
X136625789Y-76650478D01*
X136529816Y-76497738D01*
X136402262Y-76370184D01*
X136313852Y-76314632D01*
X136249523Y-76274211D01*
X136079254Y-76214631D01*
X136079249Y-76214630D01*
X135900004Y-76194435D01*
X135899996Y-76194435D01*
X135720750Y-76214630D01*
X135720745Y-76214631D01*
X135550476Y-76274211D01*
X135397737Y-76370184D01*
X135270184Y-76497737D01*
X135174211Y-76650476D01*
X135114631Y-76820745D01*
X135114631Y-76820748D01*
X135111094Y-76852136D01*
X135084026Y-76916549D01*
X135026430Y-76956103D01*
X134956593Y-76958240D01*
X134896688Y-76922280D01*
X134870832Y-76879204D01*
X134850377Y-76820748D01*
X134825789Y-76750478D01*
X134729816Y-76597738D01*
X134602262Y-76470184D01*
X134449523Y-76374211D01*
X134279254Y-76314631D01*
X134279250Y-76314630D01*
X134110616Y-76295630D01*
X134046202Y-76268563D01*
X134006647Y-76210968D01*
X134000500Y-76172410D01*
X134000500Y-53748478D01*
X134020185Y-53681439D01*
X134036819Y-53660797D01*
X134356816Y-53340800D01*
X134860362Y-52837253D01*
X134921683Y-52803770D01*
X134934151Y-52801717D01*
X134999071Y-52794402D01*
X135079250Y-52785369D01*
X135079253Y-52785368D01*
X135079255Y-52785368D01*
X135249522Y-52725789D01*
X135402262Y-52629816D01*
X135431759Y-52600319D01*
X135493082Y-52566834D01*
X135519440Y-52564000D01*
X181180560Y-52564000D01*
X181247599Y-52583685D01*
X181268241Y-52600319D01*
X181297738Y-52629816D01*
X181450478Y-52725789D01*
X181620745Y-52785368D01*
X181620749Y-52785369D01*
X181721616Y-52796733D01*
X181765841Y-52801716D01*
X181830255Y-52828782D01*
X181839639Y-52837255D01*
X182758181Y-53755797D01*
X182791666Y-53817120D01*
X182794500Y-53843478D01*
X182794500Y-57573341D01*
X182774815Y-57640380D01*
X182722011Y-57686135D01*
X182652853Y-57696079D01*
X182632183Y-57691272D01*
X182545927Y-57663246D01*
X182545922Y-57663245D01*
X182332866Y-57629500D01*
X182332861Y-57629500D01*
X181667139Y-57629500D01*
X181667134Y-57629500D01*
X181454077Y-57663245D01*
X181248908Y-57729909D01*
X181056700Y-57827843D01*
X180957129Y-57900186D01*
X180882179Y-57954641D01*
X180882177Y-57954643D01*
X180882176Y-57954643D01*
X180729643Y-58107176D01*
X180729643Y-58107177D01*
X180729641Y-58107179D01*
X180675186Y-58182129D01*
X180602843Y-58281700D01*
X180504909Y-58473908D01*
X180438245Y-58679077D01*
X180404500Y-58892133D01*
X180404500Y-59107866D01*
X180438245Y-59320922D01*
X180438246Y-59320926D01*
X180504908Y-59526089D01*
X180602843Y-59718299D01*
X180729641Y-59892821D01*
X180729643Y-59892823D01*
X180871624Y-60034804D01*
X180905109Y-60096127D01*
X180900125Y-60165819D01*
X180858253Y-60221752D01*
X180836360Y-60234861D01*
X180835677Y-60235179D01*
X180686342Y-60327289D01*
X180562289Y-60451342D01*
X180470187Y-60600663D01*
X180470186Y-60600666D01*
X180415001Y-60767203D01*
X180415001Y-60767204D01*
X180415000Y-60767204D01*
X180404500Y-60869983D01*
X180404500Y-62210001D01*
X180404501Y-62210018D01*
X180415000Y-62312796D01*
X180415001Y-62312799D01*
X180470185Y-62479331D01*
X180470186Y-62479334D01*
X180562288Y-62628656D01*
X180686344Y-62752712D01*
X180835666Y-62844814D01*
X181002203Y-62899999D01*
X181104991Y-62910500D01*
X182670500Y-62910499D01*
X182737539Y-62930184D01*
X182783294Y-62982987D01*
X182794500Y-63034499D01*
X182794500Y-67033866D01*
X182774815Y-67100905D01*
X182722011Y-67146660D01*
X182652853Y-67156604D01*
X182632183Y-67151797D01*
X182545817Y-67123735D01*
X182545810Y-67123734D01*
X182332820Y-67090000D01*
X182250000Y-67090000D01*
X182250000Y-67917290D01*
X182229661Y-67905548D01*
X182078333Y-67865000D01*
X181921667Y-67865000D01*
X181770339Y-67905548D01*
X181750000Y-67917290D01*
X181750000Y-67090000D01*
X181667180Y-67090000D01*
X181454190Y-67123734D01*
X181249098Y-67190372D01*
X181056963Y-67288271D01*
X180882503Y-67415025D01*
X180882502Y-67415025D01*
X180730025Y-67567502D01*
X180730025Y-67567503D01*
X180603271Y-67741963D01*
X180505372Y-67934098D01*
X180438733Y-68139190D01*
X180427519Y-68210000D01*
X181457291Y-68210000D01*
X181445548Y-68230339D01*
X181405000Y-68381667D01*
X181405000Y-68538333D01*
X181445548Y-68689661D01*
X181457291Y-68710000D01*
X180427519Y-68710000D01*
X180438733Y-68780809D01*
X180505372Y-68985901D01*
X180603271Y-69178036D01*
X180730025Y-69352496D01*
X180730025Y-69352497D01*
X180882502Y-69504974D01*
X181053720Y-69629372D01*
X181096385Y-69684702D01*
X181102364Y-69754316D01*
X181069758Y-69816110D01*
X181053720Y-69830008D01*
X180882177Y-69954642D01*
X180729643Y-70107176D01*
X180729643Y-70107177D01*
X180729641Y-70107179D01*
X180675186Y-70182129D01*
X180602843Y-70281700D01*
X180504909Y-70473908D01*
X180438245Y-70679077D01*
X180404500Y-70892133D01*
X180404500Y-71107866D01*
X180438245Y-71320922D01*
X180438246Y-71320926D01*
X180504908Y-71526089D01*
X180602843Y-71718299D01*
X180729641Y-71892821D01*
X180729643Y-71892823D01*
X180871624Y-72034804D01*
X180905109Y-72096127D01*
X180900125Y-72165819D01*
X180858253Y-72221752D01*
X180836360Y-72234861D01*
X180835677Y-72235179D01*
X180686342Y-72327289D01*
X180562289Y-72451342D01*
X180470187Y-72600663D01*
X180470186Y-72600666D01*
X180415001Y-72767203D01*
X180415001Y-72767204D01*
X180415000Y-72767204D01*
X180404500Y-72869983D01*
X180404500Y-74210001D01*
X180404501Y-74210018D01*
X180415000Y-74312796D01*
X180415001Y-74312799D01*
X180470185Y-74479331D01*
X180470186Y-74479334D01*
X180562288Y-74628656D01*
X180686344Y-74752712D01*
X180835666Y-74844814D01*
X181002203Y-74899999D01*
X181104991Y-74910500D01*
X182670500Y-74910499D01*
X182737539Y-74930184D01*
X182783294Y-74982987D01*
X182794500Y-75034499D01*
X182794500Y-79113866D01*
X182774815Y-79180905D01*
X182722011Y-79226660D01*
X182652853Y-79236604D01*
X182632183Y-79231797D01*
X182545817Y-79203735D01*
X182545810Y-79203734D01*
X182332820Y-79170000D01*
X182250000Y-79170000D01*
X182250000Y-79997290D01*
X182229661Y-79985548D01*
X182078333Y-79945000D01*
X181921667Y-79945000D01*
X181770339Y-79985548D01*
X181750000Y-79997290D01*
X181750000Y-79170000D01*
X181667180Y-79170000D01*
X181454190Y-79203734D01*
X181249098Y-79270372D01*
X181056963Y-79368271D01*
X180882503Y-79495025D01*
X180882502Y-79495025D01*
X180730025Y-79647502D01*
X180730025Y-79647503D01*
X180603271Y-79821963D01*
X180505372Y-80014098D01*
X180438733Y-80219190D01*
X180427519Y-80290000D01*
X181457291Y-80290000D01*
X181445548Y-80310339D01*
X181405000Y-80461667D01*
X181405000Y-80618333D01*
X181445548Y-80769661D01*
X181457291Y-80790000D01*
X180427519Y-80790000D01*
X180438733Y-80860809D01*
X180505372Y-81065901D01*
X180603271Y-81258036D01*
X180730025Y-81432496D01*
X180730025Y-81432497D01*
X180882502Y-81584974D01*
X181053720Y-81709372D01*
X181096385Y-81764702D01*
X181102364Y-81834316D01*
X181069758Y-81896110D01*
X181053720Y-81910008D01*
X180882177Y-82034642D01*
X180729643Y-82187176D01*
X180729643Y-82187177D01*
X180729641Y-82187179D01*
X180717587Y-82203770D01*
X180602843Y-82361700D01*
X180504909Y-82553908D01*
X180438245Y-82759077D01*
X180404500Y-82972133D01*
X180404500Y-83187866D01*
X180438245Y-83400922D01*
X180438246Y-83400926D01*
X180504908Y-83606089D01*
X180602843Y-83798299D01*
X180729641Y-83972821D01*
X180729643Y-83972823D01*
X180871624Y-84114804D01*
X180905109Y-84176127D01*
X180900125Y-84245819D01*
X180858253Y-84301752D01*
X180836360Y-84314861D01*
X180835677Y-84315179D01*
X180686342Y-84407289D01*
X180562289Y-84531342D01*
X180470187Y-84680663D01*
X180470186Y-84680666D01*
X180415001Y-84847203D01*
X180415001Y-84847204D01*
X180415000Y-84847204D01*
X180404500Y-84949983D01*
X180404500Y-86290001D01*
X180404501Y-86290018D01*
X180415000Y-86392796D01*
X180415001Y-86392799D01*
X180470185Y-86559331D01*
X180470186Y-86559334D01*
X180562288Y-86708656D01*
X180686344Y-86832712D01*
X180835666Y-86924814D01*
X181002203Y-86979999D01*
X181104991Y-86990500D01*
X182670500Y-86990499D01*
X182737539Y-87010184D01*
X182783294Y-87062987D01*
X182794500Y-87114499D01*
X182794500Y-90573341D01*
X182774815Y-90640380D01*
X182722011Y-90686135D01*
X182652853Y-90696079D01*
X182632183Y-90691272D01*
X182545927Y-90663246D01*
X182545922Y-90663245D01*
X182332866Y-90629500D01*
X182332861Y-90629500D01*
X181667139Y-90629500D01*
X181667134Y-90629500D01*
X181454077Y-90663245D01*
X181248908Y-90729909D01*
X181056700Y-90827843D01*
X180957129Y-90900186D01*
X180882179Y-90954641D01*
X180882177Y-90954643D01*
X180882176Y-90954643D01*
X180729643Y-91107176D01*
X180729643Y-91107177D01*
X180729641Y-91107179D01*
X180675186Y-91182129D01*
X180602843Y-91281700D01*
X180504909Y-91473908D01*
X180438245Y-91679077D01*
X180404500Y-91892133D01*
X180404500Y-92107866D01*
X180438245Y-92320922D01*
X180438246Y-92320926D01*
X180504908Y-92526089D01*
X180602843Y-92718299D01*
X180729641Y-92892821D01*
X180729643Y-92892823D01*
X180871624Y-93034804D01*
X180905109Y-93096127D01*
X180900125Y-93165819D01*
X180858253Y-93221752D01*
X180836360Y-93234861D01*
X180835677Y-93235179D01*
X180686342Y-93327289D01*
X180562289Y-93451342D01*
X180470187Y-93600663D01*
X180470186Y-93600666D01*
X180415001Y-93767203D01*
X180415001Y-93767204D01*
X180415000Y-93767204D01*
X180404500Y-93869983D01*
X180404500Y-93869991D01*
X180404500Y-94214632D01*
X180404501Y-94475500D01*
X180384817Y-94542539D01*
X180332013Y-94588294D01*
X180280501Y-94599500D01*
X163516322Y-94599500D01*
X163449283Y-94579815D01*
X163403528Y-94527011D01*
X163393102Y-94489383D01*
X163385369Y-94420750D01*
X163385368Y-94420748D01*
X163385368Y-94420745D01*
X163325789Y-94250478D01*
X163229816Y-94097738D01*
X163200319Y-94068241D01*
X163166834Y-94006918D01*
X163164000Y-93980560D01*
X163164000Y-90325750D01*
X163164000Y-90325748D01*
X163125565Y-90182304D01*
X163051313Y-90053696D01*
X162946304Y-89948687D01*
X162946303Y-89948686D01*
X162941973Y-89944356D01*
X162941962Y-89944346D01*
X162838083Y-89840467D01*
X162804598Y-89779144D01*
X162802544Y-89766669D01*
X162786197Y-89621577D01*
X162786196Y-89621573D01*
X162730291Y-89461806D01*
X162726617Y-89451306D01*
X162705498Y-89417696D01*
X162630643Y-89298565D01*
X162503090Y-89171012D01*
X162350351Y-89075039D01*
X162180082Y-89015459D01*
X162180077Y-89015458D01*
X162000832Y-88995263D01*
X162000824Y-88995263D01*
X161821578Y-89015458D01*
X161821573Y-89015459D01*
X161651304Y-89075039D01*
X161498565Y-89171012D01*
X161371015Y-89298563D01*
X161371012Y-89298565D01*
X161275039Y-89451304D01*
X161215459Y-89621573D01*
X161215458Y-89621578D01*
X161195263Y-89800824D01*
X161195263Y-89800831D01*
X161215458Y-89980077D01*
X161215459Y-89980082D01*
X161275039Y-90150351D01*
X161327918Y-90234507D01*
X161371012Y-90303090D01*
X161498566Y-90430644D01*
X161651306Y-90526617D01*
X161784836Y-90573341D01*
X161821573Y-90586196D01*
X161821578Y-90586197D01*
X161925883Y-90597949D01*
X161990297Y-90625015D01*
X162029852Y-90682610D01*
X162036000Y-90721169D01*
X162036000Y-92383677D01*
X162016315Y-92450716D01*
X161963511Y-92496471D01*
X161925884Y-92506897D01*
X161857250Y-92514630D01*
X161686978Y-92574210D01*
X161534237Y-92670184D01*
X161406684Y-92797737D01*
X161310711Y-92950476D01*
X161251131Y-93120745D01*
X161251130Y-93120750D01*
X161230935Y-93299996D01*
X161230935Y-93300003D01*
X161251130Y-93479249D01*
X161251131Y-93479254D01*
X161310711Y-93649523D01*
X161406684Y-93802262D01*
X161436181Y-93831759D01*
X161469666Y-93893082D01*
X161472500Y-93919440D01*
X161472500Y-94907662D01*
X161502799Y-95020743D01*
X161510934Y-95051104D01*
X161510936Y-95051108D01*
X161535685Y-95093975D01*
X161585187Y-95179714D01*
X161585189Y-95179716D01*
X161697261Y-95291788D01*
X161697267Y-95291793D01*
X161910936Y-95505462D01*
X161910946Y-95505473D01*
X161915276Y-95509803D01*
X161915277Y-95509804D01*
X162020286Y-95614813D01*
X162020288Y-95614814D01*
X162020289Y-95614815D01*
X162148890Y-95689063D01*
X162148891Y-95689063D01*
X162148894Y-95689065D01*
X162292338Y-95727501D01*
X162292341Y-95727501D01*
X162448439Y-95727501D01*
X162448455Y-95727500D01*
X180611358Y-95727500D01*
X180678397Y-95747185D01*
X180684824Y-95751774D01*
X180686342Y-95752710D01*
X180686344Y-95752712D01*
X180835666Y-95844814D01*
X181002203Y-95899999D01*
X181104991Y-95910500D01*
X181730649Y-95910499D01*
X181797687Y-95930183D01*
X181843442Y-95982987D01*
X181853386Y-96052146D01*
X181824361Y-96115702D01*
X181818329Y-96122180D01*
X181540829Y-96399681D01*
X181479506Y-96433166D01*
X181453148Y-96436000D01*
X162819440Y-96436000D01*
X162752401Y-96416315D01*
X162731759Y-96399681D01*
X162702262Y-96370184D01*
X162549523Y-96274211D01*
X162379254Y-96214631D01*
X162379249Y-96214630D01*
X162200004Y-96194435D01*
X162199996Y-96194435D01*
X162020750Y-96214630D01*
X162020745Y-96214631D01*
X161850476Y-96274211D01*
X161697737Y-96370184D01*
X161570184Y-96497737D01*
X161474211Y-96650476D01*
X161414631Y-96820745D01*
X161414630Y-96820750D01*
X161394435Y-96999996D01*
X161394435Y-97000003D01*
X161414630Y-97179249D01*
X161414631Y-97179254D01*
X161474211Y-97349523D01*
X161538171Y-97451314D01*
X161570184Y-97502262D01*
X161697738Y-97629816D01*
X161788080Y-97686582D01*
X161832721Y-97714632D01*
X161850478Y-97725789D01*
X161988860Y-97774211D01*
X162020745Y-97785368D01*
X162020750Y-97785369D01*
X162199996Y-97805565D01*
X162200000Y-97805565D01*
X162200004Y-97805565D01*
X162379249Y-97785369D01*
X162379252Y-97785368D01*
X162379255Y-97785368D01*
X162549522Y-97725789D01*
X162702262Y-97629816D01*
X162731759Y-97600319D01*
X162793082Y-97566834D01*
X162819440Y-97564000D01*
X181812377Y-97564000D01*
X181812379Y-97564000D01*
X181955822Y-97525565D01*
X182084430Y-97451313D01*
X182189439Y-97346304D01*
X182189439Y-97346302D01*
X182199643Y-97336099D01*
X182199647Y-97336094D01*
X183694594Y-95841147D01*
X183694599Y-95841143D01*
X183704802Y-95830939D01*
X183704804Y-95830939D01*
X183809813Y-95725930D01*
X183884065Y-95597322D01*
X183922500Y-95453878D01*
X183922500Y-53642755D01*
X183922501Y-53642742D01*
X183922501Y-53484250D01*
X183922501Y-53484248D01*
X183884065Y-53340804D01*
X183809813Y-53212196D01*
X183704804Y-53107187D01*
X183704803Y-53107186D01*
X183700473Y-53102856D01*
X183700462Y-53102846D01*
X182637255Y-52039639D01*
X182603770Y-51978316D01*
X182601716Y-51965841D01*
X182585369Y-51820749D01*
X182585368Y-51820745D01*
X182525788Y-51650476D01*
X182429815Y-51497737D01*
X182302262Y-51370184D01*
X182149523Y-51274211D01*
X181979254Y-51214631D01*
X181979249Y-51214630D01*
X181800004Y-51194435D01*
X181799996Y-51194435D01*
X181620750Y-51214630D01*
X181620745Y-51214631D01*
X181450476Y-51274211D01*
X181297737Y-51370184D01*
X181268241Y-51399681D01*
X181206918Y-51433166D01*
X181180560Y-51436000D01*
X135519440Y-51436000D01*
X135452401Y-51416315D01*
X135431759Y-51399681D01*
X135402262Y-51370184D01*
X135249523Y-51274211D01*
X135079254Y-51214631D01*
X135079249Y-51214630D01*
X134900004Y-51194435D01*
X134899996Y-51194435D01*
X134720750Y-51214630D01*
X134720745Y-51214631D01*
X134550476Y-51274211D01*
X134397737Y-51370184D01*
X134270184Y-51497737D01*
X134174211Y-51650476D01*
X134114631Y-51820745D01*
X134114630Y-51820749D01*
X134098283Y-51965840D01*
X134071216Y-52030254D01*
X134062744Y-52039637D01*
X133090198Y-53012185D01*
X132985189Y-53117193D01*
X132985185Y-53117199D01*
X132910936Y-53245801D01*
X132910935Y-53245804D01*
X132872500Y-53389248D01*
X132000500Y-53389248D01*
X132000500Y-49624500D01*
X132020185Y-49557461D01*
X132072989Y-49511706D01*
X132124500Y-49500500D01*
X185875500Y-49500500D01*
X185942539Y-49520185D01*
G37*
%TD.AperFunction*%
%TD*%
M02*
