M48
; DRILL file {KiCad 8.0.6} date 2025-03-25T19:38:54+0100
; FORMAT={-:-/ absolute / inch / decimal}
; #@! TF.CreationDate,2025-03-25T19:38:54+01:00
; #@! TF.GenerationSoftware,Kicad,Pcbnew,8.0.6
; #@! TF.FileFunction,Plated,1,2,PTH
FMAT,2
INCH
; #@! TA.AperFunction,Plated,PTH,ComponentDrill
T1C0.0079
; #@! TA.AperFunction,Plated,PTH,ViaDrill
T2C0.0118
; #@! TA.AperFunction,Plated,PTH,ComponentDrill
T3C0.0469
%
G90
G05
T1
X5.447Y-3.4483
X5.447Y-3.5084
X5.4771Y-3.4183
X5.4771Y-3.4783
X5.4771Y-3.5384
X5.5071Y-3.4483
X5.5071Y-3.5084
X5.5371Y-3.4183
X5.5371Y-3.4783
X5.5371Y-3.5384
X5.5671Y-3.4483
X5.5671Y-3.5084
T2
X5.2165Y-3.1535
X5.2165Y-3.8386
X5.2165Y-3.9646
X5.2237Y-2.9121
X5.2677Y-5.1969
X5.2756Y-3.1693
X5.2795Y-3.0354
X5.311Y-2.0472
X5.3189Y-3.748
X5.3243Y-3.9528
X5.3346Y-2.9724
X5.3504Y-3.0315
X5.3543Y-4.1339
X5.3543Y-4.1732
X5.3543Y-4.2126
X5.3898Y-4.0079
X5.3976Y-4.0472
X5.4016Y-3.9016
X5.4055Y-3.2047
X5.4134Y-3.1614
X5.4331Y-3.9016
X5.4606Y-3.878
X5.4646Y-4.3858
X5.5157Y-3.9567
X5.5197Y-4.0157
X5.5394Y-4.0591
X5.5472Y-4.315
X5.5512Y-3.8976
X5.5512Y-4.2441
X5.5684Y-4.811
X5.5748Y-4.0984
X5.5748Y-4.126
X5.5748Y-4.1988
X5.5787Y-4.878
X5.5906Y-3.8976
X5.5906Y-4.3701
X5.5918Y-4.7618
X5.6299Y-3.8976
X5.6299Y-4.0118
X5.6299Y-4.3701
X5.6378Y-4.0866
X5.6378Y-4.1142
X5.6378Y-4.1417
X5.6614Y-4.7992
X5.6693Y-3.8976
X5.6693Y-4.0118
X5.6693Y-4.3701
X5.6693Y-4.8819
X5.6919Y-4.7911
X5.7047Y-4.0118
X5.7068Y-4.4586
X5.7083Y-4.398
X5.7087Y-4.8819
X5.748Y-4.8819
X5.7874Y-4.6457
X5.7874Y-4.685
X5.7874Y-4.7244
X5.7992Y-4.9213
X5.8268Y-3.7402
X5.8622Y-3.1535
X5.878Y-3.6732
X5.8885Y-4.8924
X5.9528Y-4.8898
X6.0748Y-3.7205
X6.1417Y-4.7244
X6.1417Y-4.7638
X6.1417Y-4.8031
X6.1417Y-4.8425
X6.2205Y-3.7008
X6.2244Y-3.5472
X6.2244Y-3.8583
X6.378Y-3.5355
X6.3794Y-3.6732
X6.3858Y-3.8189
X6.4016Y-3.7244
X6.5157Y-4.8465
X6.5236Y-4.937
X6.6378Y-4.8425
X6.6457Y-4.7559
X6.8701Y-4.3228
X6.874Y-4.2441
X6.9213Y-4.5315
X6.9291Y-4.9291
X7.1575Y-2.0472
T3
X7.1654Y-2.3228
X7.1654Y-2.4228
X7.1654Y-2.6953
X7.1654Y-2.7953
X7.1654Y-2.8953
X7.1654Y-3.1709
X7.1654Y-3.2709
X7.1654Y-3.3709
X7.1654Y-3.622
X7.1654Y-3.722
X7.1654Y-4.4488
X7.1654Y-4.5488
M30
