%TF.GenerationSoftware,KiCad,Pcbnew,8.0.6*%
%TF.CreationDate,2025-03-25T19:38:50+01:00*%
%TF.ProjectId,TocBoatReceiver,546f6342-6f61-4745-9265-636569766572,rev?*%
%TF.SameCoordinates,Original*%
%TF.FileFunction,Copper,L1,Top*%
%TF.FilePolarity,Positive*%
%FSLAX46Y46*%
G04 Gerber Fmt 4.6, Leading zero omitted, Abs format (unit mm)*
G04 Created by KiCad (PCBNEW 8.0.6) date 2025-03-25 19:38:50*
%MOMM*%
%LPD*%
G01*
G04 APERTURE LIST*
G04 Aperture macros list*
%AMRoundRect*
0 Rectangle with rounded corners*
0 $1 Rounding radius*
0 $2 $3 $4 $5 $6 $7 $8 $9 X,Y pos of 4 corners*
0 Add a 4 corners polygon primitive as box body*
4,1,4,$2,$3,$4,$5,$6,$7,$8,$9,$2,$3,0*
0 Add four circle primitives for the rounded corners*
1,1,$1+$1,$2,$3*
1,1,$1+$1,$4,$5*
1,1,$1+$1,$6,$7*
1,1,$1+$1,$8,$9*
0 Add four rect primitives between the rounded corners*
20,1,$1+$1,$2,$3,$4,$5,0*
20,1,$1+$1,$4,$5,$6,$7,0*
20,1,$1+$1,$6,$7,$8,$9,0*
20,1,$1+$1,$8,$9,$2,$3,0*%
G04 Aperture macros list end*
%TA.AperFunction,SMDPad,CuDef*%
%ADD10RoundRect,0.225000X0.225000X0.250000X-0.225000X0.250000X-0.225000X-0.250000X0.225000X-0.250000X0*%
%TD*%
%TA.AperFunction,SMDPad,CuDef*%
%ADD11RoundRect,0.200000X-0.200000X-0.275000X0.200000X-0.275000X0.200000X0.275000X-0.200000X0.275000X0*%
%TD*%
%TA.AperFunction,SMDPad,CuDef*%
%ADD12RoundRect,0.150000X-0.587500X-0.150000X0.587500X-0.150000X0.587500X0.150000X-0.587500X0.150000X0*%
%TD*%
%TA.AperFunction,ComponentPad*%
%ADD13RoundRect,0.250000X0.845000X-0.620000X0.845000X0.620000X-0.845000X0.620000X-0.845000X-0.620000X0*%
%TD*%
%TA.AperFunction,ComponentPad*%
%ADD14O,2.190000X1.740000*%
%TD*%
%TA.AperFunction,SMDPad,CuDef*%
%ADD15RoundRect,0.243750X-0.243750X-0.456250X0.243750X-0.456250X0.243750X0.456250X-0.243750X0.456250X0*%
%TD*%
%TA.AperFunction,SMDPad,CuDef*%
%ADD16RoundRect,0.225000X-0.250000X0.225000X-0.250000X-0.225000X0.250000X-0.225000X0.250000X0.225000X0*%
%TD*%
%TA.AperFunction,SMDPad,CuDef*%
%ADD17R,2.500000X0.500000*%
%TD*%
%TA.AperFunction,SMDPad,CuDef*%
%ADD18R,2.500000X2.000000*%
%TD*%
%TA.AperFunction,SMDPad,CuDef*%
%ADD19RoundRect,0.375000X-0.625000X-0.375000X0.625000X-0.375000X0.625000X0.375000X-0.625000X0.375000X0*%
%TD*%
%TA.AperFunction,SMDPad,CuDef*%
%ADD20RoundRect,0.500000X-0.500000X-1.400000X0.500000X-1.400000X0.500000X1.400000X-0.500000X1.400000X0*%
%TD*%
%TA.AperFunction,SMDPad,CuDef*%
%ADD21RoundRect,0.062500X-0.337500X-0.062500X0.337500X-0.062500X0.337500X0.062500X-0.337500X0.062500X0*%
%TD*%
%TA.AperFunction,SMDPad,CuDef*%
%ADD22RoundRect,0.062500X-0.062500X-0.337500X0.062500X-0.337500X0.062500X0.337500X-0.062500X0.337500X0*%
%TD*%
%TA.AperFunction,HeatsinkPad*%
%ADD23R,3.350000X3.350000*%
%TD*%
%TA.AperFunction,SMDPad,CuDef*%
%ADD24RoundRect,0.100000X0.225000X0.100000X-0.225000X0.100000X-0.225000X-0.100000X0.225000X-0.100000X0*%
%TD*%
%TA.AperFunction,SMDPad,CuDef*%
%ADD25RoundRect,0.150000X-0.512500X-0.150000X0.512500X-0.150000X0.512500X0.150000X-0.512500X0.150000X0*%
%TD*%
%TA.AperFunction,SMDPad,CuDef*%
%ADD26R,0.740000X2.400000*%
%TD*%
%TA.AperFunction,SMDPad,CuDef*%
%ADD27RoundRect,0.250000X-1.500000X-0.550000X1.500000X-0.550000X1.500000X0.550000X-1.500000X0.550000X0*%
%TD*%
%TA.AperFunction,SMDPad,CuDef*%
%ADD28R,0.900000X1.500000*%
%TD*%
%TA.AperFunction,SMDPad,CuDef*%
%ADD29R,1.500000X0.900000*%
%TD*%
%TA.AperFunction,SMDPad,CuDef*%
%ADD30R,1.050000X1.050000*%
%TD*%
%TA.AperFunction,HeatsinkPad*%
%ADD31C,0.600000*%
%TD*%
%TA.AperFunction,SMDPad,CuDef*%
%ADD32R,4.200000X4.200000*%
%TD*%
%TA.AperFunction,SMDPad,CuDef*%
%ADD33RoundRect,0.225000X-0.225000X-0.250000X0.225000X-0.250000X0.225000X0.250000X-0.225000X0.250000X0*%
%TD*%
%TA.AperFunction,SMDPad,CuDef*%
%ADD34RoundRect,0.200000X0.200000X0.275000X-0.200000X0.275000X-0.200000X-0.275000X0.200000X-0.275000X0*%
%TD*%
%TA.AperFunction,ViaPad*%
%ADD35C,0.600000*%
%TD*%
%TA.AperFunction,Conductor*%
%ADD36C,0.200000*%
%TD*%
%TA.AperFunction,Conductor*%
%ADD37C,0.127000*%
%TD*%
%TA.AperFunction,Conductor*%
%ADD38C,1.000000*%
%TD*%
%TA.AperFunction,Conductor*%
%ADD39C,0.254000*%
%TD*%
G04 APERTURE END LIST*
D10*
%TO.P,C2,1*%
%TO.N,GND*%
X134900000Y-75500000D03*
%TO.P,C2,2*%
%TO.N,+3.3V*%
X133350000Y-75500000D03*
%TD*%
D11*
%TO.P,R6,1*%
%TO.N,+3.3V*%
X148650000Y-125000000D03*
%TO.P,R6,2*%
%TO.N,Net-(U6-~{RST})*%
X150300000Y-125000000D03*
%TD*%
D12*
%TO.P,Q2,1,G*%
%TO.N,/ESP32/GPIO15*%
X159062500Y-96000000D03*
%TO.P,Q2,2,S*%
%TO.N,GND*%
X159062500Y-97900000D03*
%TO.P,Q2,3,D*%
%TO.N,Net-(D1-K)*%
X160937500Y-96950000D03*
%TD*%
D11*
%TO.P,R7,1*%
%TO.N,+BATT*%
X183000000Y-55000000D03*
%TO.P,R7,2*%
%TO.N,Net-(D4-A)*%
X184650000Y-55000000D03*
%TD*%
D13*
%TO.P,J6,1,Pin_1*%
%TO.N,+BATT*%
X182000000Y-85620000D03*
D14*
%TO.P,J6,2,Pin_2*%
%TO.N,/ESP32/GPIO16*%
X182000000Y-83080000D03*
%TO.P,J6,3,Pin_3*%
%TO.N,GND*%
X182000000Y-80540000D03*
%TD*%
D15*
%TO.P,D1,1,K*%
%TO.N,Net-(D1-K)*%
X133125000Y-132000000D03*
%TO.P,D1,2,A*%
%TO.N,Net-(D1-A)*%
X135000000Y-132000000D03*
%TD*%
D11*
%TO.P,R8,1*%
%TO.N,+BATT*%
X176000000Y-92000000D03*
%TO.P,R8,2*%
%TO.N,Net-(J4-Pin_2)*%
X177650000Y-92000000D03*
%TD*%
D12*
%TO.P,Q4,1,G*%
%TO.N,/ESP32/GPIO18*%
X159125000Y-88050000D03*
%TO.P,Q4,2,S*%
%TO.N,GND*%
X159125000Y-89950000D03*
%TO.P,Q4,3,D*%
%TO.N,Net-(J5-Pin_1)*%
X161000000Y-89000000D03*
%TD*%
D13*
%TO.P,J7,1,Pin_1*%
%TO.N,+BATT*%
X182000000Y-73540000D03*
D14*
%TO.P,J7,2,Pin_2*%
%TO.N,/ESP32/GPIO14*%
X182000000Y-71000000D03*
%TO.P,J7,3,Pin_3*%
%TO.N,GND*%
X182000000Y-68460000D03*
%TD*%
D16*
%TO.P,C4,1*%
%TO.N,+3.3V*%
X147300000Y-122750000D03*
%TO.P,C4,2*%
%TO.N,GND*%
X147300000Y-124300000D03*
%TD*%
D17*
%TO.P,J2,1,VBUS*%
%TO.N,+5V*%
X139800000Y-120600000D03*
%TO.P,J2,2,D-*%
%TO.N,Net-(J2-D-)*%
X139800000Y-121400000D03*
%TO.P,J2,3,D+*%
%TO.N,Net-(J2-D+)*%
X139800000Y-122200000D03*
%TO.P,J2,4,GND*%
%TO.N,GND*%
X139800000Y-123000000D03*
%TO.P,J2,5,Shield*%
X139800000Y-123800000D03*
D18*
%TO.P,J2,6*%
%TO.N,N/C*%
X139800000Y-117800000D03*
X134300000Y-117800000D03*
X139800000Y-126600000D03*
X134300000Y-126600000D03*
%TD*%
D19*
%TO.P,U2,1,GND*%
%TO.N,GND*%
X169850000Y-120700000D03*
%TO.P,U2,2,VO*%
%TO.N,+3.3V*%
X169850000Y-123000000D03*
D20*
X176150000Y-123000000D03*
D19*
%TO.P,U2,3,VI*%
%TO.N,+BATT*%
X169850000Y-125300000D03*
%TD*%
D21*
%TO.P,U6,1,~{DCD}*%
%TO.N,unconnected-(U6-~{DCD}-Pad1)*%
X148750000Y-119550000D03*
%TO.P,U6,2,~{RI}/CLK*%
%TO.N,unconnected-(U6-~{RI}{slash}CLK-Pad2)*%
X148750000Y-120050000D03*
%TO.P,U6,3,GND*%
%TO.N,GND*%
X148750000Y-120550000D03*
%TO.P,U6,4,D+*%
%TO.N,/USB Serial/USB_P*%
X148750000Y-121050000D03*
%TO.P,U6,5,D-*%
%TO.N,/USB Serial/USB_N*%
X148750000Y-121550000D03*
%TO.P,U6,6,VDD*%
%TO.N,+3.3V*%
X148750000Y-122050000D03*
%TO.P,U6,7,VREGIN*%
X148750000Y-122550000D03*
D22*
%TO.P,U6,8,VBUS*%
%TO.N,+5V*%
X149700000Y-123500000D03*
%TO.P,U6,9,~{RST}*%
%TO.N,Net-(U6-~{RST})*%
X150200000Y-123500000D03*
%TO.P,U6,10,NC*%
%TO.N,unconnected-(U6-NC-Pad10)*%
X150700000Y-123500000D03*
%TO.P,U6,11,~{SUSPEND}*%
%TO.N,GND*%
X151200000Y-123500000D03*
%TO.P,U6,12,SUSPEND*%
%TO.N,unconnected-(U6-SUSPEND-Pad12)*%
X151700000Y-123500000D03*
%TO.P,U6,13,CHREN*%
%TO.N,unconnected-(U6-CHREN-Pad13)*%
X152200000Y-123500000D03*
%TO.P,U6,14,CHR1*%
%TO.N,unconnected-(U6-CHR1-Pad14)*%
X152700000Y-123500000D03*
D21*
%TO.P,U6,15,CHR0*%
%TO.N,unconnected-(U6-CHR0-Pad15)*%
X153650000Y-122550000D03*
%TO.P,U6,16,~{WAKEUP}/GPIO.3*%
%TO.N,unconnected-(U6-~{WAKEUP}{slash}GPIO.3-Pad16)*%
X153650000Y-122050000D03*
%TO.P,U6,17,RS485/GPIO.2*%
%TO.N,unconnected-(U6-RS485{slash}GPIO.2-Pad17)*%
X153650000Y-121550000D03*
%TO.P,U6,18,~{RXT}/GPIO.1*%
%TO.N,unconnected-(U6-~{RXT}{slash}GPIO.1-Pad18)*%
X153650000Y-121050000D03*
%TO.P,U6,19,~{TXT}/GPIO.0*%
%TO.N,unconnected-(U6-~{TXT}{slash}GPIO.0-Pad19)*%
X153650000Y-120550000D03*
%TO.P,U6,20,GPIO.6*%
%TO.N,unconnected-(U6-GPIO.6-Pad20)*%
X153650000Y-120050000D03*
%TO.P,U6,21,GPIO.5*%
%TO.N,unconnected-(U6-GPIO.5-Pad21)*%
X153650000Y-119550000D03*
D22*
%TO.P,U6,22,GPIO.4*%
%TO.N,unconnected-(U6-GPIO.4-Pad22)*%
X152700000Y-118600000D03*
%TO.P,U6,23,~{CTS}*%
%TO.N,unconnected-(U6-~{CTS}-Pad23)*%
X152200000Y-118600000D03*
%TO.P,U6,24,~{RTS}*%
%TO.N,Net-(Q1A-E1)*%
X151700000Y-118600000D03*
%TO.P,U6,25,RXD*%
%TO.N,TX*%
X151200000Y-118600000D03*
%TO.P,U6,26,TXD*%
%TO.N,RX*%
X150700000Y-118600000D03*
%TO.P,U6,27,~{DSR}*%
%TO.N,unconnected-(U6-~{DSR}-Pad27)*%
X150200000Y-118600000D03*
%TO.P,U6,28,~{DTR}*%
%TO.N,Net-(Q1B-E2)*%
X149700000Y-118600000D03*
D23*
%TO.P,U6,29,GND*%
%TO.N,GND*%
X151200000Y-121050000D03*
%TD*%
D13*
%TO.P,J3,1,Pin_1*%
%TO.N,+BATT*%
X182000000Y-115540000D03*
D14*
%TO.P,J3,2,Pin_2*%
%TO.N,GND*%
X182000000Y-113000000D03*
%TD*%
D10*
%TO.P,C5,1*%
%TO.N,+BATT*%
X167800000Y-125300000D03*
%TO.P,C5,2*%
%TO.N,GND*%
X166250000Y-125300000D03*
%TD*%
D24*
%TO.P,Q1,1,E1*%
%TO.N,Net-(Q1A-E1)*%
X146900000Y-106650000D03*
%TO.P,Q1,2,B1*%
%TO.N,Net-(Q1A-B1)*%
X146900000Y-106000000D03*
%TO.P,Q1,3,C2*%
%TO.N,D0*%
X146900000Y-105350000D03*
%TO.P,Q1,4,E2*%
%TO.N,Net-(Q1B-E2)*%
X145000000Y-105350000D03*
%TO.P,Q1,5,B2*%
%TO.N,Net-(Q1B-B2)*%
X145000000Y-106000000D03*
%TO.P,Q1,6,C1*%
%TO.N,EN*%
X145000000Y-106650000D03*
%TD*%
D15*
%TO.P,D3,1,K*%
%TO.N,Net-(D1-K)*%
X134125000Y-52000000D03*
%TO.P,D3,2,A*%
%TO.N,Net-(D3-A)*%
X136000000Y-52000000D03*
%TD*%
D11*
%TO.P,R1,1*%
%TO.N,+3.3V*%
X134150000Y-98500000D03*
%TO.P,R1,2*%
%TO.N,D0*%
X135800000Y-98500000D03*
%TD*%
D10*
%TO.P,C6,1*%
%TO.N,+3.3V*%
X167700000Y-123100000D03*
%TO.P,C6,2*%
%TO.N,GND*%
X166150000Y-123100000D03*
%TD*%
D13*
%TO.P,J4,1,Pin_1*%
%TO.N,Net-(J4-Pin_1)*%
X182000000Y-94540000D03*
D14*
%TO.P,J4,2,Pin_2*%
%TO.N,Net-(J4-Pin_2)*%
X182000000Y-92000000D03*
%TD*%
D11*
%TO.P,R10,1*%
%TO.N,+BATT*%
X168450000Y-109600000D03*
%TO.P,R10,2*%
%TO.N,/ESP32/GPIO5*%
X170100000Y-109600000D03*
%TD*%
D25*
%TO.P,U1,1,I/O1*%
%TO.N,Net-(J2-D+)*%
X143000000Y-120900000D03*
%TO.P,U1,2,GND*%
%TO.N,GND*%
X143000000Y-121850000D03*
%TO.P,U1,3,I/O2*%
%TO.N,Net-(J2-D-)*%
X143000000Y-122800000D03*
%TO.P,U1,4,I/O2*%
%TO.N,/USB Serial/USB_N*%
X145275000Y-122800000D03*
%TO.P,U1,5,VBUS*%
%TO.N,+5V*%
X145275000Y-121850000D03*
%TO.P,U1,6,I/O1*%
%TO.N,/USB Serial/USB_P*%
X145275000Y-120900000D03*
%TD*%
D11*
%TO.P,R9,1*%
%TO.N,+BATT*%
X176000000Y-59000000D03*
%TO.P,R9,2*%
%TO.N,Net-(J5-Pin_2)*%
X177650000Y-59000000D03*
%TD*%
%TO.P,R11,1*%
%TO.N,/ESP32/GPIO5*%
X172150000Y-109600000D03*
%TO.P,R11,2*%
%TO.N,GND*%
X173800000Y-109600000D03*
%TD*%
D26*
%TO.P,J1,1,Pin_1*%
%TO.N,EN*%
X140100000Y-105800000D03*
%TO.P,J1,2,Pin_2*%
%TO.N,+3.3V*%
X140100000Y-109700000D03*
%TO.P,J1,3,Pin_3*%
%TO.N,TX*%
X138830000Y-105800000D03*
%TO.P,J1,4,Pin_4*%
%TO.N,GND*%
X138830000Y-109700000D03*
%TO.P,J1,5,Pin_5*%
%TO.N,RX*%
X137560000Y-105800000D03*
%TO.P,J1,6,Pin_6*%
%TO.N,D0*%
X137560000Y-109700000D03*
%TD*%
D27*
%TO.P,C7,1*%
%TO.N,+BATT*%
X168000000Y-115000000D03*
%TO.P,C7,2*%
%TO.N,GND*%
X173600000Y-115000000D03*
%TD*%
D10*
%TO.P,C8,1*%
%TO.N,GND*%
X173750000Y-107600000D03*
%TO.P,C8,2*%
%TO.N,/ESP32/GPIO5*%
X172200000Y-107600000D03*
%TD*%
D15*
%TO.P,D2,1,K*%
%TO.N,Net-(D1-K)*%
X182062500Y-132000000D03*
%TO.P,D2,2,A*%
%TO.N,Net-(D2-A)*%
X183937500Y-132000000D03*
%TD*%
D28*
%TO.P,U3,1,GND*%
%TO.N,GND*%
X132540000Y-96420000D03*
%TO.P,U3,2,VDD*%
%TO.N,+3.3V*%
X133810000Y-96420000D03*
%TO.P,U3,3,EN*%
%TO.N,EN*%
X135080000Y-96420000D03*
%TO.P,U3,4,SENSOR_VP*%
%TO.N,unconnected-(U3-SENSOR_VP-Pad4)*%
X136350000Y-96420000D03*
%TO.P,U3,5,SENSOR_VN*%
%TO.N,unconnected-(U3-SENSOR_VN-Pad5)*%
X137620000Y-96420000D03*
%TO.P,U3,6,IO34*%
%TO.N,unconnected-(U3-IO34-Pad6)*%
X138890000Y-96420000D03*
%TO.P,U3,7,IO35*%
%TO.N,/ESP32/GPIO35*%
X140160000Y-96420000D03*
%TO.P,U3,8,IO32*%
%TO.N,unconnected-(U3-IO32-Pad8)*%
X141430000Y-96420000D03*
%TO.P,U3,9,IO33*%
%TO.N,unconnected-(U3-IO33-Pad9)*%
X142700000Y-96420000D03*
%TO.P,U3,10,IO25*%
%TO.N,unconnected-(U3-IO25-Pad10)*%
X143970000Y-96420000D03*
%TO.P,U3,11,IO26*%
%TO.N,unconnected-(U3-IO26-Pad11)*%
X145240000Y-96420000D03*
%TO.P,U3,12,IO27*%
%TO.N,unconnected-(U3-IO27-Pad12)*%
X146510000Y-96420000D03*
%TO.P,U3,13,IO14*%
%TO.N,/ESP32/GPIO14*%
X147780000Y-96420000D03*
%TO.P,U3,14,IO12*%
%TO.N,/ESP32/GPIO12*%
X149050000Y-96420000D03*
D29*
%TO.P,U3,15,GND*%
%TO.N,GND*%
X150300000Y-93380000D03*
%TO.P,U3,16,IO13*%
%TO.N,/ESP32/GPIO13*%
X150300000Y-92110000D03*
%TO.P,U3,17,SHD/SD2*%
%TO.N,unconnected-(U3-SHD{slash}SD2-Pad17)*%
X150300000Y-90840000D03*
%TO.P,U3,18,SWP/SD3*%
%TO.N,unconnected-(U3-SWP{slash}SD3-Pad18)*%
X150300000Y-89570000D03*
%TO.P,U3,19,SCS/CMD*%
%TO.N,unconnected-(U3-SCS{slash}CMD-Pad19)*%
X150300000Y-88300000D03*
%TO.P,U3,20,SCK/CLK*%
%TO.N,unconnected-(U3-SCK{slash}CLK-Pad20)*%
X150300000Y-87030000D03*
%TO.P,U3,21,SDO/SD0*%
%TO.N,unconnected-(U3-SDO{slash}SD0-Pad21)*%
X150300000Y-85760000D03*
%TO.P,U3,22,SDI/SD1*%
%TO.N,unconnected-(U3-SDI{slash}SD1-Pad22)*%
X150300000Y-84490000D03*
%TO.P,U3,23,IO15*%
%TO.N,/ESP32/GPIO15*%
X150300000Y-83220000D03*
%TO.P,U3,24,IO2*%
%TO.N,/ESP32/GPIO2*%
X150300000Y-81950000D03*
D28*
%TO.P,U3,25,IO0*%
%TO.N,D0*%
X149050000Y-78920000D03*
%TO.P,U3,26,IO4*%
%TO.N,/ESP32/GPIO4*%
X147780000Y-78920000D03*
%TO.P,U3,27,IO16*%
%TO.N,/ESP32/GPIO16*%
X146510000Y-78920000D03*
%TO.P,U3,28,IO17*%
%TO.N,/ESP32/GPIO17*%
X145240000Y-78920000D03*
%TO.P,U3,29,IO5*%
%TO.N,/ESP32/GPIO5*%
X143970000Y-78920000D03*
%TO.P,U3,30,IO18*%
%TO.N,/ESP32/GPIO18*%
X142700000Y-78920000D03*
%TO.P,U3,31,IO19*%
%TO.N,unconnected-(U3-IO19-Pad31)*%
X141430000Y-78920000D03*
%TO.P,U3,32,NC*%
%TO.N,unconnected-(U3-NC-Pad32)*%
X140160000Y-78920000D03*
%TO.P,U3,33,IO21*%
%TO.N,unconnected-(U3-IO21-Pad33)*%
X138890000Y-78920000D03*
%TO.P,U3,34,RXD0/IO3*%
%TO.N,RX*%
X137620000Y-78920000D03*
%TO.P,U3,35,TXD0/IO1*%
%TO.N,TX*%
X136350000Y-78920000D03*
%TO.P,U3,36,IO22*%
%TO.N,unconnected-(U3-IO22-Pad36)*%
X135080000Y-78920000D03*
%TO.P,U3,37,IO23*%
%TO.N,unconnected-(U3-IO23-Pad37)*%
X133810000Y-78920000D03*
%TO.P,U3,38,GND*%
%TO.N,GND*%
X132540000Y-78920000D03*
D30*
%TO.P,U3,39,GND*%
X138355000Y-89875000D03*
D31*
X139117500Y-89875000D03*
D30*
X139880000Y-89875000D03*
D31*
X140642500Y-89875000D03*
D30*
X141405000Y-89875000D03*
D31*
X138355000Y-89112500D03*
X139880000Y-89112500D03*
X141405000Y-89112500D03*
D30*
X138355000Y-88350000D03*
D31*
X139117500Y-88350000D03*
D30*
X139880000Y-88350000D03*
D32*
X139880000Y-88350000D03*
D31*
X140642500Y-88350000D03*
D30*
X141405000Y-88350000D03*
D31*
X138355000Y-87587500D03*
X139880000Y-87587500D03*
X141405000Y-87587500D03*
D30*
X138355000Y-86825000D03*
D31*
X139117500Y-86825000D03*
D30*
X139880000Y-86825000D03*
D31*
X140642500Y-86825000D03*
D30*
X141405000Y-86825000D03*
%TD*%
D11*
%TO.P,R5,1*%
%TO.N,+3.3V*%
X133350000Y-77000000D03*
%TO.P,R5,2*%
%TO.N,EN*%
X135000000Y-77000000D03*
%TD*%
D15*
%TO.P,D4,1,K*%
%TO.N,Net-(D1-K)*%
X183062500Y-52000000D03*
%TO.P,D4,2,A*%
%TO.N,Net-(D4-A)*%
X184937500Y-52000000D03*
%TD*%
D11*
%TO.P,R4,1*%
%TO.N,+BATT*%
X134350000Y-54000000D03*
%TO.P,R4,2*%
%TO.N,Net-(D3-A)*%
X136000000Y-54000000D03*
%TD*%
D33*
%TO.P,C3,1*%
%TO.N,GND*%
X132500000Y-100000000D03*
%TO.P,C3,2*%
%TO.N,+3.3V*%
X134050000Y-100000000D03*
%TD*%
D11*
%TO.P,R13,1*%
%TO.N,Net-(Q1B-B2)*%
X145050000Y-108200000D03*
%TO.P,R13,2*%
%TO.N,Net-(Q1A-E1)*%
X146700000Y-108200000D03*
%TD*%
%TO.P,R3,1*%
%TO.N,+BATT*%
X182350000Y-130000000D03*
%TO.P,R3,2*%
%TO.N,Net-(D2-A)*%
X184000000Y-130000000D03*
%TD*%
D13*
%TO.P,J5,1,Pin_1*%
%TO.N,Net-(J5-Pin_1)*%
X182000000Y-61540000D03*
D14*
%TO.P,J5,2,Pin_2*%
%TO.N,Net-(J5-Pin_2)*%
X182000000Y-59000000D03*
%TD*%
D34*
%TO.P,R12,1*%
%TO.N,Net-(Q1A-B1)*%
X146750000Y-103800000D03*
%TO.P,R12,2*%
%TO.N,Net-(Q1B-E2)*%
X145100000Y-103800000D03*
%TD*%
D12*
%TO.P,Q3,1,G*%
%TO.N,/ESP32/GPIO17*%
X159000000Y-92100000D03*
%TO.P,Q3,2,S*%
%TO.N,GND*%
X159000000Y-94000000D03*
%TO.P,Q3,3,D*%
%TO.N,Net-(J4-Pin_1)*%
X160875000Y-93050000D03*
%TD*%
D11*
%TO.P,R2,1*%
%TO.N,+BATT*%
X133350000Y-130000000D03*
%TO.P,R2,2*%
%TO.N,Net-(D1-A)*%
X135000000Y-130000000D03*
%TD*%
D33*
%TO.P,C1,1*%
%TO.N,GND*%
X133381750Y-73968250D03*
%TO.P,C1,2*%
%TO.N,EN*%
X134931750Y-73968250D03*
%TD*%
D35*
%TO.N,GND*%
X146000000Y-124000000D03*
X144000000Y-124000000D03*
X145000000Y-124000000D03*
X147000000Y-120000000D03*
X147000000Y-119000000D03*
X147000000Y-118000000D03*
X156000000Y-123000000D03*
X156000000Y-122000000D03*
X156000000Y-121000000D03*
X156000000Y-120000000D03*
X144000000Y-99000000D03*
X143000000Y-99000000D03*
X142000000Y-99000000D03*
X141000000Y-99000000D03*
X136000000Y-105000000D03*
X136000000Y-107000000D03*
X136000000Y-106000000D03*
X144000000Y-111000000D03*
X143000000Y-111000000D03*
X142000000Y-111000000D03*
X141000000Y-107800000D03*
X141600000Y-104800000D03*
X141600000Y-104100000D03*
X143200000Y-105200000D03*
X143200000Y-104500000D03*
X143200000Y-103800000D03*
X144900000Y-101900000D03*
X144000000Y-101900000D03*
X136900000Y-101800000D03*
X140200000Y-102000000D03*
X143000000Y-101900000D03*
%TO.N,+3.3V*%
X140900000Y-109600000D03*
%TO.N,GND*%
X138800000Y-111400000D03*
X149300000Y-93300000D03*
X174600000Y-107800000D03*
X174500000Y-109800000D03*
%TO.N,Net-(J2-D+)*%
X141437500Y-122200000D03*
X142032603Y-120948454D03*
%TO.N,EN*%
X141600000Y-106650000D03*
X135900000Y-77000000D03*
X135100000Y-95200000D03*
%TO.N,GND*%
X135500000Y-75500000D03*
X141700000Y-123900000D03*
X165500000Y-123100000D03*
X143800000Y-121900000D03*
X151200000Y-124200000D03*
X168800000Y-120800000D03*
X132500000Y-100700000D03*
X147300000Y-125000000D03*
X175800000Y-115100000D03*
X132681750Y-73968250D03*
X165700000Y-125400000D03*
X158100000Y-98000000D03*
X132500000Y-97500000D03*
X158000000Y-94000000D03*
X132500000Y-80100000D03*
X158100000Y-90100000D03*
%TO.N,+3.3V*%
X135236500Y-100400000D03*
X134000000Y-80500000D03*
X176000000Y-125200000D03*
X140100000Y-100500000D03*
X168600000Y-123000000D03*
X134100000Y-77100000D03*
%TO.N,Net-(D1-K)*%
X133800000Y-132000000D03*
X162200000Y-97000000D03*
X134900000Y-52000000D03*
X181800000Y-52000000D03*
%TO.N,TX*%
X138000003Y-99100000D03*
X137300000Y-81400000D03*
%TO.N,D0*%
X148900000Y-80100000D03*
X140701500Y-103101500D03*
X138700000Y-98500000D03*
X137100000Y-102800000D03*
%TO.N,RX*%
X137200000Y-99100000D03*
X137500000Y-80300000D03*
%TO.N,+5V*%
X144573108Y-121694310D03*
X149566988Y-124266453D03*
%TO.N,Net-(J4-Pin_1)*%
X162036500Y-93300000D03*
%TO.N,/ESP32/GPIO14*%
X154300000Y-94500000D03*
X162600000Y-94600000D03*
X148000000Y-95000000D03*
X162000828Y-89800828D03*
%TO.N,Net-(Q1B-E2)*%
X144951544Y-113248456D03*
X144991317Y-111709500D03*
%TD*%
D36*
%TO.N,+3.3V*%
X140800000Y-109700000D02*
X140900000Y-109600000D01*
X140100000Y-109700000D02*
X140800000Y-109700000D01*
%TO.N,GND*%
X138830000Y-111370000D02*
X138800000Y-111400000D01*
X138830000Y-109700000D02*
X138830000Y-111370000D01*
X149380000Y-93380000D02*
X149300000Y-93300000D01*
X150300000Y-93380000D02*
X149380000Y-93380000D01*
X174400000Y-107600000D02*
X174600000Y-107800000D01*
X173750000Y-107600000D02*
X174400000Y-107600000D01*
X174300000Y-109600000D02*
X174500000Y-109800000D01*
X173800000Y-109600000D02*
X174300000Y-109600000D01*
D37*
%TO.N,+5V*%
X141500000Y-120600000D02*
X139800000Y-120600000D01*
X141900000Y-120200000D02*
X141500000Y-120600000D01*
X143551434Y-120200000D02*
X141900000Y-120200000D01*
X143926000Y-121047202D02*
X143926000Y-120574566D01*
X143926000Y-120574566D02*
X143551434Y-120200000D01*
X144573108Y-121694310D02*
X143926000Y-121047202D01*
D36*
%TO.N,Net-(J2-D+)*%
X142951546Y-120948454D02*
X143000000Y-120900000D01*
X142032603Y-120948454D02*
X142951546Y-120948454D01*
X139800000Y-122200000D02*
X141437500Y-122200000D01*
%TO.N,Net-(J2-D-)*%
X142337501Y-122800000D02*
X143000000Y-122800000D01*
X142037500Y-121800000D02*
X142037500Y-122499999D01*
X142037500Y-122499999D02*
X142337501Y-122800000D01*
X141637500Y-121400000D02*
X142037500Y-121800000D01*
X139800000Y-121400000D02*
X141637500Y-121400000D01*
D37*
%TO.N,EN*%
X140950000Y-106650000D02*
X140100000Y-105800000D01*
X145000000Y-106650000D02*
X140950000Y-106650000D01*
X135100000Y-96400000D02*
X135080000Y-96420000D01*
X135000000Y-77000000D02*
X134186500Y-76186500D01*
X134186500Y-76186500D02*
X134186500Y-74713500D01*
X134186500Y-74713500D02*
X134931750Y-73968250D01*
X135000000Y-77000000D02*
X135900000Y-77000000D01*
X135100000Y-95200000D02*
X135100000Y-96400000D01*
%TO.N,GND*%
X132540000Y-78920000D02*
X132540000Y-80060000D01*
X143000000Y-121850000D02*
X143750000Y-121850000D01*
X133381750Y-73968250D02*
X132681750Y-73968250D01*
X150700000Y-120550000D02*
X151200000Y-121050000D01*
X148750000Y-120550000D02*
X150700000Y-120550000D01*
D38*
X173600000Y-115000000D02*
X175700000Y-115000000D01*
D37*
X140200000Y-123900000D02*
X141700000Y-123900000D01*
X132540000Y-97460000D02*
X132500000Y-97500000D01*
D38*
X175700000Y-115000000D02*
X175800000Y-115100000D01*
D37*
X132500000Y-100000000D02*
X132500000Y-100700000D01*
X159000000Y-94000000D02*
X158000000Y-94000000D01*
X134900000Y-75500000D02*
X135500000Y-75500000D01*
X151200000Y-123500000D02*
X151200000Y-124200000D01*
D38*
X169850000Y-120700000D02*
X168900000Y-120700000D01*
D37*
X132540000Y-96420000D02*
X132540000Y-97460000D01*
D39*
X165800000Y-125300000D02*
X165700000Y-125400000D01*
D38*
X168900000Y-120700000D02*
X168800000Y-120800000D01*
D39*
X166250000Y-125300000D02*
X165800000Y-125300000D01*
D37*
X140200000Y-123100000D02*
X140200000Y-123900000D01*
X132540000Y-80060000D02*
X132500000Y-80100000D01*
X159125000Y-89950000D02*
X158250000Y-89950000D01*
D39*
X166150000Y-123100000D02*
X165500000Y-123100000D01*
D37*
X158200000Y-97900000D02*
X158100000Y-98000000D01*
X159062500Y-97900000D02*
X158200000Y-97900000D01*
X147300000Y-124300000D02*
X147300000Y-125000000D01*
X158250000Y-89950000D02*
X158100000Y-90100000D01*
X143750000Y-121850000D02*
X143800000Y-121900000D01*
X151200000Y-123500000D02*
X151200000Y-121050000D01*
%TO.N,+3.3V*%
X134050000Y-99950000D02*
X134150000Y-99850000D01*
D36*
X133350000Y-75500000D02*
X133350000Y-77000000D01*
D38*
X167700000Y-123100000D02*
X167700000Y-122520248D01*
D37*
X148650000Y-122650000D02*
X148750000Y-122550000D01*
D39*
X134050000Y-100000000D02*
X134836500Y-100000000D01*
D38*
X176150000Y-125050000D02*
X176000000Y-125200000D01*
X145679752Y-100500000D02*
X140100000Y-100500000D01*
D39*
X134836500Y-100000000D02*
X135236500Y-100400000D01*
D37*
X133810000Y-80690000D02*
X134000000Y-80500000D01*
D38*
X165489876Y-120310124D02*
X145679752Y-100500000D01*
D37*
X134050000Y-100000000D02*
X134050000Y-99950000D01*
X133810000Y-96420000D02*
X133810000Y-80690000D01*
D38*
X167800000Y-123000000D02*
X167700000Y-123100000D01*
D37*
X148650000Y-125000000D02*
X148650000Y-122650000D01*
X134100000Y-77100000D02*
X133450000Y-77100000D01*
X133450000Y-77100000D02*
X133350000Y-77000000D01*
X134150000Y-98500000D02*
X134150000Y-96760000D01*
D38*
X167700000Y-122520248D02*
X165489876Y-120310124D01*
X165189876Y-120310124D02*
X158700000Y-126800000D01*
X176150000Y-123000000D02*
X176150000Y-125050000D01*
X158700000Y-126800000D02*
X149600000Y-126800000D01*
X149600000Y-126800000D02*
X148650000Y-125850000D01*
D37*
X147950000Y-122750000D02*
X148150000Y-122550000D01*
D38*
X165489876Y-120310124D02*
X165189876Y-120310124D01*
X169850000Y-123000000D02*
X168600000Y-123000000D01*
D37*
X134150000Y-99850000D02*
X134150000Y-98500000D01*
X148150000Y-122550000D02*
X148750000Y-122550000D01*
X134150000Y-96760000D02*
X133810000Y-96420000D01*
D38*
X168600000Y-123000000D02*
X167800000Y-123000000D01*
X148650000Y-125850000D02*
X148650000Y-125000000D01*
D37*
X147300000Y-122750000D02*
X147950000Y-122750000D01*
D38*
%TO.N,+BATT*%
X182000000Y-85620000D02*
X183795000Y-83825000D01*
X134075000Y-128825000D02*
X133350000Y-129550000D01*
X133350000Y-129550000D02*
X133350000Y-130000000D01*
X181200000Y-55100000D02*
X182000000Y-55100000D01*
X176000000Y-92000000D02*
X175800000Y-92000000D01*
X183000000Y-55475000D02*
X183000000Y-55000000D01*
X183795000Y-56270000D02*
X183000000Y-55475000D01*
X178100000Y-116500000D02*
X178100000Y-97000000D01*
X134350000Y-54000000D02*
X133950000Y-54000000D01*
D36*
X168450000Y-109600000D02*
X168450000Y-114550000D01*
D38*
X169850000Y-125300000D02*
X167800000Y-125300000D01*
X176000000Y-59000000D02*
X176000000Y-58525000D01*
X132900000Y-52950000D02*
X132900000Y-51183582D01*
X181040000Y-116500000D02*
X178100000Y-116500000D01*
X182350000Y-130000000D02*
X174550000Y-130000000D01*
X174550000Y-130000000D02*
X169850000Y-125300000D01*
X176700000Y-50600000D02*
X181200000Y-55100000D01*
X175700000Y-92100000D02*
X175700000Y-87800000D01*
X183795000Y-75335000D02*
X182000000Y-73540000D01*
X183795000Y-71745000D02*
X183795000Y-57200000D01*
X182000000Y-55100000D02*
X182100000Y-55000000D01*
X169850000Y-125300000D02*
X170850000Y-125300000D01*
X182000000Y-73540000D02*
X183795000Y-71745000D01*
X178100000Y-97000000D02*
X175700000Y-94600000D01*
X174550000Y-130000000D02*
X173375000Y-128825000D01*
X177880000Y-85620000D02*
X182000000Y-85620000D01*
X175800000Y-92000000D02*
X175700000Y-92100000D01*
D36*
X168450000Y-114550000D02*
X168000000Y-115000000D01*
D38*
X178100000Y-116500000D02*
X173100000Y-116500000D01*
X173375000Y-128825000D02*
X134075000Y-128825000D01*
X183795000Y-83825000D02*
X183795000Y-75335000D01*
X176000000Y-58525000D02*
X177325000Y-57200000D01*
X132900000Y-51183582D02*
X133483582Y-50600000D01*
X177325000Y-57200000D02*
X183795000Y-57200000D01*
X182100000Y-55000000D02*
X183000000Y-55000000D01*
X175700000Y-94600000D02*
X175700000Y-92100000D01*
X169500000Y-116500000D02*
X168000000Y-115000000D01*
X170850000Y-125300000D02*
X173100000Y-123050000D01*
X173100000Y-116500000D02*
X169500000Y-116500000D01*
X133483582Y-50600000D02*
X176700000Y-50600000D01*
X133950000Y-54000000D02*
X132900000Y-52950000D01*
X182000000Y-115540000D02*
X181040000Y-116500000D01*
X183795000Y-57200000D02*
X183795000Y-56270000D01*
X175700000Y-87800000D02*
X177880000Y-85620000D01*
X173100000Y-123050000D02*
X173100000Y-116500000D01*
D37*
%TO.N,Net-(D1-K)*%
X133800000Y-132000000D02*
X133800000Y-132224114D01*
X134900000Y-52000000D02*
X134125000Y-52000000D01*
X134539386Y-132963500D02*
X181099000Y-132963500D01*
X181099000Y-132963500D02*
X182062500Y-132000000D01*
X133800000Y-132000000D02*
X133125000Y-132000000D01*
X133800000Y-132224114D02*
X134539386Y-132963500D01*
X183062500Y-52000000D02*
X181800000Y-52000000D01*
X161900000Y-97000000D02*
X161850000Y-96950000D01*
X162200000Y-97000000D02*
X161900000Y-97000000D01*
X161850000Y-96950000D02*
X160937500Y-96950000D01*
%TO.N,Net-(D1-A)*%
X135000000Y-130000000D02*
X135000000Y-132000000D01*
D38*
%TO.N,Net-(D3-A)*%
X136000000Y-52000000D02*
X136000000Y-54000000D01*
D37*
%TO.N,TX*%
X138830000Y-105800000D02*
X138830000Y-99929997D01*
X136350000Y-80450000D02*
X136350000Y-78920000D01*
X137300000Y-81400000D02*
X136350000Y-80450000D01*
X138036000Y-112273000D02*
X136926500Y-111163500D01*
X151200000Y-118200001D02*
X145272999Y-112273000D01*
X136926500Y-111163500D02*
X136926500Y-108236500D01*
X137063000Y-108100000D02*
X137800000Y-108100000D01*
X138830000Y-107070000D02*
X138830000Y-105800000D01*
X137800000Y-108100000D02*
X138830000Y-107070000D01*
X138830000Y-99929997D02*
X138000003Y-99100000D01*
X151200000Y-118600000D02*
X151200000Y-118200001D01*
X136926500Y-108236500D02*
X137063000Y-108100000D01*
X145272999Y-112273000D02*
X138036000Y-112273000D01*
%TO.N,D0*%
X147413500Y-103313500D02*
X147413500Y-104836500D01*
X139166500Y-107263500D02*
X139436500Y-107263500D01*
X139466500Y-107233500D02*
X139466500Y-104336500D01*
X135800000Y-98500000D02*
X135800000Y-101500000D01*
X139436500Y-107263500D02*
X139466500Y-107233500D01*
X147413500Y-104836500D02*
X146900000Y-105350000D01*
X140701500Y-103101500D02*
X140741500Y-103061500D01*
X137560000Y-108870000D02*
X139166500Y-107263500D01*
X147161500Y-103061500D02*
X147413500Y-103313500D01*
X135800000Y-101500000D02*
X137100000Y-102800000D01*
X148900000Y-80100000D02*
X148900000Y-79070000D01*
X140741500Y-103061500D02*
X147161500Y-103061500D01*
X135800000Y-98500000D02*
X138700000Y-98500000D01*
X137560000Y-109700000D02*
X137560000Y-108870000D01*
X148900000Y-79070000D02*
X149050000Y-78920000D01*
X139466500Y-104336500D02*
X140701500Y-103101500D01*
%TO.N,RX*%
X137900552Y-112600000D02*
X145099999Y-112600000D01*
X137500000Y-80300000D02*
X137620000Y-80180000D01*
X137560000Y-107540000D02*
X137160552Y-107540000D01*
X137663500Y-105696500D02*
X137663500Y-99563500D01*
X150700000Y-118200001D02*
X150700000Y-118600000D01*
X136599500Y-111298948D02*
X137900552Y-112600000D01*
X137160552Y-107540000D02*
X136599500Y-108101052D01*
X137560000Y-105800000D02*
X137663500Y-105696500D01*
X137663500Y-99563500D02*
X137200000Y-99100000D01*
X145099999Y-112600000D02*
X150700000Y-118200001D01*
X136599500Y-108101052D02*
X136599500Y-111298948D01*
X137620000Y-80180000D02*
X137620000Y-78920000D01*
X137560000Y-105800000D02*
X137560000Y-107540000D01*
%TO.N,+5V*%
X145275000Y-121850000D02*
X144728798Y-121850000D01*
X144728798Y-121850000D02*
X144573108Y-121694310D01*
X149566988Y-124266453D02*
X149566988Y-123633012D01*
X149566988Y-123633012D02*
X149700000Y-123500000D01*
%TO.N,Net-(J4-Pin_2)*%
X177650000Y-92000000D02*
X182000000Y-92000000D01*
%TO.N,Net-(J4-Pin_1)*%
X162036500Y-93300000D02*
X161125000Y-93300000D01*
X161125000Y-93300000D02*
X160875000Y-93050000D01*
%TO.N,Net-(J5-Pin_2)*%
X177650000Y-59000000D02*
X182000000Y-59000000D01*
%TO.N,Net-(J5-Pin_1)*%
X161700000Y-68700000D02*
X161700000Y-88300000D01*
X161700000Y-88300000D02*
X161000000Y-89000000D01*
X182000000Y-61540000D02*
X168860000Y-61540000D01*
X168860000Y-61540000D02*
X161700000Y-68700000D01*
%TO.N,/ESP32/GPIO16*%
X147300000Y-80900000D02*
X147300000Y-80800000D01*
X150977000Y-80900000D02*
X147300000Y-80900000D01*
X182000000Y-83080000D02*
X169518566Y-83080000D01*
X147300000Y-80800000D02*
X146510000Y-80010000D01*
X157180000Y-92700000D02*
X152907000Y-88427000D01*
X151600000Y-81523000D02*
X150977000Y-80900000D01*
X146510000Y-80010000D02*
X146510000Y-78920000D01*
X159898566Y-92700000D02*
X157180000Y-92700000D01*
X169518566Y-83080000D02*
X159898566Y-92700000D01*
X151600000Y-82000000D02*
X151600000Y-81523000D01*
X152907000Y-88427000D02*
X152907000Y-83307000D01*
X152907000Y-83307000D02*
X151600000Y-82000000D01*
%TO.N,/ESP32/GPIO14*%
X160681434Y-94570000D02*
X160711434Y-94600000D01*
X162300000Y-94600000D02*
X162600000Y-94600000D01*
X155800000Y-94570000D02*
X154370000Y-94570000D01*
X160711434Y-94600000D02*
X162300000Y-94600000D01*
X147780000Y-95220000D02*
X147780000Y-96420000D01*
X155800000Y-94570000D02*
X160681434Y-94570000D01*
X181136118Y-71000000D02*
X162168059Y-89968059D01*
X182000000Y-71000000D02*
X181136118Y-71000000D01*
X148000000Y-95000000D02*
X147780000Y-95220000D01*
X154370000Y-94570000D02*
X154300000Y-94500000D01*
%TO.N,Net-(Q1A-E1)*%
X151700000Y-118600000D02*
X151700000Y-113200000D01*
X151700000Y-113200000D02*
X146700000Y-108200000D01*
X146700000Y-106850000D02*
X146900000Y-106650000D01*
X146700000Y-108200000D02*
X146700000Y-106850000D01*
%TO.N,Net-(Q1B-E2)*%
X145148456Y-113248456D02*
X144951544Y-113248456D01*
X145100000Y-105250000D02*
X145000000Y-105350000D01*
X146036500Y-105836500D02*
X145100000Y-104900000D01*
X145100000Y-104900000D02*
X145100000Y-104400000D01*
X144991317Y-111709500D02*
X146036500Y-110664317D01*
X149700000Y-117800000D02*
X145300000Y-113400000D01*
X149700000Y-118600000D02*
X149700000Y-117800000D01*
X145100000Y-104400000D02*
X145100000Y-105250000D01*
X146036500Y-110664317D02*
X146036500Y-105836500D01*
X145100000Y-103800000D02*
X145100000Y-104400000D01*
X145300000Y-113400000D02*
X145148456Y-113248456D01*
%TO.N,Net-(Q1A-B1)*%
X146311500Y-104238500D02*
X146311500Y-105603338D01*
X146750000Y-103800000D02*
X146311500Y-104238500D01*
X146311500Y-105603338D02*
X146708162Y-106000000D01*
X146708162Y-106000000D02*
X146900000Y-106000000D01*
%TO.N,Net-(Q1B-B2)*%
X145588500Y-107661500D02*
X145588500Y-106188500D01*
X145400000Y-106000000D02*
X145000000Y-106000000D01*
X145588500Y-106188500D02*
X145400000Y-106000000D01*
X145050000Y-108200000D02*
X145588500Y-107661500D01*
%TO.N,/ESP32/GPIO15*%
X153983500Y-95283500D02*
X152300000Y-93600000D01*
X151177000Y-83220000D02*
X150300000Y-83220000D01*
X159062500Y-96000000D02*
X158346000Y-95283500D01*
X152300000Y-84343000D02*
X151177000Y-83220000D01*
X152300000Y-93600000D02*
X152300000Y-84343000D01*
X158346000Y-95283500D02*
X153983500Y-95283500D01*
%TO.N,/ESP32/GPIO17*%
X145240000Y-76660000D02*
X145240000Y-78920000D01*
X146000000Y-75900000D02*
X145240000Y-76660000D01*
X153234000Y-86334000D02*
X153234000Y-78134000D01*
X146100000Y-76000000D02*
X146000000Y-75900000D01*
X159000000Y-92100000D02*
X153234000Y-86334000D01*
X151100000Y-76000000D02*
X146100000Y-76000000D01*
X153234000Y-78134000D02*
X151100000Y-76000000D01*
%TO.N,/ESP32/GPIO18*%
X159125000Y-88050000D02*
X156270000Y-88050000D01*
X156270000Y-80707552D02*
X151135448Y-75573000D01*
X151135448Y-75573000D02*
X144127000Y-75573000D01*
X156270000Y-88050000D02*
X156270000Y-80707552D01*
X142700000Y-77000000D02*
X142700000Y-78920000D01*
X144127000Y-75573000D02*
X142700000Y-77000000D01*
%TO.N,Net-(U6-~{RST})*%
X150200000Y-124900000D02*
X150300000Y-125000000D01*
X150200000Y-123500000D02*
X150200000Y-124900000D01*
%TO.N,/USB Serial/USB_P*%
X145425000Y-121050000D02*
X148750000Y-121050000D01*
X145275000Y-120900000D02*
X145425000Y-121050000D01*
%TO.N,/USB Serial/USB_N*%
X145275000Y-122800000D02*
X145800000Y-122800000D01*
X148387234Y-121550000D02*
X148750000Y-121550000D01*
X148000734Y-121936500D02*
X148387234Y-121550000D01*
X146663500Y-121936500D02*
X148000734Y-121936500D01*
X145800000Y-122800000D02*
X146663500Y-121936500D01*
D36*
%TO.N,/ESP32/GPIO5*%
X145600000Y-94300000D02*
X144100000Y-92800000D01*
X170100000Y-109600000D02*
X159850000Y-99350000D01*
X149420000Y-94300000D02*
X145600000Y-94300000D01*
X143970000Y-91770000D02*
X143970000Y-78920000D01*
X159850000Y-99350000D02*
X154470000Y-99350000D01*
X154470000Y-99350000D02*
X149420000Y-94300000D01*
X172200000Y-107600000D02*
X172200000Y-109550000D01*
X172200000Y-109550000D02*
X172150000Y-109600000D01*
X170100000Y-109600000D02*
X172150000Y-109600000D01*
X144100000Y-91900000D02*
X143970000Y-91770000D01*
X144100000Y-92800000D02*
X144100000Y-91900000D01*
%TD*%
%TA.AperFunction,Conductor*%
%TO.N,GND*%
G36*
X185942539Y-49520185D02*
G01*
X185988294Y-49572989D01*
X185999500Y-49624500D01*
X185999500Y-51015416D01*
X185979815Y-51082455D01*
X185927011Y-51128210D01*
X185857853Y-51138154D01*
X185794297Y-51109129D01*
X185769964Y-51080517D01*
X185769027Y-51078999D01*
X185769025Y-51078996D01*
X185646003Y-50955974D01*
X185645999Y-50955971D01*
X185497933Y-50864642D01*
X185497927Y-50864639D01*
X185497925Y-50864638D01*
X185497922Y-50864637D01*
X185332776Y-50809913D01*
X185230855Y-50799500D01*
X185230848Y-50799500D01*
X184644152Y-50799500D01*
X184644144Y-50799500D01*
X184542223Y-50809913D01*
X184377077Y-50864637D01*
X184377066Y-50864642D01*
X184229000Y-50955971D01*
X184228996Y-50955974D01*
X184105974Y-51078996D01*
X184105971Y-51079000D01*
X184105538Y-51079703D01*
X184105114Y-51080083D01*
X184101493Y-51084664D01*
X184100710Y-51084045D01*
X184053590Y-51126428D01*
X183984628Y-51137649D01*
X183920546Y-51109806D01*
X183898657Y-51084544D01*
X183898507Y-51084664D01*
X183895859Y-51081315D01*
X183894462Y-51079703D01*
X183894028Y-51079000D01*
X183894025Y-51078996D01*
X183771003Y-50955974D01*
X183770999Y-50955971D01*
X183622933Y-50864642D01*
X183622927Y-50864639D01*
X183622925Y-50864638D01*
X183622922Y-50864637D01*
X183457776Y-50809913D01*
X183355855Y-50799500D01*
X183355848Y-50799500D01*
X182769152Y-50799500D01*
X182769144Y-50799500D01*
X182667223Y-50809913D01*
X182502077Y-50864637D01*
X182502066Y-50864642D01*
X182354000Y-50955971D01*
X182353996Y-50955974D01*
X182230973Y-51078997D01*
X182169836Y-51178115D01*
X182117888Y-51224839D01*
X182048925Y-51236060D01*
X182023344Y-51230059D01*
X181979257Y-51214632D01*
X181979249Y-51214630D01*
X181800004Y-51194435D01*
X181799996Y-51194435D01*
X181620750Y-51214630D01*
X181620745Y-51214631D01*
X181450476Y-51274211D01*
X181297737Y-51370184D01*
X181170184Y-51497737D01*
X181074211Y-51650476D01*
X181014631Y-51820745D01*
X181014630Y-51820750D01*
X180994435Y-51999996D01*
X180994435Y-52000003D01*
X181014630Y-52179249D01*
X181014631Y-52179254D01*
X181074211Y-52349523D01*
X181170184Y-52502262D01*
X181297738Y-52629816D01*
X181450478Y-52725789D01*
X181585185Y-52772925D01*
X181620745Y-52785368D01*
X181620750Y-52785369D01*
X181799996Y-52805565D01*
X181800000Y-52805565D01*
X181800004Y-52805565D01*
X181979248Y-52785369D01*
X181979248Y-52785368D01*
X181979255Y-52785368D01*
X182023345Y-52769939D01*
X182093120Y-52766377D01*
X182153748Y-52801105D01*
X182169836Y-52821884D01*
X182230971Y-52920999D01*
X182230974Y-52921003D01*
X182353996Y-53044025D01*
X182354000Y-53044028D01*
X182502066Y-53135357D01*
X182502069Y-53135358D01*
X182502075Y-53135362D01*
X182667225Y-53190087D01*
X182769152Y-53200500D01*
X182769157Y-53200500D01*
X183355843Y-53200500D01*
X183355848Y-53200500D01*
X183457775Y-53190087D01*
X183622925Y-53135362D01*
X183771003Y-53044026D01*
X183894026Y-52921003D01*
X183894458Y-52920301D01*
X183894881Y-52919921D01*
X183898507Y-52915336D01*
X183899290Y-52915955D01*
X183946402Y-52873575D01*
X184015364Y-52862349D01*
X184079448Y-52890188D01*
X184101342Y-52915455D01*
X184101493Y-52915336D01*
X184104143Y-52918687D01*
X184105540Y-52920299D01*
X184105972Y-52920999D01*
X184105975Y-52921004D01*
X184228996Y-53044025D01*
X184229000Y-53044028D01*
X184377066Y-53135357D01*
X184377069Y-53135358D01*
X184377075Y-53135362D01*
X184542225Y-53190087D01*
X184644152Y-53200500D01*
X184644157Y-53200500D01*
X185230843Y-53200500D01*
X185230848Y-53200500D01*
X185332775Y-53190087D01*
X185497925Y-53135362D01*
X185646003Y-53044026D01*
X185769026Y-52921003D01*
X185769961Y-52919487D01*
X185770873Y-52918666D01*
X185773507Y-52915336D01*
X185774075Y-52915785D01*
X185821907Y-52872763D01*
X185890870Y-52861539D01*
X185954952Y-52889381D01*
X185993809Y-52947449D01*
X185999500Y-52984583D01*
X185999500Y-133375500D01*
X185979815Y-133442539D01*
X185927011Y-133488294D01*
X185875500Y-133499500D01*
X181659977Y-133499500D01*
X181592938Y-133479815D01*
X181547183Y-133427011D01*
X181537239Y-133357853D01*
X181566264Y-133294297D01*
X181572295Y-133287820D01*
X181572296Y-133287819D01*
X181628103Y-133232011D01*
X181689424Y-133198527D01*
X181728387Y-133196335D01*
X181769152Y-133200500D01*
X181769156Y-133200500D01*
X182355843Y-133200500D01*
X182355848Y-133200500D01*
X182457775Y-133190087D01*
X182622925Y-133135362D01*
X182771003Y-133044026D01*
X182894026Y-132921003D01*
X182894458Y-132920301D01*
X182894881Y-132919921D01*
X182898507Y-132915336D01*
X182899290Y-132915955D01*
X182946402Y-132873575D01*
X183015364Y-132862349D01*
X183079448Y-132890188D01*
X183101342Y-132915455D01*
X183101493Y-132915336D01*
X183104143Y-132918687D01*
X183105540Y-132920299D01*
X183105972Y-132920999D01*
X183105975Y-132921004D01*
X183228996Y-133044025D01*
X183229000Y-133044028D01*
X183377066Y-133135357D01*
X183377069Y-133135358D01*
X183377075Y-133135362D01*
X183542225Y-133190087D01*
X183644152Y-133200500D01*
X183644157Y-133200500D01*
X184230843Y-133200500D01*
X184230848Y-133200500D01*
X184332775Y-133190087D01*
X184497925Y-133135362D01*
X184646003Y-133044026D01*
X184769026Y-132921003D01*
X184860362Y-132772925D01*
X184915087Y-132607775D01*
X184925500Y-132505848D01*
X184925500Y-131494152D01*
X184915087Y-131392225D01*
X184860362Y-131227075D01*
X184860358Y-131227069D01*
X184860357Y-131227066D01*
X184769028Y-131079000D01*
X184769027Y-131078999D01*
X184769026Y-131078997D01*
X184665523Y-130975494D01*
X184632039Y-130914171D01*
X184637023Y-130844479D01*
X184665523Y-130800133D01*
X184755472Y-130710185D01*
X184843478Y-130564606D01*
X184894086Y-130402196D01*
X184900500Y-130331616D01*
X184900500Y-129668384D01*
X184894086Y-129597804D01*
X184843478Y-129435394D01*
X184755472Y-129289815D01*
X184755470Y-129289813D01*
X184755469Y-129289811D01*
X184635188Y-129169530D01*
X184489606Y-129081522D01*
X184472138Y-129076079D01*
X184327196Y-129030914D01*
X184327194Y-129030913D01*
X184327192Y-129030913D01*
X184277778Y-129026423D01*
X184256616Y-129024500D01*
X183743384Y-129024500D01*
X183724145Y-129026248D01*
X183672807Y-129030913D01*
X183510393Y-129081522D01*
X183364811Y-129169530D01*
X183364810Y-129169531D01*
X183262681Y-129271661D01*
X183201358Y-129305146D01*
X183131666Y-129300162D01*
X183087319Y-129271661D01*
X182985188Y-129169530D01*
X182839606Y-129081522D01*
X182822138Y-129076079D01*
X182677196Y-129030914D01*
X182677194Y-129030913D01*
X182677192Y-129030913D01*
X182627778Y-129026423D01*
X182606616Y-129024500D01*
X182606613Y-129024500D01*
X182586434Y-129024500D01*
X182562243Y-129022117D01*
X182524551Y-129014619D01*
X182448543Y-128999500D01*
X182448541Y-128999500D01*
X175015783Y-128999500D01*
X174948744Y-128979815D01*
X174928102Y-128963181D01*
X171852601Y-125887680D01*
X171819116Y-125826357D01*
X171824100Y-125756665D01*
X171852601Y-125712318D01*
X172295236Y-125269684D01*
X173877140Y-123687781D01*
X173986632Y-123523914D01*
X174062052Y-123341835D01*
X174100501Y-123148540D01*
X174100501Y-122951459D01*
X174100501Y-122946349D01*
X174100500Y-122946323D01*
X174100500Y-121541966D01*
X174649500Y-121541966D01*
X174649500Y-124458028D01*
X174649500Y-124458033D01*
X174649501Y-124458036D01*
X174651190Y-124477032D01*
X174660113Y-124577415D01*
X174716089Y-124773045D01*
X174716090Y-124773048D01*
X174716091Y-124773049D01*
X174810302Y-124953407D01*
X174849661Y-125001677D01*
X174930240Y-125100500D01*
X174938891Y-125111109D01*
X174953859Y-125123314D01*
X174993377Y-125180932D01*
X174999500Y-125219416D01*
X174999500Y-125298544D01*
X175037947Y-125491828D01*
X175037949Y-125491836D01*
X175113367Y-125673910D01*
X175113372Y-125673920D01*
X175222860Y-125837780D01*
X175222863Y-125837784D01*
X175362215Y-125977136D01*
X175362219Y-125977139D01*
X175526079Y-126086627D01*
X175526083Y-126086629D01*
X175526086Y-126086631D01*
X175708164Y-126162051D01*
X175901455Y-126200499D01*
X175901458Y-126200500D01*
X175901460Y-126200500D01*
X176098542Y-126200500D01*
X176098543Y-126200499D01*
X176291836Y-126162051D01*
X176473914Y-126086631D01*
X176637781Y-125977139D01*
X176787778Y-125827141D01*
X176787782Y-125827139D01*
X176927139Y-125687782D01*
X177036632Y-125523914D01*
X177049637Y-125492517D01*
X177097864Y-125376087D01*
X177097864Y-125376086D01*
X177098728Y-125373999D01*
X177112051Y-125341836D01*
X177112547Y-125339338D01*
X177113167Y-125338153D01*
X177113819Y-125336006D01*
X177114226Y-125336129D01*
X177144931Y-125277429D01*
X177176756Y-125253619D01*
X177183688Y-125249998D01*
X177203407Y-125239698D01*
X177361109Y-125111109D01*
X177489698Y-124953407D01*
X177583909Y-124773049D01*
X177639886Y-124577418D01*
X177650500Y-124458037D01*
X177650499Y-121541964D01*
X177639886Y-121422582D01*
X177583909Y-121226951D01*
X177489698Y-121046593D01*
X177423189Y-120965026D01*
X177361109Y-120888890D01*
X177212216Y-120767485D01*
X177203407Y-120760302D01*
X177023049Y-120666091D01*
X177023048Y-120666090D01*
X177023045Y-120666089D01*
X176905829Y-120632550D01*
X176827418Y-120610114D01*
X176827415Y-120610113D01*
X176827413Y-120610113D01*
X176761102Y-120604217D01*
X176708037Y-120599500D01*
X176708032Y-120599500D01*
X175591971Y-120599500D01*
X175591965Y-120599500D01*
X175591964Y-120599501D01*
X175580316Y-120600536D01*
X175472584Y-120610113D01*
X175276954Y-120666089D01*
X175211078Y-120700500D01*
X175096593Y-120760302D01*
X175096591Y-120760303D01*
X175096590Y-120760304D01*
X174938890Y-120888890D01*
X174810304Y-121046590D01*
X174716089Y-121226954D01*
X174660114Y-121422583D01*
X174660113Y-121422586D01*
X174649500Y-121541966D01*
X174100500Y-121541966D01*
X174100500Y-117624500D01*
X174120185Y-117557461D01*
X174172989Y-117511706D01*
X174224500Y-117500500D01*
X181138542Y-117500500D01*
X181157870Y-117496655D01*
X181235188Y-117481275D01*
X181331836Y-117462051D01*
X181385165Y-117439961D01*
X181513914Y-117386632D01*
X181677782Y-117277139D01*
X181817139Y-117137782D01*
X181817140Y-117137779D01*
X181824206Y-117130714D01*
X181824209Y-117130710D01*
X182008101Y-116946818D01*
X182069424Y-116913333D01*
X182095782Y-116910499D01*
X182895002Y-116910499D01*
X182895008Y-116910499D01*
X182997797Y-116899999D01*
X183164334Y-116844814D01*
X183313656Y-116752712D01*
X183437712Y-116628656D01*
X183529814Y-116479334D01*
X183584999Y-116312797D01*
X183595500Y-116210009D01*
X183595499Y-114869992D01*
X183584999Y-114767203D01*
X183529814Y-114600666D01*
X183437712Y-114451344D01*
X183313656Y-114327288D01*
X183164334Y-114235186D01*
X183164332Y-114235185D01*
X183164325Y-114235181D01*
X183163165Y-114234640D01*
X183162503Y-114234057D01*
X183158187Y-114231395D01*
X183158642Y-114230657D01*
X183110727Y-114188466D01*
X183091577Y-114121272D01*
X183111795Y-114054392D01*
X183127892Y-114034578D01*
X183269977Y-113892493D01*
X183396728Y-113718036D01*
X183494627Y-113525901D01*
X183561266Y-113320809D01*
X183572481Y-113250000D01*
X182542709Y-113250000D01*
X182554452Y-113229661D01*
X182595000Y-113078333D01*
X182595000Y-112921667D01*
X182554452Y-112770339D01*
X182542709Y-112750000D01*
X183572481Y-112750000D01*
X183561266Y-112679190D01*
X183494627Y-112474098D01*
X183396728Y-112281963D01*
X183269974Y-112107503D01*
X183269974Y-112107502D01*
X183117497Y-111955025D01*
X182943036Y-111828271D01*
X182750901Y-111730372D01*
X182545809Y-111663734D01*
X182332820Y-111630000D01*
X182250000Y-111630000D01*
X182250000Y-112457290D01*
X182229661Y-112445548D01*
X182078333Y-112405000D01*
X181921667Y-112405000D01*
X181770339Y-112445548D01*
X181750000Y-112457290D01*
X181750000Y-111630000D01*
X181667180Y-111630000D01*
X181454190Y-111663734D01*
X181249098Y-111730372D01*
X181056963Y-111828271D01*
X180882503Y-111955025D01*
X180882502Y-111955025D01*
X180730025Y-112107502D01*
X180730025Y-112107503D01*
X180603271Y-112281963D01*
X180505372Y-112474098D01*
X180438733Y-112679190D01*
X180427519Y-112750000D01*
X181457291Y-112750000D01*
X181445548Y-112770339D01*
X181405000Y-112921667D01*
X181405000Y-113078333D01*
X181445548Y-113229661D01*
X181457291Y-113250000D01*
X180427519Y-113250000D01*
X180438733Y-113320809D01*
X180505372Y-113525901D01*
X180603271Y-113718036D01*
X180730025Y-113892496D01*
X180730025Y-113892497D01*
X180872107Y-114034579D01*
X180905592Y-114095902D01*
X180900608Y-114165594D01*
X180858736Y-114221527D01*
X180836840Y-114234638D01*
X180835672Y-114235182D01*
X180686342Y-114327289D01*
X180562289Y-114451342D01*
X180470187Y-114600663D01*
X180470186Y-114600666D01*
X180415001Y-114767203D01*
X180415001Y-114767204D01*
X180415000Y-114767204D01*
X180404500Y-114869983D01*
X180404500Y-115375500D01*
X180384815Y-115442539D01*
X180332011Y-115488294D01*
X180280500Y-115499500D01*
X179224500Y-115499500D01*
X179157461Y-115479815D01*
X179111706Y-115427011D01*
X179100500Y-115375500D01*
X179100500Y-97104675D01*
X179100501Y-97104654D01*
X179100501Y-96901457D01*
X179100500Y-96901455D01*
X179084334Y-96820185D01*
X179062052Y-96708165D01*
X178986632Y-96526086D01*
X178986631Y-96526085D01*
X178986628Y-96526079D01*
X178877140Y-96362219D01*
X178877137Y-96362215D01*
X176736819Y-94221897D01*
X176703334Y-94160574D01*
X176700500Y-94134216D01*
X176700500Y-92816519D01*
X176720185Y-92749480D01*
X176736731Y-92728926D01*
X176737232Y-92728424D01*
X176798520Y-92694879D01*
X176868216Y-92699794D01*
X176912680Y-92728338D01*
X177014811Y-92830469D01*
X177014813Y-92830470D01*
X177014815Y-92830472D01*
X177160394Y-92918478D01*
X177322804Y-92969086D01*
X177393384Y-92975500D01*
X177393387Y-92975500D01*
X177906613Y-92975500D01*
X177906616Y-92975500D01*
X177977196Y-92969086D01*
X178139606Y-92918478D01*
X178285185Y-92830472D01*
X178405472Y-92710185D01*
X178457664Y-92623848D01*
X178509191Y-92576662D01*
X178563780Y-92564000D01*
X180448236Y-92564000D01*
X180515275Y-92583685D01*
X180558721Y-92631705D01*
X180602843Y-92718299D01*
X180729641Y-92892821D01*
X180729643Y-92892823D01*
X180871624Y-93034804D01*
X180905109Y-93096127D01*
X180900125Y-93165819D01*
X180858253Y-93221752D01*
X180836360Y-93234861D01*
X180835677Y-93235179D01*
X180686342Y-93327289D01*
X180562289Y-93451342D01*
X180470187Y-93600663D01*
X180470185Y-93600668D01*
X180445802Y-93674253D01*
X180415001Y-93767203D01*
X180415001Y-93767204D01*
X180415000Y-93767204D01*
X180404500Y-93869983D01*
X180404500Y-95210001D01*
X180404501Y-95210018D01*
X180415000Y-95312796D01*
X180415001Y-95312799D01*
X180439049Y-95385369D01*
X180470186Y-95479334D01*
X180562288Y-95628656D01*
X180686344Y-95752712D01*
X180835666Y-95844814D01*
X181002203Y-95899999D01*
X181104991Y-95910500D01*
X182895008Y-95910499D01*
X182997797Y-95899999D01*
X183164334Y-95844814D01*
X183313656Y-95752712D01*
X183437712Y-95628656D01*
X183529814Y-95479334D01*
X183584999Y-95312797D01*
X183595500Y-95210009D01*
X183595499Y-93869992D01*
X183593211Y-93847598D01*
X183584999Y-93767203D01*
X183584998Y-93767200D01*
X183571242Y-93725688D01*
X183529814Y-93600666D01*
X183437712Y-93451344D01*
X183313656Y-93327288D01*
X183164334Y-93235186D01*
X183164326Y-93235181D01*
X183163645Y-93234864D01*
X183163256Y-93234521D01*
X183158187Y-93231395D01*
X183158721Y-93230528D01*
X183111208Y-93188688D01*
X183092060Y-93121494D01*
X183112280Y-93054614D01*
X183128366Y-93034813D01*
X183270359Y-92892821D01*
X183397157Y-92718299D01*
X183495092Y-92526089D01*
X183561754Y-92320926D01*
X183584548Y-92177011D01*
X183595500Y-92107866D01*
X183595500Y-91892133D01*
X183573002Y-91750095D01*
X183561754Y-91679074D01*
X183495092Y-91473911D01*
X183397157Y-91281701D01*
X183270359Y-91107179D01*
X183117821Y-90954641D01*
X182943299Y-90827843D01*
X182751089Y-90729908D01*
X182545926Y-90663246D01*
X182545924Y-90663245D01*
X182545922Y-90663245D01*
X182332866Y-90629500D01*
X182332861Y-90629500D01*
X181667139Y-90629500D01*
X181667134Y-90629500D01*
X181454077Y-90663245D01*
X181248908Y-90729909D01*
X181056700Y-90827843D01*
X181052815Y-90830666D01*
X180882179Y-90954641D01*
X180882177Y-90954643D01*
X180882176Y-90954643D01*
X180729643Y-91107176D01*
X180729643Y-91107177D01*
X180729641Y-91107179D01*
X180684342Y-91169528D01*
X180602843Y-91281700D01*
X180558721Y-91368295D01*
X180510746Y-91419091D01*
X180448236Y-91436000D01*
X178563780Y-91436000D01*
X178496741Y-91416315D01*
X178457664Y-91376151D01*
X178405472Y-91289815D01*
X178405470Y-91289813D01*
X178405469Y-91289811D01*
X178285188Y-91169530D01*
X178139606Y-91081522D01*
X177977196Y-91030914D01*
X177977194Y-91030913D01*
X177977192Y-91030913D01*
X177927778Y-91026423D01*
X177906616Y-91024500D01*
X177393384Y-91024500D01*
X177374145Y-91026248D01*
X177322807Y-91030913D01*
X177160393Y-91081522D01*
X177014813Y-91169529D01*
X176912680Y-91271662D01*
X176851357Y-91305146D01*
X176781665Y-91300162D01*
X176737230Y-91271573D01*
X176736731Y-91271073D01*
X176703307Y-91209717D01*
X176700500Y-91183480D01*
X176700500Y-88265782D01*
X176720185Y-88198743D01*
X176736819Y-88178101D01*
X178258102Y-86656819D01*
X178319425Y-86623334D01*
X178345783Y-86620500D01*
X180438706Y-86620500D01*
X180505745Y-86640185D01*
X180544243Y-86679401D01*
X180562288Y-86708656D01*
X180686344Y-86832712D01*
X180835666Y-86924814D01*
X181002203Y-86979999D01*
X181104991Y-86990500D01*
X182895008Y-86990499D01*
X182997797Y-86979999D01*
X183164334Y-86924814D01*
X183313656Y-86832712D01*
X183437712Y-86708656D01*
X183529814Y-86559334D01*
X183584999Y-86392797D01*
X183595500Y-86290009D01*
X183595499Y-85490782D01*
X183615183Y-85423744D01*
X183631818Y-85403102D01*
X184572136Y-84462785D01*
X184572136Y-84462784D01*
X184572139Y-84462782D01*
X184620025Y-84391115D01*
X184681631Y-84298916D01*
X184681635Y-84298908D01*
X184703624Y-84245819D01*
X184732751Y-84175500D01*
X184757051Y-84116836D01*
X184795500Y-83923541D01*
X184795500Y-83726460D01*
X184795500Y-75236459D01*
X184795500Y-75236456D01*
X184760361Y-75059804D01*
X184757051Y-75043164D01*
X184714494Y-74940423D01*
X184711667Y-74933599D01*
X184681635Y-74861093D01*
X184681634Y-74861092D01*
X184681632Y-74861086D01*
X184572139Y-74697218D01*
X184432782Y-74557861D01*
X184432781Y-74557860D01*
X184036210Y-74161289D01*
X183631818Y-73756897D01*
X183598333Y-73695574D01*
X183595499Y-73669216D01*
X183595499Y-73410783D01*
X183615184Y-73343744D01*
X183631818Y-73323102D01*
X184084930Y-72869991D01*
X184572139Y-72382782D01*
X184609219Y-72327288D01*
X184681631Y-72218916D01*
X184681635Y-72218908D01*
X184700999Y-72172157D01*
X184732751Y-72095500D01*
X184757051Y-72036836D01*
X184795500Y-71843541D01*
X184795500Y-71646460D01*
X184795500Y-57101459D01*
X184795500Y-56171459D01*
X184795500Y-56171456D01*
X184795499Y-56171454D01*
X184785999Y-56123691D01*
X184792226Y-56054100D01*
X184835089Y-55998922D01*
X184900979Y-55975678D01*
X184905176Y-55975565D01*
X184906609Y-55975500D01*
X184906616Y-55975500D01*
X184977196Y-55969086D01*
X185139606Y-55918478D01*
X185285185Y-55830472D01*
X185405472Y-55710185D01*
X185493478Y-55564606D01*
X185544086Y-55402196D01*
X185550500Y-55331616D01*
X185550500Y-54668384D01*
X185544086Y-54597804D01*
X185493478Y-54435394D01*
X185405472Y-54289815D01*
X185405470Y-54289813D01*
X185405469Y-54289811D01*
X185285188Y-54169530D01*
X185139606Y-54081522D01*
X185100024Y-54069188D01*
X184977196Y-54030914D01*
X184977194Y-54030913D01*
X184977192Y-54030913D01*
X184927778Y-54026423D01*
X184906616Y-54024500D01*
X184393384Y-54024500D01*
X184374145Y-54026248D01*
X184322807Y-54030913D01*
X184160393Y-54081522D01*
X184014811Y-54169530D01*
X184014810Y-54169531D01*
X183912681Y-54271661D01*
X183851358Y-54305146D01*
X183781666Y-54300162D01*
X183737319Y-54271661D01*
X183635188Y-54169530D01*
X183489606Y-54081522D01*
X183450024Y-54069188D01*
X183327196Y-54030914D01*
X183327194Y-54030913D01*
X183327192Y-54030913D01*
X183277778Y-54026423D01*
X183256616Y-54024500D01*
X183256613Y-54024500D01*
X183236434Y-54024500D01*
X183212243Y-54022117D01*
X183174551Y-54014619D01*
X183098543Y-53999500D01*
X183098541Y-53999500D01*
X182198540Y-53999500D01*
X182001459Y-53999500D01*
X182001456Y-53999500D01*
X181808171Y-54037946D01*
X181808167Y-54037948D01*
X181808165Y-54037948D01*
X181808164Y-54037949D01*
X181769087Y-54054135D01*
X181732743Y-54069189D01*
X181732740Y-54069190D01*
X181704184Y-54081017D01*
X181634715Y-54088483D01*
X181572237Y-54057206D01*
X181569055Y-54054135D01*
X177481479Y-49966559D01*
X177481459Y-49966537D01*
X177337785Y-49822863D01*
X177337781Y-49822860D01*
X177195218Y-49727602D01*
X177150413Y-49673990D01*
X177141706Y-49604665D01*
X177171861Y-49541637D01*
X177231304Y-49504918D01*
X177264109Y-49500500D01*
X185875500Y-49500500D01*
X185942539Y-49520185D01*
G37*
%TD.AperFunction*%
%TA.AperFunction,Conductor*%
G36*
X132733039Y-78689685D02*
G01*
X132778794Y-78742489D01*
X132790000Y-78794000D01*
X132790000Y-80170000D01*
X133037828Y-80170000D01*
X133037839Y-80169999D01*
X133081523Y-80165302D01*
X133150283Y-80177706D01*
X133201421Y-80225315D01*
X133218702Y-80293014D01*
X133215674Y-80316176D01*
X133214631Y-80320746D01*
X133194435Y-80499996D01*
X133194435Y-80500003D01*
X133214630Y-80679246D01*
X133214632Y-80679256D01*
X133239041Y-80749011D01*
X133246000Y-80789966D01*
X133246000Y-95054805D01*
X133226315Y-95121844D01*
X133173511Y-95167599D01*
X133104353Y-95177543D01*
X133099585Y-95176639D01*
X133037844Y-95170000D01*
X132790000Y-95170000D01*
X132790000Y-97670000D01*
X133037828Y-97670000D01*
X133037844Y-97669999D01*
X133097372Y-97663598D01*
X133097375Y-97663597D01*
X133130949Y-97651075D01*
X133200640Y-97646089D01*
X133217619Y-97651075D01*
X133252511Y-97664089D01*
X133252513Y-97664090D01*
X133252514Y-97664090D01*
X133252517Y-97664091D01*
X133263634Y-97665286D01*
X133328183Y-97692021D01*
X133368033Y-97749413D01*
X133370529Y-97819238D01*
X133356497Y-97852724D01*
X133306523Y-97935391D01*
X133255913Y-98097807D01*
X133251171Y-98150000D01*
X133249500Y-98168384D01*
X133249500Y-98831616D01*
X133255914Y-98902196D01*
X133278133Y-98973501D01*
X133282088Y-98986193D01*
X133283238Y-99056053D01*
X133246437Y-99115445D01*
X133183367Y-99145513D01*
X133114055Y-99136709D01*
X133098605Y-99128620D01*
X133033492Y-99088457D01*
X133033481Y-99088452D01*
X132872606Y-99035144D01*
X132773322Y-99025000D01*
X132750000Y-99025000D01*
X132750000Y-100974999D01*
X132773308Y-100974999D01*
X132773322Y-100974998D01*
X132872607Y-100964855D01*
X133033481Y-100911547D01*
X133033492Y-100911542D01*
X133177731Y-100822573D01*
X133186959Y-100813345D01*
X133248279Y-100779856D01*
X133317971Y-100784835D01*
X133362327Y-100813339D01*
X133371955Y-100822967D01*
X133371959Y-100822970D01*
X133516294Y-100911998D01*
X133516297Y-100911999D01*
X133516303Y-100912003D01*
X133677292Y-100965349D01*
X133776655Y-100975500D01*
X134323344Y-100975499D01*
X134323352Y-100975498D01*
X134323355Y-100975498D01*
X134377760Y-100969940D01*
X134422708Y-100965349D01*
X134535677Y-100927914D01*
X134605504Y-100925513D01*
X134662361Y-100957939D01*
X134734238Y-101029816D01*
X134886978Y-101125789D01*
X135057245Y-101185368D01*
X135125884Y-101193101D01*
X135190296Y-101220166D01*
X135229852Y-101277760D01*
X135236000Y-101316321D01*
X135236000Y-101574252D01*
X135274435Y-101717696D01*
X135348687Y-101846304D01*
X135348689Y-101846306D01*
X135460761Y-101958378D01*
X135460767Y-101958383D01*
X136262743Y-102760360D01*
X136296228Y-102821683D01*
X136298282Y-102834157D01*
X136314630Y-102979250D01*
X136314631Y-102979254D01*
X136374211Y-103149523D01*
X136470184Y-103302262D01*
X136597738Y-103429816D01*
X136750478Y-103525789D01*
X136920745Y-103585368D01*
X136989384Y-103593101D01*
X137053796Y-103620166D01*
X137093352Y-103677760D01*
X137099500Y-103716321D01*
X137099500Y-104013479D01*
X137079815Y-104080518D01*
X137027011Y-104126273D01*
X137018833Y-104129661D01*
X136947671Y-104156202D01*
X136947664Y-104156206D01*
X136832455Y-104242452D01*
X136832452Y-104242455D01*
X136746206Y-104357664D01*
X136746202Y-104357671D01*
X136695908Y-104492517D01*
X136689501Y-104552116D01*
X136689501Y-104552123D01*
X136689500Y-104552135D01*
X136689500Y-107047870D01*
X136689501Y-107047876D01*
X136695909Y-107107487D01*
X136697692Y-107115031D01*
X136695826Y-107115471D01*
X136700088Y-107175004D01*
X136666606Y-107236329D01*
X136666601Y-107236333D01*
X136253198Y-107649737D01*
X136148188Y-107754746D01*
X136148186Y-107754748D01*
X136130714Y-107785011D01*
X136123329Y-107797804D01*
X136106864Y-107826321D01*
X136073935Y-107883354D01*
X136069916Y-107898355D01*
X136041098Y-108005909D01*
X136041098Y-108005910D01*
X136035500Y-108026799D01*
X136035500Y-111373203D01*
X136042803Y-111400459D01*
X136042815Y-111400501D01*
X136073935Y-111516643D01*
X136073936Y-111516646D01*
X136081790Y-111530250D01*
X136148187Y-111645252D01*
X136148189Y-111645254D01*
X136260261Y-111757326D01*
X136260267Y-111757331D01*
X137444898Y-112941962D01*
X137444908Y-112941973D01*
X137449238Y-112946303D01*
X137449239Y-112946304D01*
X137554248Y-113051313D01*
X137624093Y-113091638D01*
X137682855Y-113125565D01*
X137826299Y-113164000D01*
X137826300Y-113164000D01*
X144025650Y-113164000D01*
X144092689Y-113183685D01*
X144138444Y-113236489D01*
X144148870Y-113274117D01*
X144166174Y-113427705D01*
X144166175Y-113427710D01*
X144225755Y-113597979D01*
X144321728Y-113750718D01*
X144449282Y-113878272D01*
X144602022Y-113974245D01*
X144623196Y-113981654D01*
X144772289Y-114033824D01*
X144772294Y-114033825D01*
X144951540Y-114054021D01*
X144951544Y-114054021D01*
X144951546Y-114054021D01*
X145010448Y-114047384D01*
X145076320Y-114039962D01*
X145145142Y-114052016D01*
X145177885Y-114075501D01*
X149068164Y-117965781D01*
X149101649Y-118027104D01*
X149096665Y-118096796D01*
X149095044Y-118100914D01*
X149088992Y-118115524D01*
X149088990Y-118115529D01*
X149074501Y-118225589D01*
X149074501Y-118225596D01*
X149074500Y-118225605D01*
X149074500Y-118800500D01*
X149054815Y-118867539D01*
X149002011Y-118913294D01*
X148950500Y-118924500D01*
X148375596Y-118924500D01*
X148265536Y-118938988D01*
X148265527Y-118938991D01*
X148128574Y-118995719D01*
X148128571Y-118995720D01*
X148128571Y-118995721D01*
X148010964Y-119085964D01*
X147956037Y-119157547D01*
X147920719Y-119203574D01*
X147863991Y-119340527D01*
X147863990Y-119340529D01*
X147849500Y-119450598D01*
X147849500Y-119649403D01*
X147863989Y-119759468D01*
X147866094Y-119767322D01*
X147862814Y-119768200D01*
X147868581Y-119822073D01*
X147865517Y-119832522D01*
X147866095Y-119832677D01*
X147863990Y-119840529D01*
X147849500Y-119950598D01*
X147849500Y-120149403D01*
X147863989Y-120259468D01*
X147866094Y-120267322D01*
X147863010Y-120268148D01*
X147868849Y-120322737D01*
X147866014Y-120332652D01*
X147866582Y-120332804D01*
X147864478Y-120340655D01*
X147859538Y-120378185D01*
X147831272Y-120442081D01*
X147772948Y-120480553D01*
X147736599Y-120486000D01*
X146457842Y-120486000D01*
X146390803Y-120466315D01*
X146351110Y-120425121D01*
X146351038Y-120425000D01*
X146305581Y-120348135D01*
X146305579Y-120348133D01*
X146305576Y-120348129D01*
X146189370Y-120231923D01*
X146189362Y-120231917D01*
X146067964Y-120160123D01*
X146047898Y-120148256D01*
X146047897Y-120148255D01*
X146047896Y-120148255D01*
X146047893Y-120148254D01*
X145890073Y-120102402D01*
X145890067Y-120102401D01*
X145853201Y-120099500D01*
X145853194Y-120099500D01*
X144696806Y-120099500D01*
X144696798Y-120099500D01*
X144659932Y-120102401D01*
X144659926Y-120102402D01*
X144502106Y-120148254D01*
X144502105Y-120148254D01*
X144456202Y-120175401D01*
X144388478Y-120192582D01*
X144322215Y-120170422D01*
X144305401Y-120156349D01*
X144267985Y-120118933D01*
X144267962Y-120118912D01*
X144009817Y-119860767D01*
X144009815Y-119860764D01*
X143897740Y-119748689D01*
X143897738Y-119748687D01*
X143769130Y-119674435D01*
X143769128Y-119674434D01*
X143769127Y-119674434D01*
X143745819Y-119668188D01*
X143745819Y-119668189D01*
X143625687Y-119636000D01*
X143625686Y-119636000D01*
X141974252Y-119636000D01*
X141825747Y-119636000D01*
X141682303Y-119674435D01*
X141682300Y-119674436D01*
X141635229Y-119701612D01*
X141635229Y-119701613D01*
X141553699Y-119748685D01*
X141553696Y-119748687D01*
X141553693Y-119748689D01*
X141448685Y-119853698D01*
X141448683Y-119853700D01*
X141424315Y-119878067D01*
X141362992Y-119911551D01*
X141293303Y-119906566D01*
X141157482Y-119855908D01*
X141157483Y-119855908D01*
X141097883Y-119849501D01*
X141097881Y-119849500D01*
X141097873Y-119849500D01*
X141097864Y-119849500D01*
X138502129Y-119849500D01*
X138502123Y-119849501D01*
X138442516Y-119855908D01*
X138307671Y-119906202D01*
X138307664Y-119906206D01*
X138192455Y-119992452D01*
X138192452Y-119992455D01*
X138123766Y-120084208D01*
X138067832Y-120126079D01*
X137998141Y-120131063D01*
X137936818Y-120097577D01*
X137903334Y-120036254D01*
X137900500Y-120009897D01*
X137900500Y-119931004D01*
X137873581Y-119795677D01*
X137873580Y-119795676D01*
X137873580Y-119795672D01*
X137854118Y-119748687D01*
X137820778Y-119668195D01*
X137820771Y-119668182D01*
X137744114Y-119553458D01*
X137744111Y-119553454D01*
X137646545Y-119455888D01*
X137646541Y-119455885D01*
X137531817Y-119379228D01*
X137531804Y-119379221D01*
X137404332Y-119326421D01*
X137404322Y-119326418D01*
X137268995Y-119299500D01*
X137268993Y-119299500D01*
X137131007Y-119299500D01*
X137131005Y-119299500D01*
X136995677Y-119326418D01*
X136995667Y-119326421D01*
X136868195Y-119379221D01*
X136868182Y-119379228D01*
X136753458Y-119455885D01*
X136753454Y-119455888D01*
X136655888Y-119553454D01*
X136655885Y-119553458D01*
X136579228Y-119668182D01*
X136579221Y-119668195D01*
X136526421Y-119795667D01*
X136526418Y-119795677D01*
X136499500Y-119931004D01*
X136499500Y-119931007D01*
X136499500Y-120068993D01*
X136499500Y-120068995D01*
X136499499Y-120068995D01*
X136526418Y-120204322D01*
X136526421Y-120204332D01*
X136579221Y-120331804D01*
X136579228Y-120331817D01*
X136655884Y-120446540D01*
X136655888Y-120446545D01*
X136753454Y-120544111D01*
X136753458Y-120544114D01*
X136868182Y-120620771D01*
X136868195Y-120620778D01*
X136937303Y-120649403D01*
X136995672Y-120673580D01*
X136995676Y-120673580D01*
X136995677Y-120673581D01*
X137131004Y-120700500D01*
X137131007Y-120700500D01*
X137268995Y-120700500D01*
X137360041Y-120682389D01*
X137404328Y-120673580D01*
X137531811Y-120620775D01*
X137646542Y-120544114D01*
X137744114Y-120446542D01*
X137744116Y-120446540D01*
X137822398Y-120329382D01*
X137876010Y-120284577D01*
X137945335Y-120275870D01*
X138008362Y-120306024D01*
X138045082Y-120365467D01*
X138049500Y-120398273D01*
X138049500Y-120897870D01*
X138049501Y-120897876D01*
X138055908Y-120957479D01*
X138057692Y-120965026D01*
X138056229Y-120965371D01*
X138060585Y-121026371D01*
X138056173Y-121041396D01*
X138055908Y-121042517D01*
X138049501Y-121102117D01*
X138049500Y-121102136D01*
X138049500Y-121697870D01*
X138049501Y-121697876D01*
X138055908Y-121757479D01*
X138057692Y-121765026D01*
X138056229Y-121765371D01*
X138060585Y-121826371D01*
X138056173Y-121841396D01*
X138055908Y-121842517D01*
X138049501Y-121902117D01*
X138049500Y-121902136D01*
X138049500Y-122497870D01*
X138049501Y-122497876D01*
X138055909Y-122557487D01*
X138057692Y-122565031D01*
X138056438Y-122565327D01*
X138060856Y-122627069D01*
X138056864Y-122640664D01*
X138056401Y-122642624D01*
X138050000Y-122702155D01*
X138050000Y-122750000D01*
X138087306Y-122750000D01*
X138154345Y-122769685D01*
X138186570Y-122799686D01*
X138192454Y-122807546D01*
X138192455Y-122807546D01*
X138192456Y-122807548D01*
X138307664Y-122893793D01*
X138307671Y-122893797D01*
X138442517Y-122944091D01*
X138442516Y-122944091D01*
X138449444Y-122944835D01*
X138502127Y-122950500D01*
X139926001Y-122950499D01*
X139993039Y-122970184D01*
X140038794Y-123022987D01*
X140050000Y-123074499D01*
X140050000Y-123550000D01*
X141550000Y-123550000D01*
X141550000Y-123502172D01*
X141549999Y-123502155D01*
X141543597Y-123442622D01*
X141541813Y-123435067D01*
X141543250Y-123434727D01*
X141538874Y-123373658D01*
X141543364Y-123358366D01*
X141543597Y-123357377D01*
X141549999Y-123297844D01*
X141550000Y-123297827D01*
X141550000Y-123161096D01*
X141569685Y-123094057D01*
X141622489Y-123048302D01*
X141691647Y-123038358D01*
X141755203Y-123067383D01*
X141761681Y-123073415D01*
X141852640Y-123164374D01*
X141852661Y-123164397D01*
X141859183Y-123170919D01*
X141881547Y-123203824D01*
X141881785Y-123203684D01*
X141884017Y-123207459D01*
X141885302Y-123209349D01*
X141885756Y-123210400D01*
X141969416Y-123351861D01*
X141969423Y-123351870D01*
X142085629Y-123468076D01*
X142085633Y-123468079D01*
X142085635Y-123468081D01*
X142227102Y-123551744D01*
X142268724Y-123563836D01*
X142384926Y-123597597D01*
X142384929Y-123597597D01*
X142384931Y-123597598D01*
X142421806Y-123600500D01*
X142421814Y-123600500D01*
X143578186Y-123600500D01*
X143578194Y-123600500D01*
X143615069Y-123597598D01*
X143615071Y-123597597D01*
X143615073Y-123597597D01*
X143714580Y-123568687D01*
X143772898Y-123551744D01*
X143914365Y-123468081D01*
X144030581Y-123351865D01*
X144030767Y-123351549D01*
X144030977Y-123351353D01*
X144035361Y-123345702D01*
X144036272Y-123346409D01*
X144081836Y-123303866D01*
X144150577Y-123291362D01*
X144215167Y-123318006D01*
X144239355Y-123345921D01*
X144239639Y-123345702D01*
X144243679Y-123350911D01*
X144244232Y-123351548D01*
X144244419Y-123351865D01*
X144244421Y-123351867D01*
X144244423Y-123351870D01*
X144360629Y-123468076D01*
X144360633Y-123468079D01*
X144360635Y-123468081D01*
X144502102Y-123551744D01*
X144543724Y-123563836D01*
X144659926Y-123597597D01*
X144659929Y-123597597D01*
X144659931Y-123597598D01*
X144696806Y-123600500D01*
X144696814Y-123600500D01*
X145853186Y-123600500D01*
X145853194Y-123600500D01*
X145890069Y-123597598D01*
X145890071Y-123597597D01*
X145890073Y-123597597D01*
X145989580Y-123568687D01*
X146047898Y-123551744D01*
X146189365Y-123468081D01*
X146271672Y-123385773D01*
X146332993Y-123352290D01*
X146402685Y-123357274D01*
X146458619Y-123399145D01*
X146464891Y-123408360D01*
X146477031Y-123428043D01*
X146486660Y-123437672D01*
X146520145Y-123498995D01*
X146515161Y-123568687D01*
X146486663Y-123613031D01*
X146477428Y-123622265D01*
X146477424Y-123622271D01*
X146388457Y-123766507D01*
X146388452Y-123766518D01*
X146335144Y-123927393D01*
X146325000Y-124026677D01*
X146325000Y-124050000D01*
X147426000Y-124050000D01*
X147493039Y-124069685D01*
X147538794Y-124122489D01*
X147550000Y-124174000D01*
X147550000Y-125249999D01*
X147560184Y-125260183D01*
X147592539Y-125269684D01*
X147638294Y-125322488D01*
X147649500Y-125373999D01*
X147649500Y-125948541D01*
X147660279Y-126002732D01*
X147660843Y-126005564D01*
X147660843Y-126005566D01*
X147687947Y-126141830D01*
X147687949Y-126141836D01*
X147696322Y-126162050D01*
X147696391Y-126162215D01*
X147696393Y-126162221D01*
X147763364Y-126323906D01*
X147763371Y-126323919D01*
X147872860Y-126487782D01*
X148016537Y-126631459D01*
X148016559Y-126631479D01*
X148819735Y-127434655D01*
X148819764Y-127434686D01*
X148962214Y-127577136D01*
X148962218Y-127577139D01*
X148992537Y-127597398D01*
X149037342Y-127651010D01*
X149046049Y-127720335D01*
X149015894Y-127783363D01*
X148956451Y-127820082D01*
X148923646Y-127824500D01*
X141669556Y-127824500D01*
X141602517Y-127804815D01*
X141556762Y-127752011D01*
X141546267Y-127687244D01*
X141550499Y-127647881D01*
X141550500Y-127647873D01*
X141550499Y-125552128D01*
X141544091Y-125492517D01*
X141510403Y-125402196D01*
X141493797Y-125357671D01*
X141493793Y-125357664D01*
X141407547Y-125242455D01*
X141407544Y-125242452D01*
X141292335Y-125156206D01*
X141292328Y-125156202D01*
X141157482Y-125105908D01*
X141157483Y-125105908D01*
X141097883Y-125099501D01*
X141097881Y-125099500D01*
X141097873Y-125099500D01*
X141097864Y-125099500D01*
X138502129Y-125099500D01*
X138502123Y-125099501D01*
X138442516Y-125105908D01*
X138307671Y-125156202D01*
X138307664Y-125156206D01*
X138192455Y-125242452D01*
X138192452Y-125242455D01*
X138106206Y-125357664D01*
X138106202Y-125357671D01*
X138055908Y-125492517D01*
X138049501Y-125552116D01*
X138049501Y-125552123D01*
X138049500Y-125552135D01*
X138049500Y-127647870D01*
X138049501Y-127647872D01*
X138053733Y-127687246D01*
X138041328Y-127756005D01*
X137993717Y-127807142D01*
X137930444Y-127824500D01*
X136169556Y-127824500D01*
X136102517Y-127804815D01*
X136056762Y-127752011D01*
X136046267Y-127687244D01*
X136050499Y-127647881D01*
X136050500Y-127647873D01*
X136050499Y-125552128D01*
X136044091Y-125492517D01*
X136010403Y-125402196D01*
X135993797Y-125357671D01*
X135993793Y-125357664D01*
X135907547Y-125242455D01*
X135907544Y-125242452D01*
X135792335Y-125156206D01*
X135792328Y-125156202D01*
X135657482Y-125105908D01*
X135657483Y-125105908D01*
X135597883Y-125099501D01*
X135597881Y-125099500D01*
X135597873Y-125099500D01*
X135597864Y-125099500D01*
X133002129Y-125099500D01*
X133002123Y-125099501D01*
X132942516Y-125105908D01*
X132807671Y-125156202D01*
X132807664Y-125156206D01*
X132692455Y-125242452D01*
X132692452Y-125242455D01*
X132606206Y-125357664D01*
X132606202Y-125357671D01*
X132555908Y-125492517D01*
X132549501Y-125552116D01*
X132549501Y-125552123D01*
X132549500Y-125552135D01*
X132549500Y-127647870D01*
X132549501Y-127647876D01*
X132555908Y-127707483D01*
X132606202Y-127842328D01*
X132606206Y-127842335D01*
X132692452Y-127957544D01*
X132692455Y-127957547D01*
X132807664Y-128043793D01*
X132807671Y-128043797D01*
X132852618Y-128060561D01*
X132942517Y-128094091D01*
X133002127Y-128100500D01*
X133085218Y-128100499D01*
X133152255Y-128120183D01*
X133198011Y-128172986D01*
X133207955Y-128242145D01*
X133178931Y-128305701D01*
X133172898Y-128312180D01*
X132712221Y-128772858D01*
X132712218Y-128772861D01*
X132642538Y-128842540D01*
X132572859Y-128912219D01*
X132463371Y-129076079D01*
X132463364Y-129076092D01*
X132387950Y-129258160D01*
X132387947Y-129258170D01*
X132349500Y-129451456D01*
X132349500Y-129451459D01*
X132349500Y-130098541D01*
X132349500Y-130098543D01*
X132349499Y-130098543D01*
X132387947Y-130291829D01*
X132387950Y-130291839D01*
X132463364Y-130473906D01*
X132463370Y-130473917D01*
X132481324Y-130500787D01*
X132496606Y-130532786D01*
X132506521Y-130564603D01*
X132506522Y-130564606D01*
X132550759Y-130637782D01*
X132590825Y-130704059D01*
X132608661Y-130771614D01*
X132587143Y-130838087D01*
X132549806Y-130873747D01*
X132416497Y-130955973D01*
X132293474Y-131078996D01*
X132293471Y-131079000D01*
X132230038Y-131181841D01*
X132178090Y-131228566D01*
X132109128Y-131239787D01*
X132045046Y-131211944D01*
X132006190Y-131153875D01*
X132000500Y-131116744D01*
X132000500Y-124468995D01*
X136499499Y-124468995D01*
X136526418Y-124604322D01*
X136526421Y-124604332D01*
X136579221Y-124731804D01*
X136579228Y-124731817D01*
X136655885Y-124846541D01*
X136655888Y-124846545D01*
X136753454Y-124944111D01*
X136753458Y-124944114D01*
X136868182Y-125020771D01*
X136868195Y-125020778D01*
X136995667Y-125073578D01*
X136995672Y-125073580D01*
X136995676Y-125073580D01*
X136995677Y-125073581D01*
X137131004Y-125100500D01*
X137131007Y-125100500D01*
X137268995Y-125100500D01*
X137360041Y-125082389D01*
X137404328Y-125073580D01*
X137531811Y-125020775D01*
X137646542Y-124944114D01*
X137744114Y-124846542D01*
X137820775Y-124731811D01*
X137873580Y-124604328D01*
X137879748Y-124573322D01*
X146325001Y-124573322D01*
X146335144Y-124672607D01*
X146388452Y-124833481D01*
X146388457Y-124833492D01*
X146477424Y-124977728D01*
X146477427Y-124977732D01*
X146597267Y-125097572D01*
X146597271Y-125097575D01*
X146741507Y-125186542D01*
X146741518Y-125186547D01*
X146902393Y-125239855D01*
X147001683Y-125249999D01*
X147049999Y-125249998D01*
X147050000Y-125249998D01*
X147050000Y-124550000D01*
X146325001Y-124550000D01*
X146325001Y-124573322D01*
X137879748Y-124573322D01*
X137885660Y-124543598D01*
X137900500Y-124468995D01*
X137900500Y-124389269D01*
X137920185Y-124322230D01*
X137972989Y-124276475D01*
X138042147Y-124266531D01*
X138105703Y-124295556D01*
X138123766Y-124314958D01*
X138192809Y-124407187D01*
X138192812Y-124407190D01*
X138307906Y-124493350D01*
X138307913Y-124493354D01*
X138442620Y-124543596D01*
X138442627Y-124543598D01*
X138502155Y-124549999D01*
X138502172Y-124550000D01*
X139550000Y-124550000D01*
X140050000Y-124550000D01*
X141097828Y-124550000D01*
X141097844Y-124549999D01*
X141157372Y-124543598D01*
X141157379Y-124543596D01*
X141292086Y-124493354D01*
X141292093Y-124493350D01*
X141407187Y-124407190D01*
X141407190Y-124407187D01*
X141493350Y-124292093D01*
X141493354Y-124292086D01*
X141543596Y-124157379D01*
X141543598Y-124157372D01*
X141549999Y-124097844D01*
X141550000Y-124097827D01*
X141550000Y-124050000D01*
X140050000Y-124050000D01*
X140050000Y-124550000D01*
X139550000Y-124550000D01*
X139550000Y-124050000D01*
X138050000Y-124050000D01*
X138013681Y-124086319D01*
X138012399Y-124085037D01*
X137977511Y-124115268D01*
X137908353Y-124125212D01*
X137844797Y-124096187D01*
X137822898Y-124071365D01*
X137744114Y-123953458D01*
X137744111Y-123953454D01*
X137646545Y-123855888D01*
X137646541Y-123855885D01*
X137531817Y-123779228D01*
X137531804Y-123779221D01*
X137404332Y-123726421D01*
X137404322Y-123726418D01*
X137268995Y-123699500D01*
X137268993Y-123699500D01*
X137131007Y-123699500D01*
X137131005Y-123699500D01*
X136995677Y-123726418D01*
X136995667Y-123726421D01*
X136868195Y-123779221D01*
X136868182Y-123779228D01*
X136753458Y-123855885D01*
X136753454Y-123855888D01*
X136655888Y-123953454D01*
X136655885Y-123953458D01*
X136579228Y-124068182D01*
X136579221Y-124068195D01*
X136526421Y-124195667D01*
X136526418Y-124195677D01*
X136499500Y-124331004D01*
X136499500Y-124331007D01*
X136499500Y-124468993D01*
X136499500Y-124468995D01*
X136499499Y-124468995D01*
X132000500Y-124468995D01*
X132000500Y-123297844D01*
X138050000Y-123297844D01*
X138056401Y-123357375D01*
X138058186Y-123364927D01*
X138056754Y-123365265D01*
X138061119Y-123426370D01*
X138056632Y-123441649D01*
X138056401Y-123442624D01*
X138050000Y-123502155D01*
X138050000Y-123550000D01*
X139550000Y-123550000D01*
X139550000Y-123250000D01*
X138050000Y-123250000D01*
X138050000Y-123297844D01*
X132000500Y-123297844D01*
X132000500Y-116752135D01*
X132549500Y-116752135D01*
X132549500Y-118847870D01*
X132549501Y-118847876D01*
X132555908Y-118907483D01*
X132606202Y-119042328D01*
X132606206Y-119042335D01*
X132692452Y-119157544D01*
X132692455Y-119157547D01*
X132807664Y-119243793D01*
X132807671Y-119243797D01*
X132942517Y-119294091D01*
X132942516Y-119294091D01*
X132949444Y-119294835D01*
X133002127Y-119300500D01*
X135597872Y-119300499D01*
X135657483Y-119294091D01*
X135792331Y-119243796D01*
X135907546Y-119157546D01*
X135993796Y-119042331D01*
X136044091Y-118907483D01*
X136050500Y-118847873D01*
X136050499Y-116752135D01*
X138049500Y-116752135D01*
X138049500Y-118847870D01*
X138049501Y-118847876D01*
X138055908Y-118907483D01*
X138106202Y-119042328D01*
X138106206Y-119042335D01*
X138192452Y-119157544D01*
X138192455Y-119157547D01*
X138307664Y-119243793D01*
X138307671Y-119243797D01*
X138442517Y-119294091D01*
X138442516Y-119294091D01*
X138449444Y-119294835D01*
X138502127Y-119300500D01*
X141097872Y-119300499D01*
X141157483Y-119294091D01*
X141292331Y-119243796D01*
X141407546Y-119157546D01*
X141493796Y-119042331D01*
X141544091Y-118907483D01*
X141550500Y-118847873D01*
X141550499Y-116752128D01*
X141544091Y-116692517D01*
X141520272Y-116628656D01*
X141493797Y-116557671D01*
X141493793Y-116557664D01*
X141407547Y-116442455D01*
X141407544Y-116442452D01*
X141292335Y-116356206D01*
X141292328Y-116356202D01*
X141157482Y-116305908D01*
X141157483Y-116305908D01*
X141097883Y-116299501D01*
X141097881Y-116299500D01*
X141097873Y-116299500D01*
X141097864Y-116299500D01*
X138502129Y-116299500D01*
X138502123Y-116299501D01*
X138442516Y-116305908D01*
X138307671Y-116356202D01*
X138307664Y-116356206D01*
X138192455Y-116442452D01*
X138192452Y-116442455D01*
X138106206Y-116557664D01*
X138106202Y-116557671D01*
X138055908Y-116692517D01*
X138049501Y-116752116D01*
X138049501Y-116752123D01*
X138049500Y-116752135D01*
X136050499Y-116752135D01*
X136050499Y-116752128D01*
X136044091Y-116692517D01*
X136020272Y-116628656D01*
X135993797Y-116557671D01*
X135993793Y-116557664D01*
X135907547Y-116442455D01*
X135907544Y-116442452D01*
X135792335Y-116356206D01*
X135792328Y-116356202D01*
X135657482Y-116305908D01*
X135657483Y-116305908D01*
X135597883Y-116299501D01*
X135597881Y-116299500D01*
X135597873Y-116299500D01*
X135597864Y-116299500D01*
X133002129Y-116299500D01*
X133002123Y-116299501D01*
X132942516Y-116305908D01*
X132807671Y-116356202D01*
X132807664Y-116356206D01*
X132692455Y-116442452D01*
X132692452Y-116442455D01*
X132606206Y-116557664D01*
X132606202Y-116557671D01*
X132555908Y-116692517D01*
X132549501Y-116752116D01*
X132549501Y-116752123D01*
X132549500Y-116752135D01*
X132000500Y-116752135D01*
X132000500Y-101089205D01*
X132020185Y-101022166D01*
X132072989Y-100976411D01*
X132137104Y-100965847D01*
X132226685Y-100974999D01*
X132250000Y-100974998D01*
X132250000Y-99024999D01*
X132226693Y-99025000D01*
X132226672Y-99025001D01*
X132137101Y-99034152D01*
X132068409Y-99021382D01*
X132017524Y-98973501D01*
X132000500Y-98910794D01*
X132000500Y-97794000D01*
X132020185Y-97726961D01*
X132072989Y-97681206D01*
X132124500Y-97670000D01*
X132290000Y-97670000D01*
X132290000Y-95170000D01*
X132124500Y-95170000D01*
X132057461Y-95150315D01*
X132011706Y-95097511D01*
X132000500Y-95046000D01*
X132000500Y-80294000D01*
X132020185Y-80226961D01*
X132072989Y-80181206D01*
X132124500Y-80170000D01*
X132290000Y-80170000D01*
X132290000Y-78794000D01*
X132309685Y-78726961D01*
X132362489Y-78681206D01*
X132414000Y-78670000D01*
X132666000Y-78670000D01*
X132733039Y-78689685D01*
G37*
%TD.AperFunction*%
%TA.AperFunction,Conductor*%
G36*
X165383209Y-121634223D02*
G01*
X165427556Y-121662724D01*
X165727313Y-121962481D01*
X165760798Y-122023804D01*
X165755814Y-122093496D01*
X165713942Y-122149429D01*
X165678637Y-122167867D01*
X165616524Y-122188449D01*
X165616507Y-122188457D01*
X165472271Y-122277424D01*
X165472267Y-122277427D01*
X165352427Y-122397267D01*
X165352424Y-122397271D01*
X165263457Y-122541507D01*
X165263452Y-122541518D01*
X165210144Y-122702393D01*
X165200000Y-122801677D01*
X165200000Y-122850000D01*
X166276000Y-122850000D01*
X166343039Y-122869685D01*
X166388794Y-122922489D01*
X166400000Y-122974000D01*
X166400000Y-124074999D01*
X166423308Y-124074999D01*
X166423322Y-124074998D01*
X166522607Y-124064855D01*
X166683481Y-124011547D01*
X166683492Y-124011542D01*
X166827731Y-123922573D01*
X166836959Y-123913345D01*
X166898279Y-123879856D01*
X166967971Y-123884835D01*
X167012327Y-123913339D01*
X167021955Y-123922967D01*
X167021959Y-123922970D01*
X167166294Y-124011998D01*
X167166297Y-124011999D01*
X167166303Y-124012003D01*
X167327292Y-124065349D01*
X167426655Y-124075500D01*
X167463563Y-124075499D01*
X167487748Y-124077880D01*
X167510346Y-124082375D01*
X167572255Y-124114758D01*
X167606830Y-124175473D01*
X167603091Y-124245243D01*
X167562226Y-124301916D01*
X167498757Y-124327350D01*
X167427291Y-124334651D01*
X167427289Y-124334651D01*
X167266305Y-124387996D01*
X167266294Y-124388001D01*
X167121959Y-124477029D01*
X167121953Y-124477033D01*
X167112324Y-124486663D01*
X167051000Y-124520146D01*
X166981308Y-124515159D01*
X166936965Y-124486660D01*
X166927732Y-124477427D01*
X166927728Y-124477424D01*
X166783492Y-124388457D01*
X166783481Y-124388452D01*
X166622606Y-124335144D01*
X166523322Y-124325000D01*
X166500000Y-124325000D01*
X166500000Y-126274999D01*
X166523308Y-126274999D01*
X166523322Y-126274998D01*
X166622607Y-126264855D01*
X166783481Y-126211547D01*
X166783492Y-126211542D01*
X166927731Y-126122573D01*
X166936959Y-126113345D01*
X166998279Y-126079856D01*
X167067971Y-126084835D01*
X167112327Y-126113339D01*
X167121955Y-126122967D01*
X167121959Y-126122970D01*
X167266294Y-126211998D01*
X167266297Y-126211999D01*
X167266303Y-126212003D01*
X167427292Y-126265349D01*
X167526655Y-126275500D01*
X167563563Y-126275499D01*
X167587754Y-126277881D01*
X167653596Y-126290979D01*
X167701458Y-126300500D01*
X167701459Y-126300500D01*
X168562076Y-126300500D01*
X168629115Y-126320185D01*
X168639763Y-126327853D01*
X168750704Y-126417030D01*
X168750707Y-126417032D01*
X168921302Y-126501639D01*
X168921303Y-126501639D01*
X168921307Y-126501641D01*
X169106111Y-126547600D01*
X169148877Y-126550500D01*
X169634217Y-126550499D01*
X169701256Y-126570183D01*
X169721898Y-126586818D01*
X170747899Y-127612819D01*
X170781384Y-127674142D01*
X170776400Y-127743834D01*
X170734528Y-127799767D01*
X170669064Y-127824184D01*
X170660218Y-127824500D01*
X159376354Y-127824500D01*
X159309315Y-127804815D01*
X159263560Y-127752011D01*
X159253616Y-127682853D01*
X159282641Y-127619297D01*
X159307463Y-127597398D01*
X159325729Y-127585192D01*
X159337782Y-127577139D01*
X159477139Y-127437782D01*
X159477139Y-127437780D01*
X159487347Y-127427573D01*
X159487348Y-127427570D01*
X161316597Y-125598322D01*
X165300001Y-125598322D01*
X165310144Y-125697607D01*
X165363452Y-125858481D01*
X165363457Y-125858492D01*
X165452424Y-126002728D01*
X165452427Y-126002732D01*
X165572267Y-126122572D01*
X165572271Y-126122575D01*
X165716507Y-126211542D01*
X165716518Y-126211547D01*
X165877393Y-126264855D01*
X165976683Y-126274999D01*
X166000000Y-126274998D01*
X166000000Y-125550000D01*
X165300001Y-125550000D01*
X165300001Y-125598322D01*
X161316597Y-125598322D01*
X161913242Y-125001677D01*
X165300000Y-125001677D01*
X165300000Y-125050000D01*
X166000000Y-125050000D01*
X166000000Y-124324999D01*
X165976693Y-124325000D01*
X165976674Y-124325001D01*
X165877392Y-124335144D01*
X165716518Y-124388452D01*
X165716507Y-124388457D01*
X165572271Y-124477424D01*
X165572267Y-124477427D01*
X165452427Y-124597267D01*
X165452424Y-124597271D01*
X165363457Y-124741507D01*
X165363452Y-124741518D01*
X165310144Y-124902393D01*
X165300000Y-125001677D01*
X161913242Y-125001677D01*
X163516597Y-123398322D01*
X165200001Y-123398322D01*
X165210144Y-123497607D01*
X165263452Y-123658481D01*
X165263457Y-123658492D01*
X165352424Y-123802728D01*
X165352427Y-123802732D01*
X165472267Y-123922572D01*
X165472271Y-123922575D01*
X165616507Y-124011542D01*
X165616518Y-124011547D01*
X165777393Y-124064855D01*
X165876683Y-124074999D01*
X165900000Y-124074998D01*
X165900000Y-123350000D01*
X165200001Y-123350000D01*
X165200001Y-123398322D01*
X163516597Y-123398322D01*
X165252198Y-121662721D01*
X165313517Y-121629239D01*
X165383209Y-121634223D01*
G37*
%TD.AperFunction*%
%TA.AperFunction,Conductor*%
G36*
X148182703Y-104418317D02*
G01*
X148189181Y-104424349D01*
X163837274Y-120072442D01*
X163870759Y-120133765D01*
X163865775Y-120203457D01*
X163837274Y-120247804D01*
X162455840Y-121629239D01*
X159695811Y-124389269D01*
X158321899Y-125763181D01*
X158260576Y-125796666D01*
X158234218Y-125799500D01*
X151221337Y-125799500D01*
X151154298Y-125779815D01*
X151108543Y-125727011D01*
X151098599Y-125657853D01*
X151115220Y-125611350D01*
X151143478Y-125564606D01*
X151194086Y-125402196D01*
X151200500Y-125331616D01*
X151200500Y-124668384D01*
X151194086Y-124597804D01*
X151182583Y-124560888D01*
X151181433Y-124491028D01*
X151218235Y-124431636D01*
X151281304Y-124401569D01*
X151295332Y-124400449D01*
X151295320Y-124400265D01*
X151299377Y-124399999D01*
X151409346Y-124385521D01*
X151417196Y-124383418D01*
X151418193Y-124387140D01*
X151469383Y-124380796D01*
X151482507Y-124384537D01*
X151482677Y-124383905D01*
X151490526Y-124386008D01*
X151490528Y-124386009D01*
X151600599Y-124400500D01*
X151799400Y-124400499D01*
X151799401Y-124400499D01*
X151816087Y-124398302D01*
X151909472Y-124386009D01*
X151909475Y-124386007D01*
X151917326Y-124383905D01*
X151918210Y-124387207D01*
X151971925Y-124381392D01*
X151982514Y-124384501D01*
X151982674Y-124383905D01*
X151990524Y-124386008D01*
X151990526Y-124386008D01*
X151990528Y-124386009D01*
X152100599Y-124400500D01*
X152299400Y-124400499D01*
X152299401Y-124400499D01*
X152316087Y-124398302D01*
X152409472Y-124386009D01*
X152409475Y-124386007D01*
X152417326Y-124383905D01*
X152418210Y-124387207D01*
X152471925Y-124381392D01*
X152482514Y-124384501D01*
X152482674Y-124383905D01*
X152490524Y-124386008D01*
X152490526Y-124386008D01*
X152490528Y-124386009D01*
X152600599Y-124400500D01*
X152799400Y-124400499D01*
X152799403Y-124400499D01*
X152909463Y-124386011D01*
X152909467Y-124386009D01*
X152909472Y-124386009D01*
X153046429Y-124329279D01*
X153164036Y-124239036D01*
X153254279Y-124121429D01*
X153311009Y-123984472D01*
X153325500Y-123874401D01*
X153325499Y-123299498D01*
X153345183Y-123232460D01*
X153397987Y-123186705D01*
X153449499Y-123175499D01*
X154024403Y-123175499D01*
X154134463Y-123161011D01*
X154134467Y-123161009D01*
X154134472Y-123161009D01*
X154271429Y-123104279D01*
X154389036Y-123014036D01*
X154479279Y-122896429D01*
X154536009Y-122759472D01*
X154550500Y-122649401D01*
X154550499Y-122450600D01*
X154536009Y-122340528D01*
X154536008Y-122340525D01*
X154533905Y-122332674D01*
X154537207Y-122331789D01*
X154531392Y-122278075D01*
X154534501Y-122267485D01*
X154533905Y-122267326D01*
X154536008Y-122259475D01*
X154536008Y-122259474D01*
X154536009Y-122259472D01*
X154550500Y-122149401D01*
X154550499Y-121950600D01*
X154536009Y-121840528D01*
X154536008Y-121840525D01*
X154533905Y-121832674D01*
X154537207Y-121831789D01*
X154531392Y-121778075D01*
X154534501Y-121767485D01*
X154533905Y-121767326D01*
X154536008Y-121759475D01*
X154536008Y-121759474D01*
X154536009Y-121759472D01*
X154550500Y-121649401D01*
X154550499Y-121450600D01*
X154536009Y-121340528D01*
X154536008Y-121340525D01*
X154533905Y-121332674D01*
X154537207Y-121331789D01*
X154531392Y-121278075D01*
X154534501Y-121267485D01*
X154533905Y-121267326D01*
X154536008Y-121259475D01*
X154536008Y-121259474D01*
X154536009Y-121259472D01*
X154550500Y-121149401D01*
X154550499Y-120950600D01*
X154550498Y-120950596D01*
X154543558Y-120897872D01*
X154536009Y-120840528D01*
X154536008Y-120840525D01*
X154533905Y-120832674D01*
X154537207Y-120831789D01*
X154531392Y-120778075D01*
X154534501Y-120767485D01*
X154533905Y-120767326D01*
X154536008Y-120759475D01*
X154536008Y-120759474D01*
X154536009Y-120759472D01*
X154550500Y-120649401D01*
X154550499Y-120450600D01*
X154548092Y-120432319D01*
X154546105Y-120417224D01*
X154536009Y-120340528D01*
X154536008Y-120340525D01*
X154533905Y-120332674D01*
X154537207Y-120331789D01*
X154531392Y-120278075D01*
X154534501Y-120267485D01*
X154533905Y-120267326D01*
X154536008Y-120259475D01*
X154536008Y-120259474D01*
X154536009Y-120259472D01*
X154550500Y-120149401D01*
X154550499Y-119950600D01*
X154536009Y-119840528D01*
X154536008Y-119840525D01*
X154533905Y-119832674D01*
X154537207Y-119831789D01*
X154531392Y-119778075D01*
X154534501Y-119767485D01*
X154533905Y-119767326D01*
X154536008Y-119759475D01*
X154536008Y-119759474D01*
X154536009Y-119759472D01*
X154550500Y-119649401D01*
X154550499Y-119450600D01*
X154550499Y-119450598D01*
X154550499Y-119450596D01*
X154536011Y-119340536D01*
X154536009Y-119340529D01*
X154536009Y-119340528D01*
X154479279Y-119203571D01*
X154389036Y-119085964D01*
X154271429Y-118995721D01*
X154271425Y-118995719D01*
X154134472Y-118938991D01*
X154134470Y-118938990D01*
X154024410Y-118924501D01*
X154024407Y-118924500D01*
X154024401Y-118924500D01*
X154024394Y-118924500D01*
X153449499Y-118924500D01*
X153382460Y-118904815D01*
X153336705Y-118852011D01*
X153325499Y-118800500D01*
X153325499Y-118225596D01*
X153311011Y-118115536D01*
X153311009Y-118115529D01*
X153311009Y-118115528D01*
X153254279Y-117978571D01*
X153164036Y-117860964D01*
X153046429Y-117770721D01*
X153046425Y-117770719D01*
X152909472Y-117713991D01*
X152909470Y-117713990D01*
X152799401Y-117699500D01*
X152600596Y-117699500D01*
X152490531Y-117713989D01*
X152482678Y-117716094D01*
X152481802Y-117712824D01*
X152427853Y-117718567D01*
X152417477Y-117715518D01*
X152417323Y-117716095D01*
X152409473Y-117713991D01*
X152409472Y-117713991D01*
X152391244Y-117711591D01*
X152371813Y-117709033D01*
X152307917Y-117680766D01*
X152269447Y-117622441D01*
X152264000Y-117586094D01*
X152264000Y-113284255D01*
X152264001Y-113284242D01*
X152264001Y-113125750D01*
X152264001Y-113125748D01*
X152225565Y-112982304D01*
X152204780Y-112946304D01*
X152151315Y-112853699D01*
X152151314Y-112853698D01*
X152151313Y-112853696D01*
X152046304Y-112748687D01*
X152046303Y-112748686D01*
X152041973Y-112744356D01*
X152041962Y-112744346D01*
X147636819Y-108339203D01*
X147603334Y-108277880D01*
X147600500Y-108251522D01*
X147600500Y-107868386D01*
X147598829Y-107850000D01*
X147594086Y-107797804D01*
X147543478Y-107635394D01*
X147455472Y-107489815D01*
X147455470Y-107489813D01*
X147455469Y-107489811D01*
X147421646Y-107455988D01*
X147388161Y-107394665D01*
X147393145Y-107324973D01*
X147433839Y-107269933D01*
X147553282Y-107178282D01*
X147649536Y-107052841D01*
X147710044Y-106906762D01*
X147725500Y-106789361D01*
X147725499Y-106510640D01*
X147710044Y-106393238D01*
X147701434Y-106372454D01*
X147693965Y-106302986D01*
X147701435Y-106277545D01*
X147710044Y-106256762D01*
X147725500Y-106139361D01*
X147725499Y-105860640D01*
X147710044Y-105743238D01*
X147710042Y-105743234D01*
X147701435Y-105722455D01*
X147693965Y-105652986D01*
X147701435Y-105627545D01*
X147710044Y-105606762D01*
X147725500Y-105489361D01*
X147725499Y-105373478D01*
X147745183Y-105306440D01*
X147761819Y-105285797D01*
X147864811Y-105182806D01*
X147864811Y-105182805D01*
X147864813Y-105182804D01*
X147939065Y-105054196D01*
X147977501Y-104910752D01*
X147977501Y-104762247D01*
X147977501Y-104754652D01*
X147977500Y-104754634D01*
X147977500Y-104512030D01*
X147997185Y-104444991D01*
X148049989Y-104399236D01*
X148119147Y-104389292D01*
X148182703Y-104418317D01*
G37*
%TD.AperFunction*%
%TA.AperFunction,Conductor*%
G36*
X150205702Y-95935383D02*
G01*
X150212180Y-95941415D01*
X153985139Y-99714374D01*
X153985149Y-99714385D01*
X153989479Y-99718715D01*
X153989480Y-99718716D01*
X154101284Y-99830520D01*
X154101286Y-99830521D01*
X154101290Y-99830524D01*
X154196284Y-99885368D01*
X154238216Y-99909577D01*
X154350019Y-99939534D01*
X154390942Y-99950500D01*
X154390943Y-99950500D01*
X159549903Y-99950500D01*
X159616942Y-99970185D01*
X159637584Y-99986819D01*
X168098891Y-108448126D01*
X168132376Y-108509449D01*
X168127392Y-108579141D01*
X168085520Y-108635074D01*
X168048103Y-108654191D01*
X167986055Y-108673525D01*
X167960393Y-108681522D01*
X167814811Y-108769530D01*
X167694530Y-108889811D01*
X167606522Y-109035393D01*
X167555913Y-109197807D01*
X167549500Y-109268386D01*
X167549500Y-109931613D01*
X167555913Y-110002192D01*
X167555913Y-110002194D01*
X167555914Y-110002196D01*
X167606522Y-110164606D01*
X167694528Y-110310185D01*
X167813182Y-110428839D01*
X167846666Y-110490160D01*
X167849500Y-110516519D01*
X167849500Y-113575500D01*
X167829815Y-113642539D01*
X167777011Y-113688294D01*
X167725500Y-113699500D01*
X166449998Y-113699500D01*
X166449981Y-113699501D01*
X166347203Y-113710000D01*
X166347200Y-113710001D01*
X166180668Y-113765185D01*
X166180663Y-113765187D01*
X166031342Y-113857289D01*
X165907289Y-113981342D01*
X165815187Y-114130663D01*
X165815185Y-114130668D01*
X165802317Y-114169501D01*
X165760001Y-114297203D01*
X165760001Y-114297204D01*
X165760000Y-114297204D01*
X165749500Y-114399983D01*
X165749500Y-115600001D01*
X165749501Y-115600018D01*
X165760000Y-115702796D01*
X165760001Y-115702799D01*
X165815185Y-115869331D01*
X165815186Y-115869334D01*
X165907288Y-116018656D01*
X166031344Y-116142712D01*
X166180666Y-116234814D01*
X166347203Y-116289999D01*
X166449991Y-116300500D01*
X167834216Y-116300499D01*
X167901255Y-116320184D01*
X167921897Y-116336818D01*
X168337195Y-116752116D01*
X168722860Y-117137781D01*
X168722861Y-117137782D01*
X168862218Y-117277139D01*
X169026086Y-117386632D01*
X169132745Y-117430811D01*
X169208164Y-117462051D01*
X169401454Y-117500499D01*
X169401457Y-117500500D01*
X169401459Y-117500500D01*
X171975500Y-117500500D01*
X172042539Y-117520185D01*
X172088294Y-117572989D01*
X172099500Y-117624500D01*
X172099500Y-122584216D01*
X172079815Y-122651255D01*
X172063181Y-122671897D01*
X171562180Y-123172898D01*
X171500857Y-123206383D01*
X171431165Y-123201399D01*
X171375232Y-123159527D01*
X171350815Y-123094063D01*
X171350499Y-123085217D01*
X171350499Y-122548877D01*
X171350498Y-122548876D01*
X171347600Y-122506111D01*
X171301641Y-122321307D01*
X171279877Y-122277424D01*
X171217032Y-122150707D01*
X171217030Y-122150704D01*
X171097724Y-122002280D01*
X171097722Y-122002278D01*
X171028112Y-121946324D01*
X170988196Y-121888985D01*
X170985616Y-121819163D01*
X171021194Y-121759030D01*
X171028115Y-121753033D01*
X171097366Y-121697367D01*
X171097367Y-121697366D01*
X171216607Y-121549025D01*
X171216609Y-121549022D01*
X171301168Y-121378523D01*
X171347102Y-121193824D01*
X171350000Y-121151096D01*
X171350000Y-120950000D01*
X168350000Y-120950000D01*
X168350000Y-121151096D01*
X168352897Y-121193824D01*
X168398831Y-121378523D01*
X168481571Y-121545354D01*
X168493723Y-121614159D01*
X168466746Y-121678611D01*
X168409207Y-121718246D01*
X168339373Y-121720482D01*
X168282802Y-121688129D01*
X166843575Y-120248903D01*
X168350000Y-120248903D01*
X168350000Y-120450000D01*
X169600000Y-120450000D01*
X170100000Y-120450000D01*
X171350000Y-120450000D01*
X171350000Y-120248903D01*
X171347102Y-120206175D01*
X171301168Y-120021476D01*
X171216609Y-119850977D01*
X171216607Y-119850974D01*
X171097367Y-119702633D01*
X171097366Y-119702632D01*
X170949025Y-119583392D01*
X170949022Y-119583390D01*
X170778523Y-119498831D01*
X170593824Y-119452897D01*
X170551097Y-119450000D01*
X170100000Y-119450000D01*
X170100000Y-120450000D01*
X169600000Y-120450000D01*
X169600000Y-119450000D01*
X169148903Y-119450000D01*
X169106175Y-119452897D01*
X168921476Y-119498831D01*
X168750977Y-119583390D01*
X168750974Y-119583392D01*
X168602633Y-119702632D01*
X168602632Y-119702633D01*
X168483392Y-119850974D01*
X168483390Y-119850977D01*
X168398831Y-120021476D01*
X168352897Y-120206175D01*
X168350000Y-120248903D01*
X166843575Y-120248903D01*
X166274085Y-119679413D01*
X166274082Y-119679409D01*
X166274082Y-119679410D01*
X166267015Y-119672343D01*
X166267015Y-119672342D01*
X166127658Y-119532985D01*
X166127657Y-119532984D01*
X166124546Y-119529873D01*
X166124531Y-119529859D01*
X146461231Y-99866559D01*
X146461211Y-99866537D01*
X146317537Y-99722863D01*
X146317533Y-99722860D01*
X146153672Y-99613371D01*
X146153663Y-99613366D01*
X146055490Y-99572702D01*
X146024917Y-99560038D01*
X145998252Y-99548993D01*
X145971589Y-99537949D01*
X145971585Y-99537947D01*
X145799387Y-99503696D01*
X145799385Y-99503695D01*
X145778293Y-99499500D01*
X140001459Y-99499500D01*
X140001457Y-99499500D01*
X139808170Y-99537947D01*
X139808160Y-99537950D01*
X139626092Y-99613364D01*
X139626081Y-99613370D01*
X139499734Y-99697792D01*
X139433056Y-99718669D01*
X139365676Y-99700184D01*
X139323457Y-99656689D01*
X139307125Y-99628401D01*
X139281313Y-99583693D01*
X139176304Y-99478684D01*
X139176303Y-99478683D01*
X139171973Y-99474353D01*
X139171962Y-99474343D01*
X139082021Y-99384402D01*
X139048536Y-99323079D01*
X139053520Y-99253387D01*
X139095392Y-99197454D01*
X139103715Y-99191736D01*
X139202262Y-99129816D01*
X139329816Y-99002262D01*
X139425789Y-98849522D01*
X139485368Y-98679255D01*
X139491688Y-98623163D01*
X139505565Y-98500003D01*
X139505565Y-98499996D01*
X139485369Y-98320750D01*
X139485368Y-98320745D01*
X139432055Y-98168386D01*
X139425789Y-98150478D01*
X139425489Y-98150001D01*
X139329815Y-97997737D01*
X139214258Y-97882180D01*
X139180773Y-97820857D01*
X139185757Y-97751165D01*
X139227629Y-97695232D01*
X139293093Y-97670815D01*
X139301936Y-97670499D01*
X139387872Y-97670499D01*
X139447483Y-97664091D01*
X139481667Y-97651340D01*
X139551358Y-97646357D01*
X139568327Y-97651338D01*
X139602517Y-97664091D01*
X139662127Y-97670500D01*
X140657872Y-97670499D01*
X140717483Y-97664091D01*
X140751667Y-97651340D01*
X140821358Y-97646357D01*
X140838327Y-97651338D01*
X140872517Y-97664091D01*
X140932127Y-97670500D01*
X141927872Y-97670499D01*
X141987483Y-97664091D01*
X142021667Y-97651340D01*
X142091358Y-97646357D01*
X142108327Y-97651338D01*
X142142517Y-97664091D01*
X142202127Y-97670500D01*
X143197872Y-97670499D01*
X143257483Y-97664091D01*
X143291667Y-97651340D01*
X143361358Y-97646357D01*
X143378327Y-97651338D01*
X143412517Y-97664091D01*
X143472127Y-97670500D01*
X144467872Y-97670499D01*
X144527483Y-97664091D01*
X144561667Y-97651340D01*
X144631358Y-97646357D01*
X144648327Y-97651338D01*
X144682517Y-97664091D01*
X144742127Y-97670500D01*
X145737872Y-97670499D01*
X145797483Y-97664091D01*
X145831667Y-97651340D01*
X145901358Y-97646357D01*
X145918327Y-97651338D01*
X145952517Y-97664091D01*
X146012127Y-97670500D01*
X147007872Y-97670499D01*
X147067483Y-97664091D01*
X147101667Y-97651340D01*
X147171358Y-97646357D01*
X147188327Y-97651338D01*
X147222517Y-97664091D01*
X147282127Y-97670500D01*
X148277872Y-97670499D01*
X148337483Y-97664091D01*
X148371667Y-97651340D01*
X148441358Y-97646357D01*
X148458327Y-97651338D01*
X148492517Y-97664091D01*
X148552127Y-97670500D01*
X149547872Y-97670499D01*
X149607483Y-97664091D01*
X149742331Y-97613796D01*
X149857546Y-97527546D01*
X149943796Y-97412331D01*
X149994091Y-97277483D01*
X150000500Y-97217873D01*
X150000499Y-96029095D01*
X150020184Y-95962057D01*
X150072987Y-95916302D01*
X150142146Y-95906358D01*
X150205702Y-95935383D01*
G37*
%TD.AperFunction*%
%TA.AperFunction,Conductor*%
G36*
X152482514Y-119484501D02*
G01*
X152482674Y-119483905D01*
X152490524Y-119486008D01*
X152490526Y-119486008D01*
X152490528Y-119486009D01*
X152600599Y-119500500D01*
X152625498Y-119500499D01*
X152692536Y-119520181D01*
X152738293Y-119572984D01*
X152749500Y-119624495D01*
X152749500Y-119649402D01*
X152763989Y-119759468D01*
X152766094Y-119767322D01*
X152762814Y-119768200D01*
X152768581Y-119822073D01*
X152765517Y-119832522D01*
X152766095Y-119832677D01*
X152763990Y-119840529D01*
X152749500Y-119950598D01*
X152749500Y-120149403D01*
X152763989Y-120259468D01*
X152766094Y-120267322D01*
X152762814Y-120268200D01*
X152768581Y-120322073D01*
X152765517Y-120332522D01*
X152766095Y-120332677D01*
X152763990Y-120340529D01*
X152749500Y-120450598D01*
X152749500Y-120649403D01*
X152763989Y-120759468D01*
X152766094Y-120767322D01*
X152762814Y-120768200D01*
X152768581Y-120822073D01*
X152765517Y-120832522D01*
X152766095Y-120832677D01*
X152763990Y-120840529D01*
X152749500Y-120950598D01*
X152749500Y-121149403D01*
X152763989Y-121259468D01*
X152766094Y-121267322D01*
X152762814Y-121268200D01*
X152768581Y-121322073D01*
X152765517Y-121332522D01*
X152766095Y-121332677D01*
X152763990Y-121340529D01*
X152749500Y-121450598D01*
X152749500Y-121649403D01*
X152763989Y-121759468D01*
X152766094Y-121767322D01*
X152762814Y-121768200D01*
X152768581Y-121822073D01*
X152765517Y-121832522D01*
X152766095Y-121832677D01*
X152763990Y-121840529D01*
X152749500Y-121950598D01*
X152749500Y-122149403D01*
X152763989Y-122259468D01*
X152766094Y-122267322D01*
X152762814Y-122268200D01*
X152768581Y-122322073D01*
X152765517Y-122332522D01*
X152766095Y-122332677D01*
X152763990Y-122340529D01*
X152749501Y-122450589D01*
X152749500Y-122450605D01*
X152749500Y-122475500D01*
X152729815Y-122542539D01*
X152677011Y-122588294D01*
X152625504Y-122599500D01*
X152600597Y-122599500D01*
X152490531Y-122613989D01*
X152482678Y-122616094D01*
X152481802Y-122612824D01*
X152427853Y-122618567D01*
X152417477Y-122615518D01*
X152417323Y-122616095D01*
X152409470Y-122613990D01*
X152299401Y-122599500D01*
X152100596Y-122599500D01*
X151990531Y-122613989D01*
X151982678Y-122616094D01*
X151981802Y-122612824D01*
X151927853Y-122618567D01*
X151917477Y-122615518D01*
X151917323Y-122616095D01*
X151909470Y-122613990D01*
X151799401Y-122599500D01*
X151600596Y-122599500D01*
X151490529Y-122613989D01*
X151482681Y-122616093D01*
X151481856Y-122613015D01*
X151427229Y-122618842D01*
X151417355Y-122615989D01*
X151417197Y-122616582D01*
X151409346Y-122614478D01*
X151325000Y-122603373D01*
X151325000Y-122631494D01*
X151305315Y-122698533D01*
X151276466Y-122729885D01*
X151275466Y-122730652D01*
X151210292Y-122755833D01*
X151141850Y-122741781D01*
X151124534Y-122730652D01*
X151123534Y-122729885D01*
X151082319Y-122673466D01*
X151075000Y-122631494D01*
X151075000Y-122603373D01*
X150990658Y-122614478D01*
X150982806Y-122616582D01*
X150981917Y-122613264D01*
X150927804Y-122618709D01*
X150917444Y-122615630D01*
X150917320Y-122616094D01*
X150909472Y-122613991D01*
X150799401Y-122599500D01*
X150600596Y-122599500D01*
X150490531Y-122613989D01*
X150482678Y-122616094D01*
X150481802Y-122612824D01*
X150427853Y-122618567D01*
X150417477Y-122615518D01*
X150417323Y-122616095D01*
X150409470Y-122613990D01*
X150299401Y-122599500D01*
X150100596Y-122599500D01*
X149990531Y-122613989D01*
X149982678Y-122616094D01*
X149981802Y-122612824D01*
X149927853Y-122618567D01*
X149917477Y-122615518D01*
X149917323Y-122616095D01*
X149909470Y-122613990D01*
X149799410Y-122599501D01*
X149799407Y-122599500D01*
X149799401Y-122599500D01*
X149799394Y-122599500D01*
X149774499Y-122599500D01*
X149707460Y-122579815D01*
X149661705Y-122527011D01*
X149650499Y-122475500D01*
X149650499Y-122450597D01*
X149636009Y-122340529D01*
X149636009Y-122340528D01*
X149636008Y-122340525D01*
X149633905Y-122332674D01*
X149637207Y-122331789D01*
X149631392Y-122278075D01*
X149634501Y-122267485D01*
X149633905Y-122267326D01*
X149636008Y-122259475D01*
X149636008Y-122259474D01*
X149636009Y-122259472D01*
X149650500Y-122149401D01*
X149650499Y-121950600D01*
X149636009Y-121840528D01*
X149636008Y-121840525D01*
X149633905Y-121832674D01*
X149637207Y-121831789D01*
X149631392Y-121778075D01*
X149634501Y-121767485D01*
X149633905Y-121767326D01*
X149636008Y-121759475D01*
X149636008Y-121759474D01*
X149636009Y-121759472D01*
X149650500Y-121649401D01*
X149650499Y-121450600D01*
X149636009Y-121340528D01*
X149636008Y-121340525D01*
X149633905Y-121332674D01*
X149637207Y-121331789D01*
X149631392Y-121278075D01*
X149634501Y-121267485D01*
X149633905Y-121267326D01*
X149636008Y-121259475D01*
X149636008Y-121259474D01*
X149636009Y-121259472D01*
X149650500Y-121149401D01*
X149650499Y-120950600D01*
X149650499Y-120950598D01*
X149650499Y-120950596D01*
X149636011Y-120840536D01*
X149633906Y-120832682D01*
X149637007Y-120831850D01*
X149631128Y-120777382D01*
X149634147Y-120767389D01*
X149633418Y-120767194D01*
X149635521Y-120759342D01*
X149646626Y-120675000D01*
X149618506Y-120675000D01*
X149551467Y-120655315D01*
X149520115Y-120626466D01*
X149519348Y-120625466D01*
X149494167Y-120560292D01*
X149508219Y-120491850D01*
X149519348Y-120474534D01*
X149520115Y-120473534D01*
X149576534Y-120432319D01*
X149618506Y-120425000D01*
X149646626Y-120425000D01*
X149635521Y-120340659D01*
X149633418Y-120332807D01*
X149637041Y-120331835D01*
X149630919Y-120279884D01*
X149634495Y-120267484D01*
X149633905Y-120267326D01*
X149636008Y-120259475D01*
X149636008Y-120259474D01*
X149636009Y-120259472D01*
X149650500Y-120149401D01*
X149650499Y-119950600D01*
X149636009Y-119840528D01*
X149636008Y-119840525D01*
X149633905Y-119832674D01*
X149637207Y-119831789D01*
X149631392Y-119778075D01*
X149634501Y-119767485D01*
X149633905Y-119767326D01*
X149636008Y-119759475D01*
X149636008Y-119759474D01*
X149636009Y-119759472D01*
X149650500Y-119649401D01*
X149650500Y-119624499D01*
X149670185Y-119557460D01*
X149722989Y-119511705D01*
X149774500Y-119500499D01*
X149799402Y-119500499D01*
X149828382Y-119496683D01*
X149909472Y-119486009D01*
X149909475Y-119486007D01*
X149917326Y-119483905D01*
X149918210Y-119487207D01*
X149971925Y-119481392D01*
X149982514Y-119484501D01*
X149982674Y-119483905D01*
X149990524Y-119486008D01*
X149990526Y-119486008D01*
X149990528Y-119486009D01*
X150100599Y-119500500D01*
X150299400Y-119500499D01*
X150299401Y-119500499D01*
X150316087Y-119498302D01*
X150409472Y-119486009D01*
X150409475Y-119486007D01*
X150417326Y-119483905D01*
X150418210Y-119487207D01*
X150471925Y-119481392D01*
X150482514Y-119484501D01*
X150482674Y-119483905D01*
X150490524Y-119486008D01*
X150490526Y-119486008D01*
X150490528Y-119486009D01*
X150600599Y-119500500D01*
X150799400Y-119500499D01*
X150799401Y-119500499D01*
X150816087Y-119498302D01*
X150909472Y-119486009D01*
X150909475Y-119486007D01*
X150917326Y-119483905D01*
X150918210Y-119487207D01*
X150971925Y-119481392D01*
X150982514Y-119484501D01*
X150982674Y-119483905D01*
X150990524Y-119486008D01*
X150990526Y-119486008D01*
X150990528Y-119486009D01*
X151100599Y-119500500D01*
X151299400Y-119500499D01*
X151299401Y-119500499D01*
X151316087Y-119498302D01*
X151409472Y-119486009D01*
X151409475Y-119486007D01*
X151417326Y-119483905D01*
X151418210Y-119487207D01*
X151471925Y-119481392D01*
X151482514Y-119484501D01*
X151482674Y-119483905D01*
X151490524Y-119486008D01*
X151490526Y-119486008D01*
X151490528Y-119486009D01*
X151600599Y-119500500D01*
X151799400Y-119500499D01*
X151799401Y-119500499D01*
X151816087Y-119498302D01*
X151909472Y-119486009D01*
X151909475Y-119486007D01*
X151917326Y-119483905D01*
X151918210Y-119487207D01*
X151971925Y-119481392D01*
X151982514Y-119484501D01*
X151982674Y-119483905D01*
X151990524Y-119486008D01*
X151990526Y-119486008D01*
X151990528Y-119486009D01*
X152100599Y-119500500D01*
X152299400Y-119500499D01*
X152299401Y-119500499D01*
X152316087Y-119498302D01*
X152409472Y-119486009D01*
X152409475Y-119486007D01*
X152417326Y-119483905D01*
X152418210Y-119487207D01*
X152471925Y-119481392D01*
X152482514Y-119484501D01*
G37*
%TD.AperFunction*%
%TA.AperFunction,Conductor*%
G36*
X180515275Y-83663685D02*
G01*
X180558721Y-83711705D01*
X180566239Y-83726460D01*
X180602843Y-83798299D01*
X180729641Y-83972821D01*
X180729643Y-83972823D01*
X180871624Y-84114804D01*
X180905109Y-84176127D01*
X180900125Y-84245819D01*
X180858253Y-84301752D01*
X180836360Y-84314861D01*
X180835677Y-84315179D01*
X180686342Y-84407289D01*
X180562289Y-84531342D01*
X180544245Y-84560597D01*
X180492297Y-84607322D01*
X180438706Y-84619500D01*
X177984675Y-84619500D01*
X177984655Y-84619499D01*
X177978541Y-84619499D01*
X177781460Y-84619499D01*
X177781457Y-84619499D01*
X177588172Y-84657946D01*
X177588164Y-84657948D01*
X177406088Y-84733366D01*
X177406079Y-84733371D01*
X177242219Y-84842859D01*
X177242215Y-84842862D01*
X175559436Y-86525643D01*
X175062220Y-87022859D01*
X175062218Y-87022861D01*
X174992538Y-87092540D01*
X174922859Y-87162219D01*
X174813371Y-87326079D01*
X174813366Y-87326089D01*
X174790241Y-87381919D01*
X174762173Y-87449681D01*
X174760038Y-87454835D01*
X174737950Y-87508159D01*
X174737948Y-87508164D01*
X174734028Y-87527875D01*
X174699500Y-87701454D01*
X174699500Y-94698544D01*
X174737947Y-94891828D01*
X174737950Y-94891840D01*
X174748084Y-94916304D01*
X174813366Y-95073911D01*
X174813371Y-95073920D01*
X174922859Y-95237780D01*
X174922860Y-95237781D01*
X174922861Y-95237782D01*
X175062218Y-95377139D01*
X175062219Y-95377139D01*
X175069286Y-95384206D01*
X175069285Y-95384206D01*
X175069289Y-95384209D01*
X177063181Y-97378101D01*
X177096666Y-97439424D01*
X177099500Y-97465782D01*
X177099500Y-115375500D01*
X177079815Y-115442539D01*
X177027011Y-115488294D01*
X176975500Y-115499500D01*
X175974000Y-115499500D01*
X175906961Y-115479815D01*
X175861206Y-115427011D01*
X175850000Y-115375500D01*
X175850000Y-115250000D01*
X171350001Y-115250000D01*
X171350001Y-115375500D01*
X171330316Y-115442539D01*
X171277512Y-115488294D01*
X171226001Y-115499500D01*
X170374500Y-115499500D01*
X170307461Y-115479815D01*
X170261706Y-115427011D01*
X170250500Y-115375500D01*
X170250499Y-114400013D01*
X171350000Y-114400013D01*
X171350000Y-114750000D01*
X173350000Y-114750000D01*
X173850000Y-114750000D01*
X175849999Y-114750000D01*
X175849999Y-114400028D01*
X175849998Y-114400013D01*
X175839505Y-114297302D01*
X175784358Y-114130880D01*
X175784356Y-114130875D01*
X175692315Y-113981654D01*
X175568345Y-113857684D01*
X175419124Y-113765643D01*
X175419119Y-113765641D01*
X175252697Y-113710494D01*
X175252690Y-113710493D01*
X175149986Y-113700000D01*
X173850000Y-113700000D01*
X173850000Y-114750000D01*
X173350000Y-114750000D01*
X173350000Y-113700000D01*
X172050028Y-113700000D01*
X172050012Y-113700001D01*
X171947302Y-113710494D01*
X171780880Y-113765641D01*
X171780875Y-113765643D01*
X171631654Y-113857684D01*
X171507684Y-113981654D01*
X171415643Y-114130875D01*
X171415641Y-114130880D01*
X171360494Y-114297302D01*
X171360493Y-114297309D01*
X171350000Y-114400013D01*
X170250499Y-114400013D01*
X170250499Y-114399998D01*
X170250498Y-114399980D01*
X170239999Y-114297203D01*
X170239998Y-114297200D01*
X170184814Y-114130666D01*
X170092712Y-113981344D01*
X169968656Y-113857288D01*
X169819334Y-113765186D01*
X169652797Y-113710001D01*
X169652795Y-113710000D01*
X169550016Y-113699500D01*
X169550009Y-113699500D01*
X169174500Y-113699500D01*
X169107461Y-113679815D01*
X169061706Y-113627011D01*
X169050500Y-113575500D01*
X169050500Y-110516519D01*
X169070185Y-110449480D01*
X169086813Y-110428843D01*
X169187321Y-110328335D01*
X169248640Y-110294853D01*
X169318332Y-110299837D01*
X169362680Y-110328338D01*
X169464811Y-110430469D01*
X169464813Y-110430470D01*
X169464815Y-110430472D01*
X169610394Y-110518478D01*
X169772804Y-110569086D01*
X169843384Y-110575500D01*
X169843387Y-110575500D01*
X170356613Y-110575500D01*
X170356616Y-110575500D01*
X170427196Y-110569086D01*
X170589606Y-110518478D01*
X170735185Y-110430472D01*
X170855472Y-110310185D01*
X170885598Y-110260349D01*
X170937126Y-110213162D01*
X170991715Y-110200500D01*
X171258285Y-110200500D01*
X171325324Y-110220185D01*
X171364401Y-110260349D01*
X171394342Y-110309877D01*
X171394530Y-110310188D01*
X171514811Y-110430469D01*
X171514813Y-110430470D01*
X171514815Y-110430472D01*
X171660394Y-110518478D01*
X171822804Y-110569086D01*
X171893384Y-110575500D01*
X171893387Y-110575500D01*
X172406613Y-110575500D01*
X172406616Y-110575500D01*
X172477196Y-110569086D01*
X172639606Y-110518478D01*
X172785185Y-110430472D01*
X172887673Y-110327983D01*
X172948994Y-110294499D01*
X173018685Y-110299483D01*
X173063034Y-110327984D01*
X173165122Y-110430072D01*
X173310604Y-110518019D01*
X173310603Y-110518019D01*
X173472894Y-110568590D01*
X173472893Y-110568590D01*
X173543408Y-110574998D01*
X173543426Y-110574999D01*
X174050000Y-110574999D01*
X174056581Y-110574999D01*
X174127102Y-110568591D01*
X174127107Y-110568590D01*
X174289396Y-110518018D01*
X174434877Y-110430072D01*
X174555072Y-110309877D01*
X174643019Y-110164395D01*
X174693590Y-110002106D01*
X174700000Y-109931572D01*
X174700000Y-109850000D01*
X174050000Y-109850000D01*
X174050000Y-110574999D01*
X173543426Y-110574999D01*
X173549999Y-110574998D01*
X173550000Y-110574998D01*
X173550000Y-108624999D01*
X173536325Y-108611326D01*
X173516486Y-108574999D01*
X174000000Y-108574999D01*
X174013681Y-108588680D01*
X174047166Y-108650003D01*
X174050000Y-108676361D01*
X174050000Y-109350000D01*
X174699999Y-109350000D01*
X174699999Y-109268417D01*
X174693591Y-109197897D01*
X174693590Y-109197892D01*
X174643018Y-109035603D01*
X174555072Y-108890122D01*
X174434877Y-108769927D01*
X174320639Y-108700868D01*
X174273452Y-108649340D01*
X174261613Y-108580481D01*
X174288882Y-108516152D01*
X174319692Y-108489212D01*
X174427733Y-108422571D01*
X174547572Y-108302732D01*
X174547575Y-108302728D01*
X174636542Y-108158492D01*
X174636547Y-108158481D01*
X174689855Y-107997606D01*
X174699999Y-107898322D01*
X174700000Y-107898309D01*
X174700000Y-107850000D01*
X174000000Y-107850000D01*
X174000000Y-108574999D01*
X173516486Y-108574999D01*
X173502836Y-108550006D01*
X173500000Y-108523639D01*
X173500000Y-107350000D01*
X174000000Y-107350000D01*
X174699999Y-107350000D01*
X174699999Y-107301692D01*
X174699998Y-107301677D01*
X174689855Y-107202392D01*
X174636547Y-107041518D01*
X174636542Y-107041507D01*
X174547575Y-106897271D01*
X174547572Y-106897267D01*
X174427732Y-106777427D01*
X174427728Y-106777424D01*
X174283492Y-106688457D01*
X174283481Y-106688452D01*
X174122606Y-106635144D01*
X174023322Y-106625000D01*
X174000000Y-106625000D01*
X174000000Y-107350000D01*
X173500000Y-107350000D01*
X173500000Y-106624999D01*
X173476693Y-106625000D01*
X173476674Y-106625001D01*
X173377392Y-106635144D01*
X173216518Y-106688452D01*
X173216507Y-106688457D01*
X173072271Y-106777424D01*
X173072265Y-106777428D01*
X173063031Y-106786663D01*
X173001707Y-106820146D01*
X172932015Y-106815159D01*
X172887672Y-106786660D01*
X172878044Y-106777032D01*
X172878040Y-106777029D01*
X172733705Y-106688001D01*
X172733699Y-106687998D01*
X172733697Y-106687997D01*
X172733694Y-106687996D01*
X172572709Y-106634651D01*
X172473346Y-106624500D01*
X171926662Y-106624500D01*
X171926644Y-106624501D01*
X171827292Y-106634650D01*
X171827289Y-106634651D01*
X171666305Y-106687996D01*
X171666294Y-106688001D01*
X171521959Y-106777029D01*
X171521955Y-106777032D01*
X171402032Y-106896955D01*
X171402029Y-106896959D01*
X171313001Y-107041294D01*
X171312996Y-107041305D01*
X171259651Y-107202290D01*
X171249500Y-107301647D01*
X171249500Y-107898337D01*
X171249501Y-107898355D01*
X171259650Y-107997707D01*
X171259651Y-107997710D01*
X171312996Y-108158694D01*
X171313001Y-108158705D01*
X171402029Y-108303040D01*
X171402032Y-108303044D01*
X171521956Y-108422968D01*
X171540596Y-108434465D01*
X171587321Y-108486412D01*
X171599500Y-108540004D01*
X171599500Y-108648397D01*
X171579815Y-108715436D01*
X171539652Y-108754513D01*
X171514813Y-108769529D01*
X171514811Y-108769530D01*
X171394530Y-108889811D01*
X171364402Y-108939650D01*
X171312874Y-108986838D01*
X171258285Y-108999500D01*
X170991715Y-108999500D01*
X170924676Y-108979815D01*
X170885598Y-108939650D01*
X170855472Y-108889815D01*
X170855470Y-108889813D01*
X170855469Y-108889811D01*
X170735188Y-108769530D01*
X170675554Y-108733480D01*
X170589606Y-108681522D01*
X170427196Y-108630914D01*
X170427194Y-108630913D01*
X170427192Y-108630913D01*
X170377778Y-108626423D01*
X170356616Y-108624500D01*
X170356613Y-108624500D01*
X170025097Y-108624500D01*
X169958058Y-108604815D01*
X169937416Y-108588181D01*
X160337590Y-98988355D01*
X160337588Y-98988352D01*
X160218717Y-98869481D01*
X160218716Y-98869480D01*
X160131904Y-98819360D01*
X160131904Y-98819359D01*
X160131900Y-98819358D01*
X160081785Y-98790423D01*
X160081784Y-98790422D01*
X160081783Y-98790422D01*
X160074275Y-98787312D01*
X160075317Y-98784794D01*
X160027061Y-98755384D01*
X159996529Y-98692539D01*
X160004820Y-98623163D01*
X160046015Y-98573265D01*
X160045393Y-98572463D01*
X160048965Y-98569692D01*
X160049303Y-98569283D01*
X160050336Y-98568628D01*
X160051561Y-98567678D01*
X160167678Y-98451561D01*
X160167685Y-98451552D01*
X160251281Y-98310198D01*
X160297100Y-98152486D01*
X160297295Y-98150001D01*
X160297295Y-98150000D01*
X157827705Y-98150000D01*
X157827704Y-98150001D01*
X157827899Y-98152486D01*
X157873718Y-98310198D01*
X157957314Y-98451552D01*
X157957321Y-98451561D01*
X158043579Y-98537819D01*
X158077064Y-98599142D01*
X158072080Y-98668834D01*
X158030208Y-98724767D01*
X157964744Y-98749184D01*
X157955898Y-98749500D01*
X154770097Y-98749500D01*
X154703058Y-98729815D01*
X154682416Y-98713181D01*
X153619233Y-97649998D01*
X157827704Y-97649998D01*
X157827705Y-97650000D01*
X158812500Y-97650000D01*
X158812500Y-97100000D01*
X158409350Y-97100000D01*
X158372510Y-97102899D01*
X158372504Y-97102900D01*
X158214806Y-97148716D01*
X158214803Y-97148717D01*
X158073447Y-97232314D01*
X158073438Y-97232321D01*
X157957321Y-97348438D01*
X157957314Y-97348447D01*
X157873718Y-97489801D01*
X157827899Y-97647513D01*
X157827704Y-97649998D01*
X153619233Y-97649998D01*
X150510916Y-94541681D01*
X150477431Y-94480358D01*
X150482415Y-94410666D01*
X150524287Y-94354733D01*
X150589751Y-94330316D01*
X150598597Y-94330000D01*
X151097828Y-94330000D01*
X151097844Y-94329999D01*
X151157372Y-94323598D01*
X151157379Y-94323596D01*
X151292086Y-94273354D01*
X151292093Y-94273350D01*
X151407187Y-94187190D01*
X151407190Y-94187187D01*
X151493350Y-94072093D01*
X151493354Y-94072086D01*
X151543596Y-93937379D01*
X151543598Y-93937372D01*
X151550053Y-93877341D01*
X151576791Y-93812790D01*
X151634184Y-93772942D01*
X151704009Y-93770449D01*
X151764098Y-93806102D01*
X151780727Y-93828595D01*
X151848687Y-93946304D01*
X151848689Y-93946306D01*
X151960761Y-94058378D01*
X151960766Y-94058382D01*
X153637196Y-95734813D01*
X153637197Y-95734814D01*
X153637199Y-95734815D01*
X153765800Y-95809063D01*
X153765801Y-95809063D01*
X153765804Y-95809065D01*
X153909248Y-95847501D01*
X153909251Y-95847501D01*
X154065349Y-95847501D01*
X154065365Y-95847500D01*
X157700500Y-95847500D01*
X157767539Y-95867185D01*
X157813294Y-95919989D01*
X157824500Y-95971500D01*
X157824500Y-96215701D01*
X157827401Y-96252567D01*
X157827402Y-96252573D01*
X157873254Y-96410393D01*
X157873255Y-96410396D01*
X157956917Y-96551862D01*
X157956923Y-96551870D01*
X158073129Y-96668076D01*
X158073133Y-96668079D01*
X158073135Y-96668081D01*
X158214602Y-96751744D01*
X158256224Y-96763836D01*
X158372426Y-96797597D01*
X158372429Y-96797597D01*
X158372431Y-96797598D01*
X158409306Y-96800500D01*
X159575500Y-96800500D01*
X159642539Y-96820185D01*
X159688294Y-96872989D01*
X159699500Y-96924500D01*
X159699500Y-96976000D01*
X159679815Y-97043039D01*
X159627011Y-97088794D01*
X159575500Y-97100000D01*
X159312500Y-97100000D01*
X159312500Y-97650000D01*
X159968185Y-97650000D01*
X160031306Y-97667268D01*
X160089602Y-97701744D01*
X160124710Y-97711944D01*
X160247426Y-97747597D01*
X160247429Y-97747597D01*
X160247431Y-97747598D01*
X160284306Y-97750500D01*
X160284314Y-97750500D01*
X161590686Y-97750500D01*
X161590694Y-97750500D01*
X161627569Y-97747598D01*
X161750289Y-97711944D01*
X161820158Y-97712143D01*
X161844105Y-97722974D01*
X161844205Y-97722769D01*
X161850470Y-97725786D01*
X161850477Y-97725788D01*
X161850478Y-97725789D01*
X161988860Y-97774211D01*
X162020745Y-97785368D01*
X162020750Y-97785369D01*
X162199996Y-97805565D01*
X162200000Y-97805565D01*
X162200004Y-97805565D01*
X162379249Y-97785369D01*
X162379252Y-97785368D01*
X162379255Y-97785368D01*
X162549522Y-97725789D01*
X162702262Y-97629816D01*
X162829816Y-97502262D01*
X162925789Y-97349522D01*
X162985368Y-97179255D01*
X162993771Y-97104675D01*
X163005565Y-97000003D01*
X163005565Y-96999996D01*
X162985369Y-96820750D01*
X162985368Y-96820745D01*
X162978284Y-96800499D01*
X162925789Y-96650478D01*
X162829816Y-96497738D01*
X162702262Y-96370184D01*
X162689586Y-96362219D01*
X162549523Y-96274211D01*
X162379254Y-96214631D01*
X162379249Y-96214630D01*
X162200004Y-96194435D01*
X162199996Y-96194435D01*
X162020746Y-96214631D01*
X162020745Y-96214631D01*
X161944713Y-96241235D01*
X161874934Y-96244796D01*
X161840640Y-96230926D01*
X161840314Y-96230733D01*
X161785398Y-96198256D01*
X161785394Y-96198255D01*
X161785393Y-96198254D01*
X161627573Y-96152402D01*
X161627567Y-96152401D01*
X161590701Y-96149500D01*
X161590694Y-96149500D01*
X160424500Y-96149500D01*
X160357461Y-96129815D01*
X160311706Y-96077011D01*
X160300500Y-96025500D01*
X160300500Y-95784313D01*
X160300499Y-95784298D01*
X160298013Y-95752712D01*
X160297598Y-95747431D01*
X160293932Y-95734813D01*
X160251745Y-95589606D01*
X160251744Y-95589603D01*
X160251744Y-95589602D01*
X160168081Y-95448135D01*
X160168079Y-95448133D01*
X160168076Y-95448129D01*
X160065628Y-95345681D01*
X160032143Y-95284358D01*
X160037127Y-95214666D01*
X160078999Y-95158733D01*
X160144463Y-95134316D01*
X160153309Y-95134000D01*
X160508892Y-95134000D01*
X160540984Y-95138225D01*
X160581554Y-95149095D01*
X160637181Y-95164000D01*
X160637182Y-95164000D01*
X161980560Y-95164000D01*
X162047599Y-95183685D01*
X162068241Y-95200319D01*
X162097738Y-95229816D01*
X162110413Y-95237780D01*
X162229804Y-95312799D01*
X162250478Y-95325789D01*
X162397228Y-95377139D01*
X162420745Y-95385368D01*
X162420750Y-95385369D01*
X162599996Y-95405565D01*
X162600000Y-95405565D01*
X162600004Y-95405565D01*
X162779249Y-95385369D01*
X162779252Y-95385368D01*
X162779255Y-95385368D01*
X162949522Y-95325789D01*
X163102262Y-95229816D01*
X163229816Y-95102262D01*
X163325789Y-94949522D01*
X163385368Y-94779255D01*
X163394462Y-94698544D01*
X163405565Y-94600003D01*
X163405565Y-94599996D01*
X163385369Y-94420750D01*
X163385368Y-94420745D01*
X163362269Y-94354733D01*
X163325789Y-94250478D01*
X163229816Y-94097738D01*
X163102262Y-93970184D01*
X163068610Y-93949039D01*
X162949521Y-93874210D01*
X162856701Y-93841731D01*
X162827065Y-93831361D01*
X162770290Y-93790640D01*
X162744542Y-93725688D01*
X162757998Y-93657126D01*
X162761948Y-93650230D01*
X162762286Y-93649529D01*
X162762287Y-93649523D01*
X162762289Y-93649522D01*
X162821868Y-93479255D01*
X162830162Y-93405647D01*
X162842065Y-93300003D01*
X162842065Y-93299996D01*
X162821869Y-93120750D01*
X162821868Y-93120745D01*
X162795489Y-93045359D01*
X162762289Y-92950478D01*
X162742181Y-92918477D01*
X162666315Y-92797737D01*
X162538762Y-92670184D01*
X162386023Y-92574211D01*
X162215754Y-92514631D01*
X162215749Y-92514630D01*
X162036504Y-92494435D01*
X162029537Y-92494435D01*
X162029537Y-92491559D01*
X161973432Y-92481730D01*
X161940695Y-92458249D01*
X161864365Y-92381919D01*
X161722898Y-92298256D01*
X161722897Y-92298255D01*
X161722896Y-92298255D01*
X161722893Y-92298254D01*
X161565073Y-92252402D01*
X161565067Y-92252401D01*
X161528201Y-92249500D01*
X161528194Y-92249500D01*
X161446044Y-92249500D01*
X161379005Y-92229815D01*
X161333250Y-92177011D01*
X161323306Y-92107853D01*
X161352331Y-92044297D01*
X161358363Y-92037819D01*
X169715863Y-83680319D01*
X169777186Y-83646834D01*
X169803544Y-83644000D01*
X180448236Y-83644000D01*
X180515275Y-83663685D01*
G37*
%TD.AperFunction*%
%TA.AperFunction,Conductor*%
G36*
X144338019Y-107233685D02*
G01*
X144383774Y-107286489D01*
X144393718Y-107355647D01*
X144364693Y-107419203D01*
X144358661Y-107425681D01*
X144294531Y-107489810D01*
X144294530Y-107489811D01*
X144206522Y-107635393D01*
X144155913Y-107797807D01*
X144149500Y-107868386D01*
X144149500Y-108531613D01*
X144155913Y-108602192D01*
X144155913Y-108602194D01*
X144155914Y-108602196D01*
X144206522Y-108764606D01*
X144282399Y-108890122D01*
X144294530Y-108910188D01*
X144414811Y-109030469D01*
X144414813Y-109030470D01*
X144414815Y-109030472D01*
X144560394Y-109118478D01*
X144722804Y-109169086D01*
X144793384Y-109175500D01*
X144793387Y-109175500D01*
X145306612Y-109175500D01*
X145306616Y-109175500D01*
X145337279Y-109172713D01*
X145405823Y-109186249D01*
X145456169Y-109234695D01*
X145472500Y-109296204D01*
X145472500Y-110379338D01*
X145452815Y-110446377D01*
X145436181Y-110467019D01*
X145030956Y-110872243D01*
X144969633Y-110905728D01*
X144957159Y-110907782D01*
X144812066Y-110924130D01*
X144812062Y-110924131D01*
X144641793Y-110983711D01*
X144489054Y-111079684D01*
X144361501Y-111207237D01*
X144265527Y-111359978D01*
X144205947Y-111530250D01*
X144198215Y-111598883D01*
X144171149Y-111663297D01*
X144113554Y-111702852D01*
X144074995Y-111709000D01*
X138320978Y-111709000D01*
X138253939Y-111689315D01*
X138233297Y-111672681D01*
X138120284Y-111559668D01*
X138086799Y-111498345D01*
X138091783Y-111428653D01*
X138133655Y-111372720D01*
X138199119Y-111348303D01*
X138251299Y-111355805D01*
X138352623Y-111393597D01*
X138352627Y-111393598D01*
X138412155Y-111399999D01*
X138412172Y-111400000D01*
X138580000Y-111400000D01*
X138580000Y-109574000D01*
X138599685Y-109506961D01*
X138652489Y-109461206D01*
X138704000Y-109450000D01*
X138956000Y-109450000D01*
X139023039Y-109469685D01*
X139068794Y-109522489D01*
X139080000Y-109574000D01*
X139080000Y-111400000D01*
X139247828Y-111400000D01*
X139247844Y-111399999D01*
X139307372Y-111393598D01*
X139307376Y-111393597D01*
X139420951Y-111351236D01*
X139490643Y-111346252D01*
X139507608Y-111351232D01*
X139622517Y-111394091D01*
X139682127Y-111400500D01*
X140517872Y-111400499D01*
X140577483Y-111394091D01*
X140712331Y-111343796D01*
X140827546Y-111257546D01*
X140913796Y-111142331D01*
X140964091Y-111007483D01*
X140970500Y-110947873D01*
X140970499Y-110508434D01*
X140990183Y-110441396D01*
X141042987Y-110395641D01*
X141072585Y-110387440D01*
X141072466Y-110386918D01*
X141079251Y-110385369D01*
X141079253Y-110385368D01*
X141079255Y-110385368D01*
X141249522Y-110325789D01*
X141402262Y-110229816D01*
X141529816Y-110102262D01*
X141625789Y-109949522D01*
X141685368Y-109779255D01*
X141705565Y-109600000D01*
X141695082Y-109506961D01*
X141685369Y-109420750D01*
X141685368Y-109420745D01*
X141660613Y-109350000D01*
X141625789Y-109250478D01*
X141529816Y-109097738D01*
X141402262Y-108970184D01*
X141249521Y-108874210D01*
X141079246Y-108814629D01*
X141072459Y-108813080D01*
X141072817Y-108811510D01*
X141016192Y-108787710D01*
X140976643Y-108730111D01*
X140970499Y-108691564D01*
X140970499Y-108452129D01*
X140970498Y-108452123D01*
X140970068Y-108448126D01*
X140964091Y-108392517D01*
X140944206Y-108339203D01*
X140913797Y-108257671D01*
X140913793Y-108257664D01*
X140827547Y-108142455D01*
X140827544Y-108142452D01*
X140712335Y-108056206D01*
X140712328Y-108056202D01*
X140577482Y-108005908D01*
X140577483Y-108005908D01*
X140517883Y-107999501D01*
X140517881Y-107999500D01*
X140517873Y-107999500D01*
X140517865Y-107999500D01*
X139752484Y-107999500D01*
X139685445Y-107979815D01*
X139639690Y-107927011D01*
X139629746Y-107857853D01*
X139658771Y-107794297D01*
X139690481Y-107768115D01*
X139706157Y-107759065D01*
X139782804Y-107714813D01*
X139887813Y-107609804D01*
X139917813Y-107579804D01*
X139927803Y-107562499D01*
X139978369Y-107514284D01*
X140035191Y-107500499D01*
X140517871Y-107500499D01*
X140517872Y-107500499D01*
X140577483Y-107494091D01*
X140712331Y-107443796D01*
X140827546Y-107357546D01*
X140890738Y-107273131D01*
X140946671Y-107231262D01*
X141016363Y-107226278D01*
X141077685Y-107259763D01*
X141097738Y-107279816D01*
X141169605Y-107324973D01*
X141240513Y-107369528D01*
X141250478Y-107375789D01*
X141304423Y-107394665D01*
X141420745Y-107435368D01*
X141420750Y-107435369D01*
X141599996Y-107455565D01*
X141600000Y-107455565D01*
X141600004Y-107455565D01*
X141779249Y-107435369D01*
X141779252Y-107435368D01*
X141779255Y-107435368D01*
X141949522Y-107375789D01*
X142102262Y-107279816D01*
X142131759Y-107250319D01*
X142193082Y-107216834D01*
X142219440Y-107214000D01*
X144270980Y-107214000D01*
X144338019Y-107233685D01*
G37*
%TD.AperFunction*%
%TA.AperFunction,Conductor*%
G36*
X144142539Y-103645185D02*
G01*
X144188294Y-103697989D01*
X144199500Y-103749500D01*
X144199500Y-104131613D01*
X144205913Y-104202192D01*
X144256522Y-104364606D01*
X144344530Y-104510188D01*
X144421770Y-104587428D01*
X144455255Y-104648751D01*
X144450271Y-104718443D01*
X144409577Y-104773484D01*
X144346719Y-104821717D01*
X144250463Y-104947160D01*
X144189956Y-105093237D01*
X144189955Y-105093239D01*
X144174500Y-105210638D01*
X144174500Y-105489363D01*
X144189953Y-105606753D01*
X144189957Y-105606765D01*
X144198566Y-105627550D01*
X144206033Y-105697019D01*
X144198566Y-105722450D01*
X144189957Y-105743234D01*
X144189955Y-105743239D01*
X144174500Y-105860638D01*
X144174500Y-105962000D01*
X144154815Y-106029039D01*
X144102011Y-106074794D01*
X144050500Y-106086000D01*
X142219440Y-106086000D01*
X142152401Y-106066315D01*
X142131759Y-106049681D01*
X142102262Y-106020184D01*
X141949523Y-105924211D01*
X141779254Y-105864631D01*
X141779249Y-105864630D01*
X141600004Y-105844435D01*
X141599996Y-105844435D01*
X141420750Y-105864630D01*
X141420737Y-105864633D01*
X141250482Y-105924208D01*
X141193787Y-105959832D01*
X141126550Y-105978831D01*
X141059715Y-105958462D01*
X141040135Y-105942519D01*
X141006816Y-105909199D01*
X140973332Y-105847875D01*
X140970499Y-105821519D01*
X140970499Y-104552129D01*
X140970498Y-104552123D01*
X140970497Y-104552116D01*
X140964091Y-104492517D01*
X140936416Y-104418317D01*
X140913797Y-104357671D01*
X140913793Y-104357664D01*
X140827547Y-104242455D01*
X140827544Y-104242452D01*
X140712335Y-104156206D01*
X140712325Y-104156201D01*
X140697974Y-104150848D01*
X140642041Y-104108976D01*
X140617625Y-104043511D01*
X140632478Y-103975238D01*
X140653625Y-103946989D01*
X140661861Y-103938753D01*
X140723182Y-103905270D01*
X140735648Y-103903217D01*
X140810577Y-103894775D01*
X140880750Y-103886869D01*
X140880753Y-103886868D01*
X140880755Y-103886868D01*
X141051022Y-103827289D01*
X141203762Y-103731316D01*
X141273259Y-103661819D01*
X141334582Y-103628334D01*
X141360940Y-103625500D01*
X144075500Y-103625500D01*
X144142539Y-103645185D01*
G37*
%TD.AperFunction*%
%TA.AperFunction,Conductor*%
G36*
X139586891Y-101360443D02*
G01*
X139626086Y-101386632D01*
X139626088Y-101386633D01*
X139626092Y-101386635D01*
X139808160Y-101462049D01*
X139808165Y-101462051D01*
X139808169Y-101462051D01*
X139808170Y-101462052D01*
X140001456Y-101500500D01*
X140001459Y-101500500D01*
X145213970Y-101500500D01*
X145281009Y-101520185D01*
X145301651Y-101536819D01*
X146050651Y-102285819D01*
X146084136Y-102347142D01*
X146079152Y-102416834D01*
X146037280Y-102472767D01*
X145971816Y-102497184D01*
X145962970Y-102497500D01*
X141279523Y-102497500D01*
X141212484Y-102477815D01*
X141205166Y-102472566D01*
X141051023Y-102375711D01*
X140880754Y-102316131D01*
X140880749Y-102316130D01*
X140701504Y-102295935D01*
X140701496Y-102295935D01*
X140522250Y-102316130D01*
X140522245Y-102316131D01*
X140351976Y-102375711D01*
X140199237Y-102471684D01*
X140071684Y-102599237D01*
X139975711Y-102751976D01*
X139916131Y-102922245D01*
X139916130Y-102922249D01*
X139899782Y-103067342D01*
X139872715Y-103131756D01*
X139864243Y-103141139D01*
X139605681Y-103399702D01*
X139544358Y-103433187D01*
X139474667Y-103428203D01*
X139418733Y-103386332D01*
X139394316Y-103320867D01*
X139394000Y-103312021D01*
X139394000Y-101463545D01*
X139413685Y-101396506D01*
X139466489Y-101350751D01*
X139535647Y-101340807D01*
X139586891Y-101360443D01*
G37*
%TD.AperFunction*%
%TA.AperFunction,Conductor*%
G36*
X136569203Y-99601727D02*
G01*
X136575681Y-99607759D01*
X136697738Y-99729816D01*
X136850478Y-99825789D01*
X137016455Y-99883867D01*
X137073230Y-99924588D01*
X137098978Y-99989540D01*
X137099500Y-100000908D01*
X137099500Y-101702521D01*
X137079815Y-101769560D01*
X137027011Y-101815315D01*
X136957853Y-101825259D01*
X136894297Y-101796234D01*
X136887819Y-101790202D01*
X136400319Y-101302702D01*
X136366834Y-101241379D01*
X136364000Y-101215021D01*
X136364000Y-99695440D01*
X136383685Y-99628401D01*
X136436489Y-99582646D01*
X136505647Y-99572702D01*
X136569203Y-99601727D01*
G37*
%TD.AperFunction*%
%TA.AperFunction,Conductor*%
G36*
X142108327Y-80151338D02*
G01*
X142142517Y-80164091D01*
X142202127Y-80170500D01*
X143197872Y-80170499D01*
X143197874Y-80170498D01*
X143197887Y-80170498D01*
X143226803Y-80167388D01*
X143232244Y-80166804D01*
X143301003Y-80179208D01*
X143352141Y-80226818D01*
X143369500Y-80290093D01*
X143369500Y-91683330D01*
X143369499Y-91683348D01*
X143369499Y-91849054D01*
X143369498Y-91849054D01*
X143369499Y-91849057D01*
X143410423Y-92001785D01*
X143410424Y-92001787D01*
X143410423Y-92001787D01*
X143424258Y-92025748D01*
X143424259Y-92025749D01*
X143471661Y-92107853D01*
X143482887Y-92127296D01*
X143499500Y-92189296D01*
X143499500Y-92713330D01*
X143499499Y-92713348D01*
X143499499Y-92879054D01*
X143499498Y-92879054D01*
X143503187Y-92892821D01*
X143532923Y-93003796D01*
X143540424Y-93031787D01*
X143542858Y-93036002D01*
X143542862Y-93036009D01*
X143619477Y-93168712D01*
X143619481Y-93168717D01*
X143738349Y-93287585D01*
X143738355Y-93287590D01*
X145115139Y-94664374D01*
X145115149Y-94664385D01*
X145119479Y-94668715D01*
X145119480Y-94668716D01*
X145231284Y-94780520D01*
X145231286Y-94780521D01*
X145231290Y-94780524D01*
X145352452Y-94850476D01*
X145368216Y-94859577D01*
X145480019Y-94889534D01*
X145520942Y-94900500D01*
X145520943Y-94900500D01*
X147072411Y-94900500D01*
X147139450Y-94920185D01*
X147185205Y-94972989D01*
X147195631Y-95010617D01*
X147198736Y-95038175D01*
X147186681Y-95106996D01*
X147139332Y-95158376D01*
X147071722Y-95176000D01*
X147062272Y-95175348D01*
X147007873Y-95169500D01*
X147007864Y-95169500D01*
X146012129Y-95169500D01*
X146012123Y-95169501D01*
X145952518Y-95175908D01*
X145918331Y-95188659D01*
X145848639Y-95193642D01*
X145831669Y-95188659D01*
X145797480Y-95175908D01*
X145797482Y-95175908D01*
X145737883Y-95169501D01*
X145737881Y-95169500D01*
X145737873Y-95169500D01*
X145737864Y-95169500D01*
X144742129Y-95169500D01*
X144742123Y-95169501D01*
X144682518Y-95175908D01*
X144648331Y-95188659D01*
X144578639Y-95193642D01*
X144561669Y-95188659D01*
X144527480Y-95175908D01*
X144527482Y-95175908D01*
X144467883Y-95169501D01*
X144467881Y-95169500D01*
X144467873Y-95169500D01*
X144467864Y-95169500D01*
X143472129Y-95169500D01*
X143472123Y-95169501D01*
X143412518Y-95175908D01*
X143378331Y-95188659D01*
X143308639Y-95193642D01*
X143291669Y-95188659D01*
X143257480Y-95175908D01*
X143257482Y-95175908D01*
X143197883Y-95169501D01*
X143197881Y-95169500D01*
X143197873Y-95169500D01*
X143197864Y-95169500D01*
X142202129Y-95169500D01*
X142202123Y-95169501D01*
X142142518Y-95175908D01*
X142108331Y-95188659D01*
X142038639Y-95193642D01*
X142021669Y-95188659D01*
X141987480Y-95175908D01*
X141987482Y-95175908D01*
X141927883Y-95169501D01*
X141927881Y-95169500D01*
X141927873Y-95169500D01*
X141927864Y-95169500D01*
X140932129Y-95169500D01*
X140932123Y-95169501D01*
X140872518Y-95175908D01*
X140838331Y-95188659D01*
X140768639Y-95193642D01*
X140751669Y-95188659D01*
X140717480Y-95175908D01*
X140717482Y-95175908D01*
X140657883Y-95169501D01*
X140657881Y-95169500D01*
X140657873Y-95169500D01*
X140657864Y-95169500D01*
X139662129Y-95169500D01*
X139662123Y-95169501D01*
X139602518Y-95175908D01*
X139568331Y-95188659D01*
X139498639Y-95193642D01*
X139481669Y-95188659D01*
X139447480Y-95175908D01*
X139447482Y-95175908D01*
X139387883Y-95169501D01*
X139387881Y-95169500D01*
X139387873Y-95169500D01*
X139387864Y-95169500D01*
X138392129Y-95169500D01*
X138392123Y-95169501D01*
X138332518Y-95175908D01*
X138298331Y-95188659D01*
X138228639Y-95193642D01*
X138211669Y-95188659D01*
X138177480Y-95175908D01*
X138177482Y-95175908D01*
X138117883Y-95169501D01*
X138117881Y-95169500D01*
X138117873Y-95169500D01*
X138117864Y-95169500D01*
X137122129Y-95169500D01*
X137122123Y-95169501D01*
X137062518Y-95175908D01*
X137028331Y-95188659D01*
X136958639Y-95193642D01*
X136941669Y-95188659D01*
X136907480Y-95175908D01*
X136907482Y-95175908D01*
X136847883Y-95169501D01*
X136847881Y-95169500D01*
X136847873Y-95169500D01*
X136847865Y-95169500D01*
X136012942Y-95169500D01*
X135945903Y-95149815D01*
X135900148Y-95097011D01*
X135889722Y-95059383D01*
X135885369Y-95020750D01*
X135885368Y-95020745D01*
X135860446Y-94949522D01*
X135825789Y-94850478D01*
X135729816Y-94697738D01*
X135602262Y-94570184D01*
X135495986Y-94503406D01*
X135449523Y-94474211D01*
X135279254Y-94414631D01*
X135279249Y-94414630D01*
X135100004Y-94394435D01*
X135099996Y-94394435D01*
X134920750Y-94414630D01*
X134920745Y-94414631D01*
X134750476Y-94474211D01*
X134597737Y-94570184D01*
X134585681Y-94582241D01*
X134524358Y-94615726D01*
X134454666Y-94610742D01*
X134398733Y-94568870D01*
X134374316Y-94503406D01*
X134374000Y-94494560D01*
X134374000Y-90497844D01*
X137280000Y-90497844D01*
X137286401Y-90557372D01*
X137286403Y-90557379D01*
X137336645Y-90692086D01*
X137336649Y-90692093D01*
X137422809Y-90807187D01*
X137422812Y-90807190D01*
X137537906Y-90893350D01*
X137537913Y-90893354D01*
X137672620Y-90943596D01*
X137672627Y-90943598D01*
X137732155Y-90949999D01*
X137732172Y-90950000D01*
X139630000Y-90950000D01*
X139630000Y-90125000D01*
X140130000Y-90125000D01*
X140130000Y-90950000D01*
X142027828Y-90950000D01*
X142027844Y-90949999D01*
X142087372Y-90943598D01*
X142087379Y-90943596D01*
X142222086Y-90893354D01*
X142222093Y-90893350D01*
X142337187Y-90807190D01*
X142337190Y-90807187D01*
X142423350Y-90692093D01*
X142423354Y-90692086D01*
X142473596Y-90557379D01*
X142473598Y-90557372D01*
X142479999Y-90497844D01*
X142480000Y-90497827D01*
X142480000Y-88600000D01*
X141655000Y-88600000D01*
X141655000Y-89008947D01*
X141670872Y-89024819D01*
X141704357Y-89086142D01*
X141699373Y-89155834D01*
X141670872Y-89200181D01*
X141655000Y-89216052D01*
X141655000Y-90001000D01*
X141635315Y-90068039D01*
X141582511Y-90113794D01*
X141531000Y-90125000D01*
X140746052Y-90125000D01*
X140730181Y-90140872D01*
X140668858Y-90174357D01*
X140599166Y-90169373D01*
X140554819Y-90140872D01*
X140538947Y-90125000D01*
X140130000Y-90125000D01*
X139630000Y-90125000D01*
X139221052Y-90125000D01*
X139205181Y-90140872D01*
X139143858Y-90174357D01*
X139074166Y-90169373D01*
X139029819Y-90140872D01*
X139013947Y-90125000D01*
X138229000Y-90125000D01*
X138161961Y-90105315D01*
X138116206Y-90052511D01*
X138105000Y-90001000D01*
X138105000Y-89855109D01*
X139017500Y-89855109D01*
X139017500Y-89894891D01*
X139032724Y-89931645D01*
X139060855Y-89959776D01*
X139097609Y-89975000D01*
X139137391Y-89975000D01*
X139174145Y-89959776D01*
X139202276Y-89931645D01*
X139217500Y-89894891D01*
X139217500Y-89855109D01*
X140542500Y-89855109D01*
X140542500Y-89894891D01*
X140557724Y-89931645D01*
X140585855Y-89959776D01*
X140622609Y-89975000D01*
X140662391Y-89975000D01*
X140699145Y-89959776D01*
X140727276Y-89931645D01*
X140742500Y-89894891D01*
X140742500Y-89855109D01*
X140727276Y-89818355D01*
X140699145Y-89790224D01*
X140662391Y-89775000D01*
X140622609Y-89775000D01*
X140585855Y-89790224D01*
X140557724Y-89818355D01*
X140542500Y-89855109D01*
X139217500Y-89855109D01*
X139202276Y-89818355D01*
X139174145Y-89790224D01*
X139137391Y-89775000D01*
X139097609Y-89775000D01*
X139060855Y-89790224D01*
X139032724Y-89818355D01*
X139017500Y-89855109D01*
X138105000Y-89855109D01*
X138105000Y-89216053D01*
X138089128Y-89200181D01*
X138055643Y-89138858D01*
X138058950Y-89092609D01*
X138255000Y-89092609D01*
X138255000Y-89132391D01*
X138270224Y-89169145D01*
X138298355Y-89197276D01*
X138335109Y-89212500D01*
X138374891Y-89212500D01*
X138411645Y-89197276D01*
X138439776Y-89169145D01*
X138455000Y-89132391D01*
X138455000Y-89112500D01*
X138708553Y-89112500D01*
X138746053Y-89149999D01*
X139117500Y-89521446D01*
X139526446Y-89112500D01*
X139506555Y-89092609D01*
X139780000Y-89092609D01*
X139780000Y-89132391D01*
X139795224Y-89169145D01*
X139823355Y-89197276D01*
X139860109Y-89212500D01*
X139899891Y-89212500D01*
X139936645Y-89197276D01*
X139964776Y-89169145D01*
X139980000Y-89132391D01*
X139980000Y-89112500D01*
X140233553Y-89112500D01*
X140271053Y-89149999D01*
X140642500Y-89521446D01*
X141051446Y-89112500D01*
X141031555Y-89092609D01*
X141305000Y-89092609D01*
X141305000Y-89132391D01*
X141320224Y-89169145D01*
X141348355Y-89197276D01*
X141385109Y-89212500D01*
X141424891Y-89212500D01*
X141461645Y-89197276D01*
X141489776Y-89169145D01*
X141505000Y-89132391D01*
X141505000Y-89092609D01*
X141489776Y-89055855D01*
X141461645Y-89027724D01*
X141424891Y-89012500D01*
X141385109Y-89012500D01*
X141348355Y-89027724D01*
X141320224Y-89055855D01*
X141305000Y-89092609D01*
X141031555Y-89092609D01*
X140686376Y-88747430D01*
X140642500Y-88703553D01*
X140598624Y-88747430D01*
X140598623Y-88747431D01*
X140233553Y-89112500D01*
X139980000Y-89112500D01*
X139980000Y-89092609D01*
X139964776Y-89055855D01*
X139936645Y-89027724D01*
X139899891Y-89012500D01*
X139860109Y-89012500D01*
X139823355Y-89027724D01*
X139795224Y-89055855D01*
X139780000Y-89092609D01*
X139506555Y-89092609D01*
X139161376Y-88747430D01*
X139117500Y-88703553D01*
X139073624Y-88747430D01*
X139073623Y-88747431D01*
X138708553Y-89112500D01*
X138455000Y-89112500D01*
X138455000Y-89092609D01*
X138439776Y-89055855D01*
X138411645Y-89027724D01*
X138374891Y-89012500D01*
X138335109Y-89012500D01*
X138298355Y-89027724D01*
X138270224Y-89055855D01*
X138255000Y-89092609D01*
X138058950Y-89092609D01*
X138060627Y-89069166D01*
X138089128Y-89024819D01*
X138104999Y-89008947D01*
X138105000Y-89008946D01*
X138105000Y-88600000D01*
X137280000Y-88600000D01*
X137280000Y-90497844D01*
X134374000Y-90497844D01*
X134374000Y-88330109D01*
X139017500Y-88330109D01*
X139017500Y-88369891D01*
X139032724Y-88406645D01*
X139060855Y-88434776D01*
X139097609Y-88450000D01*
X139137391Y-88450000D01*
X139174145Y-88434776D01*
X139202276Y-88406645D01*
X139217500Y-88369891D01*
X139217500Y-88330109D01*
X140542500Y-88330109D01*
X140542500Y-88369891D01*
X140557724Y-88406645D01*
X140585855Y-88434776D01*
X140622609Y-88450000D01*
X140662391Y-88450000D01*
X140699145Y-88434776D01*
X140727276Y-88406645D01*
X140742500Y-88369891D01*
X140742500Y-88330109D01*
X140727276Y-88293355D01*
X140699145Y-88265224D01*
X140662391Y-88250000D01*
X140622609Y-88250000D01*
X140585855Y-88265224D01*
X140557724Y-88293355D01*
X140542500Y-88330109D01*
X139217500Y-88330109D01*
X139202276Y-88293355D01*
X139174145Y-88265224D01*
X139137391Y-88250000D01*
X139097609Y-88250000D01*
X139060855Y-88265224D01*
X139032724Y-88293355D01*
X139017500Y-88330109D01*
X134374000Y-88330109D01*
X134374000Y-86202155D01*
X137280000Y-86202155D01*
X137280000Y-88100000D01*
X138105000Y-88100000D01*
X138105000Y-87691053D01*
X138089128Y-87675181D01*
X138055643Y-87613858D01*
X138058950Y-87567609D01*
X138255000Y-87567609D01*
X138255000Y-87607391D01*
X138270224Y-87644145D01*
X138298355Y-87672276D01*
X138335109Y-87687500D01*
X138374891Y-87687500D01*
X138411645Y-87672276D01*
X138439776Y-87644145D01*
X138455000Y-87607391D01*
X138455000Y-87587500D01*
X138708553Y-87587500D01*
X138760656Y-87639602D01*
X139117500Y-87996446D01*
X139526446Y-87587500D01*
X139506555Y-87567609D01*
X139780000Y-87567609D01*
X139780000Y-87607391D01*
X139795224Y-87644145D01*
X139823355Y-87672276D01*
X139860109Y-87687500D01*
X139899891Y-87687500D01*
X139936645Y-87672276D01*
X139964776Y-87644145D01*
X139980000Y-87607391D01*
X139980000Y-87587500D01*
X140233553Y-87587500D01*
X140285656Y-87639602D01*
X140642500Y-87996446D01*
X141051446Y-87587500D01*
X141031555Y-87567609D01*
X141305000Y-87567609D01*
X141305000Y-87607391D01*
X141320224Y-87644145D01*
X141348355Y-87672276D01*
X141385109Y-87687500D01*
X141424891Y-87687500D01*
X141461645Y-87672276D01*
X141489776Y-87644145D01*
X141505000Y-87607391D01*
X141505000Y-87567609D01*
X141489776Y-87530855D01*
X141461645Y-87502724D01*
X141424891Y-87487500D01*
X141385109Y-87487500D01*
X141348355Y-87502724D01*
X141320224Y-87530855D01*
X141305000Y-87567609D01*
X141031555Y-87567609D01*
X140697892Y-87233946D01*
X140642500Y-87178553D01*
X140587108Y-87233946D01*
X140587107Y-87233947D01*
X140233553Y-87587500D01*
X139980000Y-87587500D01*
X139980000Y-87567609D01*
X139964776Y-87530855D01*
X139936645Y-87502724D01*
X139899891Y-87487500D01*
X139860109Y-87487500D01*
X139823355Y-87502724D01*
X139795224Y-87530855D01*
X139780000Y-87567609D01*
X139506555Y-87567609D01*
X139172892Y-87233946D01*
X139117500Y-87178553D01*
X139062108Y-87233946D01*
X139062107Y-87233947D01*
X138708553Y-87587500D01*
X138455000Y-87587500D01*
X138455000Y-87567609D01*
X138439776Y-87530855D01*
X138411645Y-87502724D01*
X138374891Y-87487500D01*
X138335109Y-87487500D01*
X138298355Y-87502724D01*
X138270224Y-87530855D01*
X138255000Y-87567609D01*
X138058950Y-87567609D01*
X138060627Y-87544166D01*
X138089128Y-87499819D01*
X138104999Y-87483947D01*
X138105000Y-87483946D01*
X138105000Y-86805109D01*
X139017500Y-86805109D01*
X139017500Y-86844891D01*
X139032724Y-86881645D01*
X139060855Y-86909776D01*
X139097609Y-86925000D01*
X139137391Y-86925000D01*
X139174145Y-86909776D01*
X139202276Y-86881645D01*
X139217500Y-86844891D01*
X139217500Y-86805109D01*
X140542500Y-86805109D01*
X140542500Y-86844891D01*
X140557724Y-86881645D01*
X140585855Y-86909776D01*
X140622609Y-86925000D01*
X140662391Y-86925000D01*
X140699145Y-86909776D01*
X140727276Y-86881645D01*
X140742500Y-86844891D01*
X140742500Y-86805109D01*
X140727276Y-86768355D01*
X140699145Y-86740224D01*
X140662391Y-86725000D01*
X140622609Y-86725000D01*
X140585855Y-86740224D01*
X140557724Y-86768355D01*
X140542500Y-86805109D01*
X139217500Y-86805109D01*
X139202276Y-86768355D01*
X139174145Y-86740224D01*
X139137391Y-86725000D01*
X139097609Y-86725000D01*
X139060855Y-86740224D01*
X139032724Y-86768355D01*
X139017500Y-86805109D01*
X138105000Y-86805109D01*
X138105000Y-86699000D01*
X138124685Y-86631961D01*
X138177489Y-86586206D01*
X138229000Y-86575000D01*
X139013947Y-86575000D01*
X139013947Y-86574999D01*
X139029819Y-86559128D01*
X139091142Y-86525643D01*
X139160834Y-86530627D01*
X139205181Y-86559128D01*
X139221053Y-86575000D01*
X139630000Y-86575000D01*
X140130000Y-86575000D01*
X140538947Y-86575000D01*
X140538947Y-86574999D01*
X140554819Y-86559128D01*
X140616142Y-86525643D01*
X140685834Y-86530627D01*
X140730181Y-86559128D01*
X140746053Y-86575000D01*
X141531000Y-86575000D01*
X141598039Y-86594685D01*
X141643794Y-86647489D01*
X141655000Y-86699000D01*
X141655000Y-87483947D01*
X141670872Y-87499819D01*
X141704357Y-87561142D01*
X141699373Y-87630834D01*
X141670872Y-87675181D01*
X141655000Y-87691052D01*
X141655000Y-88100000D01*
X142480000Y-88100000D01*
X142480000Y-86202172D01*
X142479999Y-86202155D01*
X142473598Y-86142627D01*
X142473596Y-86142620D01*
X142423354Y-86007913D01*
X142423350Y-86007906D01*
X142337190Y-85892812D01*
X142337187Y-85892809D01*
X142222093Y-85806649D01*
X142222086Y-85806645D01*
X142087379Y-85756403D01*
X142087372Y-85756401D01*
X142027844Y-85750000D01*
X140130000Y-85750000D01*
X140130000Y-86575000D01*
X139630000Y-86575000D01*
X139630000Y-85750000D01*
X137732155Y-85750000D01*
X137672627Y-85756401D01*
X137672620Y-85756403D01*
X137537913Y-85806645D01*
X137537906Y-85806649D01*
X137422812Y-85892809D01*
X137422809Y-85892812D01*
X137336649Y-86007906D01*
X137336645Y-86007913D01*
X137286403Y-86142620D01*
X137286401Y-86142627D01*
X137280000Y-86202155D01*
X134374000Y-86202155D01*
X134374000Y-81278940D01*
X134393685Y-81211901D01*
X134432029Y-81173946D01*
X134502259Y-81129818D01*
X134502259Y-81129817D01*
X134502262Y-81129816D01*
X134629816Y-81002262D01*
X134725789Y-80849522D01*
X134785368Y-80679255D01*
X134785369Y-80679246D01*
X134805565Y-80500003D01*
X134805565Y-80499996D01*
X134784589Y-80313824D01*
X134786192Y-80313643D01*
X134789950Y-80252351D01*
X134831250Y-80195994D01*
X134896462Y-80170911D01*
X134906567Y-80170499D01*
X135577871Y-80170499D01*
X135577872Y-80170499D01*
X135637483Y-80164091D01*
X135637482Y-80164091D01*
X135645196Y-80163262D01*
X135645456Y-80165682D01*
X135703226Y-80168766D01*
X135759907Y-80209619D01*
X135785504Y-80274631D01*
X135786000Y-80285712D01*
X135786000Y-80524252D01*
X135815219Y-80633301D01*
X135815219Y-80633302D01*
X135824433Y-80667692D01*
X135824434Y-80667694D01*
X135824435Y-80667696D01*
X135898687Y-80796304D01*
X135898689Y-80796306D01*
X136010761Y-80908378D01*
X136010767Y-80908383D01*
X136462744Y-81360360D01*
X136496229Y-81421683D01*
X136498283Y-81434158D01*
X136514630Y-81579249D01*
X136514631Y-81579254D01*
X136574211Y-81749523D01*
X136666318Y-81896110D01*
X136670184Y-81902262D01*
X136797738Y-82029816D01*
X136950478Y-82125789D01*
X137120745Y-82185368D01*
X137120750Y-82185369D01*
X137299996Y-82205565D01*
X137300000Y-82205565D01*
X137300004Y-82205565D01*
X137479249Y-82185369D01*
X137479252Y-82185368D01*
X137479255Y-82185368D01*
X137649522Y-82125789D01*
X137802262Y-82029816D01*
X137929816Y-81902262D01*
X138025789Y-81749522D01*
X138085368Y-81579255D01*
X138098354Y-81463999D01*
X138105565Y-81400003D01*
X138105565Y-81399996D01*
X138085369Y-81220750D01*
X138085366Y-81220737D01*
X138025790Y-81050481D01*
X138025789Y-81050478D01*
X138022759Y-81045656D01*
X138003760Y-80978422D01*
X138024127Y-80911586D01*
X138040073Y-80892005D01*
X138082556Y-80849522D01*
X138129816Y-80802262D01*
X138225789Y-80649522D01*
X138285368Y-80479255D01*
X138286152Y-80472304D01*
X138305565Y-80300002D01*
X138305565Y-80294499D01*
X138325250Y-80227460D01*
X138378054Y-80181705D01*
X138429560Y-80170499D01*
X139387872Y-80170499D01*
X139447483Y-80164091D01*
X139481667Y-80151340D01*
X139551358Y-80146357D01*
X139568327Y-80151338D01*
X139602517Y-80164091D01*
X139662127Y-80170500D01*
X140657872Y-80170499D01*
X140717483Y-80164091D01*
X140751667Y-80151340D01*
X140821358Y-80146357D01*
X140838327Y-80151338D01*
X140872517Y-80164091D01*
X140932127Y-80170500D01*
X141927872Y-80170499D01*
X141987483Y-80164091D01*
X142021667Y-80151340D01*
X142091358Y-80146357D01*
X142108327Y-80151338D01*
G37*
%TD.AperFunction*%
%TA.AperFunction,Conductor*%
G36*
X153069203Y-89387265D02*
G01*
X153075680Y-89393296D01*
X156833696Y-93151313D01*
X156833697Y-93151314D01*
X156833699Y-93151315D01*
X156962300Y-93225563D01*
X156962301Y-93225563D01*
X156962304Y-93225565D01*
X157105748Y-93264001D01*
X157105751Y-93264001D01*
X157261849Y-93264001D01*
X157261865Y-93264000D01*
X157786502Y-93264000D01*
X157853541Y-93283685D01*
X157899296Y-93336489D01*
X157909240Y-93405647D01*
X157893234Y-93451121D01*
X157811217Y-93589803D01*
X157811216Y-93589806D01*
X157765400Y-93747504D01*
X157765399Y-93747510D01*
X157762500Y-93784350D01*
X157762500Y-93882000D01*
X157742815Y-93949039D01*
X157690011Y-93994794D01*
X157638500Y-94006000D01*
X154989440Y-94006000D01*
X154922401Y-93986315D01*
X154901759Y-93969681D01*
X154802262Y-93870184D01*
X154649523Y-93774211D01*
X154479254Y-93714631D01*
X154479249Y-93714630D01*
X154300004Y-93694435D01*
X154299996Y-93694435D01*
X154120750Y-93714630D01*
X154120745Y-93714631D01*
X153950476Y-93774211D01*
X153797739Y-93870183D01*
X153670450Y-93997472D01*
X153609127Y-94030956D01*
X153539435Y-94025972D01*
X153495088Y-93997471D01*
X152900319Y-93402702D01*
X152866834Y-93341379D01*
X152864000Y-93315021D01*
X152864000Y-89480978D01*
X152883685Y-89413939D01*
X152936489Y-89368184D01*
X153005647Y-89358240D01*
X153069203Y-89387265D01*
G37*
%TD.AperFunction*%
%TA.AperFunction,Conductor*%
G36*
X145955504Y-80182516D02*
G01*
X145982386Y-80222748D01*
X145984434Y-80227694D01*
X145984435Y-80227696D01*
X146058687Y-80356304D01*
X146058689Y-80356306D01*
X146170761Y-80468378D01*
X146170767Y-80468383D01*
X146734233Y-81031850D01*
X146766326Y-81087435D01*
X146774435Y-81117696D01*
X146774436Y-81117699D01*
X146848684Y-81246300D01*
X146848686Y-81246302D01*
X146848687Y-81246304D01*
X146953696Y-81351313D01*
X147082304Y-81425565D01*
X147225748Y-81464000D01*
X148925500Y-81464000D01*
X148992539Y-81483685D01*
X149038294Y-81536489D01*
X149049500Y-81588000D01*
X149049500Y-82447870D01*
X149049501Y-82447876D01*
X149055908Y-82507481D01*
X149068659Y-82541669D01*
X149073642Y-82611361D01*
X149068659Y-82628331D01*
X149055908Y-82662518D01*
X149049501Y-82722116D01*
X149049500Y-82722135D01*
X149049500Y-83717870D01*
X149049501Y-83717876D01*
X149055908Y-83777481D01*
X149068659Y-83811669D01*
X149073642Y-83881361D01*
X149068659Y-83898331D01*
X149055908Y-83932518D01*
X149049501Y-83992116D01*
X149049500Y-83992135D01*
X149049500Y-84987870D01*
X149049501Y-84987876D01*
X149055908Y-85047481D01*
X149068659Y-85081669D01*
X149073642Y-85151361D01*
X149068659Y-85168331D01*
X149055908Y-85202518D01*
X149049501Y-85262116D01*
X149049500Y-85262135D01*
X149049500Y-86257870D01*
X149049501Y-86257876D01*
X149055908Y-86317481D01*
X149068659Y-86351669D01*
X149073642Y-86421361D01*
X149068659Y-86438331D01*
X149055908Y-86472518D01*
X149049501Y-86532116D01*
X149049500Y-86532135D01*
X149049500Y-87527870D01*
X149049501Y-87527873D01*
X149055908Y-87587481D01*
X149068659Y-87621669D01*
X149073642Y-87691361D01*
X149068659Y-87708331D01*
X149055908Y-87742518D01*
X149049501Y-87802116D01*
X149049500Y-87802135D01*
X149049500Y-88797870D01*
X149049501Y-88797876D01*
X149055908Y-88857481D01*
X149068659Y-88891669D01*
X149073642Y-88961361D01*
X149068659Y-88978331D01*
X149055908Y-89012518D01*
X149049501Y-89072116D01*
X149049500Y-89072135D01*
X149049500Y-90067870D01*
X149049501Y-90067876D01*
X149055908Y-90127481D01*
X149068659Y-90161669D01*
X149073642Y-90231361D01*
X149068659Y-90248331D01*
X149055908Y-90282518D01*
X149049501Y-90342116D01*
X149049500Y-90342135D01*
X149049500Y-91337870D01*
X149049501Y-91337876D01*
X149055908Y-91397481D01*
X149068659Y-91431669D01*
X149073642Y-91501361D01*
X149068659Y-91518331D01*
X149055908Y-91552518D01*
X149049501Y-91612116D01*
X149049500Y-91612135D01*
X149049500Y-92607870D01*
X149049501Y-92607876D01*
X149055908Y-92667483D01*
X149068925Y-92702381D01*
X149073909Y-92772072D01*
X149068925Y-92789047D01*
X149056403Y-92822619D01*
X149056401Y-92822627D01*
X149050000Y-92882155D01*
X149050000Y-93130000D01*
X150426000Y-93130000D01*
X150493039Y-93149685D01*
X150538794Y-93202489D01*
X150550000Y-93254000D01*
X150550000Y-93506000D01*
X150530315Y-93573039D01*
X150477511Y-93618794D01*
X150426000Y-93630000D01*
X149050000Y-93630000D01*
X149016819Y-93663181D01*
X148955496Y-93696666D01*
X148929138Y-93699500D01*
X145900097Y-93699500D01*
X145833058Y-93679815D01*
X145812416Y-93663181D01*
X144736819Y-92587584D01*
X144703334Y-92526261D01*
X144700500Y-92499903D01*
X144700500Y-91989060D01*
X144700501Y-91989047D01*
X144700501Y-91820944D01*
X144688074Y-91774566D01*
X144659577Y-91668216D01*
X144601461Y-91567555D01*
X144587112Y-91542701D01*
X144570500Y-91480702D01*
X144570500Y-80290093D01*
X144590185Y-80223054D01*
X144642989Y-80177299D01*
X144707754Y-80166804D01*
X144742127Y-80170500D01*
X145737872Y-80170499D01*
X145797483Y-80164091D01*
X145824490Y-80154017D01*
X145894180Y-80149032D01*
X145955504Y-80182516D01*
G37*
%TD.AperFunction*%
%TA.AperFunction,Conductor*%
G36*
X158047231Y-88633685D02*
G01*
X158067868Y-88650314D01*
X158135635Y-88718081D01*
X158277102Y-88801744D01*
X158318724Y-88813836D01*
X158434926Y-88847597D01*
X158434929Y-88847597D01*
X158434931Y-88847598D01*
X158471806Y-88850500D01*
X159638000Y-88850500D01*
X159705039Y-88870185D01*
X159750794Y-88922989D01*
X159762000Y-88974500D01*
X159762000Y-89026000D01*
X159742315Y-89093039D01*
X159689511Y-89138794D01*
X159638000Y-89150000D01*
X159375000Y-89150000D01*
X159375000Y-89700000D01*
X160030685Y-89700000D01*
X160093806Y-89717268D01*
X160152102Y-89751744D01*
X160193724Y-89763836D01*
X160309926Y-89797597D01*
X160309929Y-89797597D01*
X160309931Y-89797598D01*
X160346806Y-89800500D01*
X161084413Y-89800500D01*
X161151452Y-89820185D01*
X161197207Y-89872989D01*
X161207633Y-89910617D01*
X161215458Y-89980078D01*
X161215459Y-89980082D01*
X161275039Y-90150351D01*
X161367349Y-90297260D01*
X161386349Y-90364496D01*
X161365981Y-90431332D01*
X161350036Y-90450913D01*
X160266879Y-91534070D01*
X160205556Y-91567555D01*
X160135864Y-91562571D01*
X160091517Y-91534070D01*
X159989370Y-91431923D01*
X159989362Y-91431917D01*
X159847896Y-91348255D01*
X159847893Y-91348254D01*
X159690073Y-91302402D01*
X159690067Y-91302401D01*
X159653201Y-91299500D01*
X159653194Y-91299500D01*
X159048478Y-91299500D01*
X158981439Y-91279815D01*
X158960797Y-91263181D01*
X158659297Y-90961681D01*
X158625812Y-90900358D01*
X158630796Y-90830666D01*
X158672668Y-90774733D01*
X158738132Y-90750316D01*
X158746978Y-90750000D01*
X158875000Y-90750000D01*
X159375000Y-90750000D01*
X159778134Y-90750000D01*
X159778149Y-90749999D01*
X159814989Y-90747100D01*
X159814995Y-90747099D01*
X159972693Y-90701283D01*
X159972696Y-90701282D01*
X160114052Y-90617685D01*
X160114061Y-90617678D01*
X160230178Y-90501561D01*
X160230185Y-90501552D01*
X160313781Y-90360198D01*
X160359600Y-90202486D01*
X160359795Y-90200001D01*
X160359795Y-90200000D01*
X159375000Y-90200000D01*
X159375000Y-90750000D01*
X158875000Y-90750000D01*
X158875000Y-90200000D01*
X157948978Y-90200000D01*
X157881939Y-90180315D01*
X157861297Y-90163681D01*
X157397614Y-89699998D01*
X157890204Y-89699998D01*
X157890205Y-89700000D01*
X158875000Y-89700000D01*
X158875000Y-89150000D01*
X158471850Y-89150000D01*
X158435010Y-89152899D01*
X158435004Y-89152900D01*
X158277306Y-89198716D01*
X158277303Y-89198717D01*
X158135947Y-89282314D01*
X158135938Y-89282321D01*
X158019821Y-89398438D01*
X158019814Y-89398447D01*
X157936218Y-89539801D01*
X157890399Y-89697513D01*
X157890204Y-89699998D01*
X157397614Y-89699998D01*
X156523297Y-88825681D01*
X156489812Y-88764358D01*
X156494796Y-88694666D01*
X156536668Y-88638733D01*
X156602132Y-88614316D01*
X156610978Y-88614000D01*
X157980192Y-88614000D01*
X158047231Y-88633685D01*
G37*
%TD.AperFunction*%
%TA.AperFunction,Conductor*%
G36*
X180348732Y-62123685D02*
G01*
X180394487Y-62176489D01*
X180405051Y-62215398D01*
X180415001Y-62312797D01*
X180415001Y-62312799D01*
X180470185Y-62479331D01*
X180470186Y-62479334D01*
X180562288Y-62628656D01*
X180686344Y-62752712D01*
X180835666Y-62844814D01*
X181002203Y-62899999D01*
X181104991Y-62910500D01*
X182670500Y-62910499D01*
X182737539Y-62930184D01*
X182783294Y-62982987D01*
X182794500Y-63034499D01*
X182794500Y-67033866D01*
X182774815Y-67100905D01*
X182722011Y-67146660D01*
X182652853Y-67156604D01*
X182632183Y-67151797D01*
X182545817Y-67123735D01*
X182545810Y-67123734D01*
X182332820Y-67090000D01*
X182250000Y-67090000D01*
X182250000Y-67917290D01*
X182229661Y-67905548D01*
X182078333Y-67865000D01*
X181921667Y-67865000D01*
X181770339Y-67905548D01*
X181750000Y-67917290D01*
X181750000Y-67090000D01*
X181667180Y-67090000D01*
X181454190Y-67123734D01*
X181249098Y-67190372D01*
X181056963Y-67288271D01*
X180882503Y-67415025D01*
X180882502Y-67415025D01*
X180730025Y-67567502D01*
X180730025Y-67567503D01*
X180603271Y-67741963D01*
X180505372Y-67934098D01*
X180438733Y-68139190D01*
X180427519Y-68210000D01*
X181457291Y-68210000D01*
X181445548Y-68230339D01*
X181405000Y-68381667D01*
X181405000Y-68538333D01*
X181445548Y-68689661D01*
X181457291Y-68710000D01*
X180427519Y-68710000D01*
X180438733Y-68780809D01*
X180505372Y-68985901D01*
X180603271Y-69178036D01*
X180730025Y-69352496D01*
X180730025Y-69352497D01*
X180882502Y-69504974D01*
X181053720Y-69629372D01*
X181096385Y-69684702D01*
X181102364Y-69754316D01*
X181069758Y-69816110D01*
X181053720Y-69830008D01*
X180882177Y-69954642D01*
X180729643Y-70107176D01*
X180729643Y-70107177D01*
X180729641Y-70107179D01*
X180675186Y-70182129D01*
X180602843Y-70281700D01*
X180504909Y-70473908D01*
X180438245Y-70679077D01*
X180403737Y-70896951D01*
X180402683Y-70896784D01*
X180379616Y-70957278D01*
X180368575Y-70969926D01*
X162449681Y-88888820D01*
X162388358Y-88922305D01*
X162318666Y-88917321D01*
X162262733Y-88875449D01*
X162238316Y-88809985D01*
X162238000Y-88801139D01*
X162238000Y-88784313D01*
X162237999Y-88784298D01*
X162235098Y-88747430D01*
X162235097Y-88747429D01*
X162202261Y-88634408D01*
X162202460Y-88564538D01*
X162213950Y-88537813D01*
X162225565Y-88517697D01*
X162264000Y-88374253D01*
X162264000Y-88225748D01*
X162264000Y-68984978D01*
X162283685Y-68917939D01*
X162300319Y-68897297D01*
X169057297Y-62140319D01*
X169118620Y-62106834D01*
X169144978Y-62104000D01*
X180281693Y-62104000D01*
X180348732Y-62123685D01*
G37*
%TD.AperFunction*%
%TA.AperFunction,Conductor*%
G36*
X176301257Y-51620185D02*
G01*
X176321899Y-51636819D01*
X180419735Y-55734655D01*
X180419764Y-55734686D01*
X180562214Y-55877136D01*
X180562218Y-55877139D01*
X180704782Y-55972398D01*
X180749587Y-56026010D01*
X180758294Y-56095335D01*
X180728139Y-56158363D01*
X180668696Y-56195082D01*
X180635891Y-56199500D01*
X177226455Y-56199500D01*
X177129812Y-56218724D01*
X177033170Y-56237946D01*
X177033161Y-56237949D01*
X176998905Y-56252138D01*
X176998906Y-56252139D01*
X176851088Y-56313366D01*
X176851079Y-56313371D01*
X176687219Y-56422859D01*
X176617540Y-56492538D01*
X176547861Y-56562218D01*
X176547858Y-56562221D01*
X175362221Y-57747858D01*
X175362218Y-57747861D01*
X175292538Y-57817540D01*
X175222859Y-57887219D01*
X175113371Y-58051079D01*
X175113364Y-58051092D01*
X175037950Y-58233160D01*
X175037947Y-58233170D01*
X174999500Y-58426456D01*
X174999500Y-58426459D01*
X174999500Y-59098541D01*
X174999500Y-59098543D01*
X174999499Y-59098543D01*
X175037947Y-59291829D01*
X175037950Y-59291839D01*
X175113364Y-59473906D01*
X175113370Y-59473917D01*
X175131324Y-59500787D01*
X175146606Y-59532786D01*
X175156333Y-59564000D01*
X175156522Y-59564606D01*
X175197085Y-59631705D01*
X175244530Y-59710188D01*
X175364811Y-59830469D01*
X175364813Y-59830470D01*
X175364815Y-59830472D01*
X175510394Y-59918478D01*
X175672804Y-59969086D01*
X175743384Y-59975500D01*
X175763566Y-59975500D01*
X175787756Y-59977882D01*
X175816006Y-59983502D01*
X175901456Y-60000500D01*
X175901459Y-60000500D01*
X176098543Y-60000500D01*
X176174551Y-59985380D01*
X176212243Y-59977882D01*
X176236434Y-59975500D01*
X176256613Y-59975500D01*
X176256616Y-59975500D01*
X176327196Y-59969086D01*
X176489606Y-59918478D01*
X176635185Y-59830472D01*
X176635189Y-59830468D01*
X176737319Y-59728339D01*
X176798642Y-59694854D01*
X176868334Y-59699838D01*
X176912681Y-59728339D01*
X177014811Y-59830469D01*
X177014813Y-59830470D01*
X177014815Y-59830472D01*
X177160394Y-59918478D01*
X177322804Y-59969086D01*
X177393384Y-59975500D01*
X177393387Y-59975500D01*
X177906613Y-59975500D01*
X177906616Y-59975500D01*
X177977196Y-59969086D01*
X178139606Y-59918478D01*
X178285185Y-59830472D01*
X178405472Y-59710185D01*
X178457664Y-59623848D01*
X178509191Y-59576662D01*
X178563780Y-59564000D01*
X180448236Y-59564000D01*
X180515275Y-59583685D01*
X180558721Y-59631705D01*
X180602843Y-59718299D01*
X180729641Y-59892821D01*
X180729643Y-59892823D01*
X180871624Y-60034804D01*
X180905109Y-60096127D01*
X180900125Y-60165819D01*
X180858253Y-60221752D01*
X180836360Y-60234861D01*
X180835677Y-60235179D01*
X180686342Y-60327289D01*
X180562289Y-60451342D01*
X180470187Y-60600663D01*
X180470185Y-60600668D01*
X180415001Y-60767204D01*
X180415000Y-60767205D01*
X180405050Y-60864603D01*
X180378654Y-60929295D01*
X180321473Y-60969446D01*
X180281692Y-60976000D01*
X168785747Y-60976000D01*
X168642304Y-61014435D01*
X168642301Y-61014436D01*
X168513699Y-61088685D01*
X168513693Y-61088689D01*
X161248689Y-68353693D01*
X161248685Y-68353699D01*
X161174436Y-68482301D01*
X161174435Y-68482304D01*
X161136000Y-68625748D01*
X161136000Y-88015022D01*
X161116315Y-88082061D01*
X161099681Y-88102703D01*
X161039203Y-88163181D01*
X160977880Y-88196666D01*
X160951522Y-88199500D01*
X160487000Y-88199500D01*
X160419961Y-88179815D01*
X160374206Y-88127011D01*
X160363000Y-88075500D01*
X160363000Y-87834313D01*
X160362999Y-87834298D01*
X160362799Y-87831760D01*
X160360098Y-87797431D01*
X160359886Y-87796703D01*
X160314245Y-87639606D01*
X160314244Y-87639602D01*
X160267843Y-87561142D01*
X160230581Y-87498135D01*
X160230579Y-87498133D01*
X160230576Y-87498129D01*
X160114370Y-87381923D01*
X160114362Y-87381917D01*
X159972896Y-87298255D01*
X159972893Y-87298254D01*
X159815073Y-87252402D01*
X159815067Y-87252401D01*
X159778201Y-87249500D01*
X159778194Y-87249500D01*
X158471806Y-87249500D01*
X158471798Y-87249500D01*
X158434932Y-87252401D01*
X158434926Y-87252402D01*
X158277106Y-87298254D01*
X158277103Y-87298255D01*
X158135637Y-87381917D01*
X158135633Y-87381920D01*
X158104043Y-87413511D01*
X158067871Y-87449682D01*
X158006551Y-87483166D01*
X157980192Y-87486000D01*
X156958000Y-87486000D01*
X156890961Y-87466315D01*
X156845206Y-87413511D01*
X156834000Y-87362000D01*
X156834000Y-80633299D01*
X156831928Y-80625569D01*
X156831925Y-80625558D01*
X156829989Y-80618333D01*
X156795565Y-80489856D01*
X156792351Y-80484290D01*
X156785431Y-80472303D01*
X156785430Y-80472302D01*
X156721315Y-80361251D01*
X156721314Y-80361250D01*
X156721313Y-80361248D01*
X156616304Y-80256239D01*
X156616303Y-80256238D01*
X156611973Y-80251908D01*
X156611962Y-80251898D01*
X151593831Y-75233767D01*
X151593829Y-75233764D01*
X151481754Y-75121689D01*
X151481752Y-75121687D01*
X151353144Y-75047435D01*
X151248813Y-75019480D01*
X151209701Y-75009000D01*
X151209700Y-75009000D01*
X144208865Y-75009000D01*
X144208849Y-75008999D01*
X144201253Y-75008999D01*
X144052748Y-75008999D01*
X143925239Y-75043165D01*
X143925238Y-75043164D01*
X143909306Y-75047434D01*
X143909301Y-75047436D01*
X143780699Y-75121685D01*
X143780693Y-75121689D01*
X142248688Y-76653694D01*
X142248684Y-76653699D01*
X142192810Y-76750477D01*
X142192810Y-76750478D01*
X142174435Y-76782302D01*
X142137344Y-76920734D01*
X142137341Y-76920745D01*
X142136000Y-76925744D01*
X142136000Y-77554287D01*
X142116315Y-77621326D01*
X142063511Y-77667081D01*
X141994353Y-77677025D01*
X141989751Y-77676152D01*
X141927883Y-77669501D01*
X141927881Y-77669500D01*
X141927873Y-77669500D01*
X141927864Y-77669500D01*
X140932129Y-77669500D01*
X140932123Y-77669501D01*
X140872518Y-77675908D01*
X140838331Y-77688659D01*
X140768639Y-77693642D01*
X140751669Y-77688659D01*
X140720475Y-77677025D01*
X140717483Y-77675909D01*
X140717482Y-77675908D01*
X140657883Y-77669501D01*
X140657881Y-77669500D01*
X140657873Y-77669500D01*
X140657864Y-77669500D01*
X139662129Y-77669500D01*
X139662123Y-77669501D01*
X139602518Y-77675908D01*
X139568331Y-77688659D01*
X139498639Y-77693642D01*
X139481669Y-77688659D01*
X139450475Y-77677025D01*
X139447483Y-77675909D01*
X139447482Y-77675908D01*
X139387883Y-77669501D01*
X139387881Y-77669500D01*
X139387873Y-77669500D01*
X139387864Y-77669500D01*
X138392129Y-77669500D01*
X138392123Y-77669501D01*
X138332518Y-77675908D01*
X138298331Y-77688659D01*
X138228639Y-77693642D01*
X138211669Y-77688659D01*
X138180475Y-77677025D01*
X138177483Y-77675909D01*
X138177482Y-77675908D01*
X138117883Y-77669501D01*
X138117881Y-77669500D01*
X138117873Y-77669500D01*
X138117864Y-77669500D01*
X137122129Y-77669500D01*
X137122123Y-77669501D01*
X137062518Y-77675908D01*
X137028331Y-77688659D01*
X136958639Y-77693642D01*
X136941669Y-77688659D01*
X136910475Y-77677025D01*
X136907483Y-77675909D01*
X136907482Y-77675908D01*
X136847883Y-77669501D01*
X136847881Y-77669500D01*
X136847873Y-77669500D01*
X136847865Y-77669500D01*
X136649095Y-77669500D01*
X136582056Y-77649815D01*
X136536301Y-77597011D01*
X136526357Y-77527853D01*
X136544101Y-77479528D01*
X136625788Y-77349523D01*
X136625789Y-77349522D01*
X136685368Y-77179255D01*
X136705565Y-77000000D01*
X136697198Y-76925744D01*
X136685369Y-76820750D01*
X136685368Y-76820745D01*
X136671916Y-76782302D01*
X136625789Y-76650478D01*
X136529816Y-76497738D01*
X136402262Y-76370184D01*
X136349571Y-76337076D01*
X136249523Y-76274211D01*
X136079254Y-76214631D01*
X136079249Y-76214630D01*
X135899108Y-76194334D01*
X135834694Y-76167268D01*
X135795138Y-76109673D01*
X135793001Y-76039836D01*
X135795285Y-76032109D01*
X135839856Y-75897605D01*
X135849999Y-75798322D01*
X135850000Y-75798309D01*
X135850000Y-75750000D01*
X134874500Y-75750000D01*
X134807461Y-75730315D01*
X134761706Y-75677511D01*
X134750500Y-75626000D01*
X134750500Y-75374000D01*
X134770185Y-75306961D01*
X134822989Y-75261206D01*
X134874500Y-75250000D01*
X135849999Y-75250000D01*
X135849999Y-75201692D01*
X135849998Y-75201677D01*
X135839855Y-75102392D01*
X135786547Y-74941518D01*
X135786542Y-74941507D01*
X135713250Y-74822683D01*
X135694809Y-74755291D01*
X135715731Y-74688627D01*
X135725282Y-74676998D01*
X135725237Y-74676962D01*
X135729714Y-74671297D01*
X135729718Y-74671294D01*
X135818753Y-74526947D01*
X135872099Y-74365958D01*
X135882250Y-74266595D01*
X135882249Y-73669906D01*
X135872099Y-73570542D01*
X135818753Y-73409553D01*
X135818749Y-73409547D01*
X135818748Y-73409544D01*
X135729720Y-73265209D01*
X135729717Y-73265205D01*
X135609794Y-73145282D01*
X135609790Y-73145279D01*
X135465455Y-73056251D01*
X135465449Y-73056248D01*
X135465447Y-73056247D01*
X135465444Y-73056246D01*
X135304459Y-73002901D01*
X135205096Y-72992750D01*
X134658412Y-72992750D01*
X134658394Y-72992751D01*
X134559042Y-73002900D01*
X134559039Y-73002901D01*
X134398055Y-73056246D01*
X134398044Y-73056251D01*
X134253709Y-73145279D01*
X134253703Y-73145283D01*
X134244074Y-73154913D01*
X134182750Y-73188396D01*
X134113058Y-73183409D01*
X134068715Y-73154910D01*
X134059482Y-73145677D01*
X134059478Y-73145674D01*
X133915242Y-73056707D01*
X133915231Y-73056702D01*
X133754356Y-73003394D01*
X133655072Y-72993250D01*
X133631750Y-72993250D01*
X133631750Y-74094250D01*
X133612065Y-74161289D01*
X133559261Y-74207044D01*
X133507750Y-74218250D01*
X132431751Y-74218250D01*
X132431751Y-74266572D01*
X132441894Y-74365857D01*
X132495202Y-74526731D01*
X132495205Y-74526738D01*
X132568500Y-74645565D01*
X132586941Y-74712958D01*
X132566019Y-74779621D01*
X132556464Y-74791256D01*
X132556510Y-74791293D01*
X132552029Y-74796959D01*
X132463001Y-74941294D01*
X132462996Y-74941305D01*
X132409651Y-75102290D01*
X132399500Y-75201647D01*
X132399500Y-75798337D01*
X132399501Y-75798355D01*
X132409650Y-75897707D01*
X132409651Y-75897710D01*
X132462996Y-76058694D01*
X132463001Y-76058705D01*
X132552031Y-76203043D01*
X132552502Y-76203639D01*
X132552697Y-76204124D01*
X132555823Y-76209191D01*
X132554957Y-76209725D01*
X132578640Y-76268435D01*
X132565597Y-76337076D01*
X132561350Y-76344695D01*
X132506523Y-76435391D01*
X132455913Y-76597807D01*
X132449500Y-76668386D01*
X132449500Y-77331613D01*
X132455913Y-77402192D01*
X132455913Y-77402194D01*
X132455914Y-77402196D01*
X132489230Y-77509113D01*
X132490380Y-77578970D01*
X132453579Y-77638363D01*
X132390510Y-77668431D01*
X132370844Y-77670000D01*
X132124500Y-77670000D01*
X132057461Y-77650315D01*
X132011706Y-77597511D01*
X132000500Y-77546000D01*
X132000500Y-73669927D01*
X132431750Y-73669927D01*
X132431750Y-73718250D01*
X133131750Y-73718250D01*
X133131750Y-72993249D01*
X133108443Y-72993250D01*
X133108424Y-72993251D01*
X133009142Y-73003394D01*
X132848268Y-73056702D01*
X132848257Y-73056707D01*
X132704021Y-73145674D01*
X132704017Y-73145677D01*
X132584177Y-73265517D01*
X132584174Y-73265521D01*
X132495207Y-73409757D01*
X132495202Y-73409768D01*
X132441894Y-73570643D01*
X132431750Y-73669927D01*
X132000500Y-73669927D01*
X132000500Y-53764784D01*
X132020185Y-53697745D01*
X132072989Y-53651990D01*
X132142147Y-53642046D01*
X132205703Y-53671071D01*
X132212181Y-53677103D01*
X132266537Y-53731459D01*
X132266559Y-53731479D01*
X133169735Y-54634655D01*
X133169764Y-54634686D01*
X133312214Y-54777136D01*
X133312218Y-54777139D01*
X133476079Y-54886628D01*
X133476092Y-54886635D01*
X133604833Y-54939961D01*
X133658159Y-54962049D01*
X133658164Y-54962051D01*
X133725777Y-54975500D01*
X133757197Y-54981750D01*
X133851456Y-55000500D01*
X133851459Y-55000500D01*
X134448543Y-55000500D01*
X134524551Y-54985380D01*
X134562243Y-54977882D01*
X134586434Y-54975500D01*
X134606613Y-54975500D01*
X134606616Y-54975500D01*
X134677196Y-54969086D01*
X134839606Y-54918478D01*
X134985185Y-54830472D01*
X134985189Y-54830468D01*
X135087319Y-54728339D01*
X135148642Y-54694854D01*
X135218334Y-54699838D01*
X135262681Y-54728339D01*
X135364811Y-54830469D01*
X135364813Y-54830470D01*
X135364815Y-54830472D01*
X135510394Y-54918478D01*
X135672804Y-54969086D01*
X135743384Y-54975500D01*
X135763566Y-54975500D01*
X135787756Y-54977882D01*
X135816006Y-54983502D01*
X135901456Y-55000500D01*
X135901459Y-55000500D01*
X136098543Y-55000500D01*
X136174551Y-54985380D01*
X136212243Y-54977882D01*
X136236434Y-54975500D01*
X136256613Y-54975500D01*
X136256616Y-54975500D01*
X136327196Y-54969086D01*
X136489606Y-54918478D01*
X136635185Y-54830472D01*
X136755472Y-54710185D01*
X136843478Y-54564606D01*
X136853392Y-54532786D01*
X136868674Y-54500788D01*
X136886632Y-54473914D01*
X136962051Y-54291835D01*
X136986380Y-54169528D01*
X137000500Y-54098543D01*
X137000500Y-51901458D01*
X137000499Y-51901457D01*
X136990383Y-51850597D01*
X136988000Y-51826405D01*
X136988000Y-51724500D01*
X137007685Y-51657461D01*
X137060489Y-51611706D01*
X137112000Y-51600500D01*
X176234218Y-51600500D01*
X176301257Y-51620185D01*
G37*
%TD.AperFunction*%
%TA.AperFunction,Conductor*%
G36*
X180327825Y-72708421D02*
G01*
X180383758Y-72750293D01*
X180408175Y-72815757D01*
X180407849Y-72837205D01*
X180404500Y-72869981D01*
X180404500Y-74210001D01*
X180404501Y-74210018D01*
X180415000Y-74312796D01*
X180415001Y-74312799D01*
X180470185Y-74479331D01*
X180470187Y-74479336D01*
X180499425Y-74526738D01*
X180562288Y-74628656D01*
X180686344Y-74752712D01*
X180835666Y-74844814D01*
X181002203Y-74899999D01*
X181104991Y-74910500D01*
X181904217Y-74910499D01*
X181971256Y-74930183D01*
X181991898Y-74946818D01*
X182758181Y-75713101D01*
X182791666Y-75774424D01*
X182794500Y-75800782D01*
X182794500Y-79113866D01*
X182774815Y-79180905D01*
X182722011Y-79226660D01*
X182652853Y-79236604D01*
X182632183Y-79231797D01*
X182545817Y-79203735D01*
X182545810Y-79203734D01*
X182332820Y-79170000D01*
X182250000Y-79170000D01*
X182250000Y-79997290D01*
X182229661Y-79985548D01*
X182078333Y-79945000D01*
X181921667Y-79945000D01*
X181770339Y-79985548D01*
X181750000Y-79997290D01*
X181750000Y-79170000D01*
X181667180Y-79170000D01*
X181454190Y-79203734D01*
X181249098Y-79270372D01*
X181056963Y-79368271D01*
X180882503Y-79495025D01*
X180882502Y-79495025D01*
X180730025Y-79647502D01*
X180730025Y-79647503D01*
X180603271Y-79821963D01*
X180505372Y-80014098D01*
X180438733Y-80219190D01*
X180427519Y-80290000D01*
X181457291Y-80290000D01*
X181445548Y-80310339D01*
X181405000Y-80461667D01*
X181405000Y-80618333D01*
X181445548Y-80769661D01*
X181457291Y-80790000D01*
X180427519Y-80790000D01*
X180438733Y-80860809D01*
X180505372Y-81065901D01*
X180603271Y-81258036D01*
X180730025Y-81432496D01*
X180730025Y-81432497D01*
X180882502Y-81584974D01*
X181053720Y-81709372D01*
X181096385Y-81764702D01*
X181102364Y-81834316D01*
X181069758Y-81896110D01*
X181053720Y-81910008D01*
X180882177Y-82034642D01*
X180729643Y-82187176D01*
X180729643Y-82187177D01*
X180729641Y-82187179D01*
X180716283Y-82205565D01*
X180602843Y-82361700D01*
X180558721Y-82448295D01*
X180510746Y-82499091D01*
X180448236Y-82516000D01*
X170717096Y-82516000D01*
X170650057Y-82496315D01*
X170604302Y-82443511D01*
X170594358Y-82374353D01*
X170623383Y-82310797D01*
X170629415Y-82304319D01*
X172988734Y-79945000D01*
X180196812Y-72736920D01*
X180258133Y-72703437D01*
X180327825Y-72708421D01*
G37*
%TD.AperFunction*%
%TD*%
M02*
