%TF.GenerationSoftware,KiCad,Pcbnew,8.0.6*%
%TF.CreationDate,2025-03-25T19:38:53+01:00*%
%TF.ProjectId,TocBoatReceiver,546f6342-6f61-4745-9265-636569766572,rev?*%
%TF.SameCoordinates,Original*%
%TF.FileFunction,Drillmap*%
%TF.FilePolarity,Positive*%
%FSLAX45Y45*%
G04 Gerber Fmt 4.5, Leading zero omitted, Abs format (unit mm)*
G04 Created by KiCad (PCBNEW 8.0.6) date 2025-03-25 19:38:53*
%MOMM*%
%LPD*%
G01*
G04 APERTURE LIST*
%ADD10C,0.050000*%
%ADD11C,0.200000*%
%ADD12C,0.100000*%
%ADD13C,0.119000*%
G04 APERTURE END LIST*
D10*
X13150000Y-4900000D02*
X18650000Y-4900000D01*
X18650000Y-13400000D01*
X13150000Y-13400000D01*
X13150000Y-4900000D01*
D11*
D12*
X13825500Y-8748750D02*
X13845500Y-8768750D01*
X13845500Y-8748750D02*
X13825500Y-8768750D01*
X13825500Y-8901250D02*
X13845500Y-8921250D01*
X13845500Y-8901250D02*
X13825500Y-8921250D01*
X13901750Y-8672500D02*
X13921750Y-8692500D01*
X13921750Y-8672500D02*
X13901750Y-8692500D01*
X13901750Y-8825000D02*
X13921750Y-8845000D01*
X13921750Y-8825000D02*
X13901750Y-8845000D01*
X13901750Y-8977500D02*
X13921750Y-8997500D01*
X13921750Y-8977500D02*
X13901750Y-8997500D01*
X13978000Y-8748750D02*
X13998000Y-8768750D01*
X13998000Y-8748750D02*
X13978000Y-8768750D01*
X13978000Y-8901250D02*
X13998000Y-8921250D01*
X13998000Y-8901250D02*
X13978000Y-8921250D01*
X14054250Y-8672500D02*
X14074250Y-8692500D01*
X14074250Y-8672500D02*
X14054250Y-8692500D01*
X14054250Y-8825000D02*
X14074250Y-8845000D01*
X14074250Y-8825000D02*
X14054250Y-8845000D01*
X14054250Y-8977500D02*
X14074250Y-8997500D01*
X14074250Y-8977500D02*
X14054250Y-8997500D01*
X14130500Y-8748750D02*
X14150500Y-8768750D01*
X14150500Y-8748750D02*
X14130500Y-8768750D01*
X14130500Y-8901250D02*
X14150500Y-8921250D01*
X14150500Y-8901250D02*
X14130500Y-8921250D01*
X13265000Y-8010000D02*
G75*
G02*
X13235000Y-8010000I-15000J0D01*
G01*
X13235000Y-8010000D02*
G75*
G02*
X13265000Y-8010000I15000J0D01*
G01*
X13265000Y-9750000D02*
G75*
G02*
X13235000Y-9750000I-15000J0D01*
G01*
X13235000Y-9750000D02*
G75*
G02*
X13265000Y-9750000I15000J0D01*
G01*
X13265000Y-10070000D02*
G75*
G02*
X13235000Y-10070000I-15000J0D01*
G01*
X13235000Y-10070000D02*
G75*
G02*
X13265000Y-10070000I15000J0D01*
G01*
X13283175Y-7396825D02*
G75*
G02*
X13253175Y-7396825I-15000J0D01*
G01*
X13253175Y-7396825D02*
G75*
G02*
X13283175Y-7396825I15000J0D01*
G01*
X13395000Y-13200000D02*
G75*
G02*
X13365000Y-13200000I-15000J0D01*
G01*
X13365000Y-13200000D02*
G75*
G02*
X13395000Y-13200000I15000J0D01*
G01*
X13415000Y-8050000D02*
G75*
G02*
X13385000Y-8050000I-15000J0D01*
G01*
X13385000Y-8050000D02*
G75*
G02*
X13415000Y-8050000I15000J0D01*
G01*
X13425000Y-7710000D02*
G75*
G02*
X13395000Y-7710000I-15000J0D01*
G01*
X13395000Y-7710000D02*
G75*
G02*
X13425000Y-7710000I15000J0D01*
G01*
X13505000Y-5200000D02*
G75*
G02*
X13475000Y-5200000I-15000J0D01*
G01*
X13475000Y-5200000D02*
G75*
G02*
X13505000Y-5200000I15000J0D01*
G01*
X13525000Y-9520000D02*
G75*
G02*
X13495000Y-9520000I-15000J0D01*
G01*
X13495000Y-9520000D02*
G75*
G02*
X13525000Y-9520000I15000J0D01*
G01*
X13538650Y-10040000D02*
G75*
G02*
X13508650Y-10040000I-15000J0D01*
G01*
X13508650Y-10040000D02*
G75*
G02*
X13538650Y-10040000I15000J0D01*
G01*
X13565000Y-7550000D02*
G75*
G02*
X13535000Y-7550000I-15000J0D01*
G01*
X13535000Y-7550000D02*
G75*
G02*
X13565000Y-7550000I15000J0D01*
G01*
X13605000Y-7700000D02*
G75*
G02*
X13575000Y-7700000I-15000J0D01*
G01*
X13575000Y-7700000D02*
G75*
G02*
X13605000Y-7700000I15000J0D01*
G01*
X13615000Y-10500000D02*
G75*
G02*
X13585000Y-10500000I-15000J0D01*
G01*
X13585000Y-10500000D02*
G75*
G02*
X13615000Y-10500000I15000J0D01*
G01*
X13615000Y-10600000D02*
G75*
G02*
X13585000Y-10600000I-15000J0D01*
G01*
X13585000Y-10600000D02*
G75*
G02*
X13615000Y-10600000I15000J0D01*
G01*
X13615000Y-10700000D02*
G75*
G02*
X13585000Y-10700000I-15000J0D01*
G01*
X13585000Y-10700000D02*
G75*
G02*
X13615000Y-10700000I15000J0D01*
G01*
X13705000Y-10180000D02*
G75*
G02*
X13675000Y-10180000I-15000J0D01*
G01*
X13675000Y-10180000D02*
G75*
G02*
X13705000Y-10180000I15000J0D01*
G01*
X13725000Y-10280000D02*
G75*
G02*
X13695000Y-10280000I-15000J0D01*
G01*
X13695000Y-10280000D02*
G75*
G02*
X13725000Y-10280000I15000J0D01*
G01*
X13735000Y-9910000D02*
G75*
G02*
X13705000Y-9910000I-15000J0D01*
G01*
X13705000Y-9910000D02*
G75*
G02*
X13735000Y-9910000I15000J0D01*
G01*
X13745000Y-8140000D02*
G75*
G02*
X13715000Y-8140000I-15000J0D01*
G01*
X13715000Y-8140000D02*
G75*
G02*
X13745000Y-8140000I15000J0D01*
G01*
X13765000Y-8030000D02*
G75*
G02*
X13735000Y-8030000I-15000J0D01*
G01*
X13735000Y-8030000D02*
G75*
G02*
X13765000Y-8030000I15000J0D01*
G01*
X13815000Y-9910000D02*
G75*
G02*
X13785000Y-9910000I-15000J0D01*
G01*
X13785000Y-9910000D02*
G75*
G02*
X13815000Y-9910000I15000J0D01*
G01*
X13885000Y-9850000D02*
G75*
G02*
X13855000Y-9850000I-15000J0D01*
G01*
X13855000Y-9850000D02*
G75*
G02*
X13885000Y-9850000I15000J0D01*
G01*
X13895000Y-11140000D02*
G75*
G02*
X13865000Y-11140000I-15000J0D01*
G01*
X13865000Y-11140000D02*
G75*
G02*
X13895000Y-11140000I15000J0D01*
G01*
X14025000Y-10050000D02*
G75*
G02*
X13995000Y-10050000I-15000J0D01*
G01*
X13995000Y-10050000D02*
G75*
G02*
X14025000Y-10050000I15000J0D01*
G01*
X14035000Y-10200000D02*
G75*
G02*
X14005000Y-10200000I-15000J0D01*
G01*
X14005000Y-10200000D02*
G75*
G02*
X14035000Y-10200000I15000J0D01*
G01*
X14085150Y-10310150D02*
G75*
G02*
X14055150Y-10310150I-15000J0D01*
G01*
X14055150Y-10310150D02*
G75*
G02*
X14085150Y-10310150I15000J0D01*
G01*
X14105000Y-10960000D02*
G75*
G02*
X14075000Y-10960000I-15000J0D01*
G01*
X14075000Y-10960000D02*
G75*
G02*
X14105000Y-10960000I15000J0D01*
G01*
X14115000Y-9900000D02*
G75*
G02*
X14085000Y-9900000I-15000J0D01*
G01*
X14085000Y-9900000D02*
G75*
G02*
X14115000Y-9900000I15000J0D01*
G01*
X14115000Y-10780000D02*
G75*
G02*
X14085000Y-10780000I-15000J0D01*
G01*
X14085000Y-10780000D02*
G75*
G02*
X14115000Y-10780000I15000J0D01*
G01*
X14158750Y-12220000D02*
G75*
G02*
X14128750Y-12220000I-15000J0D01*
G01*
X14128750Y-12220000D02*
G75*
G02*
X14158750Y-12220000I15000J0D01*
G01*
X14175000Y-10410000D02*
G75*
G02*
X14145000Y-10410000I-15000J0D01*
G01*
X14145000Y-10410000D02*
G75*
G02*
X14175000Y-10410000I15000J0D01*
G01*
X14175000Y-10480000D02*
G75*
G02*
X14145000Y-10480000I-15000J0D01*
G01*
X14145000Y-10480000D02*
G75*
G02*
X14175000Y-10480000I15000J0D01*
G01*
X14175000Y-10665000D02*
G75*
G02*
X14145000Y-10665000I-15000J0D01*
G01*
X14145000Y-10665000D02*
G75*
G02*
X14175000Y-10665000I15000J0D01*
G01*
X14185000Y-12390000D02*
G75*
G02*
X14155000Y-12390000I-15000J0D01*
G01*
X14155000Y-12390000D02*
G75*
G02*
X14185000Y-12390000I15000J0D01*
G01*
X14215000Y-9900000D02*
G75*
G02*
X14185000Y-9900000I-15000J0D01*
G01*
X14185000Y-9900000D02*
G75*
G02*
X14215000Y-9900000I15000J0D01*
G01*
X14215000Y-11100000D02*
G75*
G02*
X14185000Y-11100000I-15000J0D01*
G01*
X14185000Y-11100000D02*
G75*
G02*
X14215000Y-11100000I15000J0D01*
G01*
X14218260Y-12094845D02*
G75*
G02*
X14188260Y-12094845I-15000J0D01*
G01*
X14188260Y-12094845D02*
G75*
G02*
X14218260Y-12094845I15000J0D01*
G01*
X14315000Y-9900000D02*
G75*
G02*
X14285000Y-9900000I-15000J0D01*
G01*
X14285000Y-9900000D02*
G75*
G02*
X14315000Y-9900000I15000J0D01*
G01*
X14315000Y-10190000D02*
G75*
G02*
X14285000Y-10190000I-15000J0D01*
G01*
X14285000Y-10190000D02*
G75*
G02*
X14315000Y-10190000I15000J0D01*
G01*
X14315000Y-11100000D02*
G75*
G02*
X14285000Y-11100000I-15000J0D01*
G01*
X14285000Y-11100000D02*
G75*
G02*
X14315000Y-11100000I15000J0D01*
G01*
X14335000Y-10380000D02*
G75*
G02*
X14305000Y-10380000I-15000J0D01*
G01*
X14305000Y-10380000D02*
G75*
G02*
X14335000Y-10380000I15000J0D01*
G01*
X14335000Y-10450000D02*
G75*
G02*
X14305000Y-10450000I-15000J0D01*
G01*
X14305000Y-10450000D02*
G75*
G02*
X14335000Y-10450000I15000J0D01*
G01*
X14335000Y-10520000D02*
G75*
G02*
X14305000Y-10520000I-15000J0D01*
G01*
X14305000Y-10520000D02*
G75*
G02*
X14335000Y-10520000I15000J0D01*
G01*
X14395000Y-12190000D02*
G75*
G02*
X14365000Y-12190000I-15000J0D01*
G01*
X14365000Y-12190000D02*
G75*
G02*
X14395000Y-12190000I15000J0D01*
G01*
X14415000Y-9900000D02*
G75*
G02*
X14385000Y-9900000I-15000J0D01*
G01*
X14385000Y-9900000D02*
G75*
G02*
X14415000Y-9900000I15000J0D01*
G01*
X14415000Y-10190000D02*
G75*
G02*
X14385000Y-10190000I-15000J0D01*
G01*
X14385000Y-10190000D02*
G75*
G02*
X14415000Y-10190000I15000J0D01*
G01*
X14415000Y-11100000D02*
G75*
G02*
X14385000Y-11100000I-15000J0D01*
G01*
X14385000Y-11100000D02*
G75*
G02*
X14415000Y-11100000I15000J0D01*
G01*
X14415000Y-12400000D02*
G75*
G02*
X14385000Y-12400000I-15000J0D01*
G01*
X14385000Y-12400000D02*
G75*
G02*
X14415000Y-12400000I15000J0D01*
G01*
X14472311Y-12169431D02*
G75*
G02*
X14442311Y-12169431I-15000J0D01*
G01*
X14442311Y-12169431D02*
G75*
G02*
X14472311Y-12169431I15000J0D01*
G01*
X14505000Y-10190000D02*
G75*
G02*
X14475000Y-10190000I-15000J0D01*
G01*
X14475000Y-10190000D02*
G75*
G02*
X14505000Y-10190000I15000J0D01*
G01*
X14510154Y-11324846D02*
G75*
G02*
X14480154Y-11324846I-15000J0D01*
G01*
X14480154Y-11324846D02*
G75*
G02*
X14510154Y-11324846I15000J0D01*
G01*
X14514132Y-11170950D02*
G75*
G02*
X14484132Y-11170950I-15000J0D01*
G01*
X14484132Y-11170950D02*
G75*
G02*
X14514132Y-11170950I15000J0D01*
G01*
X14515000Y-12400000D02*
G75*
G02*
X14485000Y-12400000I-15000J0D01*
G01*
X14485000Y-12400000D02*
G75*
G02*
X14515000Y-12400000I15000J0D01*
G01*
X14615000Y-12400000D02*
G75*
G02*
X14585000Y-12400000I-15000J0D01*
G01*
X14585000Y-12400000D02*
G75*
G02*
X14615000Y-12400000I15000J0D01*
G01*
X14715000Y-11800000D02*
G75*
G02*
X14685000Y-11800000I-15000J0D01*
G01*
X14685000Y-11800000D02*
G75*
G02*
X14715000Y-11800000I15000J0D01*
G01*
X14715000Y-11900000D02*
G75*
G02*
X14685000Y-11900000I-15000J0D01*
G01*
X14685000Y-11900000D02*
G75*
G02*
X14715000Y-11900000I15000J0D01*
G01*
X14715000Y-12000000D02*
G75*
G02*
X14685000Y-12000000I-15000J0D01*
G01*
X14685000Y-12000000D02*
G75*
G02*
X14715000Y-12000000I15000J0D01*
G01*
X14745000Y-12500000D02*
G75*
G02*
X14715000Y-12500000I-15000J0D01*
G01*
X14715000Y-12500000D02*
G75*
G02*
X14745000Y-12500000I15000J0D01*
G01*
X14815000Y-9500000D02*
G75*
G02*
X14785000Y-9500000I-15000J0D01*
G01*
X14785000Y-9500000D02*
G75*
G02*
X14815000Y-9500000I15000J0D01*
G01*
X14905000Y-8010000D02*
G75*
G02*
X14875000Y-8010000I-15000J0D01*
G01*
X14875000Y-8010000D02*
G75*
G02*
X14905000Y-8010000I15000J0D01*
G01*
X14945000Y-9330000D02*
G75*
G02*
X14915000Y-9330000I-15000J0D01*
G01*
X14915000Y-9330000D02*
G75*
G02*
X14945000Y-9330000I15000J0D01*
G01*
X14971699Y-12426645D02*
G75*
G02*
X14941699Y-12426645I-15000J0D01*
G01*
X14941699Y-12426645D02*
G75*
G02*
X14971699Y-12426645I15000J0D01*
G01*
X15135000Y-12420000D02*
G75*
G02*
X15105000Y-12420000I-15000J0D01*
G01*
X15105000Y-12420000D02*
G75*
G02*
X15135000Y-12420000I15000J0D01*
G01*
X15445000Y-9450000D02*
G75*
G02*
X15415000Y-9450000I-15000J0D01*
G01*
X15415000Y-9450000D02*
G75*
G02*
X15445000Y-9450000I15000J0D01*
G01*
X15615000Y-12000000D02*
G75*
G02*
X15585000Y-12000000I-15000J0D01*
G01*
X15585000Y-12000000D02*
G75*
G02*
X15615000Y-12000000I15000J0D01*
G01*
X15615000Y-12100000D02*
G75*
G02*
X15585000Y-12100000I-15000J0D01*
G01*
X15585000Y-12100000D02*
G75*
G02*
X15615000Y-12100000I15000J0D01*
G01*
X15615000Y-12200000D02*
G75*
G02*
X15585000Y-12200000I-15000J0D01*
G01*
X15585000Y-12200000D02*
G75*
G02*
X15615000Y-12200000I15000J0D01*
G01*
X15615000Y-12300000D02*
G75*
G02*
X15585000Y-12300000I-15000J0D01*
G01*
X15585000Y-12300000D02*
G75*
G02*
X15615000Y-12300000I15000J0D01*
G01*
X15815000Y-9400000D02*
G75*
G02*
X15785000Y-9400000I-15000J0D01*
G01*
X15785000Y-9400000D02*
G75*
G02*
X15815000Y-9400000I15000J0D01*
G01*
X15825000Y-9010000D02*
G75*
G02*
X15795000Y-9010000I-15000J0D01*
G01*
X15795000Y-9010000D02*
G75*
G02*
X15825000Y-9010000I15000J0D01*
G01*
X15825000Y-9800000D02*
G75*
G02*
X15795000Y-9800000I-15000J0D01*
G01*
X15795000Y-9800000D02*
G75*
G02*
X15825000Y-9800000I15000J0D01*
G01*
X16215083Y-8980083D02*
G75*
G02*
X16185083Y-8980083I-15000J0D01*
G01*
X16185083Y-8980083D02*
G75*
G02*
X16215083Y-8980083I15000J0D01*
G01*
X16218650Y-9330000D02*
G75*
G02*
X16188650Y-9330000I-15000J0D01*
G01*
X16188650Y-9330000D02*
G75*
G02*
X16218650Y-9330000I15000J0D01*
G01*
X16235000Y-9700000D02*
G75*
G02*
X16205000Y-9700000I-15000J0D01*
G01*
X16205000Y-9700000D02*
G75*
G02*
X16235000Y-9700000I15000J0D01*
G01*
X16275000Y-9460000D02*
G75*
G02*
X16245000Y-9460000I-15000J0D01*
G01*
X16245000Y-9460000D02*
G75*
G02*
X16275000Y-9460000I15000J0D01*
G01*
X16565000Y-12310000D02*
G75*
G02*
X16535000Y-12310000I-15000J0D01*
G01*
X16535000Y-12310000D02*
G75*
G02*
X16565000Y-12310000I15000J0D01*
G01*
X16585000Y-12540000D02*
G75*
G02*
X16555000Y-12540000I-15000J0D01*
G01*
X16555000Y-12540000D02*
G75*
G02*
X16585000Y-12540000I15000J0D01*
G01*
X16875000Y-12300000D02*
G75*
G02*
X16845000Y-12300000I-15000J0D01*
G01*
X16845000Y-12300000D02*
G75*
G02*
X16875000Y-12300000I15000J0D01*
G01*
X16895000Y-12080000D02*
G75*
G02*
X16865000Y-12080000I-15000J0D01*
G01*
X16865000Y-12080000D02*
G75*
G02*
X16895000Y-12080000I15000J0D01*
G01*
X17465000Y-10980000D02*
G75*
G02*
X17435000Y-10980000I-15000J0D01*
G01*
X17435000Y-10980000D02*
G75*
G02*
X17465000Y-10980000I15000J0D01*
G01*
X17475000Y-10780000D02*
G75*
G02*
X17445000Y-10780000I-15000J0D01*
G01*
X17445000Y-10780000D02*
G75*
G02*
X17475000Y-10780000I15000J0D01*
G01*
X17595000Y-11510000D02*
G75*
G02*
X17565000Y-11510000I-15000J0D01*
G01*
X17565000Y-11510000D02*
G75*
G02*
X17595000Y-11510000I15000J0D01*
G01*
X17615000Y-12520000D02*
G75*
G02*
X17585000Y-12520000I-15000J0D01*
G01*
X17585000Y-12520000D02*
G75*
G02*
X17615000Y-12520000I15000J0D01*
G01*
X18195000Y-5200000D02*
G75*
G02*
X18165000Y-5200000I-15000J0D01*
G01*
X18165000Y-5200000D02*
G75*
G02*
X18195000Y-5200000I15000J0D01*
G01*
D13*
X18200000Y-5840500D02*
X18200000Y-5959500D01*
X18140500Y-5900000D02*
X18259500Y-5900000D01*
X18200000Y-6094500D02*
X18200000Y-6213500D01*
X18140500Y-6154000D02*
X18259500Y-6154000D01*
X18200000Y-6786500D02*
X18200000Y-6905500D01*
X18140500Y-6846000D02*
X18259500Y-6846000D01*
X18200000Y-7040500D02*
X18200000Y-7159500D01*
X18140500Y-7100000D02*
X18259500Y-7100000D01*
X18200000Y-7294500D02*
X18200000Y-7413500D01*
X18140500Y-7354000D02*
X18259500Y-7354000D01*
X18200000Y-7994500D02*
X18200000Y-8113500D01*
X18140500Y-8054000D02*
X18259500Y-8054000D01*
X18200000Y-8248500D02*
X18200000Y-8367500D01*
X18140500Y-8308000D02*
X18259500Y-8308000D01*
X18200000Y-8502500D02*
X18200000Y-8621500D01*
X18140500Y-8562000D02*
X18259500Y-8562000D01*
X18200000Y-9140500D02*
X18200000Y-9259500D01*
X18140500Y-9200000D02*
X18259500Y-9200000D01*
X18200000Y-9394500D02*
X18200000Y-9513500D01*
X18140500Y-9454000D02*
X18259500Y-9454000D01*
X18200000Y-11240500D02*
X18200000Y-11359500D01*
X18140500Y-11300000D02*
X18259500Y-11300000D01*
X18200000Y-11494500D02*
X18200000Y-11613500D01*
X18140500Y-11554000D02*
X18259500Y-11554000D01*
D11*
X13408277Y-13713984D02*
X13408277Y-13513984D01*
X13408277Y-13513984D02*
X13455896Y-13513984D01*
X13455896Y-13513984D02*
X13484467Y-13523508D01*
X13484467Y-13523508D02*
X13503515Y-13542555D01*
X13503515Y-13542555D02*
X13513039Y-13561603D01*
X13513039Y-13561603D02*
X13522562Y-13599698D01*
X13522562Y-13599698D02*
X13522562Y-13628269D01*
X13522562Y-13628269D02*
X13513039Y-13666365D01*
X13513039Y-13666365D02*
X13503515Y-13685412D01*
X13503515Y-13685412D02*
X13484467Y-13704460D01*
X13484467Y-13704460D02*
X13455896Y-13713984D01*
X13455896Y-13713984D02*
X13408277Y-13713984D01*
X13608277Y-13713984D02*
X13608277Y-13580650D01*
X13608277Y-13618746D02*
X13617801Y-13599698D01*
X13617801Y-13599698D02*
X13627324Y-13590174D01*
X13627324Y-13590174D02*
X13646372Y-13580650D01*
X13646372Y-13580650D02*
X13665420Y-13580650D01*
X13732086Y-13713984D02*
X13732086Y-13580650D01*
X13732086Y-13513984D02*
X13722562Y-13523508D01*
X13722562Y-13523508D02*
X13732086Y-13533031D01*
X13732086Y-13533031D02*
X13741610Y-13523508D01*
X13741610Y-13523508D02*
X13732086Y-13513984D01*
X13732086Y-13513984D02*
X13732086Y-13533031D01*
X13855896Y-13713984D02*
X13836848Y-13704460D01*
X13836848Y-13704460D02*
X13827324Y-13685412D01*
X13827324Y-13685412D02*
X13827324Y-13513984D01*
X13960658Y-13713984D02*
X13941610Y-13704460D01*
X13941610Y-13704460D02*
X13932086Y-13685412D01*
X13932086Y-13685412D02*
X13932086Y-13513984D01*
X14189229Y-13713984D02*
X14189229Y-13513984D01*
X14189229Y-13513984D02*
X14255896Y-13656841D01*
X14255896Y-13656841D02*
X14322562Y-13513984D01*
X14322562Y-13513984D02*
X14322562Y-13713984D01*
X14503515Y-13713984D02*
X14503515Y-13609222D01*
X14503515Y-13609222D02*
X14493991Y-13590174D01*
X14493991Y-13590174D02*
X14474943Y-13580650D01*
X14474943Y-13580650D02*
X14436848Y-13580650D01*
X14436848Y-13580650D02*
X14417801Y-13590174D01*
X14503515Y-13704460D02*
X14484467Y-13713984D01*
X14484467Y-13713984D02*
X14436848Y-13713984D01*
X14436848Y-13713984D02*
X14417801Y-13704460D01*
X14417801Y-13704460D02*
X14408277Y-13685412D01*
X14408277Y-13685412D02*
X14408277Y-13666365D01*
X14408277Y-13666365D02*
X14417801Y-13647317D01*
X14417801Y-13647317D02*
X14436848Y-13637793D01*
X14436848Y-13637793D02*
X14484467Y-13637793D01*
X14484467Y-13637793D02*
X14503515Y-13628269D01*
X14598753Y-13580650D02*
X14598753Y-13780650D01*
X14598753Y-13590174D02*
X14617801Y-13580650D01*
X14617801Y-13580650D02*
X14655896Y-13580650D01*
X14655896Y-13580650D02*
X14674943Y-13590174D01*
X14674943Y-13590174D02*
X14684467Y-13599698D01*
X14684467Y-13599698D02*
X14693991Y-13618746D01*
X14693991Y-13618746D02*
X14693991Y-13675888D01*
X14693991Y-13675888D02*
X14684467Y-13694936D01*
X14684467Y-13694936D02*
X14674943Y-13704460D01*
X14674943Y-13704460D02*
X14655896Y-13713984D01*
X14655896Y-13713984D02*
X14617801Y-13713984D01*
X14617801Y-13713984D02*
X14598753Y-13704460D01*
X14779705Y-13694936D02*
X14789229Y-13704460D01*
X14789229Y-13704460D02*
X14779705Y-13713984D01*
X14779705Y-13713984D02*
X14770182Y-13704460D01*
X14770182Y-13704460D02*
X14779705Y-13694936D01*
X14779705Y-13694936D02*
X14779705Y-13713984D01*
X14779705Y-13590174D02*
X14789229Y-13599698D01*
X14789229Y-13599698D02*
X14779705Y-13609222D01*
X14779705Y-13609222D02*
X14770182Y-13599698D01*
X14770182Y-13599698D02*
X14779705Y-13590174D01*
X14779705Y-13590174D02*
X14779705Y-13609222D01*
D12*
X13127500Y-14032500D02*
X13147500Y-14052500D01*
X13147500Y-14032500D02*
X13127500Y-14052500D01*
D11*
X13446372Y-13933984D02*
X13465420Y-13933984D01*
X13465420Y-13933984D02*
X13484467Y-13943508D01*
X13484467Y-13943508D02*
X13493991Y-13953031D01*
X13493991Y-13953031D02*
X13503515Y-13972079D01*
X13503515Y-13972079D02*
X13513039Y-14010174D01*
X13513039Y-14010174D02*
X13513039Y-14057793D01*
X13513039Y-14057793D02*
X13503515Y-14095888D01*
X13503515Y-14095888D02*
X13493991Y-14114936D01*
X13493991Y-14114936D02*
X13484467Y-14124460D01*
X13484467Y-14124460D02*
X13465420Y-14133984D01*
X13465420Y-14133984D02*
X13446372Y-14133984D01*
X13446372Y-14133984D02*
X13427324Y-14124460D01*
X13427324Y-14124460D02*
X13417801Y-14114936D01*
X13417801Y-14114936D02*
X13408277Y-14095888D01*
X13408277Y-14095888D02*
X13398753Y-14057793D01*
X13398753Y-14057793D02*
X13398753Y-14010174D01*
X13398753Y-14010174D02*
X13408277Y-13972079D01*
X13408277Y-13972079D02*
X13417801Y-13953031D01*
X13417801Y-13953031D02*
X13427324Y-13943508D01*
X13427324Y-13943508D02*
X13446372Y-13933984D01*
X13598753Y-14114936D02*
X13608277Y-14124460D01*
X13608277Y-14124460D02*
X13598753Y-14133984D01*
X13598753Y-14133984D02*
X13589229Y-14124460D01*
X13589229Y-14124460D02*
X13598753Y-14114936D01*
X13598753Y-14114936D02*
X13598753Y-14133984D01*
X13684467Y-13953031D02*
X13693991Y-13943508D01*
X13693991Y-13943508D02*
X13713039Y-13933984D01*
X13713039Y-13933984D02*
X13760658Y-13933984D01*
X13760658Y-13933984D02*
X13779705Y-13943508D01*
X13779705Y-13943508D02*
X13789229Y-13953031D01*
X13789229Y-13953031D02*
X13798753Y-13972079D01*
X13798753Y-13972079D02*
X13798753Y-13991127D01*
X13798753Y-13991127D02*
X13789229Y-14019698D01*
X13789229Y-14019698D02*
X13674943Y-14133984D01*
X13674943Y-14133984D02*
X13798753Y-14133984D01*
X13922562Y-13933984D02*
X13941610Y-13933984D01*
X13941610Y-13933984D02*
X13960658Y-13943508D01*
X13960658Y-13943508D02*
X13970182Y-13953031D01*
X13970182Y-13953031D02*
X13979705Y-13972079D01*
X13979705Y-13972079D02*
X13989229Y-14010174D01*
X13989229Y-14010174D02*
X13989229Y-14057793D01*
X13989229Y-14057793D02*
X13979705Y-14095888D01*
X13979705Y-14095888D02*
X13970182Y-14114936D01*
X13970182Y-14114936D02*
X13960658Y-14124460D01*
X13960658Y-14124460D02*
X13941610Y-14133984D01*
X13941610Y-14133984D02*
X13922562Y-14133984D01*
X13922562Y-14133984D02*
X13903515Y-14124460D01*
X13903515Y-14124460D02*
X13893991Y-14114936D01*
X13893991Y-14114936D02*
X13884467Y-14095888D01*
X13884467Y-14095888D02*
X13874943Y-14057793D01*
X13874943Y-14057793D02*
X13874943Y-14010174D01*
X13874943Y-14010174D02*
X13884467Y-13972079D01*
X13884467Y-13972079D02*
X13893991Y-13953031D01*
X13893991Y-13953031D02*
X13903515Y-13943508D01*
X13903515Y-13943508D02*
X13922562Y-13933984D01*
X14113039Y-13933984D02*
X14132086Y-13933984D01*
X14132086Y-13933984D02*
X14151134Y-13943508D01*
X14151134Y-13943508D02*
X14160658Y-13953031D01*
X14160658Y-13953031D02*
X14170182Y-13972079D01*
X14170182Y-13972079D02*
X14179705Y-14010174D01*
X14179705Y-14010174D02*
X14179705Y-14057793D01*
X14179705Y-14057793D02*
X14170182Y-14095888D01*
X14170182Y-14095888D02*
X14160658Y-14114936D01*
X14160658Y-14114936D02*
X14151134Y-14124460D01*
X14151134Y-14124460D02*
X14132086Y-14133984D01*
X14132086Y-14133984D02*
X14113039Y-14133984D01*
X14113039Y-14133984D02*
X14093991Y-14124460D01*
X14093991Y-14124460D02*
X14084467Y-14114936D01*
X14084467Y-14114936D02*
X14074943Y-14095888D01*
X14074943Y-14095888D02*
X14065420Y-14057793D01*
X14065420Y-14057793D02*
X14065420Y-14010174D01*
X14065420Y-14010174D02*
X14074943Y-13972079D01*
X14074943Y-13972079D02*
X14084467Y-13953031D01*
X14084467Y-13953031D02*
X14093991Y-13943508D01*
X14093991Y-13943508D02*
X14113039Y-13933984D01*
X14265420Y-14133984D02*
X14265420Y-14000650D01*
X14265420Y-14019698D02*
X14274943Y-14010174D01*
X14274943Y-14010174D02*
X14293991Y-14000650D01*
X14293991Y-14000650D02*
X14322563Y-14000650D01*
X14322563Y-14000650D02*
X14341610Y-14010174D01*
X14341610Y-14010174D02*
X14351134Y-14029222D01*
X14351134Y-14029222D02*
X14351134Y-14133984D01*
X14351134Y-14029222D02*
X14360658Y-14010174D01*
X14360658Y-14010174D02*
X14379705Y-14000650D01*
X14379705Y-14000650D02*
X14408277Y-14000650D01*
X14408277Y-14000650D02*
X14427324Y-14010174D01*
X14427324Y-14010174D02*
X14436848Y-14029222D01*
X14436848Y-14029222D02*
X14436848Y-14133984D01*
X14532086Y-14133984D02*
X14532086Y-14000650D01*
X14532086Y-14019698D02*
X14541610Y-14010174D01*
X14541610Y-14010174D02*
X14560658Y-14000650D01*
X14560658Y-14000650D02*
X14589229Y-14000650D01*
X14589229Y-14000650D02*
X14608277Y-14010174D01*
X14608277Y-14010174D02*
X14617801Y-14029222D01*
X14617801Y-14029222D02*
X14617801Y-14133984D01*
X14617801Y-14029222D02*
X14627324Y-14010174D01*
X14627324Y-14010174D02*
X14646372Y-14000650D01*
X14646372Y-14000650D02*
X14674943Y-14000650D01*
X14674943Y-14000650D02*
X14693991Y-14010174D01*
X14693991Y-14010174D02*
X14703515Y-14029222D01*
X14703515Y-14029222D02*
X14703515Y-14133984D01*
X15093991Y-13924460D02*
X14922563Y-14181603D01*
X15351134Y-13933984D02*
X15370182Y-13933984D01*
X15370182Y-13933984D02*
X15389229Y-13943508D01*
X15389229Y-13943508D02*
X15398753Y-13953031D01*
X15398753Y-13953031D02*
X15408277Y-13972079D01*
X15408277Y-13972079D02*
X15417801Y-14010174D01*
X15417801Y-14010174D02*
X15417801Y-14057793D01*
X15417801Y-14057793D02*
X15408277Y-14095888D01*
X15408277Y-14095888D02*
X15398753Y-14114936D01*
X15398753Y-14114936D02*
X15389229Y-14124460D01*
X15389229Y-14124460D02*
X15370182Y-14133984D01*
X15370182Y-14133984D02*
X15351134Y-14133984D01*
X15351134Y-14133984D02*
X15332086Y-14124460D01*
X15332086Y-14124460D02*
X15322563Y-14114936D01*
X15322563Y-14114936D02*
X15313039Y-14095888D01*
X15313039Y-14095888D02*
X15303515Y-14057793D01*
X15303515Y-14057793D02*
X15303515Y-14010174D01*
X15303515Y-14010174D02*
X15313039Y-13972079D01*
X15313039Y-13972079D02*
X15322563Y-13953031D01*
X15322563Y-13953031D02*
X15332086Y-13943508D01*
X15332086Y-13943508D02*
X15351134Y-13933984D01*
X15503515Y-14114936D02*
X15513039Y-14124460D01*
X15513039Y-14124460D02*
X15503515Y-14133984D01*
X15503515Y-14133984D02*
X15493991Y-14124460D01*
X15493991Y-14124460D02*
X15503515Y-14114936D01*
X15503515Y-14114936D02*
X15503515Y-14133984D01*
X15636848Y-13933984D02*
X15655896Y-13933984D01*
X15655896Y-13933984D02*
X15674944Y-13943508D01*
X15674944Y-13943508D02*
X15684467Y-13953031D01*
X15684467Y-13953031D02*
X15693991Y-13972079D01*
X15693991Y-13972079D02*
X15703515Y-14010174D01*
X15703515Y-14010174D02*
X15703515Y-14057793D01*
X15703515Y-14057793D02*
X15693991Y-14095888D01*
X15693991Y-14095888D02*
X15684467Y-14114936D01*
X15684467Y-14114936D02*
X15674944Y-14124460D01*
X15674944Y-14124460D02*
X15655896Y-14133984D01*
X15655896Y-14133984D02*
X15636848Y-14133984D01*
X15636848Y-14133984D02*
X15617801Y-14124460D01*
X15617801Y-14124460D02*
X15608277Y-14114936D01*
X15608277Y-14114936D02*
X15598753Y-14095888D01*
X15598753Y-14095888D02*
X15589229Y-14057793D01*
X15589229Y-14057793D02*
X15589229Y-14010174D01*
X15589229Y-14010174D02*
X15598753Y-13972079D01*
X15598753Y-13972079D02*
X15608277Y-13953031D01*
X15608277Y-13953031D02*
X15617801Y-13943508D01*
X15617801Y-13943508D02*
X15636848Y-13933984D01*
X15827325Y-13933984D02*
X15846372Y-13933984D01*
X15846372Y-13933984D02*
X15865420Y-13943508D01*
X15865420Y-13943508D02*
X15874944Y-13953031D01*
X15874944Y-13953031D02*
X15884467Y-13972079D01*
X15884467Y-13972079D02*
X15893991Y-14010174D01*
X15893991Y-14010174D02*
X15893991Y-14057793D01*
X15893991Y-14057793D02*
X15884467Y-14095888D01*
X15884467Y-14095888D02*
X15874944Y-14114936D01*
X15874944Y-14114936D02*
X15865420Y-14124460D01*
X15865420Y-14124460D02*
X15846372Y-14133984D01*
X15846372Y-14133984D02*
X15827325Y-14133984D01*
X15827325Y-14133984D02*
X15808277Y-14124460D01*
X15808277Y-14124460D02*
X15798753Y-14114936D01*
X15798753Y-14114936D02*
X15789229Y-14095888D01*
X15789229Y-14095888D02*
X15779706Y-14057793D01*
X15779706Y-14057793D02*
X15779706Y-14010174D01*
X15779706Y-14010174D02*
X15789229Y-13972079D01*
X15789229Y-13972079D02*
X15798753Y-13953031D01*
X15798753Y-13953031D02*
X15808277Y-13943508D01*
X15808277Y-13943508D02*
X15827325Y-13933984D01*
X15960658Y-13933984D02*
X16093991Y-13933984D01*
X16093991Y-13933984D02*
X16008277Y-14133984D01*
X16179706Y-14133984D02*
X16217801Y-14133984D01*
X16217801Y-14133984D02*
X16236848Y-14124460D01*
X16236848Y-14124460D02*
X16246372Y-14114936D01*
X16246372Y-14114936D02*
X16265420Y-14086365D01*
X16265420Y-14086365D02*
X16274944Y-14048269D01*
X16274944Y-14048269D02*
X16274944Y-13972079D01*
X16274944Y-13972079D02*
X16265420Y-13953031D01*
X16265420Y-13953031D02*
X16255896Y-13943508D01*
X16255896Y-13943508D02*
X16236848Y-13933984D01*
X16236848Y-13933984D02*
X16198753Y-13933984D01*
X16198753Y-13933984D02*
X16179706Y-13943508D01*
X16179706Y-13943508D02*
X16170182Y-13953031D01*
X16170182Y-13953031D02*
X16160658Y-13972079D01*
X16160658Y-13972079D02*
X16160658Y-14019698D01*
X16160658Y-14019698D02*
X16170182Y-14038746D01*
X16170182Y-14038746D02*
X16179706Y-14048269D01*
X16179706Y-14048269D02*
X16198753Y-14057793D01*
X16198753Y-14057793D02*
X16236848Y-14057793D01*
X16236848Y-14057793D02*
X16255896Y-14048269D01*
X16255896Y-14048269D02*
X16265420Y-14038746D01*
X16265420Y-14038746D02*
X16274944Y-14019698D01*
X16351134Y-13933984D02*
X16351134Y-13972079D01*
X16427325Y-13933984D02*
X16427325Y-13972079D01*
X16722563Y-14210174D02*
X16713039Y-14200650D01*
X16713039Y-14200650D02*
X16693991Y-14172079D01*
X16693991Y-14172079D02*
X16684468Y-14153031D01*
X16684468Y-14153031D02*
X16674944Y-14124460D01*
X16674944Y-14124460D02*
X16665420Y-14076841D01*
X16665420Y-14076841D02*
X16665420Y-14038746D01*
X16665420Y-14038746D02*
X16674944Y-13991127D01*
X16674944Y-13991127D02*
X16684468Y-13962555D01*
X16684468Y-13962555D02*
X16693991Y-13943508D01*
X16693991Y-13943508D02*
X16713039Y-13914936D01*
X16713039Y-13914936D02*
X16722563Y-13905412D01*
X16903515Y-14133984D02*
X16789230Y-14133984D01*
X16846372Y-14133984D02*
X16846372Y-13933984D01*
X16846372Y-13933984D02*
X16827325Y-13962555D01*
X16827325Y-13962555D02*
X16808277Y-13981603D01*
X16808277Y-13981603D02*
X16789230Y-13991127D01*
X16979706Y-13953031D02*
X16989230Y-13943508D01*
X16989230Y-13943508D02*
X17008277Y-13933984D01*
X17008277Y-13933984D02*
X17055896Y-13933984D01*
X17055896Y-13933984D02*
X17074944Y-13943508D01*
X17074944Y-13943508D02*
X17084468Y-13953031D01*
X17084468Y-13953031D02*
X17093991Y-13972079D01*
X17093991Y-13972079D02*
X17093991Y-13991127D01*
X17093991Y-13991127D02*
X17084468Y-14019698D01*
X17084468Y-14019698D02*
X16970182Y-14133984D01*
X16970182Y-14133984D02*
X17093991Y-14133984D01*
X17332087Y-14133984D02*
X17332087Y-13933984D01*
X17417801Y-14133984D02*
X17417801Y-14029222D01*
X17417801Y-14029222D02*
X17408277Y-14010174D01*
X17408277Y-14010174D02*
X17389230Y-14000650D01*
X17389230Y-14000650D02*
X17360658Y-14000650D01*
X17360658Y-14000650D02*
X17341611Y-14010174D01*
X17341611Y-14010174D02*
X17332087Y-14019698D01*
X17541611Y-14133984D02*
X17522563Y-14124460D01*
X17522563Y-14124460D02*
X17513039Y-14114936D01*
X17513039Y-14114936D02*
X17503515Y-14095888D01*
X17503515Y-14095888D02*
X17503515Y-14038746D01*
X17503515Y-14038746D02*
X17513039Y-14019698D01*
X17513039Y-14019698D02*
X17522563Y-14010174D01*
X17522563Y-14010174D02*
X17541611Y-14000650D01*
X17541611Y-14000650D02*
X17570182Y-14000650D01*
X17570182Y-14000650D02*
X17589230Y-14010174D01*
X17589230Y-14010174D02*
X17598753Y-14019698D01*
X17598753Y-14019698D02*
X17608277Y-14038746D01*
X17608277Y-14038746D02*
X17608277Y-14095888D01*
X17608277Y-14095888D02*
X17598753Y-14114936D01*
X17598753Y-14114936D02*
X17589230Y-14124460D01*
X17589230Y-14124460D02*
X17570182Y-14133984D01*
X17570182Y-14133984D02*
X17541611Y-14133984D01*
X17722563Y-14133984D02*
X17703515Y-14124460D01*
X17703515Y-14124460D02*
X17693992Y-14105412D01*
X17693992Y-14105412D02*
X17693992Y-13933984D01*
X17874944Y-14124460D02*
X17855896Y-14133984D01*
X17855896Y-14133984D02*
X17817801Y-14133984D01*
X17817801Y-14133984D02*
X17798753Y-14124460D01*
X17798753Y-14124460D02*
X17789230Y-14105412D01*
X17789230Y-14105412D02*
X17789230Y-14029222D01*
X17789230Y-14029222D02*
X17798753Y-14010174D01*
X17798753Y-14010174D02*
X17817801Y-14000650D01*
X17817801Y-14000650D02*
X17855896Y-14000650D01*
X17855896Y-14000650D02*
X17874944Y-14010174D01*
X17874944Y-14010174D02*
X17884468Y-14029222D01*
X17884468Y-14029222D02*
X17884468Y-14048269D01*
X17884468Y-14048269D02*
X17789230Y-14067317D01*
X17960658Y-14124460D02*
X17979706Y-14133984D01*
X17979706Y-14133984D02*
X18017801Y-14133984D01*
X18017801Y-14133984D02*
X18036849Y-14124460D01*
X18036849Y-14124460D02*
X18046373Y-14105412D01*
X18046373Y-14105412D02*
X18046373Y-14095888D01*
X18046373Y-14095888D02*
X18036849Y-14076841D01*
X18036849Y-14076841D02*
X18017801Y-14067317D01*
X18017801Y-14067317D02*
X17989230Y-14067317D01*
X17989230Y-14067317D02*
X17970182Y-14057793D01*
X17970182Y-14057793D02*
X17960658Y-14038746D01*
X17960658Y-14038746D02*
X17960658Y-14029222D01*
X17960658Y-14029222D02*
X17970182Y-14010174D01*
X17970182Y-14010174D02*
X17989230Y-14000650D01*
X17989230Y-14000650D02*
X18017801Y-14000650D01*
X18017801Y-14000650D02*
X18036849Y-14010174D01*
X18113039Y-14210174D02*
X18122563Y-14200650D01*
X18122563Y-14200650D02*
X18141611Y-14172079D01*
X18141611Y-14172079D02*
X18151134Y-14153031D01*
X18151134Y-14153031D02*
X18160658Y-14124460D01*
X18160658Y-14124460D02*
X18170182Y-14076841D01*
X18170182Y-14076841D02*
X18170182Y-14038746D01*
X18170182Y-14038746D02*
X18160658Y-13991127D01*
X18160658Y-13991127D02*
X18151134Y-13962555D01*
X18151134Y-13962555D02*
X18141611Y-13943508D01*
X18141611Y-13943508D02*
X18122563Y-13914936D01*
X18122563Y-13914936D02*
X18113039Y-13905412D01*
D12*
X13147500Y-14306500D02*
G75*
G02*
X13117500Y-14306500I-15000J0D01*
G01*
X13117500Y-14306500D02*
G75*
G02*
X13147500Y-14306500I15000J0D01*
G01*
D11*
X13446372Y-14197984D02*
X13465420Y-14197984D01*
X13465420Y-14197984D02*
X13484467Y-14207508D01*
X13484467Y-14207508D02*
X13493991Y-14217031D01*
X13493991Y-14217031D02*
X13503515Y-14236079D01*
X13503515Y-14236079D02*
X13513039Y-14274174D01*
X13513039Y-14274174D02*
X13513039Y-14321793D01*
X13513039Y-14321793D02*
X13503515Y-14359888D01*
X13503515Y-14359888D02*
X13493991Y-14378936D01*
X13493991Y-14378936D02*
X13484467Y-14388460D01*
X13484467Y-14388460D02*
X13465420Y-14397984D01*
X13465420Y-14397984D02*
X13446372Y-14397984D01*
X13446372Y-14397984D02*
X13427324Y-14388460D01*
X13427324Y-14388460D02*
X13417801Y-14378936D01*
X13417801Y-14378936D02*
X13408277Y-14359888D01*
X13408277Y-14359888D02*
X13398753Y-14321793D01*
X13398753Y-14321793D02*
X13398753Y-14274174D01*
X13398753Y-14274174D02*
X13408277Y-14236079D01*
X13408277Y-14236079D02*
X13417801Y-14217031D01*
X13417801Y-14217031D02*
X13427324Y-14207508D01*
X13427324Y-14207508D02*
X13446372Y-14197984D01*
X13598753Y-14378936D02*
X13608277Y-14388460D01*
X13608277Y-14388460D02*
X13598753Y-14397984D01*
X13598753Y-14397984D02*
X13589229Y-14388460D01*
X13589229Y-14388460D02*
X13598753Y-14378936D01*
X13598753Y-14378936D02*
X13598753Y-14397984D01*
X13674943Y-14197984D02*
X13798753Y-14197984D01*
X13798753Y-14197984D02*
X13732086Y-14274174D01*
X13732086Y-14274174D02*
X13760658Y-14274174D01*
X13760658Y-14274174D02*
X13779705Y-14283698D01*
X13779705Y-14283698D02*
X13789229Y-14293222D01*
X13789229Y-14293222D02*
X13798753Y-14312269D01*
X13798753Y-14312269D02*
X13798753Y-14359888D01*
X13798753Y-14359888D02*
X13789229Y-14378936D01*
X13789229Y-14378936D02*
X13779705Y-14388460D01*
X13779705Y-14388460D02*
X13760658Y-14397984D01*
X13760658Y-14397984D02*
X13703515Y-14397984D01*
X13703515Y-14397984D02*
X13684467Y-14388460D01*
X13684467Y-14388460D02*
X13674943Y-14378936D01*
X13922562Y-14197984D02*
X13941610Y-14197984D01*
X13941610Y-14197984D02*
X13960658Y-14207508D01*
X13960658Y-14207508D02*
X13970182Y-14217031D01*
X13970182Y-14217031D02*
X13979705Y-14236079D01*
X13979705Y-14236079D02*
X13989229Y-14274174D01*
X13989229Y-14274174D02*
X13989229Y-14321793D01*
X13989229Y-14321793D02*
X13979705Y-14359888D01*
X13979705Y-14359888D02*
X13970182Y-14378936D01*
X13970182Y-14378936D02*
X13960658Y-14388460D01*
X13960658Y-14388460D02*
X13941610Y-14397984D01*
X13941610Y-14397984D02*
X13922562Y-14397984D01*
X13922562Y-14397984D02*
X13903515Y-14388460D01*
X13903515Y-14388460D02*
X13893991Y-14378936D01*
X13893991Y-14378936D02*
X13884467Y-14359888D01*
X13884467Y-14359888D02*
X13874943Y-14321793D01*
X13874943Y-14321793D02*
X13874943Y-14274174D01*
X13874943Y-14274174D02*
X13884467Y-14236079D01*
X13884467Y-14236079D02*
X13893991Y-14217031D01*
X13893991Y-14217031D02*
X13903515Y-14207508D01*
X13903515Y-14207508D02*
X13922562Y-14197984D01*
X14113039Y-14197984D02*
X14132086Y-14197984D01*
X14132086Y-14197984D02*
X14151134Y-14207508D01*
X14151134Y-14207508D02*
X14160658Y-14217031D01*
X14160658Y-14217031D02*
X14170182Y-14236079D01*
X14170182Y-14236079D02*
X14179705Y-14274174D01*
X14179705Y-14274174D02*
X14179705Y-14321793D01*
X14179705Y-14321793D02*
X14170182Y-14359888D01*
X14170182Y-14359888D02*
X14160658Y-14378936D01*
X14160658Y-14378936D02*
X14151134Y-14388460D01*
X14151134Y-14388460D02*
X14132086Y-14397984D01*
X14132086Y-14397984D02*
X14113039Y-14397984D01*
X14113039Y-14397984D02*
X14093991Y-14388460D01*
X14093991Y-14388460D02*
X14084467Y-14378936D01*
X14084467Y-14378936D02*
X14074943Y-14359888D01*
X14074943Y-14359888D02*
X14065420Y-14321793D01*
X14065420Y-14321793D02*
X14065420Y-14274174D01*
X14065420Y-14274174D02*
X14074943Y-14236079D01*
X14074943Y-14236079D02*
X14084467Y-14217031D01*
X14084467Y-14217031D02*
X14093991Y-14207508D01*
X14093991Y-14207508D02*
X14113039Y-14197984D01*
X14265420Y-14397984D02*
X14265420Y-14264650D01*
X14265420Y-14283698D02*
X14274943Y-14274174D01*
X14274943Y-14274174D02*
X14293991Y-14264650D01*
X14293991Y-14264650D02*
X14322563Y-14264650D01*
X14322563Y-14264650D02*
X14341610Y-14274174D01*
X14341610Y-14274174D02*
X14351134Y-14293222D01*
X14351134Y-14293222D02*
X14351134Y-14397984D01*
X14351134Y-14293222D02*
X14360658Y-14274174D01*
X14360658Y-14274174D02*
X14379705Y-14264650D01*
X14379705Y-14264650D02*
X14408277Y-14264650D01*
X14408277Y-14264650D02*
X14427324Y-14274174D01*
X14427324Y-14274174D02*
X14436848Y-14293222D01*
X14436848Y-14293222D02*
X14436848Y-14397984D01*
X14532086Y-14397984D02*
X14532086Y-14264650D01*
X14532086Y-14283698D02*
X14541610Y-14274174D01*
X14541610Y-14274174D02*
X14560658Y-14264650D01*
X14560658Y-14264650D02*
X14589229Y-14264650D01*
X14589229Y-14264650D02*
X14608277Y-14274174D01*
X14608277Y-14274174D02*
X14617801Y-14293222D01*
X14617801Y-14293222D02*
X14617801Y-14397984D01*
X14617801Y-14293222D02*
X14627324Y-14274174D01*
X14627324Y-14274174D02*
X14646372Y-14264650D01*
X14646372Y-14264650D02*
X14674943Y-14264650D01*
X14674943Y-14264650D02*
X14693991Y-14274174D01*
X14693991Y-14274174D02*
X14703515Y-14293222D01*
X14703515Y-14293222D02*
X14703515Y-14397984D01*
X15093991Y-14188460D02*
X14922563Y-14445603D01*
X15351134Y-14197984D02*
X15370182Y-14197984D01*
X15370182Y-14197984D02*
X15389229Y-14207508D01*
X15389229Y-14207508D02*
X15398753Y-14217031D01*
X15398753Y-14217031D02*
X15408277Y-14236079D01*
X15408277Y-14236079D02*
X15417801Y-14274174D01*
X15417801Y-14274174D02*
X15417801Y-14321793D01*
X15417801Y-14321793D02*
X15408277Y-14359888D01*
X15408277Y-14359888D02*
X15398753Y-14378936D01*
X15398753Y-14378936D02*
X15389229Y-14388460D01*
X15389229Y-14388460D02*
X15370182Y-14397984D01*
X15370182Y-14397984D02*
X15351134Y-14397984D01*
X15351134Y-14397984D02*
X15332086Y-14388460D01*
X15332086Y-14388460D02*
X15322563Y-14378936D01*
X15322563Y-14378936D02*
X15313039Y-14359888D01*
X15313039Y-14359888D02*
X15303515Y-14321793D01*
X15303515Y-14321793D02*
X15303515Y-14274174D01*
X15303515Y-14274174D02*
X15313039Y-14236079D01*
X15313039Y-14236079D02*
X15322563Y-14217031D01*
X15322563Y-14217031D02*
X15332086Y-14207508D01*
X15332086Y-14207508D02*
X15351134Y-14197984D01*
X15503515Y-14378936D02*
X15513039Y-14388460D01*
X15513039Y-14388460D02*
X15503515Y-14397984D01*
X15503515Y-14397984D02*
X15493991Y-14388460D01*
X15493991Y-14388460D02*
X15503515Y-14378936D01*
X15503515Y-14378936D02*
X15503515Y-14397984D01*
X15636848Y-14197984D02*
X15655896Y-14197984D01*
X15655896Y-14197984D02*
X15674944Y-14207508D01*
X15674944Y-14207508D02*
X15684467Y-14217031D01*
X15684467Y-14217031D02*
X15693991Y-14236079D01*
X15693991Y-14236079D02*
X15703515Y-14274174D01*
X15703515Y-14274174D02*
X15703515Y-14321793D01*
X15703515Y-14321793D02*
X15693991Y-14359888D01*
X15693991Y-14359888D02*
X15684467Y-14378936D01*
X15684467Y-14378936D02*
X15674944Y-14388460D01*
X15674944Y-14388460D02*
X15655896Y-14397984D01*
X15655896Y-14397984D02*
X15636848Y-14397984D01*
X15636848Y-14397984D02*
X15617801Y-14388460D01*
X15617801Y-14388460D02*
X15608277Y-14378936D01*
X15608277Y-14378936D02*
X15598753Y-14359888D01*
X15598753Y-14359888D02*
X15589229Y-14321793D01*
X15589229Y-14321793D02*
X15589229Y-14274174D01*
X15589229Y-14274174D02*
X15598753Y-14236079D01*
X15598753Y-14236079D02*
X15608277Y-14217031D01*
X15608277Y-14217031D02*
X15617801Y-14207508D01*
X15617801Y-14207508D02*
X15636848Y-14197984D01*
X15893991Y-14397984D02*
X15779706Y-14397984D01*
X15836848Y-14397984D02*
X15836848Y-14197984D01*
X15836848Y-14197984D02*
X15817801Y-14226555D01*
X15817801Y-14226555D02*
X15798753Y-14245603D01*
X15798753Y-14245603D02*
X15779706Y-14255127D01*
X16084467Y-14397984D02*
X15970182Y-14397984D01*
X16027325Y-14397984D02*
X16027325Y-14197984D01*
X16027325Y-14197984D02*
X16008277Y-14226555D01*
X16008277Y-14226555D02*
X15989229Y-14245603D01*
X15989229Y-14245603D02*
X15970182Y-14255127D01*
X16198753Y-14283698D02*
X16179706Y-14274174D01*
X16179706Y-14274174D02*
X16170182Y-14264650D01*
X16170182Y-14264650D02*
X16160658Y-14245603D01*
X16160658Y-14245603D02*
X16160658Y-14236079D01*
X16160658Y-14236079D02*
X16170182Y-14217031D01*
X16170182Y-14217031D02*
X16179706Y-14207508D01*
X16179706Y-14207508D02*
X16198753Y-14197984D01*
X16198753Y-14197984D02*
X16236848Y-14197984D01*
X16236848Y-14197984D02*
X16255896Y-14207508D01*
X16255896Y-14207508D02*
X16265420Y-14217031D01*
X16265420Y-14217031D02*
X16274944Y-14236079D01*
X16274944Y-14236079D02*
X16274944Y-14245603D01*
X16274944Y-14245603D02*
X16265420Y-14264650D01*
X16265420Y-14264650D02*
X16255896Y-14274174D01*
X16255896Y-14274174D02*
X16236848Y-14283698D01*
X16236848Y-14283698D02*
X16198753Y-14283698D01*
X16198753Y-14283698D02*
X16179706Y-14293222D01*
X16179706Y-14293222D02*
X16170182Y-14302746D01*
X16170182Y-14302746D02*
X16160658Y-14321793D01*
X16160658Y-14321793D02*
X16160658Y-14359888D01*
X16160658Y-14359888D02*
X16170182Y-14378936D01*
X16170182Y-14378936D02*
X16179706Y-14388460D01*
X16179706Y-14388460D02*
X16198753Y-14397984D01*
X16198753Y-14397984D02*
X16236848Y-14397984D01*
X16236848Y-14397984D02*
X16255896Y-14388460D01*
X16255896Y-14388460D02*
X16265420Y-14378936D01*
X16265420Y-14378936D02*
X16274944Y-14359888D01*
X16274944Y-14359888D02*
X16274944Y-14321793D01*
X16274944Y-14321793D02*
X16265420Y-14302746D01*
X16265420Y-14302746D02*
X16255896Y-14293222D01*
X16255896Y-14293222D02*
X16236848Y-14283698D01*
X16351134Y-14197984D02*
X16351134Y-14236079D01*
X16427325Y-14197984D02*
X16427325Y-14236079D01*
X16722563Y-14474174D02*
X16713039Y-14464650D01*
X16713039Y-14464650D02*
X16693991Y-14436079D01*
X16693991Y-14436079D02*
X16684468Y-14417031D01*
X16684468Y-14417031D02*
X16674944Y-14388460D01*
X16674944Y-14388460D02*
X16665420Y-14340841D01*
X16665420Y-14340841D02*
X16665420Y-14302746D01*
X16665420Y-14302746D02*
X16674944Y-14255127D01*
X16674944Y-14255127D02*
X16684468Y-14226555D01*
X16684468Y-14226555D02*
X16693991Y-14207508D01*
X16693991Y-14207508D02*
X16713039Y-14178936D01*
X16713039Y-14178936D02*
X16722563Y-14169412D01*
X16827325Y-14283698D02*
X16808277Y-14274174D01*
X16808277Y-14274174D02*
X16798753Y-14264650D01*
X16798753Y-14264650D02*
X16789230Y-14245603D01*
X16789230Y-14245603D02*
X16789230Y-14236079D01*
X16789230Y-14236079D02*
X16798753Y-14217031D01*
X16798753Y-14217031D02*
X16808277Y-14207508D01*
X16808277Y-14207508D02*
X16827325Y-14197984D01*
X16827325Y-14197984D02*
X16865420Y-14197984D01*
X16865420Y-14197984D02*
X16884468Y-14207508D01*
X16884468Y-14207508D02*
X16893991Y-14217031D01*
X16893991Y-14217031D02*
X16903515Y-14236079D01*
X16903515Y-14236079D02*
X16903515Y-14245603D01*
X16903515Y-14245603D02*
X16893991Y-14264650D01*
X16893991Y-14264650D02*
X16884468Y-14274174D01*
X16884468Y-14274174D02*
X16865420Y-14283698D01*
X16865420Y-14283698D02*
X16827325Y-14283698D01*
X16827325Y-14283698D02*
X16808277Y-14293222D01*
X16808277Y-14293222D02*
X16798753Y-14302746D01*
X16798753Y-14302746D02*
X16789230Y-14321793D01*
X16789230Y-14321793D02*
X16789230Y-14359888D01*
X16789230Y-14359888D02*
X16798753Y-14378936D01*
X16798753Y-14378936D02*
X16808277Y-14388460D01*
X16808277Y-14388460D02*
X16827325Y-14397984D01*
X16827325Y-14397984D02*
X16865420Y-14397984D01*
X16865420Y-14397984D02*
X16884468Y-14388460D01*
X16884468Y-14388460D02*
X16893991Y-14378936D01*
X16893991Y-14378936D02*
X16903515Y-14359888D01*
X16903515Y-14359888D02*
X16903515Y-14321793D01*
X16903515Y-14321793D02*
X16893991Y-14302746D01*
X16893991Y-14302746D02*
X16884468Y-14293222D01*
X16884468Y-14293222D02*
X16865420Y-14283698D01*
X17074944Y-14264650D02*
X17074944Y-14397984D01*
X17027325Y-14188460D02*
X16979706Y-14331317D01*
X16979706Y-14331317D02*
X17103515Y-14331317D01*
X17332087Y-14397984D02*
X17332087Y-14197984D01*
X17417801Y-14397984D02*
X17417801Y-14293222D01*
X17417801Y-14293222D02*
X17408277Y-14274174D01*
X17408277Y-14274174D02*
X17389230Y-14264650D01*
X17389230Y-14264650D02*
X17360658Y-14264650D01*
X17360658Y-14264650D02*
X17341611Y-14274174D01*
X17341611Y-14274174D02*
X17332087Y-14283698D01*
X17541611Y-14397984D02*
X17522563Y-14388460D01*
X17522563Y-14388460D02*
X17513039Y-14378936D01*
X17513039Y-14378936D02*
X17503515Y-14359888D01*
X17503515Y-14359888D02*
X17503515Y-14302746D01*
X17503515Y-14302746D02*
X17513039Y-14283698D01*
X17513039Y-14283698D02*
X17522563Y-14274174D01*
X17522563Y-14274174D02*
X17541611Y-14264650D01*
X17541611Y-14264650D02*
X17570182Y-14264650D01*
X17570182Y-14264650D02*
X17589230Y-14274174D01*
X17589230Y-14274174D02*
X17598753Y-14283698D01*
X17598753Y-14283698D02*
X17608277Y-14302746D01*
X17608277Y-14302746D02*
X17608277Y-14359888D01*
X17608277Y-14359888D02*
X17598753Y-14378936D01*
X17598753Y-14378936D02*
X17589230Y-14388460D01*
X17589230Y-14388460D02*
X17570182Y-14397984D01*
X17570182Y-14397984D02*
X17541611Y-14397984D01*
X17722563Y-14397984D02*
X17703515Y-14388460D01*
X17703515Y-14388460D02*
X17693992Y-14369412D01*
X17693992Y-14369412D02*
X17693992Y-14197984D01*
X17874944Y-14388460D02*
X17855896Y-14397984D01*
X17855896Y-14397984D02*
X17817801Y-14397984D01*
X17817801Y-14397984D02*
X17798753Y-14388460D01*
X17798753Y-14388460D02*
X17789230Y-14369412D01*
X17789230Y-14369412D02*
X17789230Y-14293222D01*
X17789230Y-14293222D02*
X17798753Y-14274174D01*
X17798753Y-14274174D02*
X17817801Y-14264650D01*
X17817801Y-14264650D02*
X17855896Y-14264650D01*
X17855896Y-14264650D02*
X17874944Y-14274174D01*
X17874944Y-14274174D02*
X17884468Y-14293222D01*
X17884468Y-14293222D02*
X17884468Y-14312269D01*
X17884468Y-14312269D02*
X17789230Y-14331317D01*
X17960658Y-14388460D02*
X17979706Y-14397984D01*
X17979706Y-14397984D02*
X18017801Y-14397984D01*
X18017801Y-14397984D02*
X18036849Y-14388460D01*
X18036849Y-14388460D02*
X18046373Y-14369412D01*
X18046373Y-14369412D02*
X18046373Y-14359888D01*
X18046373Y-14359888D02*
X18036849Y-14340841D01*
X18036849Y-14340841D02*
X18017801Y-14331317D01*
X18017801Y-14331317D02*
X17989230Y-14331317D01*
X17989230Y-14331317D02*
X17970182Y-14321793D01*
X17970182Y-14321793D02*
X17960658Y-14302746D01*
X17960658Y-14302746D02*
X17960658Y-14293222D01*
X17960658Y-14293222D02*
X17970182Y-14274174D01*
X17970182Y-14274174D02*
X17989230Y-14264650D01*
X17989230Y-14264650D02*
X18017801Y-14264650D01*
X18017801Y-14264650D02*
X18036849Y-14274174D01*
X18113039Y-14474174D02*
X18122563Y-14464650D01*
X18122563Y-14464650D02*
X18141611Y-14436079D01*
X18141611Y-14436079D02*
X18151134Y-14417031D01*
X18151134Y-14417031D02*
X18160658Y-14388460D01*
X18160658Y-14388460D02*
X18170182Y-14340841D01*
X18170182Y-14340841D02*
X18170182Y-14302746D01*
X18170182Y-14302746D02*
X18160658Y-14255127D01*
X18160658Y-14255127D02*
X18151134Y-14226555D01*
X18151134Y-14226555D02*
X18141611Y-14207508D01*
X18141611Y-14207508D02*
X18122563Y-14178936D01*
X18122563Y-14178936D02*
X18113039Y-14169412D01*
D13*
X13088000Y-14511000D02*
X13088000Y-14630000D01*
X13028500Y-14570500D02*
X13147500Y-14570500D01*
D11*
X13513039Y-14661984D02*
X13398753Y-14661984D01*
X13455896Y-14661984D02*
X13455896Y-14461984D01*
X13455896Y-14461984D02*
X13436848Y-14490555D01*
X13436848Y-14490555D02*
X13417801Y-14509603D01*
X13417801Y-14509603D02*
X13398753Y-14519127D01*
X13598753Y-14642936D02*
X13608277Y-14652460D01*
X13608277Y-14652460D02*
X13598753Y-14661984D01*
X13598753Y-14661984D02*
X13589229Y-14652460D01*
X13589229Y-14652460D02*
X13598753Y-14642936D01*
X13598753Y-14642936D02*
X13598753Y-14661984D01*
X13798753Y-14661984D02*
X13684467Y-14661984D01*
X13741610Y-14661984D02*
X13741610Y-14461984D01*
X13741610Y-14461984D02*
X13722562Y-14490555D01*
X13722562Y-14490555D02*
X13703515Y-14509603D01*
X13703515Y-14509603D02*
X13684467Y-14519127D01*
X13893991Y-14661984D02*
X13932086Y-14661984D01*
X13932086Y-14661984D02*
X13951134Y-14652460D01*
X13951134Y-14652460D02*
X13960658Y-14642936D01*
X13960658Y-14642936D02*
X13979705Y-14614365D01*
X13979705Y-14614365D02*
X13989229Y-14576269D01*
X13989229Y-14576269D02*
X13989229Y-14500079D01*
X13989229Y-14500079D02*
X13979705Y-14481031D01*
X13979705Y-14481031D02*
X13970182Y-14471508D01*
X13970182Y-14471508D02*
X13951134Y-14461984D01*
X13951134Y-14461984D02*
X13913039Y-14461984D01*
X13913039Y-14461984D02*
X13893991Y-14471508D01*
X13893991Y-14471508D02*
X13884467Y-14481031D01*
X13884467Y-14481031D02*
X13874943Y-14500079D01*
X13874943Y-14500079D02*
X13874943Y-14547698D01*
X13874943Y-14547698D02*
X13884467Y-14566746D01*
X13884467Y-14566746D02*
X13893991Y-14576269D01*
X13893991Y-14576269D02*
X13913039Y-14585793D01*
X13913039Y-14585793D02*
X13951134Y-14585793D01*
X13951134Y-14585793D02*
X13970182Y-14576269D01*
X13970182Y-14576269D02*
X13979705Y-14566746D01*
X13979705Y-14566746D02*
X13989229Y-14547698D01*
X14113039Y-14461984D02*
X14132086Y-14461984D01*
X14132086Y-14461984D02*
X14151134Y-14471508D01*
X14151134Y-14471508D02*
X14160658Y-14481031D01*
X14160658Y-14481031D02*
X14170182Y-14500079D01*
X14170182Y-14500079D02*
X14179705Y-14538174D01*
X14179705Y-14538174D02*
X14179705Y-14585793D01*
X14179705Y-14585793D02*
X14170182Y-14623888D01*
X14170182Y-14623888D02*
X14160658Y-14642936D01*
X14160658Y-14642936D02*
X14151134Y-14652460D01*
X14151134Y-14652460D02*
X14132086Y-14661984D01*
X14132086Y-14661984D02*
X14113039Y-14661984D01*
X14113039Y-14661984D02*
X14093991Y-14652460D01*
X14093991Y-14652460D02*
X14084467Y-14642936D01*
X14084467Y-14642936D02*
X14074943Y-14623888D01*
X14074943Y-14623888D02*
X14065420Y-14585793D01*
X14065420Y-14585793D02*
X14065420Y-14538174D01*
X14065420Y-14538174D02*
X14074943Y-14500079D01*
X14074943Y-14500079D02*
X14084467Y-14481031D01*
X14084467Y-14481031D02*
X14093991Y-14471508D01*
X14093991Y-14471508D02*
X14113039Y-14461984D01*
X14265420Y-14661984D02*
X14265420Y-14528650D01*
X14265420Y-14547698D02*
X14274943Y-14538174D01*
X14274943Y-14538174D02*
X14293991Y-14528650D01*
X14293991Y-14528650D02*
X14322563Y-14528650D01*
X14322563Y-14528650D02*
X14341610Y-14538174D01*
X14341610Y-14538174D02*
X14351134Y-14557222D01*
X14351134Y-14557222D02*
X14351134Y-14661984D01*
X14351134Y-14557222D02*
X14360658Y-14538174D01*
X14360658Y-14538174D02*
X14379705Y-14528650D01*
X14379705Y-14528650D02*
X14408277Y-14528650D01*
X14408277Y-14528650D02*
X14427324Y-14538174D01*
X14427324Y-14538174D02*
X14436848Y-14557222D01*
X14436848Y-14557222D02*
X14436848Y-14661984D01*
X14532086Y-14661984D02*
X14532086Y-14528650D01*
X14532086Y-14547698D02*
X14541610Y-14538174D01*
X14541610Y-14538174D02*
X14560658Y-14528650D01*
X14560658Y-14528650D02*
X14589229Y-14528650D01*
X14589229Y-14528650D02*
X14608277Y-14538174D01*
X14608277Y-14538174D02*
X14617801Y-14557222D01*
X14617801Y-14557222D02*
X14617801Y-14661984D01*
X14617801Y-14557222D02*
X14627324Y-14538174D01*
X14627324Y-14538174D02*
X14646372Y-14528650D01*
X14646372Y-14528650D02*
X14674943Y-14528650D01*
X14674943Y-14528650D02*
X14693991Y-14538174D01*
X14693991Y-14538174D02*
X14703515Y-14557222D01*
X14703515Y-14557222D02*
X14703515Y-14661984D01*
X15093991Y-14452460D02*
X14922563Y-14709603D01*
X15351134Y-14461984D02*
X15370182Y-14461984D01*
X15370182Y-14461984D02*
X15389229Y-14471508D01*
X15389229Y-14471508D02*
X15398753Y-14481031D01*
X15398753Y-14481031D02*
X15408277Y-14500079D01*
X15408277Y-14500079D02*
X15417801Y-14538174D01*
X15417801Y-14538174D02*
X15417801Y-14585793D01*
X15417801Y-14585793D02*
X15408277Y-14623888D01*
X15408277Y-14623888D02*
X15398753Y-14642936D01*
X15398753Y-14642936D02*
X15389229Y-14652460D01*
X15389229Y-14652460D02*
X15370182Y-14661984D01*
X15370182Y-14661984D02*
X15351134Y-14661984D01*
X15351134Y-14661984D02*
X15332086Y-14652460D01*
X15332086Y-14652460D02*
X15322563Y-14642936D01*
X15322563Y-14642936D02*
X15313039Y-14623888D01*
X15313039Y-14623888D02*
X15303515Y-14585793D01*
X15303515Y-14585793D02*
X15303515Y-14538174D01*
X15303515Y-14538174D02*
X15313039Y-14500079D01*
X15313039Y-14500079D02*
X15322563Y-14481031D01*
X15322563Y-14481031D02*
X15332086Y-14471508D01*
X15332086Y-14471508D02*
X15351134Y-14461984D01*
X15503515Y-14642936D02*
X15513039Y-14652460D01*
X15513039Y-14652460D02*
X15503515Y-14661984D01*
X15503515Y-14661984D02*
X15493991Y-14652460D01*
X15493991Y-14652460D02*
X15503515Y-14642936D01*
X15503515Y-14642936D02*
X15503515Y-14661984D01*
X15636848Y-14461984D02*
X15655896Y-14461984D01*
X15655896Y-14461984D02*
X15674944Y-14471508D01*
X15674944Y-14471508D02*
X15684467Y-14481031D01*
X15684467Y-14481031D02*
X15693991Y-14500079D01*
X15693991Y-14500079D02*
X15703515Y-14538174D01*
X15703515Y-14538174D02*
X15703515Y-14585793D01*
X15703515Y-14585793D02*
X15693991Y-14623888D01*
X15693991Y-14623888D02*
X15684467Y-14642936D01*
X15684467Y-14642936D02*
X15674944Y-14652460D01*
X15674944Y-14652460D02*
X15655896Y-14661984D01*
X15655896Y-14661984D02*
X15636848Y-14661984D01*
X15636848Y-14661984D02*
X15617801Y-14652460D01*
X15617801Y-14652460D02*
X15608277Y-14642936D01*
X15608277Y-14642936D02*
X15598753Y-14623888D01*
X15598753Y-14623888D02*
X15589229Y-14585793D01*
X15589229Y-14585793D02*
X15589229Y-14538174D01*
X15589229Y-14538174D02*
X15598753Y-14500079D01*
X15598753Y-14500079D02*
X15608277Y-14481031D01*
X15608277Y-14481031D02*
X15617801Y-14471508D01*
X15617801Y-14471508D02*
X15636848Y-14461984D01*
X15874944Y-14528650D02*
X15874944Y-14661984D01*
X15827325Y-14452460D02*
X15779706Y-14595317D01*
X15779706Y-14595317D02*
X15903515Y-14595317D01*
X16065420Y-14461984D02*
X16027325Y-14461984D01*
X16027325Y-14461984D02*
X16008277Y-14471508D01*
X16008277Y-14471508D02*
X15998753Y-14481031D01*
X15998753Y-14481031D02*
X15979706Y-14509603D01*
X15979706Y-14509603D02*
X15970182Y-14547698D01*
X15970182Y-14547698D02*
X15970182Y-14623888D01*
X15970182Y-14623888D02*
X15979706Y-14642936D01*
X15979706Y-14642936D02*
X15989229Y-14652460D01*
X15989229Y-14652460D02*
X16008277Y-14661984D01*
X16008277Y-14661984D02*
X16046372Y-14661984D01*
X16046372Y-14661984D02*
X16065420Y-14652460D01*
X16065420Y-14652460D02*
X16074944Y-14642936D01*
X16074944Y-14642936D02*
X16084467Y-14623888D01*
X16084467Y-14623888D02*
X16084467Y-14576269D01*
X16084467Y-14576269D02*
X16074944Y-14557222D01*
X16074944Y-14557222D02*
X16065420Y-14547698D01*
X16065420Y-14547698D02*
X16046372Y-14538174D01*
X16046372Y-14538174D02*
X16008277Y-14538174D01*
X16008277Y-14538174D02*
X15989229Y-14547698D01*
X15989229Y-14547698D02*
X15979706Y-14557222D01*
X15979706Y-14557222D02*
X15970182Y-14576269D01*
X16179706Y-14661984D02*
X16217801Y-14661984D01*
X16217801Y-14661984D02*
X16236848Y-14652460D01*
X16236848Y-14652460D02*
X16246372Y-14642936D01*
X16246372Y-14642936D02*
X16265420Y-14614365D01*
X16265420Y-14614365D02*
X16274944Y-14576269D01*
X16274944Y-14576269D02*
X16274944Y-14500079D01*
X16274944Y-14500079D02*
X16265420Y-14481031D01*
X16265420Y-14481031D02*
X16255896Y-14471508D01*
X16255896Y-14471508D02*
X16236848Y-14461984D01*
X16236848Y-14461984D02*
X16198753Y-14461984D01*
X16198753Y-14461984D02*
X16179706Y-14471508D01*
X16179706Y-14471508D02*
X16170182Y-14481031D01*
X16170182Y-14481031D02*
X16160658Y-14500079D01*
X16160658Y-14500079D02*
X16160658Y-14547698D01*
X16160658Y-14547698D02*
X16170182Y-14566746D01*
X16170182Y-14566746D02*
X16179706Y-14576269D01*
X16179706Y-14576269D02*
X16198753Y-14585793D01*
X16198753Y-14585793D02*
X16236848Y-14585793D01*
X16236848Y-14585793D02*
X16255896Y-14576269D01*
X16255896Y-14576269D02*
X16265420Y-14566746D01*
X16265420Y-14566746D02*
X16274944Y-14547698D01*
X16351134Y-14461984D02*
X16351134Y-14500079D01*
X16427325Y-14461984D02*
X16427325Y-14500079D01*
X16722563Y-14738174D02*
X16713039Y-14728650D01*
X16713039Y-14728650D02*
X16693991Y-14700079D01*
X16693991Y-14700079D02*
X16684468Y-14681031D01*
X16684468Y-14681031D02*
X16674944Y-14652460D01*
X16674944Y-14652460D02*
X16665420Y-14604841D01*
X16665420Y-14604841D02*
X16665420Y-14566746D01*
X16665420Y-14566746D02*
X16674944Y-14519127D01*
X16674944Y-14519127D02*
X16684468Y-14490555D01*
X16684468Y-14490555D02*
X16693991Y-14471508D01*
X16693991Y-14471508D02*
X16713039Y-14442936D01*
X16713039Y-14442936D02*
X16722563Y-14433412D01*
X16903515Y-14661984D02*
X16789230Y-14661984D01*
X16846372Y-14661984D02*
X16846372Y-14461984D01*
X16846372Y-14461984D02*
X16827325Y-14490555D01*
X16827325Y-14490555D02*
X16808277Y-14509603D01*
X16808277Y-14509603D02*
X16789230Y-14519127D01*
X16979706Y-14481031D02*
X16989230Y-14471508D01*
X16989230Y-14471508D02*
X17008277Y-14461984D01*
X17008277Y-14461984D02*
X17055896Y-14461984D01*
X17055896Y-14461984D02*
X17074944Y-14471508D01*
X17074944Y-14471508D02*
X17084468Y-14481031D01*
X17084468Y-14481031D02*
X17093991Y-14500079D01*
X17093991Y-14500079D02*
X17093991Y-14519127D01*
X17093991Y-14519127D02*
X17084468Y-14547698D01*
X17084468Y-14547698D02*
X16970182Y-14661984D01*
X16970182Y-14661984D02*
X17093991Y-14661984D01*
X17332087Y-14661984D02*
X17332087Y-14461984D01*
X17417801Y-14661984D02*
X17417801Y-14557222D01*
X17417801Y-14557222D02*
X17408277Y-14538174D01*
X17408277Y-14538174D02*
X17389230Y-14528650D01*
X17389230Y-14528650D02*
X17360658Y-14528650D01*
X17360658Y-14528650D02*
X17341611Y-14538174D01*
X17341611Y-14538174D02*
X17332087Y-14547698D01*
X17541611Y-14661984D02*
X17522563Y-14652460D01*
X17522563Y-14652460D02*
X17513039Y-14642936D01*
X17513039Y-14642936D02*
X17503515Y-14623888D01*
X17503515Y-14623888D02*
X17503515Y-14566746D01*
X17503515Y-14566746D02*
X17513039Y-14547698D01*
X17513039Y-14547698D02*
X17522563Y-14538174D01*
X17522563Y-14538174D02*
X17541611Y-14528650D01*
X17541611Y-14528650D02*
X17570182Y-14528650D01*
X17570182Y-14528650D02*
X17589230Y-14538174D01*
X17589230Y-14538174D02*
X17598753Y-14547698D01*
X17598753Y-14547698D02*
X17608277Y-14566746D01*
X17608277Y-14566746D02*
X17608277Y-14623888D01*
X17608277Y-14623888D02*
X17598753Y-14642936D01*
X17598753Y-14642936D02*
X17589230Y-14652460D01*
X17589230Y-14652460D02*
X17570182Y-14661984D01*
X17570182Y-14661984D02*
X17541611Y-14661984D01*
X17722563Y-14661984D02*
X17703515Y-14652460D01*
X17703515Y-14652460D02*
X17693992Y-14633412D01*
X17693992Y-14633412D02*
X17693992Y-14461984D01*
X17874944Y-14652460D02*
X17855896Y-14661984D01*
X17855896Y-14661984D02*
X17817801Y-14661984D01*
X17817801Y-14661984D02*
X17798753Y-14652460D01*
X17798753Y-14652460D02*
X17789230Y-14633412D01*
X17789230Y-14633412D02*
X17789230Y-14557222D01*
X17789230Y-14557222D02*
X17798753Y-14538174D01*
X17798753Y-14538174D02*
X17817801Y-14528650D01*
X17817801Y-14528650D02*
X17855896Y-14528650D01*
X17855896Y-14528650D02*
X17874944Y-14538174D01*
X17874944Y-14538174D02*
X17884468Y-14557222D01*
X17884468Y-14557222D02*
X17884468Y-14576269D01*
X17884468Y-14576269D02*
X17789230Y-14595317D01*
X17960658Y-14652460D02*
X17979706Y-14661984D01*
X17979706Y-14661984D02*
X18017801Y-14661984D01*
X18017801Y-14661984D02*
X18036849Y-14652460D01*
X18036849Y-14652460D02*
X18046373Y-14633412D01*
X18046373Y-14633412D02*
X18046373Y-14623888D01*
X18046373Y-14623888D02*
X18036849Y-14604841D01*
X18036849Y-14604841D02*
X18017801Y-14595317D01*
X18017801Y-14595317D02*
X17989230Y-14595317D01*
X17989230Y-14595317D02*
X17970182Y-14585793D01*
X17970182Y-14585793D02*
X17960658Y-14566746D01*
X17960658Y-14566746D02*
X17960658Y-14557222D01*
X17960658Y-14557222D02*
X17970182Y-14538174D01*
X17970182Y-14538174D02*
X17989230Y-14528650D01*
X17989230Y-14528650D02*
X18017801Y-14528650D01*
X18017801Y-14528650D02*
X18036849Y-14538174D01*
X18113039Y-14738174D02*
X18122563Y-14728650D01*
X18122563Y-14728650D02*
X18141611Y-14700079D01*
X18141611Y-14700079D02*
X18151134Y-14681031D01*
X18151134Y-14681031D02*
X18160658Y-14652460D01*
X18160658Y-14652460D02*
X18170182Y-14604841D01*
X18170182Y-14604841D02*
X18170182Y-14566746D01*
X18170182Y-14566746D02*
X18160658Y-14519127D01*
X18160658Y-14519127D02*
X18151134Y-14490555D01*
X18151134Y-14490555D02*
X18141611Y-14471508D01*
X18141611Y-14471508D02*
X18122563Y-14442936D01*
X18122563Y-14442936D02*
X18113039Y-14433412D01*
M02*
