M48
; DRILL file {KiCad 9.0.1} date 2025-04-06T10:41:47+0200
; FORMAT={-:-/ absolute / metric / decimal}
; #@! TF.CreationDate,2025-04-06T10:41:47+02:00
; #@! TF.GenerationSoftware,Kicad,Pcbnew,9.0.1
; #@! TF.FileFunction,Plated,1,2,PTH
FMAT,2
METRIC
; #@! TA.AperFunction,Plated,PTH,ComponentDrill
T1C0.200
; #@! TA.AperFunction,Plated,PTH,ViaDrill
T2C0.400
; #@! TA.AperFunction,Plated,PTH,ComponentDrill
T3C0.760
; #@! TA.AperFunction,Plated,PTH,ComponentDrill
T4C0.889
; #@! TA.AperFunction,Plated,PTH,ComponentDrill
T5C0.900
; #@! TA.AperFunction,Plated,PTH,ComponentDrill
T6C0.990
; #@! TA.AperFunction,Plated,PTH,ComponentDrill
T7C1.020
; #@! TA.AperFunction,Plated,PTH,ComponentDrill
T8C1.300
; #@! TA.AperFunction,Plated,PTH,ComponentDrill
T9C1.397
%
G90
G05
T1
X71.85Y-89.612
X71.85Y-91.138
X72.612Y-88.85
X72.612Y-90.375
X72.612Y-91.9
X73.375Y-89.612
X73.375Y-91.138
X74.138Y-88.85
X74.138Y-90.375
X74.138Y-91.9
X74.9Y-89.612
X74.9Y-91.138
T2
X35.0Y-87.5
X50.0Y-125.0
X51.0Y-121.0
X54.6Y-124.5
X55.656Y-121.76
X56.5Y-124.7
X56.6Y-121.7
X56.7Y-123.075
X58.45Y-130.834
X59.53Y-131.727
X60.7Y-82.8
X60.9Y-90.8
X61.0Y-84.2
X61.5Y-127.0
X64.5Y-120.5
X66.1Y-104.2
X66.5Y-84.4
X67.0Y-93.3
X67.0Y-125.5
X68.5Y-99.5
X70.2Y-129.25
X70.3Y-102.3
X72.1Y-102.8
X77.4Y-102.9
X79.0Y-122.0
X79.5Y-95.8
X80.1Y-85.6
X80.9Y-97.9
X81.4Y-129.4
X84.6Y-98.3
X84.973Y-90.3
X85.0Y-122.0
X85.1Y-86.7
X85.4Y-85.5
X85.6Y-87.97
X85.7Y-94.5
X87.0Y-90.1
X87.3Y-92.3
X89.1Y-89.1
X92.9Y-85.5
X103.6Y-89.3
X113.0Y-123.8
T3
X87.76Y-135.5
X90.3Y-135.5
X92.84Y-135.5
X97.95Y-135.5
X100.49Y-135.5
X103.03Y-135.5
T4
X38.59Y-102.46
X38.59Y-105.0
X38.59Y-107.54
X46.21Y-115.16
X48.75Y-115.16
X51.29Y-115.16
X94.02Y-102.46
X94.02Y-105.0
X94.02Y-107.54
X101.64Y-115.16
X104.18Y-115.16
X106.72Y-115.16
T5
X45.575Y-92.3
X45.575Y-97.38
X51.925Y-92.3
X51.925Y-97.38
X101.005Y-92.3
X101.005Y-97.38
X107.355Y-92.3
X107.355Y-97.38
T6
X40.525Y-84.112
X45.025Y-84.112
X109.725Y-82.962
X114.225Y-82.962
T7
X78.0Y-139.96
X81.0Y-139.96
T8
X39.275Y-86.602
X46.285Y-86.602
X108.475Y-85.453
X115.485Y-85.453
T9
X41.13Y-98.332
X41.13Y-111.667
X56.37Y-98.332
X56.37Y-111.667
X96.56Y-98.332
X96.56Y-111.667
X111.8Y-98.332
X111.8Y-111.667
M30
