%TF.GenerationSoftware,KiCad,Pcbnew,9.0.1*%
%TF.CreationDate,2025-04-06T10:41:45+02:00*%
%TF.ProjectId,RcSender,52635365-6e64-4657-922e-6b696361645f,rev?*%
%TF.SameCoordinates,Original*%
%TF.FileFunction,Copper,L2,Bot*%
%TF.FilePolarity,Positive*%
%FSLAX46Y46*%
G04 Gerber Fmt 4.6, Leading zero omitted, Abs format (unit mm)*
G04 Created by KiCad (PCBNEW 9.0.1) date 2025-04-06 10:41:45*
%MOMM*%
%LPD*%
G01*
G04 APERTURE LIST*
G04 Aperture macros list*
%AMRoundRect*
0 Rectangle with rounded corners*
0 $1 Rounding radius*
0 $2 $3 $4 $5 $6 $7 $8 $9 X,Y pos of 4 corners*
0 Add a 4 corners polygon primitive as box body*
4,1,4,$2,$3,$4,$5,$6,$7,$8,$9,$2,$3,0*
0 Add four circle primitives for the rounded corners*
1,1,$1+$1,$2,$3*
1,1,$1+$1,$4,$5*
1,1,$1+$1,$6,$7*
1,1,$1+$1,$8,$9*
0 Add four rect primitives between the rounded corners*
20,1,$1+$1,$2,$3,$4,$5,0*
20,1,$1+$1,$4,$5,$6,$7,0*
20,1,$1+$1,$6,$7,$8,$9,0*
20,1,$1+$1,$8,$9,$2,$3,0*%
G04 Aperture macros list end*
%TA.AperFunction,ComponentPad*%
%ADD10R,1.268000X1.268000*%
%TD*%
%TA.AperFunction,ComponentPad*%
%ADD11C,1.268000*%
%TD*%
%TA.AperFunction,HeatsinkPad*%
%ADD12C,0.600000*%
%TD*%
%TA.AperFunction,ComponentPad*%
%ADD13C,2.100000*%
%TD*%
%TA.AperFunction,ComponentPad*%
%ADD14C,1.750000*%
%TD*%
%TA.AperFunction,ComponentPad*%
%ADD15RoundRect,0.250001X-0.499999X-0.759999X0.499999X-0.759999X0.499999X0.759999X-0.499999X0.759999X0*%
%TD*%
%TA.AperFunction,ComponentPad*%
%ADD16O,1.500000X2.020000*%
%TD*%
%TA.AperFunction,ComponentPad*%
%ADD17C,1.778000*%
%TD*%
%TA.AperFunction,ComponentPad*%
%ADD18C,2.286000*%
%TD*%
%TA.AperFunction,ViaPad*%
%ADD19C,0.800000*%
%TD*%
%TA.AperFunction,Conductor*%
%ADD20C,0.250000*%
%TD*%
%TA.AperFunction,Conductor*%
%ADD21C,0.254000*%
%TD*%
G04 APERTURE END LIST*
D10*
%TO.P,POT1,1*%
%TO.N,+3.3V*%
X97950000Y-135500000D03*
D11*
%TO.P,POT1,2*%
%TO.N,IO5*%
X100490000Y-135500000D03*
%TO.P,POT1,3*%
%TO.N,GND*%
X103030000Y-135500000D03*
%TD*%
D12*
%TO.P,U4,39,GND*%
%TO.N,GND*%
X71850000Y-89612500D03*
X71850000Y-91137500D03*
X72612500Y-88850000D03*
X72612500Y-90375000D03*
X72612500Y-91900000D03*
X73375000Y-89612500D03*
X73375000Y-91137500D03*
X74137500Y-88850000D03*
X74137500Y-90375000D03*
X74137500Y-91900000D03*
X74900000Y-89612500D03*
X74900000Y-91137500D03*
%TD*%
D13*
%TO.P,SW1,*%
%TO.N,*%
X39275000Y-86602500D03*
X46285000Y-86602500D03*
D14*
%TO.P,SW1,1,1*%
%TO.N,IO15*%
X40525000Y-84112500D03*
%TO.P,SW1,2,2*%
%TO.N,GND*%
X45025000Y-84112500D03*
%TD*%
D15*
%TO.P,J2,1,Pin_1*%
%TO.N,GND*%
X78000000Y-139960000D03*
D16*
%TO.P,J2,2,Pin_2*%
%TO.N,VIN*%
X81000000Y-139960000D03*
%TD*%
D17*
%TO.P,U5,B1A,SEL+*%
%TO.N,IO35*%
X45575000Y-92300000D03*
%TO.P,U5,B1B*%
%TO.N,N/C*%
X51925000Y-92300000D03*
%TO.P,U5,B2A,SEL-*%
%TO.N,GND*%
X45575000Y-97380000D03*
%TO.P,U5,B2B*%
%TO.N,N/C*%
X51925000Y-97380000D03*
%TO.P,U5,H1,H+*%
%TO.N,+3.3V*%
X46210000Y-115160000D03*
%TO.P,U5,H2,H*%
%TO.N,IO17*%
X48750000Y-115160000D03*
%TO.P,U5,H3,H-*%
%TO.N,GND*%
X51290000Y-115160000D03*
D18*
%TO.P,U5,S1,SHIELD*%
%TO.N,unconnected-(U5-SHIELD-PadS1)_2*%
X41130000Y-98332500D03*
%TO.P,U5,S2,SHIELD*%
%TO.N,unconnected-(U5-SHIELD-PadS1)*%
X41130000Y-111667500D03*
%TO.P,U5,S3,SHIELD*%
%TO.N,unconnected-(U5-SHIELD-PadS1)_1*%
X56370000Y-111667500D03*
%TO.P,U5,S4,SHIELD*%
%TO.N,unconnected-(U5-SHIELD-PadS1)_3*%
X56370000Y-98332500D03*
D17*
%TO.P,U5,V1,V+*%
%TO.N,+3.3V*%
X38590000Y-102460000D03*
%TO.P,U5,V2,V*%
%TO.N,IO18*%
X38590000Y-105000000D03*
%TO.P,U5,V3,V-*%
%TO.N,GND*%
X38590000Y-107540000D03*
%TD*%
%TO.P,U6,B1A,SEL+*%
%TO.N,IO19*%
X101005000Y-92300000D03*
%TO.P,U6,B1B*%
%TO.N,N/C*%
X107355000Y-92300000D03*
%TO.P,U6,B2A,SEL-*%
%TO.N,GND*%
X101005000Y-97380000D03*
%TO.P,U6,B2B*%
%TO.N,N/C*%
X107355000Y-97380000D03*
%TO.P,U6,H1,H+*%
%TO.N,+3.3V*%
X101640000Y-115160000D03*
%TO.P,U6,H2,H*%
%TO.N,IO16*%
X104180000Y-115160000D03*
%TO.P,U6,H3,H-*%
%TO.N,GND*%
X106720000Y-115160000D03*
D18*
%TO.P,U6,S1,SHIELD*%
%TO.N,unconnected-(U6-SHIELD-PadS1)_1*%
X96560000Y-98332500D03*
%TO.P,U6,S2,SHIELD*%
%TO.N,unconnected-(U6-SHIELD-PadS1)_3*%
X96560000Y-111667500D03*
%TO.P,U6,S3,SHIELD*%
%TO.N,unconnected-(U6-SHIELD-PadS1)*%
X111800000Y-111667500D03*
%TO.P,U6,S4,SHIELD*%
%TO.N,unconnected-(U6-SHIELD-PadS1)_2*%
X111800000Y-98332500D03*
D17*
%TO.P,U6,V1,V+*%
%TO.N,+3.3V*%
X94020000Y-102460000D03*
%TO.P,U6,V2,V*%
%TO.N,IO14*%
X94020000Y-105000000D03*
%TO.P,U6,V3,V-*%
%TO.N,GND*%
X94020000Y-107540000D03*
%TD*%
D13*
%TO.P,SW2,*%
%TO.N,*%
X108475000Y-85452500D03*
X115485000Y-85452500D03*
D14*
%TO.P,SW2,1,1*%
%TO.N,IO13*%
X109725000Y-82962500D03*
%TO.P,SW2,2,2*%
%TO.N,GND*%
X114225000Y-82962500D03*
%TD*%
D10*
%TO.P,POT2,1*%
%TO.N,+3.3V*%
X87760000Y-135500000D03*
D11*
%TO.P,POT2,2*%
%TO.N,IO4*%
X90300000Y-135500000D03*
%TO.P,POT2,3*%
%TO.N,GND*%
X92840000Y-135500000D03*
%TD*%
D19*
%TO.N,GND*%
X68500000Y-99500000D03*
%TO.N,BT*%
X89100000Y-89100000D03*
X80900316Y-97900316D03*
X56500000Y-124700000D03*
%TO.N,+3.3V*%
X92900000Y-85500000D03*
X72100000Y-102800000D03*
X79000000Y-122000000D03*
X64500000Y-120500000D03*
X51000000Y-121000000D03*
X70200000Y-129250000D03*
X85000000Y-122000000D03*
X60700000Y-82800000D03*
X35000000Y-87500000D03*
X113000000Y-123800000D03*
X61000000Y-84200000D03*
X81400000Y-129400000D03*
X67000000Y-125500000D03*
X66500000Y-84400000D03*
X60900000Y-90800000D03*
X103600000Y-89300000D03*
X61500000Y-127000000D03*
%TO.N,EN*%
X80100000Y-85600000D03*
X85400000Y-85500000D03*
%TO.N,RX*%
X85600000Y-87970000D03*
X56700000Y-123075000D03*
%TO.N,TX*%
X55655715Y-121760400D03*
X85100000Y-86700000D03*
%TO.N,IO13*%
X84973000Y-90300000D03*
X70300000Y-102300000D03*
X87000000Y-90100000D03*
%TO.N,IO15*%
X66100000Y-104200000D03*
%TO.N,IO5*%
X85700000Y-94500000D03*
%TO.N,Net-(J1-D+)*%
X59529585Y-131727000D03*
X58449999Y-130834289D03*
%TO.N,Net-(Q1A-E1)*%
X56600000Y-121700000D03*
X54600000Y-124500000D03*
%TO.N,IO4*%
X84600000Y-98300000D03*
%TO.N,IO17*%
X79500000Y-95800000D03*
%TO.N,IO18*%
X67000000Y-93300000D03*
%TO.N,IO2*%
X50000000Y-125000000D03*
X77400000Y-102900000D03*
%TO.N,IO19*%
X87300000Y-92300000D03*
%TD*%
D20*
%TO.N,GND*%
X74137500Y-91900000D02*
X72612500Y-91900000D01*
X72612500Y-90375000D02*
X71850000Y-89612500D01*
X73375000Y-89612500D02*
X72612500Y-90375000D01*
X74900000Y-91137500D02*
X74900000Y-89612500D01*
X74137500Y-88850000D02*
X72612500Y-88850000D01*
X68500000Y-99500000D02*
X68500000Y-94487500D01*
X74137500Y-90375000D02*
X73375000Y-91137500D01*
X74137500Y-91900000D02*
X74900000Y-91137500D01*
X74900000Y-89612500D02*
X74137500Y-88850000D01*
X73375000Y-89612500D02*
X74137500Y-90375000D01*
X72612500Y-88850000D02*
X71850000Y-89612500D01*
X68500000Y-94487500D02*
X71850000Y-91137500D01*
X72612500Y-91900000D02*
X71850000Y-91137500D01*
D21*
%TO.N,BT*%
X83207276Y-95207276D02*
X89100000Y-89314552D01*
X57327000Y-121087552D02*
X83207276Y-95207276D01*
X57327000Y-123873000D02*
X57327000Y-121087552D01*
X56500000Y-124700000D02*
X57327000Y-123873000D01*
X89100000Y-89314552D02*
X89100000Y-89100000D01*
D20*
%TO.N,+3.3V*%
X61200000Y-84400000D02*
X61000000Y-84200000D01*
X60700000Y-82800000D02*
X60700000Y-83900000D01*
X60700000Y-83900000D02*
X61000000Y-84200000D01*
X66500000Y-84400000D02*
X61200000Y-84400000D01*
X60900000Y-90800000D02*
X61000000Y-90700000D01*
X61000000Y-90700000D02*
X61000000Y-84200000D01*
%TO.N,EN*%
X85300000Y-85600000D02*
X85400000Y-85500000D01*
X80100000Y-85600000D02*
X85300000Y-85600000D01*
D21*
%TO.N,RX*%
X53973000Y-124759712D02*
X53973000Y-121927000D01*
X85600000Y-91813288D02*
X85600000Y-87970000D01*
X57213288Y-120200000D02*
X85600000Y-91813288D01*
X56700000Y-123286712D02*
X54859712Y-125127000D01*
X53973000Y-121927000D02*
X55700000Y-120200000D01*
X54859712Y-125127000D02*
X54340288Y-125127000D01*
X55700000Y-120200000D02*
X57213288Y-120200000D01*
X56700000Y-123075000D02*
X56700000Y-123286712D01*
X54340288Y-125127000D02*
X53973000Y-124759712D01*
%TO.N,TX*%
X55655715Y-121757573D02*
X56859288Y-120554000D01*
X56859288Y-120554000D02*
X57359920Y-120554000D01*
X55655715Y-121760400D02*
X55655715Y-121757573D01*
X85300000Y-86700000D02*
X85100000Y-86700000D01*
X57359920Y-120554000D02*
X86227000Y-91686920D01*
X86227000Y-87627000D02*
X85300000Y-86700000D01*
X86227000Y-91686920D02*
X86227000Y-87627000D01*
D20*
%TO.N,IO13*%
X85000000Y-90600000D02*
X85000000Y-90700000D01*
X94137500Y-82962500D02*
X109725000Y-82962500D01*
X80157742Y-96757742D02*
X85000000Y-91915484D01*
X74807742Y-102107742D02*
X80157742Y-96757742D01*
X85000000Y-90700000D02*
X85000000Y-90327000D01*
X70492258Y-102107742D02*
X74807742Y-102107742D01*
X85000000Y-91915484D02*
X85000000Y-90600000D01*
X85000000Y-90327000D02*
X84973000Y-90300000D01*
X87000000Y-90100000D02*
X94137500Y-82962500D01*
X70300000Y-102300000D02*
X70492258Y-102107742D01*
%TO.N,IO15*%
X37200000Y-108300000D02*
X37200000Y-91383500D01*
X62000000Y-108300000D02*
X39405434Y-108300000D01*
X37554000Y-108654000D02*
X37200000Y-108300000D01*
X37200000Y-91383500D02*
X41399999Y-87183501D01*
X39051434Y-108654000D02*
X37554000Y-108654000D01*
X41399999Y-84987499D02*
X40525000Y-84112500D01*
X66100000Y-104200000D02*
X62000000Y-108300000D01*
X41399999Y-87183501D02*
X41399999Y-84987499D01*
X39405434Y-108300000D02*
X39051434Y-108654000D01*
%TO.N,IO5*%
X85700000Y-94500000D02*
X85700000Y-95800000D01*
X96090000Y-130890000D02*
X96090000Y-131100000D01*
X85700000Y-95800000D02*
X90800000Y-100900000D01*
X96090000Y-131100000D02*
X100490000Y-135500000D01*
X90800000Y-125600000D02*
X96090000Y-130890000D01*
X90800000Y-100900000D02*
X90800000Y-125600000D01*
D21*
%TO.N,Net-(J1-D+)*%
X59342710Y-131727000D02*
X58449999Y-130834289D01*
X59529585Y-131727000D02*
X59342710Y-131727000D01*
D20*
%TO.N,Net-(Q1A-E1)*%
X54600000Y-124500000D02*
X54600000Y-123700000D01*
X54600000Y-123700000D02*
X56600000Y-121700000D01*
%TO.N,IO4*%
X90300000Y-104000000D02*
X84600000Y-98300000D01*
X90300000Y-135500000D02*
X90300000Y-104000000D01*
%TO.N,IO17*%
X74400000Y-96900000D02*
X62650000Y-108650000D01*
X55260000Y-108650000D02*
X48750000Y-115160000D01*
X79500000Y-95800000D02*
X78400000Y-96900000D01*
X78400000Y-96900000D02*
X74400000Y-96900000D01*
X62650000Y-108650000D02*
X55260000Y-108650000D01*
%TO.N,IO18*%
X40800434Y-105000000D02*
X38590000Y-105000000D01*
X52500434Y-93300000D02*
X40800434Y-105000000D01*
X67000000Y-93300000D02*
X52500434Y-93300000D01*
%TO.N,IO2*%
X68500000Y-110413770D02*
X76013770Y-102900000D01*
X67459298Y-126226000D02*
X68500000Y-125185298D01*
X76013770Y-102900000D02*
X77400000Y-102900000D01*
X68500000Y-125185298D02*
X68500000Y-110413770D01*
X50000000Y-125000000D02*
X51226000Y-126226000D01*
X51226000Y-126226000D02*
X67459298Y-126226000D01*
D21*
%TO.N,IO19*%
X101005000Y-92300000D02*
X87300000Y-92300000D01*
%TD*%
%TA.AperFunction,Conductor*%
%TO.N,+3.3V*%
G36*
X109550523Y-81785185D02*
G01*
X109596278Y-81837989D01*
X109606222Y-81907147D01*
X109577197Y-81970703D01*
X109518419Y-82008477D01*
X109507675Y-82011117D01*
X109440464Y-82024486D01*
X109440452Y-82024489D01*
X109262931Y-82098020D01*
X109262929Y-82098021D01*
X109103155Y-82204779D01*
X109103151Y-82204782D01*
X108967282Y-82340651D01*
X108967279Y-82340655D01*
X108860521Y-82500429D01*
X108860520Y-82500431D01*
X108794239Y-82660452D01*
X108750399Y-82714856D01*
X108684105Y-82736921D01*
X108679678Y-82737000D01*
X94182354Y-82737000D01*
X94092645Y-82737000D01*
X94092643Y-82737000D01*
X94092641Y-82737001D01*
X94009766Y-82771327D01*
X87207766Y-89573327D01*
X87146443Y-89606812D01*
X87087996Y-89605422D01*
X87065893Y-89599500D01*
X87065892Y-89599500D01*
X86934108Y-89599500D01*
X86806812Y-89633608D01*
X86692686Y-89699500D01*
X86692683Y-89699502D01*
X86666181Y-89726005D01*
X86604858Y-89759490D01*
X86535166Y-89754506D01*
X86479233Y-89712634D01*
X86454816Y-89647170D01*
X86454500Y-89638324D01*
X86454500Y-87581748D01*
X86454498Y-87581742D01*
X86441434Y-87550202D01*
X86441432Y-87550199D01*
X86419866Y-87498132D01*
X85636819Y-86715085D01*
X85603334Y-86653762D01*
X85602080Y-86642099D01*
X85601561Y-86642168D01*
X85600500Y-86634115D01*
X85600500Y-86634108D01*
X85566392Y-86506814D01*
X85500500Y-86392686D01*
X85407314Y-86299500D01*
X85407312Y-86299499D01*
X85407310Y-86299497D01*
X85305795Y-86240887D01*
X85305792Y-86240886D01*
X85293186Y-86233608D01*
X85165892Y-86199500D01*
X85034108Y-86199500D01*
X84906812Y-86233608D01*
X84792686Y-86299500D01*
X84792683Y-86299502D01*
X84699502Y-86392683D01*
X84699500Y-86392686D01*
X84633608Y-86506812D01*
X84599500Y-86634108D01*
X84599500Y-86765891D01*
X84633608Y-86893187D01*
X84666554Y-86950250D01*
X84699500Y-87007314D01*
X84792686Y-87100500D01*
X84906814Y-87166392D01*
X85034108Y-87200500D01*
X85034110Y-87200500D01*
X85165890Y-87200500D01*
X85165892Y-87200500D01*
X85293186Y-87166392D01*
X85306811Y-87158525D01*
X85333872Y-87151958D01*
X85359967Y-87142226D01*
X85367357Y-87143833D01*
X85374708Y-87142050D01*
X85401025Y-87151157D01*
X85428240Y-87157077D01*
X85436929Y-87163581D01*
X85440736Y-87164899D01*
X85456489Y-87178223D01*
X85550748Y-87272482D01*
X85584232Y-87333802D01*
X85579248Y-87403494D01*
X85537377Y-87459428D01*
X85495160Y-87479935D01*
X85406814Y-87503608D01*
X85406812Y-87503608D01*
X85406812Y-87503609D01*
X85292686Y-87569500D01*
X85292683Y-87569502D01*
X85199502Y-87662683D01*
X85199500Y-87662686D01*
X85133608Y-87776812D01*
X85099500Y-87904108D01*
X85099500Y-88035891D01*
X85133608Y-88163187D01*
X85166554Y-88220250D01*
X85199500Y-88277314D01*
X85199502Y-88277316D01*
X85292686Y-88370500D01*
X85310499Y-88380784D01*
X85358715Y-88431351D01*
X85372500Y-88488172D01*
X85372500Y-89737948D01*
X85352815Y-89804987D01*
X85300011Y-89850742D01*
X85230853Y-89860686D01*
X85186502Y-89845336D01*
X85166191Y-89833610D01*
X85166188Y-89833609D01*
X85166187Y-89833608D01*
X85166186Y-89833608D01*
X85038892Y-89799500D01*
X84907108Y-89799500D01*
X84779812Y-89833608D01*
X84665686Y-89899500D01*
X84665683Y-89899502D01*
X84572502Y-89992683D01*
X84572500Y-89992686D01*
X84506608Y-90106812D01*
X84472500Y-90234108D01*
X84472500Y-90365891D01*
X84506608Y-90493187D01*
X84527624Y-90529587D01*
X84572500Y-90607314D01*
X84665686Y-90700500D01*
X84665687Y-90700501D01*
X84665689Y-90700502D01*
X84671324Y-90703755D01*
X84712499Y-90727527D01*
X84760714Y-90778092D01*
X84774500Y-90834914D01*
X84774500Y-91770717D01*
X84754815Y-91837756D01*
X84738181Y-91858398D01*
X74750656Y-101845923D01*
X74689333Y-101879408D01*
X74662975Y-101882242D01*
X70610648Y-101882242D01*
X70548648Y-101865629D01*
X70514516Y-101845923D01*
X70493187Y-101833608D01*
X70429539Y-101816554D01*
X70365892Y-101799500D01*
X70234108Y-101799500D01*
X70114617Y-101831517D01*
X70044767Y-101829854D01*
X69986905Y-101790691D01*
X69959401Y-101726462D01*
X69970988Y-101657560D01*
X69994839Y-101624065D01*
X74457087Y-97161819D01*
X74518410Y-97128334D01*
X74544768Y-97125500D01*
X78355143Y-97125500D01*
X78355145Y-97125501D01*
X78444855Y-97125501D01*
X78503460Y-97101225D01*
X78527736Y-97091170D01*
X78591170Y-97027736D01*
X78591170Y-97027735D01*
X78608608Y-97010297D01*
X78608610Y-97010294D01*
X79292234Y-96326669D01*
X79353555Y-96293186D01*
X79412006Y-96294577D01*
X79434108Y-96300500D01*
X79434110Y-96300500D01*
X79565890Y-96300500D01*
X79565892Y-96300500D01*
X79693186Y-96266392D01*
X79807314Y-96200500D01*
X79900500Y-96107314D01*
X79966392Y-95993186D01*
X80000500Y-95865892D01*
X80000500Y-95734108D01*
X79966392Y-95606814D01*
X79900500Y-95492686D01*
X79807314Y-95399500D01*
X79750250Y-95366554D01*
X79693187Y-95333608D01*
X79629539Y-95316554D01*
X79565892Y-95299500D01*
X79434108Y-95299500D01*
X79306812Y-95333608D01*
X79192686Y-95399500D01*
X79192683Y-95399502D01*
X79099502Y-95492683D01*
X79099500Y-95492686D01*
X79033608Y-95606812D01*
X78999500Y-95734108D01*
X78999500Y-95865893D01*
X79005422Y-95887996D01*
X79003756Y-95957846D01*
X78973327Y-96007766D01*
X78342914Y-96638181D01*
X78281591Y-96671666D01*
X78255233Y-96674500D01*
X74444854Y-96674500D01*
X74355145Y-96674500D01*
X74355143Y-96674500D01*
X74355141Y-96674501D01*
X74272266Y-96708827D01*
X66804456Y-104176637D01*
X66743133Y-104210122D01*
X66673441Y-104205138D01*
X66617508Y-104163266D01*
X66597001Y-104121053D01*
X66566392Y-104006814D01*
X66500500Y-103892686D01*
X66407314Y-103799500D01*
X66350250Y-103766554D01*
X66293187Y-103733608D01*
X66229539Y-103716554D01*
X66165892Y-103699500D01*
X66034108Y-103699500D01*
X65906812Y-103733608D01*
X65792686Y-103799500D01*
X65792683Y-103799502D01*
X65699502Y-103892683D01*
X65699500Y-103892686D01*
X65633608Y-104006812D01*
X65599500Y-104134108D01*
X65599500Y-104265893D01*
X65605422Y-104287996D01*
X65603756Y-104357846D01*
X65573327Y-104407766D01*
X61942914Y-108038181D01*
X61881591Y-108071666D01*
X61855233Y-108074500D01*
X39625209Y-108074500D01*
X39558170Y-108054815D01*
X39512415Y-108002011D01*
X39502471Y-107932853D01*
X39510648Y-107903047D01*
X39541474Y-107828627D01*
X39579500Y-107637457D01*
X39579500Y-107442543D01*
X39541474Y-107251373D01*
X39541472Y-107251368D01*
X39466887Y-107071302D01*
X39466880Y-107071289D01*
X39358595Y-106909230D01*
X39358592Y-106909226D01*
X39220773Y-106771407D01*
X39220769Y-106771404D01*
X39058710Y-106663119D01*
X39058697Y-106663112D01*
X38878631Y-106588527D01*
X38878619Y-106588524D01*
X38687461Y-106550500D01*
X38687457Y-106550500D01*
X38492543Y-106550500D01*
X38492538Y-106550500D01*
X38301380Y-106588524D01*
X38301368Y-106588527D01*
X38121302Y-106663112D01*
X38121289Y-106663119D01*
X37959230Y-106771404D01*
X37959226Y-106771407D01*
X37821407Y-106909226D01*
X37821404Y-106909230D01*
X37713119Y-107071289D01*
X37713114Y-107071298D01*
X37664061Y-107189725D01*
X37620220Y-107244128D01*
X37553926Y-107266193D01*
X37486227Y-107248914D01*
X37438616Y-107197777D01*
X37425500Y-107142272D01*
X37425500Y-105397727D01*
X37445185Y-105330688D01*
X37497989Y-105284933D01*
X37567147Y-105274989D01*
X37630703Y-105304014D01*
X37664061Y-105350275D01*
X37713112Y-105468697D01*
X37713119Y-105468710D01*
X37821404Y-105630769D01*
X37821407Y-105630773D01*
X37959226Y-105768592D01*
X37959230Y-105768595D01*
X38121289Y-105876880D01*
X38121302Y-105876887D01*
X38301368Y-105951472D01*
X38301373Y-105951474D01*
X38484298Y-105987860D01*
X38492538Y-105989499D01*
X38492542Y-105989500D01*
X38492543Y-105989500D01*
X38687458Y-105989500D01*
X38687459Y-105989499D01*
X38878627Y-105951474D01*
X39055114Y-105878371D01*
X39058697Y-105876887D01*
X39058697Y-105876886D01*
X39058704Y-105876884D01*
X39220770Y-105768595D01*
X39358595Y-105630770D01*
X39466884Y-105468704D01*
X39535915Y-105302048D01*
X39579756Y-105247644D01*
X39646050Y-105225579D01*
X39650476Y-105225500D01*
X40755577Y-105225500D01*
X40755579Y-105225501D01*
X40845289Y-105225501D01*
X40903894Y-105201225D01*
X40928170Y-105191170D01*
X40991604Y-105127736D01*
X40991604Y-105127735D01*
X41009042Y-105110297D01*
X41009043Y-105110294D01*
X48836800Y-97282538D01*
X50935500Y-97282538D01*
X50935500Y-97477461D01*
X50973524Y-97668619D01*
X50973527Y-97668631D01*
X51048112Y-97848697D01*
X51048119Y-97848710D01*
X51156404Y-98010769D01*
X51156407Y-98010773D01*
X51294226Y-98148592D01*
X51294230Y-98148595D01*
X51456289Y-98256880D01*
X51456302Y-98256887D01*
X51582871Y-98309313D01*
X51636373Y-98331474D01*
X51813502Y-98366707D01*
X51827538Y-98369499D01*
X51827542Y-98369500D01*
X51827543Y-98369500D01*
X52022458Y-98369500D01*
X52022459Y-98369499D01*
X52213627Y-98331474D01*
X52393704Y-98256884D01*
X52427012Y-98234628D01*
X55126500Y-98234628D01*
X55126500Y-98430371D01*
X55157118Y-98623687D01*
X55217604Y-98809842D01*
X55306466Y-98984239D01*
X55421505Y-99142580D01*
X55559919Y-99280994D01*
X55708089Y-99388643D01*
X55718264Y-99396036D01*
X55792984Y-99434108D01*
X55892657Y-99484895D01*
X55892659Y-99484895D01*
X55892662Y-99484897D01*
X55992444Y-99517318D01*
X56078812Y-99545381D01*
X56272129Y-99576000D01*
X56272134Y-99576000D01*
X56467871Y-99576000D01*
X56661187Y-99545381D01*
X56847338Y-99484897D01*
X56947016Y-99434108D01*
X67999500Y-99434108D01*
X67999500Y-99565892D01*
X68016554Y-99629539D01*
X68033608Y-99693187D01*
X68066554Y-99750250D01*
X68099500Y-99807314D01*
X68192686Y-99900500D01*
X68306814Y-99966392D01*
X68434108Y-100000500D01*
X68434110Y-100000500D01*
X68565890Y-100000500D01*
X68565892Y-100000500D01*
X68693186Y-99966392D01*
X68807314Y-99900500D01*
X68900500Y-99807314D01*
X68966392Y-99693186D01*
X69000500Y-99565892D01*
X69000500Y-99434108D01*
X68966392Y-99306814D01*
X68900500Y-99192686D01*
X68807314Y-99099500D01*
X68806106Y-99098802D01*
X68787499Y-99088059D01*
X68739284Y-99037492D01*
X68725500Y-98980673D01*
X68725500Y-94632267D01*
X68745185Y-94565228D01*
X68761819Y-94544586D01*
X71732086Y-91574319D01*
X71759013Y-91559615D01*
X71784832Y-91543023D01*
X71791032Y-91542131D01*
X71793409Y-91540834D01*
X71819767Y-91538000D01*
X71880233Y-91538000D01*
X71947272Y-91557685D01*
X71967914Y-91574319D01*
X72175681Y-91782086D01*
X72209166Y-91843409D01*
X72212000Y-91869766D01*
X72212000Y-91952727D01*
X72239293Y-92054587D01*
X72292020Y-92145913D01*
X72366587Y-92220480D01*
X72457913Y-92273207D01*
X72559773Y-92300500D01*
X72559775Y-92300500D01*
X72665225Y-92300500D01*
X72665227Y-92300500D01*
X72767087Y-92273207D01*
X72858413Y-92220480D01*
X72917075Y-92161818D01*
X72978399Y-92128334D01*
X73004756Y-92125500D01*
X73745244Y-92125500D01*
X73812283Y-92145185D01*
X73832925Y-92161818D01*
X73891587Y-92220480D01*
X73982913Y-92273207D01*
X74084773Y-92300500D01*
X74084775Y-92300500D01*
X74190225Y-92300500D01*
X74190227Y-92300500D01*
X74292087Y-92273207D01*
X74383413Y-92220480D01*
X74457980Y-92145913D01*
X74510707Y-92054587D01*
X74538000Y-91952727D01*
X74538000Y-91869766D01*
X74557685Y-91802727D01*
X74574319Y-91782085D01*
X74782085Y-91574319D01*
X74843408Y-91540834D01*
X74869766Y-91538000D01*
X74952725Y-91538000D01*
X74952727Y-91538000D01*
X75054587Y-91510707D01*
X75145913Y-91457980D01*
X75220480Y-91383413D01*
X75273207Y-91292087D01*
X75300500Y-91190227D01*
X75300500Y-91084773D01*
X75273207Y-90982913D01*
X75220480Y-90891587D01*
X75161818Y-90832925D01*
X75128334Y-90771601D01*
X75125500Y-90745244D01*
X75125500Y-90004755D01*
X75145185Y-89937716D01*
X75161819Y-89917074D01*
X75186661Y-89892232D01*
X75220480Y-89858413D01*
X75273207Y-89767087D01*
X75300500Y-89665227D01*
X75300500Y-89559773D01*
X75273207Y-89457913D01*
X75220480Y-89366587D01*
X75145913Y-89292020D01*
X75054587Y-89239293D01*
X74952727Y-89212000D01*
X74869767Y-89212000D01*
X74802728Y-89192315D01*
X74782086Y-89175681D01*
X74574319Y-88967914D01*
X74540834Y-88906591D01*
X74538000Y-88880233D01*
X74538000Y-88797275D01*
X74538000Y-88797273D01*
X74510707Y-88695413D01*
X74457980Y-88604087D01*
X74383413Y-88529520D01*
X74292087Y-88476793D01*
X74190227Y-88449500D01*
X74084773Y-88449500D01*
X73982913Y-88476793D01*
X73982910Y-88476794D01*
X73891587Y-88529520D01*
X73832925Y-88588182D01*
X73771601Y-88621666D01*
X73745244Y-88624500D01*
X73004756Y-88624500D01*
X72937717Y-88604815D01*
X72917075Y-88588182D01*
X72908708Y-88579815D01*
X72858413Y-88529520D01*
X72767087Y-88476793D01*
X72665227Y-88449500D01*
X72559773Y-88449500D01*
X72457913Y-88476793D01*
X72457910Y-88476794D01*
X72366585Y-88529521D01*
X72292021Y-88604085D01*
X72239294Y-88695410D01*
X72239293Y-88695413D01*
X72212000Y-88797273D01*
X72212000Y-88880232D01*
X72192315Y-88947271D01*
X72175681Y-88967913D01*
X71967913Y-89175681D01*
X71906590Y-89209166D01*
X71880232Y-89212000D01*
X71797273Y-89212000D01*
X71695413Y-89239293D01*
X71695410Y-89239294D01*
X71604085Y-89292021D01*
X71529521Y-89366585D01*
X71476794Y-89457910D01*
X71476793Y-89457913D01*
X71449500Y-89559773D01*
X71449500Y-89665227D01*
X71476793Y-89767087D01*
X71529520Y-89858413D01*
X71604087Y-89932980D01*
X71695413Y-89985707D01*
X71797273Y-90013000D01*
X71797275Y-90013000D01*
X71880233Y-90013000D01*
X71947272Y-90032685D01*
X71967914Y-90049319D01*
X72175681Y-90257086D01*
X72209166Y-90318409D01*
X72212000Y-90344766D01*
X72212000Y-90427727D01*
X72239293Y-90529587D01*
X72292020Y-90620913D01*
X72366587Y-90695480D01*
X72457913Y-90748207D01*
X72559773Y-90775500D01*
X72559775Y-90775500D01*
X72665225Y-90775500D01*
X72665227Y-90775500D01*
X72767087Y-90748207D01*
X72858413Y-90695480D01*
X72932980Y-90620913D01*
X72985707Y-90529587D01*
X73013000Y-90427727D01*
X73013000Y-90344766D01*
X73032685Y-90277727D01*
X73049319Y-90257085D01*
X73257085Y-90049319D01*
X73284012Y-90034615D01*
X73309831Y-90018023D01*
X73316031Y-90017131D01*
X73318408Y-90015834D01*
X73344766Y-90013000D01*
X73405233Y-90013000D01*
X73472272Y-90032685D01*
X73492914Y-90049319D01*
X73700681Y-90257086D01*
X73734166Y-90318409D01*
X73737000Y-90344767D01*
X73737000Y-90405232D01*
X73717315Y-90472271D01*
X73700681Y-90492913D01*
X73492913Y-90700681D01*
X73431590Y-90734166D01*
X73405232Y-90737000D01*
X73322273Y-90737000D01*
X73220413Y-90764293D01*
X73220410Y-90764294D01*
X73129085Y-90817021D01*
X73054521Y-90891585D01*
X73001794Y-90982910D01*
X73001793Y-90982913D01*
X72974500Y-91084773D01*
X72974500Y-91190227D01*
X72992061Y-91255764D01*
X73001793Y-91292086D01*
X73001794Y-91292089D01*
X73054521Y-91383414D01*
X73133926Y-91462819D01*
X73144538Y-91482255D01*
X73159039Y-91498989D01*
X73160955Y-91512320D01*
X73167411Y-91524142D01*
X73165831Y-91546228D01*
X73168983Y-91568147D01*
X73163387Y-91580398D01*
X73162427Y-91593834D01*
X73149156Y-91611560D01*
X73139958Y-91631703D01*
X73128626Y-91638985D01*
X73120555Y-91649767D01*
X73099809Y-91657504D01*
X73081180Y-91669477D01*
X73059261Y-91672628D01*
X73055091Y-91674184D01*
X73046245Y-91674500D01*
X73004756Y-91674500D01*
X72937717Y-91654815D01*
X72917075Y-91638182D01*
X72890453Y-91611560D01*
X72858413Y-91579520D01*
X72775074Y-91531404D01*
X72767089Y-91526794D01*
X72767088Y-91526793D01*
X72767087Y-91526793D01*
X72665227Y-91499500D01*
X72582267Y-91499500D01*
X72515228Y-91479815D01*
X72494586Y-91463181D01*
X72286819Y-91255414D01*
X72253334Y-91194091D01*
X72250500Y-91167733D01*
X72250500Y-91084775D01*
X72250500Y-91084773D01*
X72223207Y-90982913D01*
X72170480Y-90891587D01*
X72095913Y-90817020D01*
X72004587Y-90764293D01*
X71902727Y-90737000D01*
X71797273Y-90737000D01*
X71695413Y-90764293D01*
X71695410Y-90764294D01*
X71604085Y-90817021D01*
X71529521Y-90891585D01*
X71476794Y-90982910D01*
X71476793Y-90982913D01*
X71449500Y-91084773D01*
X71449500Y-91167731D01*
X71429815Y-91234770D01*
X71413181Y-91255412D01*
X68372265Y-94296329D01*
X68308829Y-94359764D01*
X68298774Y-94384037D01*
X68298774Y-94384039D01*
X68288719Y-94408313D01*
X68274499Y-94442643D01*
X68274499Y-94546788D01*
X68274500Y-94546797D01*
X68274500Y-98980673D01*
X68254815Y-99047712D01*
X68212501Y-99088059D01*
X68192692Y-99099496D01*
X68192683Y-99099502D01*
X68099502Y-99192683D01*
X68099500Y-99192686D01*
X68033608Y-99306812D01*
X68009702Y-99396033D01*
X67999500Y-99434108D01*
X56947016Y-99434108D01*
X57021736Y-99396036D01*
X57180086Y-99280989D01*
X57318489Y-99142586D01*
X57318491Y-99142582D01*
X57318494Y-99142580D01*
X57387418Y-99047712D01*
X57433536Y-98984236D01*
X57522397Y-98809838D01*
X57582881Y-98623687D01*
X57585474Y-98607313D01*
X57613500Y-98430371D01*
X57613500Y-98234628D01*
X57582881Y-98041312D01*
X57522395Y-97855157D01*
X57446969Y-97707128D01*
X57433536Y-97680764D01*
X57365619Y-97587283D01*
X57318494Y-97522419D01*
X57180080Y-97384005D01*
X57021739Y-97268966D01*
X57021738Y-97268965D01*
X57021736Y-97268964D01*
X56967276Y-97241215D01*
X56847342Y-97180104D01*
X56661187Y-97119618D01*
X56467871Y-97089000D01*
X56467866Y-97089000D01*
X56272134Y-97089000D01*
X56272129Y-97089000D01*
X56078812Y-97119618D01*
X55892657Y-97180104D01*
X55718260Y-97268966D01*
X55559919Y-97384005D01*
X55421505Y-97522419D01*
X55306466Y-97680760D01*
X55217604Y-97855157D01*
X55157118Y-98041312D01*
X55126500Y-98234628D01*
X52427012Y-98234628D01*
X52555770Y-98148595D01*
X52555773Y-98148592D01*
X52562285Y-98142081D01*
X52693592Y-98010773D01*
X52693595Y-98010770D01*
X52801884Y-97848704D01*
X52876474Y-97668627D01*
X52914500Y-97477457D01*
X52914500Y-97282543D01*
X52876474Y-97091373D01*
X52850114Y-97027734D01*
X52801887Y-96911302D01*
X52801880Y-96911289D01*
X52693595Y-96749230D01*
X52693592Y-96749226D01*
X52555773Y-96611407D01*
X52555769Y-96611404D01*
X52393710Y-96503119D01*
X52393697Y-96503112D01*
X52213631Y-96428527D01*
X52213619Y-96428524D01*
X52022461Y-96390500D01*
X52022457Y-96390500D01*
X51827543Y-96390500D01*
X51827538Y-96390500D01*
X51636380Y-96428524D01*
X51636368Y-96428527D01*
X51456302Y-96503112D01*
X51456289Y-96503119D01*
X51294230Y-96611404D01*
X51294226Y-96611407D01*
X51156407Y-96749226D01*
X51156404Y-96749230D01*
X51048119Y-96911289D01*
X51048112Y-96911302D01*
X50973527Y-97091368D01*
X50973524Y-97091380D01*
X50935500Y-97282538D01*
X48836800Y-97282538D01*
X52557520Y-93561819D01*
X52618843Y-93528334D01*
X52645201Y-93525500D01*
X66480673Y-93525500D01*
X66547712Y-93545185D01*
X66588060Y-93587500D01*
X66599497Y-93607310D01*
X66599499Y-93607313D01*
X66599500Y-93607314D01*
X66692686Y-93700500D01*
X66806814Y-93766392D01*
X66934108Y-93800500D01*
X66934110Y-93800500D01*
X67065890Y-93800500D01*
X67065892Y-93800500D01*
X67193186Y-93766392D01*
X67307314Y-93700500D01*
X67400500Y-93607314D01*
X67466392Y-93493186D01*
X67500500Y-93365892D01*
X67500500Y-93234108D01*
X67466392Y-93106814D01*
X67400500Y-92992686D01*
X67307314Y-92899500D01*
X67244039Y-92862968D01*
X67193187Y-92833608D01*
X67129539Y-92816554D01*
X67065892Y-92799500D01*
X66934108Y-92799500D01*
X66806812Y-92833608D01*
X66692686Y-92899500D01*
X66692683Y-92899502D01*
X66599501Y-92992684D01*
X66599497Y-92992689D01*
X66588060Y-93012500D01*
X66537493Y-93060716D01*
X66480673Y-93074500D01*
X52829546Y-93074500D01*
X52762507Y-93054815D01*
X52716752Y-93002011D01*
X52706808Y-92932853D01*
X52726444Y-92881609D01*
X52801880Y-92768710D01*
X52801880Y-92768709D01*
X52801884Y-92768704D01*
X52876474Y-92588627D01*
X52914500Y-92397457D01*
X52914500Y-92202543D01*
X52876474Y-92011373D01*
X52868734Y-91992686D01*
X52801887Y-91831302D01*
X52801880Y-91831289D01*
X52693595Y-91669230D01*
X52693592Y-91669226D01*
X52555773Y-91531407D01*
X52555769Y-91531404D01*
X52393710Y-91423119D01*
X52393697Y-91423112D01*
X52213631Y-91348527D01*
X52213619Y-91348524D01*
X52022461Y-91310500D01*
X52022457Y-91310500D01*
X51827543Y-91310500D01*
X51827538Y-91310500D01*
X51636380Y-91348524D01*
X51636368Y-91348527D01*
X51456302Y-91423112D01*
X51456289Y-91423119D01*
X51294230Y-91531404D01*
X51294226Y-91531407D01*
X51156407Y-91669226D01*
X51156404Y-91669230D01*
X51048119Y-91831289D01*
X51048112Y-91831302D01*
X50973527Y-92011368D01*
X50973524Y-92011380D01*
X50935500Y-92202538D01*
X50935500Y-92397461D01*
X50973524Y-92588619D01*
X50973527Y-92588631D01*
X51048112Y-92768697D01*
X51048119Y-92768710D01*
X51156404Y-92930769D01*
X51156407Y-92930773D01*
X51294226Y-93068592D01*
X51294230Y-93068595D01*
X51456289Y-93176880D01*
X51456302Y-93176887D01*
X51608327Y-93239857D01*
X51636373Y-93251474D01*
X51827538Y-93289499D01*
X51827542Y-93289500D01*
X51892666Y-93289500D01*
X51959705Y-93309185D01*
X52005460Y-93361989D01*
X52015404Y-93431147D01*
X51986379Y-93494703D01*
X51980347Y-93501181D01*
X40743348Y-104738181D01*
X40682025Y-104771666D01*
X40655667Y-104774500D01*
X39650476Y-104774500D01*
X39583437Y-104754815D01*
X39537682Y-104702011D01*
X39535915Y-104697952D01*
X39466887Y-104531302D01*
X39466880Y-104531289D01*
X39358595Y-104369230D01*
X39358592Y-104369226D01*
X39220773Y-104231407D01*
X39220769Y-104231404D01*
X39058710Y-104123119D01*
X39058697Y-104123112D01*
X38886773Y-104051900D01*
X38832369Y-104008059D01*
X38810304Y-103941765D01*
X38827583Y-103874066D01*
X38878720Y-103826455D01*
X38910596Y-103816224D01*
X38910527Y-103815934D01*
X38914394Y-103815005D01*
X38914836Y-103814864D01*
X38915264Y-103814796D01*
X39123188Y-103747238D01*
X39123191Y-103747237D01*
X39317995Y-103647978D01*
X39379638Y-103603191D01*
X39379639Y-103603191D01*
X38674094Y-102897647D01*
X38761571Y-102874208D01*
X38862930Y-102815689D01*
X38945689Y-102732930D01*
X39004208Y-102631571D01*
X39027647Y-102544095D01*
X39733191Y-103249639D01*
X39733191Y-103249638D01*
X39777978Y-103187995D01*
X39877237Y-102993191D01*
X39877238Y-102993188D01*
X39944797Y-102785259D01*
X39979000Y-102569316D01*
X39979000Y-102350683D01*
X39944797Y-102134740D01*
X39877238Y-101926811D01*
X39877237Y-101926808D01*
X39777980Y-101732008D01*
X39733191Y-101670360D01*
X39027647Y-102375904D01*
X39004208Y-102288429D01*
X38945689Y-102187070D01*
X38862930Y-102104311D01*
X38761571Y-102045792D01*
X38674092Y-102022352D01*
X39379638Y-101316807D01*
X39379638Y-101316806D01*
X39317995Y-101272021D01*
X39317993Y-101272020D01*
X39123191Y-101172762D01*
X39123188Y-101172761D01*
X38915259Y-101105202D01*
X38699316Y-101071000D01*
X38480684Y-101071000D01*
X38264740Y-101105202D01*
X38056811Y-101172761D01*
X38056808Y-101172762D01*
X37862001Y-101272023D01*
X37800360Y-101316806D01*
X37800360Y-101316807D01*
X38505905Y-102022352D01*
X38418429Y-102045792D01*
X38317070Y-102104311D01*
X38234311Y-102187070D01*
X38175792Y-102288429D01*
X38152352Y-102375905D01*
X37461819Y-101685372D01*
X37447115Y-101658444D01*
X37430523Y-101632626D01*
X37429631Y-101626425D01*
X37428334Y-101624049D01*
X37425500Y-101597691D01*
X37425500Y-98234628D01*
X39886500Y-98234628D01*
X39886500Y-98430371D01*
X39917118Y-98623687D01*
X39977604Y-98809842D01*
X40066466Y-98984239D01*
X40181505Y-99142580D01*
X40319919Y-99280994D01*
X40468089Y-99388643D01*
X40478264Y-99396036D01*
X40552984Y-99434108D01*
X40652657Y-99484895D01*
X40652659Y-99484895D01*
X40652662Y-99484897D01*
X40752444Y-99517318D01*
X40838812Y-99545381D01*
X41032129Y-99576000D01*
X41032134Y-99576000D01*
X41227871Y-99576000D01*
X41421187Y-99545381D01*
X41607338Y-99484897D01*
X41781736Y-99396036D01*
X41904541Y-99306814D01*
X41940080Y-99280994D01*
X41940082Y-99280991D01*
X41940086Y-99280989D01*
X42078489Y-99142586D01*
X42078491Y-99142582D01*
X42078494Y-99142580D01*
X42147418Y-99047712D01*
X42193536Y-98984236D01*
X42282397Y-98809838D01*
X42342881Y-98623687D01*
X42345474Y-98607313D01*
X42373500Y-98430371D01*
X42373500Y-98234628D01*
X42342881Y-98041312D01*
X42282395Y-97855157D01*
X42206969Y-97707128D01*
X42193536Y-97680764D01*
X42125619Y-97587283D01*
X42078494Y-97522419D01*
X41940084Y-97384009D01*
X41940082Y-97384008D01*
X41930132Y-97376778D01*
X41930120Y-97376770D01*
X41800420Y-97282538D01*
X44585500Y-97282538D01*
X44585500Y-97477461D01*
X44623524Y-97668619D01*
X44623527Y-97668631D01*
X44698112Y-97848697D01*
X44698119Y-97848710D01*
X44806404Y-98010769D01*
X44806407Y-98010773D01*
X44944226Y-98148592D01*
X44944230Y-98148595D01*
X45106289Y-98256880D01*
X45106302Y-98256887D01*
X45232871Y-98309313D01*
X45286373Y-98331474D01*
X45463502Y-98366707D01*
X45477538Y-98369499D01*
X45477542Y-98369500D01*
X45477543Y-98369500D01*
X45672458Y-98369500D01*
X45672459Y-98369499D01*
X45863627Y-98331474D01*
X46043704Y-98256884D01*
X46205770Y-98148595D01*
X46343595Y-98010770D01*
X46451884Y-97848704D01*
X46526474Y-97668627D01*
X46564500Y-97477457D01*
X46564500Y-97282543D01*
X46526474Y-97091373D01*
X46500114Y-97027734D01*
X46451887Y-96911302D01*
X46451880Y-96911289D01*
X46343595Y-96749230D01*
X46343592Y-96749226D01*
X46205773Y-96611407D01*
X46205769Y-96611404D01*
X46043710Y-96503119D01*
X46043697Y-96503112D01*
X45863631Y-96428527D01*
X45863619Y-96428524D01*
X45672461Y-96390500D01*
X45672457Y-96390500D01*
X45477543Y-96390500D01*
X45477538Y-96390500D01*
X45286380Y-96428524D01*
X45286368Y-96428527D01*
X45106302Y-96503112D01*
X45106289Y-96503119D01*
X44944230Y-96611404D01*
X44944226Y-96611407D01*
X44806407Y-96749226D01*
X44806404Y-96749230D01*
X44698119Y-96911289D01*
X44698112Y-96911302D01*
X44623527Y-97091368D01*
X44623524Y-97091380D01*
X44585500Y-97282538D01*
X41800420Y-97282538D01*
X41781735Y-97268963D01*
X41607342Y-97180104D01*
X41421187Y-97119618D01*
X41227871Y-97089000D01*
X41227866Y-97089000D01*
X41032134Y-97089000D01*
X41032129Y-97089000D01*
X40838812Y-97119618D01*
X40652657Y-97180104D01*
X40478260Y-97268966D01*
X40319919Y-97384005D01*
X40181505Y-97522419D01*
X40066466Y-97680760D01*
X39977604Y-97855157D01*
X39917118Y-98041312D01*
X39886500Y-98234628D01*
X37425500Y-98234628D01*
X37425500Y-92202538D01*
X44585500Y-92202538D01*
X44585500Y-92397461D01*
X44623524Y-92588619D01*
X44623527Y-92588631D01*
X44698112Y-92768697D01*
X44698119Y-92768710D01*
X44806404Y-92930769D01*
X44806407Y-92930773D01*
X44944226Y-93068592D01*
X44944230Y-93068595D01*
X45106289Y-93176880D01*
X45106302Y-93176887D01*
X45258327Y-93239857D01*
X45286373Y-93251474D01*
X45477538Y-93289499D01*
X45477542Y-93289500D01*
X45477543Y-93289500D01*
X45672458Y-93289500D01*
X45672459Y-93289499D01*
X45863627Y-93251474D01*
X46043704Y-93176884D01*
X46205770Y-93068595D01*
X46343595Y-92930770D01*
X46451884Y-92768704D01*
X46526474Y-92588627D01*
X46564500Y-92397457D01*
X46564500Y-92202543D01*
X46526474Y-92011373D01*
X46518734Y-91992686D01*
X46451887Y-91831302D01*
X46451880Y-91831289D01*
X46343595Y-91669230D01*
X46343592Y-91669226D01*
X46205773Y-91531407D01*
X46205769Y-91531404D01*
X46043710Y-91423119D01*
X46043697Y-91423112D01*
X45863631Y-91348527D01*
X45863619Y-91348524D01*
X45672461Y-91310500D01*
X45672457Y-91310500D01*
X45477543Y-91310500D01*
X45477538Y-91310500D01*
X45286380Y-91348524D01*
X45286368Y-91348527D01*
X45106302Y-91423112D01*
X45106289Y-91423119D01*
X44944230Y-91531404D01*
X44944226Y-91531407D01*
X44806407Y-91669226D01*
X44806404Y-91669230D01*
X44698119Y-91831289D01*
X44698112Y-91831302D01*
X44623527Y-92011368D01*
X44623524Y-92011380D01*
X44585500Y-92202538D01*
X37425500Y-92202538D01*
X37425500Y-91528266D01*
X37445185Y-91461227D01*
X37461814Y-91440590D01*
X41527733Y-87374671D01*
X41527735Y-87374671D01*
X41591169Y-87311237D01*
X41605389Y-87276906D01*
X41625500Y-87228355D01*
X41625500Y-87138646D01*
X41625500Y-87128657D01*
X41625499Y-87128643D01*
X41625499Y-86511948D01*
X45134500Y-86511948D01*
X45134500Y-86693051D01*
X45162829Y-86871910D01*
X45218787Y-87044136D01*
X45218788Y-87044139D01*
X45260710Y-87126414D01*
X45298459Y-87200500D01*
X45301006Y-87205497D01*
X45407441Y-87351994D01*
X45407445Y-87351999D01*
X45535500Y-87480054D01*
X45535505Y-87480058D01*
X45567921Y-87503609D01*
X45682006Y-87586496D01*
X45787484Y-87640240D01*
X45843360Y-87668711D01*
X45843363Y-87668712D01*
X45929476Y-87696691D01*
X46015591Y-87724671D01*
X46098429Y-87737791D01*
X46194449Y-87753000D01*
X46194454Y-87753000D01*
X46375551Y-87753000D01*
X46462259Y-87739265D01*
X46554409Y-87724671D01*
X46726639Y-87668711D01*
X46887994Y-87586496D01*
X47034501Y-87480053D01*
X47162553Y-87352001D01*
X47268996Y-87205494D01*
X47351211Y-87044139D01*
X47407171Y-86871909D01*
X47421765Y-86779759D01*
X47435500Y-86693051D01*
X47435500Y-86511948D01*
X47416609Y-86392683D01*
X47407171Y-86333091D01*
X47364578Y-86202001D01*
X47351212Y-86160863D01*
X47351211Y-86160860D01*
X47303076Y-86066392D01*
X47268996Y-85999506D01*
X47239648Y-85959112D01*
X47162558Y-85853005D01*
X47162554Y-85853000D01*
X47034499Y-85724945D01*
X47034494Y-85724941D01*
X46887997Y-85618506D01*
X46887996Y-85618505D01*
X46887994Y-85618504D01*
X46836300Y-85592164D01*
X46726639Y-85536288D01*
X46726636Y-85536287D01*
X46719930Y-85534108D01*
X79599500Y-85534108D01*
X79599500Y-85665891D01*
X79633608Y-85793187D01*
X79660223Y-85839284D01*
X79699500Y-85907314D01*
X79792686Y-86000500D01*
X79906814Y-86066392D01*
X80034108Y-86100500D01*
X80034110Y-86100500D01*
X80165890Y-86100500D01*
X80165892Y-86100500D01*
X80293186Y-86066392D01*
X80407314Y-86000500D01*
X80500500Y-85907314D01*
X80511940Y-85887500D01*
X80562507Y-85839284D01*
X80619327Y-85825500D01*
X84966324Y-85825500D01*
X85033363Y-85845185D01*
X85054005Y-85861819D01*
X85092686Y-85900500D01*
X85092687Y-85900501D01*
X85092689Y-85900502D01*
X85194204Y-85959112D01*
X85194205Y-85959112D01*
X85206814Y-85966392D01*
X85334108Y-86000500D01*
X85366861Y-86000500D01*
X85465890Y-86000500D01*
X85465892Y-86000500D01*
X85593186Y-85966392D01*
X85707314Y-85900500D01*
X85800500Y-85807314D01*
X85866392Y-85693186D01*
X85900500Y-85565892D01*
X85900500Y-85434108D01*
X85866392Y-85306814D01*
X85800500Y-85192686D01*
X85707314Y-85099500D01*
X85642056Y-85061823D01*
X85593187Y-85033608D01*
X85529539Y-85016554D01*
X85465892Y-84999500D01*
X85334108Y-84999500D01*
X85206812Y-85033608D01*
X85092686Y-85099500D01*
X85092683Y-85099502D01*
X84999502Y-85192683D01*
X84999498Y-85192689D01*
X84930325Y-85312500D01*
X84879758Y-85360716D01*
X84822938Y-85374500D01*
X80619327Y-85374500D01*
X80552288Y-85354815D01*
X80511940Y-85312500D01*
X80500502Y-85292689D01*
X80500498Y-85292684D01*
X80407316Y-85199502D01*
X80407314Y-85199500D01*
X80350250Y-85166554D01*
X80293187Y-85133608D01*
X80189803Y-85105907D01*
X80165892Y-85099500D01*
X80034108Y-85099500D01*
X79906812Y-85133608D01*
X79792686Y-85199500D01*
X79792683Y-85199502D01*
X79699502Y-85292683D01*
X79699500Y-85292686D01*
X79633608Y-85406812D01*
X79599500Y-85534108D01*
X46719930Y-85534108D01*
X46554410Y-85480329D01*
X46375551Y-85452000D01*
X46375546Y-85452000D01*
X46194454Y-85452000D01*
X46194449Y-85452000D01*
X46015589Y-85480329D01*
X45843363Y-85536287D01*
X45843360Y-85536288D01*
X45682002Y-85618506D01*
X45535505Y-85724941D01*
X45535500Y-85724945D01*
X45407445Y-85853000D01*
X45407441Y-85853005D01*
X45301006Y-85999502D01*
X45218788Y-86160860D01*
X45218787Y-86160863D01*
X45162829Y-86333089D01*
X45134500Y-86511948D01*
X41625499Y-86511948D01*
X41625499Y-84942645D01*
X41625497Y-84942640D01*
X41591171Y-84859765D01*
X41423607Y-84692201D01*
X41390122Y-84630878D01*
X41395106Y-84561186D01*
X41396704Y-84557124D01*
X41463012Y-84397043D01*
X41500500Y-84208578D01*
X41500500Y-84016422D01*
X41500500Y-84016419D01*
X41500499Y-84016417D01*
X44049500Y-84016417D01*
X44049500Y-84208582D01*
X44086986Y-84397035D01*
X44086989Y-84397047D01*
X44160520Y-84574568D01*
X44160521Y-84574570D01*
X44267279Y-84734344D01*
X44267282Y-84734348D01*
X44403151Y-84870217D01*
X44403155Y-84870220D01*
X44562927Y-84976977D01*
X44562928Y-84976977D01*
X44562929Y-84976978D01*
X44562931Y-84976979D01*
X44644735Y-85010863D01*
X44740457Y-85050512D01*
X44893248Y-85080904D01*
X44928917Y-85087999D01*
X44928920Y-85088000D01*
X44928922Y-85088000D01*
X45121080Y-85088000D01*
X45121081Y-85087999D01*
X45309543Y-85050512D01*
X45487073Y-84976977D01*
X45646845Y-84870220D01*
X45782720Y-84734345D01*
X45889477Y-84574573D01*
X45963012Y-84397043D01*
X46000500Y-84208578D01*
X46000500Y-84016422D01*
X46000500Y-84016419D01*
X46000499Y-84016417D01*
X45995142Y-83989487D01*
X45963012Y-83827957D01*
X45962607Y-83826979D01*
X45889479Y-83650431D01*
X45889478Y-83650429D01*
X45782720Y-83490655D01*
X45782717Y-83490651D01*
X45646848Y-83354782D01*
X45646844Y-83354779D01*
X45487070Y-83248021D01*
X45487068Y-83248020D01*
X45309547Y-83174489D01*
X45309535Y-83174486D01*
X45121081Y-83137000D01*
X45121078Y-83137000D01*
X44928922Y-83137000D01*
X44928919Y-83137000D01*
X44740464Y-83174486D01*
X44740452Y-83174489D01*
X44562931Y-83248020D01*
X44562929Y-83248021D01*
X44403155Y-83354779D01*
X44403151Y-83354782D01*
X44267282Y-83490651D01*
X44267279Y-83490655D01*
X44160521Y-83650429D01*
X44160520Y-83650431D01*
X44086989Y-83827952D01*
X44086986Y-83827964D01*
X44049500Y-84016417D01*
X41500499Y-84016417D01*
X41495142Y-83989487D01*
X41463012Y-83827957D01*
X41462607Y-83826979D01*
X41389479Y-83650431D01*
X41389478Y-83650429D01*
X41282720Y-83490655D01*
X41282717Y-83490651D01*
X41146848Y-83354782D01*
X41146844Y-83354779D01*
X40987070Y-83248021D01*
X40987068Y-83248020D01*
X40809547Y-83174489D01*
X40809535Y-83174486D01*
X40621081Y-83137000D01*
X40621078Y-83137000D01*
X40428922Y-83137000D01*
X40428919Y-83137000D01*
X40240464Y-83174486D01*
X40240452Y-83174489D01*
X40062931Y-83248020D01*
X40062929Y-83248021D01*
X39903155Y-83354779D01*
X39903151Y-83354782D01*
X39767282Y-83490651D01*
X39767279Y-83490655D01*
X39660521Y-83650429D01*
X39660520Y-83650431D01*
X39586989Y-83827952D01*
X39586986Y-83827964D01*
X39549500Y-84016417D01*
X39549500Y-84208582D01*
X39586986Y-84397035D01*
X39586989Y-84397047D01*
X39660520Y-84574568D01*
X39660521Y-84574570D01*
X39767279Y-84734344D01*
X39767282Y-84734348D01*
X39903151Y-84870217D01*
X39903155Y-84870220D01*
X40062927Y-84976977D01*
X40062928Y-84976977D01*
X40062929Y-84976978D01*
X40062931Y-84976979D01*
X40144735Y-85010863D01*
X40240457Y-85050512D01*
X40393248Y-85080904D01*
X40428917Y-85087999D01*
X40428920Y-85088000D01*
X40428922Y-85088000D01*
X40621080Y-85088000D01*
X40621081Y-85087999D01*
X40809543Y-85050512D01*
X40969567Y-84984227D01*
X40989442Y-84982091D01*
X41008172Y-84975105D01*
X41023469Y-84978432D01*
X41039037Y-84976759D01*
X41056913Y-84985707D01*
X41076445Y-84989956D01*
X41098738Y-85006643D01*
X41101516Y-85008034D01*
X41104700Y-85011106D01*
X41138179Y-85044584D01*
X41171665Y-85105907D01*
X41174499Y-85132267D01*
X41174499Y-87038733D01*
X41154814Y-87105772D01*
X41138180Y-87126414D01*
X37008830Y-91255763D01*
X37008830Y-91255765D01*
X36974499Y-91338644D01*
X36974499Y-91442788D01*
X36974500Y-91442797D01*
X36974500Y-108245142D01*
X36974499Y-108245156D01*
X36974499Y-108344853D01*
X36974500Y-108344858D01*
X36998772Y-108403457D01*
X37008829Y-108427735D01*
X37008830Y-108427736D01*
X37072264Y-108491170D01*
X37072265Y-108491170D01*
X37362829Y-108781734D01*
X37362830Y-108781736D01*
X37426264Y-108845170D01*
X37460595Y-108859390D01*
X37509146Y-108879501D01*
X37509147Y-108879501D01*
X37613289Y-108879501D01*
X37613297Y-108879500D01*
X39006577Y-108879500D01*
X39006579Y-108879501D01*
X39096289Y-108879501D01*
X39154894Y-108855225D01*
X39179170Y-108845170D01*
X39242604Y-108781736D01*
X39242604Y-108781735D01*
X39260040Y-108764299D01*
X39260041Y-108764296D01*
X39462521Y-108561816D01*
X39523844Y-108528334D01*
X39550201Y-108525500D01*
X54766232Y-108525500D01*
X54833271Y-108545185D01*
X54879026Y-108597989D01*
X54888970Y-108667147D01*
X54859945Y-108730703D01*
X54853913Y-108737181D01*
X49340417Y-114250676D01*
X49279094Y-114284161D01*
X49209402Y-114279177D01*
X49205284Y-114277556D01*
X49038631Y-114208527D01*
X49038619Y-114208524D01*
X48847461Y-114170500D01*
X48847457Y-114170500D01*
X48652543Y-114170500D01*
X48652538Y-114170500D01*
X48461380Y-114208524D01*
X48461368Y-114208527D01*
X48281302Y-114283112D01*
X48281289Y-114283119D01*
X48119230Y-114391404D01*
X48119226Y-114391407D01*
X47981407Y-114529226D01*
X47981404Y-114529230D01*
X47873119Y-114691289D01*
X47873114Y-114691298D01*
X47801900Y-114863227D01*
X47758059Y-114917630D01*
X47691765Y-114939695D01*
X47624066Y-114922416D01*
X47576455Y-114871279D01*
X47566224Y-114839403D01*
X47565934Y-114839473D01*
X47565004Y-114835601D01*
X47564865Y-114835166D01*
X47564797Y-114834739D01*
X47497238Y-114626811D01*
X47497237Y-114626808D01*
X47397980Y-114432008D01*
X47353191Y-114370360D01*
X46647647Y-115075904D01*
X46624208Y-114988429D01*
X46565689Y-114887070D01*
X46482930Y-114804311D01*
X46381571Y-114745792D01*
X46294092Y-114722352D01*
X46999638Y-114016807D01*
X46999638Y-114016806D01*
X46937995Y-113972021D01*
X46937993Y-113972020D01*
X46743191Y-113872762D01*
X46743188Y-113872761D01*
X46535259Y-113805202D01*
X46319316Y-113771000D01*
X46100684Y-113771000D01*
X45884740Y-113805202D01*
X45676811Y-113872761D01*
X45676808Y-113872762D01*
X45482001Y-113972023D01*
X45420360Y-114016806D01*
X45420360Y-114016807D01*
X46125905Y-114722352D01*
X46038429Y-114745792D01*
X45937070Y-114804311D01*
X45854311Y-114887070D01*
X45795792Y-114988429D01*
X45772352Y-115075905D01*
X45066807Y-114370360D01*
X45066806Y-114370360D01*
X45022023Y-114432001D01*
X44922762Y-114626808D01*
X44922761Y-114626811D01*
X44855202Y-114834740D01*
X44821000Y-115050683D01*
X44821000Y-115269316D01*
X44855202Y-115485259D01*
X44922761Y-115693188D01*
X44922762Y-115693191D01*
X45022020Y-115887993D01*
X45022021Y-115887995D01*
X45066806Y-115949638D01*
X45066807Y-115949638D01*
X45772352Y-115244093D01*
X45795792Y-115331571D01*
X45854311Y-115432930D01*
X45937070Y-115515689D01*
X46038429Y-115574208D01*
X46125905Y-115597647D01*
X45420360Y-116303191D01*
X45482008Y-116347980D01*
X45676808Y-116447237D01*
X45676811Y-116447238D01*
X45884740Y-116514797D01*
X46100684Y-116549000D01*
X46319316Y-116549000D01*
X46535259Y-116514797D01*
X46743188Y-116447238D01*
X46743191Y-116447237D01*
X46937995Y-116347978D01*
X46999638Y-116303191D01*
X46999639Y-116303191D01*
X46294094Y-115597647D01*
X46381571Y-115574208D01*
X46482930Y-115515689D01*
X46565689Y-115432930D01*
X46624208Y-115331571D01*
X46647647Y-115244095D01*
X47353191Y-115949639D01*
X47353191Y-115949638D01*
X47397978Y-115887995D01*
X47497237Y-115693191D01*
X47497238Y-115693188D01*
X47564796Y-115485264D01*
X47564864Y-115484836D01*
X47564936Y-115484683D01*
X47565934Y-115480527D01*
X47566807Y-115480736D01*
X47594789Y-115421699D01*
X47654098Y-115384764D01*
X47723960Y-115385756D01*
X47782196Y-115424361D01*
X47801900Y-115456773D01*
X47873112Y-115628697D01*
X47873119Y-115628710D01*
X47981404Y-115790769D01*
X47981407Y-115790773D01*
X48119226Y-115928592D01*
X48119230Y-115928595D01*
X48281289Y-116036880D01*
X48281302Y-116036887D01*
X48461368Y-116111472D01*
X48461373Y-116111474D01*
X48652538Y-116149499D01*
X48652542Y-116149500D01*
X48652543Y-116149500D01*
X48847458Y-116149500D01*
X48847459Y-116149499D01*
X49038627Y-116111474D01*
X49218704Y-116036884D01*
X49380770Y-115928595D01*
X49518595Y-115790770D01*
X49626884Y-115628704D01*
X49701474Y-115448627D01*
X49739500Y-115257457D01*
X49739500Y-115062543D01*
X49739499Y-115062538D01*
X50300500Y-115062538D01*
X50300500Y-115257461D01*
X50338524Y-115448619D01*
X50338527Y-115448631D01*
X50413112Y-115628697D01*
X50413119Y-115628710D01*
X50521404Y-115790769D01*
X50521407Y-115790773D01*
X50659226Y-115928592D01*
X50659230Y-115928595D01*
X50821289Y-116036880D01*
X50821302Y-116036887D01*
X51001368Y-116111472D01*
X51001373Y-116111474D01*
X51192538Y-116149499D01*
X51192542Y-116149500D01*
X51192543Y-116149500D01*
X51387458Y-116149500D01*
X51387459Y-116149499D01*
X51578627Y-116111474D01*
X51758704Y-116036884D01*
X51920770Y-115928595D01*
X52058595Y-115790770D01*
X52166884Y-115628704D01*
X52241474Y-115448627D01*
X52279500Y-115257457D01*
X52279500Y-115062543D01*
X52241474Y-114871373D01*
X52226300Y-114834739D01*
X52166887Y-114691302D01*
X52166880Y-114691289D01*
X52058595Y-114529230D01*
X52058592Y-114529226D01*
X51920773Y-114391407D01*
X51920769Y-114391404D01*
X51758710Y-114283119D01*
X51758697Y-114283112D01*
X51578631Y-114208527D01*
X51578619Y-114208524D01*
X51387461Y-114170500D01*
X51387457Y-114170500D01*
X51192543Y-114170500D01*
X51192538Y-114170500D01*
X51001380Y-114208524D01*
X51001368Y-114208527D01*
X50821302Y-114283112D01*
X50821289Y-114283119D01*
X50659230Y-114391404D01*
X50659226Y-114391407D01*
X50521407Y-114529226D01*
X50521404Y-114529230D01*
X50413119Y-114691289D01*
X50413112Y-114691302D01*
X50338527Y-114871368D01*
X50338524Y-114871380D01*
X50300500Y-115062538D01*
X49739499Y-115062538D01*
X49701474Y-114871373D01*
X49632441Y-114704713D01*
X49624973Y-114635245D01*
X49656248Y-114572766D01*
X49659293Y-114569610D01*
X52659277Y-111569628D01*
X55126500Y-111569628D01*
X55126500Y-111765371D01*
X55157118Y-111958687D01*
X55217604Y-112144842D01*
X55306466Y-112319239D01*
X55421505Y-112477580D01*
X55559919Y-112615994D01*
X55708089Y-112723643D01*
X55718264Y-112731036D01*
X55829386Y-112787656D01*
X55892657Y-112819895D01*
X55892659Y-112819895D01*
X55892662Y-112819897D01*
X55992444Y-112852318D01*
X56078812Y-112880381D01*
X56272129Y-112911000D01*
X56272134Y-112911000D01*
X56467871Y-112911000D01*
X56661187Y-112880381D01*
X56847338Y-112819897D01*
X57021736Y-112731036D01*
X57110641Y-112666443D01*
X57180080Y-112615994D01*
X57180082Y-112615991D01*
X57180086Y-112615989D01*
X57318489Y-112477586D01*
X57318491Y-112477582D01*
X57318494Y-112477580D01*
X57368943Y-112408141D01*
X57433536Y-112319236D01*
X57522397Y-112144838D01*
X57582881Y-111958687D01*
X57613500Y-111765371D01*
X57613500Y-111569628D01*
X57582881Y-111376312D01*
X57522395Y-111190157D01*
X57490156Y-111126886D01*
X57433536Y-111015764D01*
X57426143Y-111005589D01*
X57318494Y-110857419D01*
X57180080Y-110719005D01*
X57021739Y-110603966D01*
X57021738Y-110603965D01*
X57021736Y-110603964D01*
X56967276Y-110576215D01*
X56847342Y-110515104D01*
X56661187Y-110454618D01*
X56467871Y-110424000D01*
X56467866Y-110424000D01*
X56272134Y-110424000D01*
X56272129Y-110424000D01*
X56078812Y-110454618D01*
X55892657Y-110515104D01*
X55718260Y-110603966D01*
X55559919Y-110719005D01*
X55421505Y-110857419D01*
X55306466Y-111015760D01*
X55217604Y-111190157D01*
X55157118Y-111376312D01*
X55126500Y-111569628D01*
X52659277Y-111569628D01*
X55317087Y-108911819D01*
X55378410Y-108878334D01*
X55404768Y-108875500D01*
X62605143Y-108875500D01*
X62605145Y-108875501D01*
X62694855Y-108875501D01*
X62753460Y-108851225D01*
X62777736Y-108841170D01*
X62841170Y-108777736D01*
X62841170Y-108777735D01*
X62858608Y-108760297D01*
X62858609Y-108760294D01*
X69624063Y-101994841D01*
X69685384Y-101961358D01*
X69755076Y-101966342D01*
X69811009Y-102008214D01*
X69835426Y-102073678D01*
X69831517Y-102114617D01*
X69799500Y-102234108D01*
X69799500Y-102365891D01*
X69833608Y-102493187D01*
X69856510Y-102532853D01*
X69899500Y-102607314D01*
X69992686Y-102700500D01*
X70106814Y-102766392D01*
X70234108Y-102800500D01*
X70234110Y-102800500D01*
X70365890Y-102800500D01*
X70365892Y-102800500D01*
X70493186Y-102766392D01*
X70607314Y-102700500D01*
X70700500Y-102607314D01*
X70766392Y-102493186D01*
X70784622Y-102425148D01*
X70820987Y-102365488D01*
X70883834Y-102334959D01*
X70904397Y-102333242D01*
X74458951Y-102333242D01*
X74525990Y-102352927D01*
X74571745Y-102405731D01*
X74581689Y-102474889D01*
X74552664Y-102538445D01*
X74546632Y-102544923D01*
X57155374Y-119936181D01*
X57094051Y-119969666D01*
X57067693Y-119972500D01*
X55745253Y-119972500D01*
X55654747Y-119972500D01*
X55654745Y-119972500D01*
X55654743Y-119972501D01*
X55571134Y-120007131D01*
X55571132Y-120007133D01*
X54275196Y-121303071D01*
X53844132Y-121734135D01*
X53780135Y-121798132D01*
X53745500Y-121881747D01*
X53745500Y-124714459D01*
X53745500Y-124804965D01*
X53780135Y-124888580D01*
X54211420Y-125319866D01*
X54270540Y-125344353D01*
X54270543Y-125344355D01*
X54270544Y-125344355D01*
X54280689Y-125348557D01*
X54295035Y-125354500D01*
X54904964Y-125354500D01*
X54904965Y-125354500D01*
X54988580Y-125319865D01*
X55791289Y-124517155D01*
X55852610Y-124483672D01*
X55922301Y-124488656D01*
X55978235Y-124530527D01*
X56002652Y-124595992D01*
X55999794Y-124625951D01*
X56000561Y-124626052D01*
X55999500Y-124634106D01*
X55999500Y-124634108D01*
X55999500Y-124765892D01*
X56010464Y-124806812D01*
X56033608Y-124893187D01*
X56066554Y-124950250D01*
X56099500Y-125007314D01*
X56192686Y-125100500D01*
X56306814Y-125166392D01*
X56434108Y-125200500D01*
X56434110Y-125200500D01*
X56565890Y-125200500D01*
X56565892Y-125200500D01*
X56693186Y-125166392D01*
X56807314Y-125100500D01*
X56900500Y-125007314D01*
X56966392Y-124893186D01*
X57000500Y-124765892D01*
X57000500Y-124634108D01*
X56995175Y-124614235D01*
X56996838Y-124544387D01*
X57027265Y-124494466D01*
X57519866Y-124001868D01*
X57523073Y-123994125D01*
X57544352Y-123942751D01*
X57544356Y-123942741D01*
X57554500Y-123918255D01*
X57554500Y-121233147D01*
X57574185Y-121166108D01*
X57590819Y-121145466D01*
X68062819Y-110673466D01*
X68124142Y-110639981D01*
X68193834Y-110644965D01*
X68249767Y-110686837D01*
X68274184Y-110752301D01*
X68274500Y-110761147D01*
X68274500Y-125040531D01*
X68254815Y-125107570D01*
X68238181Y-125128212D01*
X67402212Y-125964181D01*
X67340889Y-125997666D01*
X67314531Y-126000500D01*
X51370767Y-126000500D01*
X51303728Y-125980815D01*
X51283086Y-125964181D01*
X50526671Y-125207766D01*
X50493186Y-125146443D01*
X50494577Y-125087993D01*
X50500500Y-125065892D01*
X50500500Y-124934108D01*
X50466392Y-124806814D01*
X50465324Y-124804965D01*
X50457563Y-124791521D01*
X50400500Y-124692686D01*
X50307314Y-124599500D01*
X50246656Y-124564479D01*
X50193187Y-124533608D01*
X50093188Y-124506814D01*
X50065892Y-124499500D01*
X49934108Y-124499500D01*
X49806812Y-124533608D01*
X49692686Y-124599500D01*
X49692683Y-124599502D01*
X49599502Y-124692683D01*
X49599500Y-124692686D01*
X49533608Y-124806812D01*
X49499500Y-124934108D01*
X49499500Y-125065892D01*
X49516198Y-125128212D01*
X49533608Y-125193187D01*
X49554950Y-125230152D01*
X49599500Y-125307314D01*
X49692686Y-125400500D01*
X49806814Y-125466392D01*
X49934108Y-125500500D01*
X49934110Y-125500500D01*
X50065889Y-125500500D01*
X50065892Y-125500500D01*
X50087992Y-125494578D01*
X50157838Y-125496239D01*
X50207766Y-125526671D01*
X51034829Y-126353734D01*
X51034830Y-126353736D01*
X51098264Y-126417170D01*
X51132595Y-126431390D01*
X51181146Y-126451501D01*
X51181147Y-126451501D01*
X51285289Y-126451501D01*
X51285297Y-126451500D01*
X67414441Y-126451500D01*
X67414443Y-126451501D01*
X67504153Y-126451501D01*
X67562758Y-126427225D01*
X67587034Y-126417170D01*
X67650468Y-126353736D01*
X67650468Y-126353735D01*
X67667906Y-126336297D01*
X67667908Y-126336294D01*
X68627734Y-125376468D01*
X68627736Y-125376468D01*
X68691170Y-125313034D01*
X68714849Y-125255868D01*
X68725501Y-125230153D01*
X68725501Y-125140443D01*
X68725501Y-125130454D01*
X68725500Y-125130440D01*
X68725500Y-110558537D01*
X68745185Y-110491498D01*
X68761819Y-110470856D01*
X76070857Y-103161819D01*
X76132180Y-103128334D01*
X76158538Y-103125500D01*
X76880673Y-103125500D01*
X76947712Y-103145185D01*
X76988060Y-103187500D01*
X76999497Y-103207310D01*
X76999499Y-103207313D01*
X76999500Y-103207314D01*
X77092686Y-103300500D01*
X77206814Y-103366392D01*
X77334108Y-103400500D01*
X77334110Y-103400500D01*
X77465890Y-103400500D01*
X77465892Y-103400500D01*
X77593186Y-103366392D01*
X77707314Y-103300500D01*
X77800500Y-103207314D01*
X77866392Y-103093186D01*
X77900500Y-102965892D01*
X77900500Y-102834108D01*
X77866392Y-102706814D01*
X77800500Y-102592686D01*
X77707314Y-102499500D01*
X77638898Y-102460000D01*
X77593187Y-102433608D01*
X77529539Y-102416554D01*
X77465892Y-102399500D01*
X77334108Y-102399500D01*
X77206812Y-102433608D01*
X77092686Y-102499500D01*
X77092683Y-102499502D01*
X76999501Y-102592684D01*
X76999497Y-102592689D01*
X76988060Y-102612500D01*
X76937493Y-102660716D01*
X76880673Y-102674500D01*
X76361147Y-102674500D01*
X76294108Y-102654815D01*
X76248353Y-102602011D01*
X76238409Y-102532853D01*
X76267434Y-102469297D01*
X76273466Y-102462819D01*
X77138594Y-101597691D01*
X80426972Y-98309311D01*
X80488293Y-98275828D01*
X80557985Y-98280812D01*
X80590135Y-98298616D01*
X80592999Y-98300814D01*
X80593001Y-98300815D01*
X80593002Y-98300816D01*
X80646100Y-98331472D01*
X80705716Y-98365892D01*
X80707130Y-98366708D01*
X80834424Y-98400816D01*
X80834426Y-98400816D01*
X80966206Y-98400816D01*
X80966208Y-98400816D01*
X81093502Y-98366708D01*
X81207630Y-98300816D01*
X81274338Y-98234108D01*
X84099500Y-98234108D01*
X84099500Y-98365892D01*
X84100467Y-98369500D01*
X84133608Y-98493187D01*
X84166554Y-98550250D01*
X84199500Y-98607314D01*
X84292686Y-98700500D01*
X84406814Y-98766392D01*
X84534108Y-98800500D01*
X84534110Y-98800500D01*
X84665889Y-98800500D01*
X84665892Y-98800500D01*
X84687992Y-98794578D01*
X84757838Y-98796239D01*
X84807766Y-98826671D01*
X90038181Y-104057086D01*
X90071666Y-104118409D01*
X90074500Y-104144767D01*
X90074500Y-134715533D01*
X90054815Y-134782572D01*
X90002011Y-134828327D01*
X89997953Y-134830094D01*
X89952086Y-134849092D01*
X89831782Y-134929476D01*
X89729476Y-135031782D01*
X89649093Y-135152085D01*
X89593726Y-135285753D01*
X89593724Y-135285761D01*
X89565500Y-135427653D01*
X89565500Y-135572346D01*
X89593724Y-135714238D01*
X89593726Y-135714246D01*
X89649093Y-135847914D01*
X89729476Y-135968217D01*
X89831782Y-136070523D01*
X89891933Y-136110714D01*
X89952084Y-136150906D01*
X90085754Y-136206274D01*
X90227653Y-136234499D01*
X90227657Y-136234500D01*
X90227658Y-136234500D01*
X90372343Y-136234500D01*
X90372344Y-136234499D01*
X90514246Y-136206274D01*
X90647916Y-136150906D01*
X90768217Y-136070523D01*
X90870523Y-135968217D01*
X90950906Y-135847916D01*
X91006274Y-135714246D01*
X91034500Y-135572342D01*
X91034500Y-135427658D01*
X91034499Y-135427653D01*
X92105500Y-135427653D01*
X92105500Y-135572346D01*
X92133724Y-135714238D01*
X92133726Y-135714246D01*
X92189093Y-135847914D01*
X92269476Y-135968217D01*
X92371782Y-136070523D01*
X92431933Y-136110714D01*
X92492084Y-136150906D01*
X92625754Y-136206274D01*
X92767653Y-136234499D01*
X92767657Y-136234500D01*
X92767658Y-136234500D01*
X92912343Y-136234500D01*
X92912344Y-136234499D01*
X93054246Y-136206274D01*
X93187916Y-136150906D01*
X93308217Y-136070523D01*
X93410523Y-135968217D01*
X93490906Y-135847916D01*
X93546274Y-135714246D01*
X93550152Y-135694747D01*
X93554191Y-135674447D01*
X93574499Y-135572346D01*
X93574500Y-135572343D01*
X93574500Y-135427657D01*
X93574499Y-135427653D01*
X93559714Y-135353325D01*
X93546274Y-135285754D01*
X93490906Y-135152084D01*
X93450714Y-135091933D01*
X93410523Y-135031782D01*
X93308220Y-134929479D01*
X93290970Y-134917953D01*
X93290967Y-134917949D01*
X93187918Y-134849095D01*
X93187914Y-134849093D01*
X93054246Y-134793726D01*
X93054238Y-134793724D01*
X92912346Y-134765500D01*
X92912342Y-134765500D01*
X92767658Y-134765500D01*
X92767653Y-134765500D01*
X92625761Y-134793724D01*
X92625753Y-134793726D01*
X92492085Y-134849093D01*
X92371782Y-134929476D01*
X92269476Y-135031782D01*
X92189093Y-135152085D01*
X92133726Y-135285753D01*
X92133724Y-135285761D01*
X92105500Y-135427653D01*
X91034499Y-135427653D01*
X91006274Y-135285754D01*
X90950906Y-135152084D01*
X90910714Y-135091933D01*
X90870523Y-135031782D01*
X90768217Y-134929476D01*
X90647913Y-134849092D01*
X90602047Y-134830094D01*
X90547644Y-134786253D01*
X90525579Y-134719958D01*
X90525500Y-134715533D01*
X90525500Y-125943767D01*
X90545185Y-125876728D01*
X90597989Y-125830973D01*
X90667147Y-125821029D01*
X90730703Y-125850054D01*
X90737181Y-125856086D01*
X95828181Y-130947086D01*
X95842884Y-130974013D01*
X95859477Y-130999832D01*
X95860368Y-131006032D01*
X95861666Y-131008409D01*
X95864500Y-131034767D01*
X95864500Y-131045142D01*
X95864499Y-131045156D01*
X95864499Y-131144853D01*
X95864500Y-131144858D01*
X95888772Y-131203457D01*
X95898829Y-131227735D01*
X95898830Y-131227736D01*
X95962264Y-131291170D01*
X95962265Y-131291170D01*
X95979705Y-131308610D01*
X98849891Y-134178796D01*
X98883376Y-134240119D01*
X98878392Y-134309811D01*
X98836520Y-134365744D01*
X98771056Y-134390161D01*
X98718877Y-134382659D01*
X98691379Y-134372403D01*
X98691372Y-134372401D01*
X98631844Y-134366000D01*
X98200000Y-134366000D01*
X98200000Y-135212599D01*
X98183325Y-135195924D01*
X98096675Y-135145896D01*
X98000028Y-135120000D01*
X97899972Y-135120000D01*
X97803325Y-135145896D01*
X97716675Y-135195924D01*
X97700000Y-135212599D01*
X97700000Y-134366000D01*
X97268155Y-134366000D01*
X97208627Y-134372401D01*
X97208620Y-134372403D01*
X97073913Y-134422645D01*
X97073906Y-134422649D01*
X96958812Y-134508809D01*
X96958809Y-134508812D01*
X96872649Y-134623906D01*
X96872645Y-134623913D01*
X96822403Y-134758620D01*
X96822401Y-134758627D01*
X96816000Y-134818155D01*
X96816000Y-135250000D01*
X97662599Y-135250000D01*
X97645924Y-135266675D01*
X97595896Y-135353325D01*
X97570000Y-135449972D01*
X97570000Y-135550028D01*
X97595896Y-135646675D01*
X97645924Y-135733325D01*
X97662599Y-135750000D01*
X96816000Y-135750000D01*
X96816000Y-136181844D01*
X96822401Y-136241372D01*
X96822403Y-136241379D01*
X96872645Y-136376086D01*
X96872649Y-136376093D01*
X96958809Y-136491187D01*
X96958812Y-136491190D01*
X97073906Y-136577350D01*
X97073913Y-136577354D01*
X97208620Y-136627596D01*
X97208627Y-136627598D01*
X97268155Y-136633999D01*
X97268172Y-136634000D01*
X97700000Y-136634000D01*
X97700000Y-135787401D01*
X97716675Y-135804076D01*
X97803325Y-135854104D01*
X97899972Y-135880000D01*
X98000028Y-135880000D01*
X98096675Y-135854104D01*
X98183325Y-135804076D01*
X98200000Y-135787401D01*
X98200000Y-136634000D01*
X98631828Y-136634000D01*
X98631844Y-136633999D01*
X98691372Y-136627598D01*
X98691379Y-136627596D01*
X98826086Y-136577354D01*
X98826093Y-136577350D01*
X98941187Y-136491190D01*
X98941190Y-136491187D01*
X99027350Y-136376093D01*
X99027354Y-136376086D01*
X99077596Y-136241379D01*
X99077598Y-136241372D01*
X99083999Y-136181844D01*
X99084000Y-136181827D01*
X99084000Y-135750000D01*
X98237401Y-135750000D01*
X98254076Y-135733325D01*
X98304104Y-135646675D01*
X98330000Y-135550028D01*
X98330000Y-135449972D01*
X98304104Y-135353325D01*
X98254076Y-135266675D01*
X98237401Y-135250000D01*
X99084000Y-135250000D01*
X99084000Y-134818172D01*
X99083999Y-134818155D01*
X99077598Y-134758627D01*
X99077596Y-134758619D01*
X99067341Y-134731124D01*
X99062355Y-134661432D01*
X99095840Y-134600109D01*
X99157162Y-134566623D01*
X99226854Y-134571607D01*
X99271203Y-134600108D01*
X99775845Y-135104750D01*
X99809330Y-135166073D01*
X99804346Y-135235765D01*
X99802726Y-135239881D01*
X99783727Y-135285750D01*
X99783724Y-135285762D01*
X99755500Y-135427653D01*
X99755500Y-135572346D01*
X99783724Y-135714238D01*
X99783726Y-135714246D01*
X99839093Y-135847914D01*
X99919476Y-135968217D01*
X100021782Y-136070523D01*
X100081933Y-136110714D01*
X100142084Y-136150906D01*
X100275754Y-136206274D01*
X100417653Y-136234499D01*
X100417657Y-136234500D01*
X100417658Y-136234500D01*
X100562343Y-136234500D01*
X100562344Y-136234499D01*
X100704246Y-136206274D01*
X100837916Y-136150906D01*
X100958217Y-136070523D01*
X101060523Y-135968217D01*
X101140906Y-135847916D01*
X101196274Y-135714246D01*
X101224500Y-135572342D01*
X101224500Y-135427658D01*
X101224499Y-135427653D01*
X102295500Y-135427653D01*
X102295500Y-135572346D01*
X102323724Y-135714238D01*
X102323726Y-135714246D01*
X102379093Y-135847914D01*
X102459476Y-135968217D01*
X102561782Y-136070523D01*
X102621933Y-136110714D01*
X102682084Y-136150906D01*
X102815754Y-136206274D01*
X102957653Y-136234499D01*
X102957657Y-136234500D01*
X102957658Y-136234500D01*
X103102343Y-136234500D01*
X103102344Y-136234499D01*
X103244246Y-136206274D01*
X103377916Y-136150906D01*
X103498217Y-136070523D01*
X103600523Y-135968217D01*
X103680906Y-135847916D01*
X103736274Y-135714246D01*
X103764500Y-135572342D01*
X103764500Y-135427658D01*
X103736274Y-135285754D01*
X103680906Y-135152084D01*
X103640714Y-135091933D01*
X103600523Y-135031782D01*
X103498217Y-134929476D01*
X103377917Y-134849095D01*
X103377916Y-134849094D01*
X103377911Y-134849092D01*
X103244246Y-134793726D01*
X103244238Y-134793724D01*
X103102346Y-134765500D01*
X103102342Y-134765500D01*
X102957658Y-134765500D01*
X102957653Y-134765500D01*
X102815761Y-134793724D01*
X102815753Y-134793726D01*
X102682085Y-134849093D01*
X102561782Y-134929476D01*
X102459476Y-135031782D01*
X102379093Y-135152085D01*
X102323726Y-135285753D01*
X102323724Y-135285761D01*
X102295500Y-135427653D01*
X101224499Y-135427653D01*
X101196274Y-135285754D01*
X101140906Y-135152084D01*
X101100714Y-135091933D01*
X101060523Y-135031782D01*
X100958217Y-134929476D01*
X100837917Y-134849095D01*
X100837916Y-134849094D01*
X100837911Y-134849092D01*
X100704246Y-134793726D01*
X100704238Y-134793724D01*
X100562346Y-134765500D01*
X100562342Y-134765500D01*
X100417658Y-134765500D01*
X100417653Y-134765500D01*
X100275762Y-134793724D01*
X100275750Y-134793727D01*
X100229881Y-134812726D01*
X100160411Y-134820193D01*
X100097933Y-134788917D01*
X100094750Y-134785845D01*
X96351819Y-131042914D01*
X96337115Y-131015986D01*
X96320523Y-130990168D01*
X96319631Y-130983967D01*
X96318334Y-130981591D01*
X96315500Y-130955233D01*
X96315500Y-130949297D01*
X96315501Y-130949288D01*
X96315501Y-130845147D01*
X96315501Y-130845146D01*
X96281170Y-130762265D01*
X96281170Y-130762264D01*
X96217736Y-130698830D01*
X96217734Y-130698829D01*
X91061819Y-125542914D01*
X91028334Y-125481591D01*
X91025500Y-125455233D01*
X91025500Y-115050683D01*
X100251000Y-115050683D01*
X100251000Y-115269316D01*
X100285202Y-115485259D01*
X100352761Y-115693188D01*
X100352762Y-115693191D01*
X100452020Y-115887993D01*
X100452021Y-115887995D01*
X100496806Y-115949638D01*
X100496807Y-115949638D01*
X101202352Y-115244093D01*
X101225792Y-115331571D01*
X101284311Y-115432930D01*
X101367070Y-115515689D01*
X101468429Y-115574208D01*
X101555905Y-115597647D01*
X100850360Y-116303191D01*
X100912008Y-116347980D01*
X101106808Y-116447237D01*
X101106811Y-116447238D01*
X101314740Y-116514797D01*
X101530684Y-116549000D01*
X101749316Y-116549000D01*
X101965259Y-116514797D01*
X102173188Y-116447238D01*
X102173191Y-116447237D01*
X102367995Y-116347978D01*
X102429638Y-116303191D01*
X102429639Y-116303191D01*
X101724094Y-115597647D01*
X101811571Y-115574208D01*
X101912930Y-115515689D01*
X101995689Y-115432930D01*
X102054208Y-115331571D01*
X102077647Y-115244095D01*
X102783191Y-115949639D01*
X102783191Y-115949638D01*
X102827978Y-115887995D01*
X102927237Y-115693191D01*
X102927238Y-115693188D01*
X102994796Y-115485264D01*
X102994864Y-115484836D01*
X102994936Y-115484683D01*
X102995934Y-115480527D01*
X102996807Y-115480736D01*
X103024789Y-115421699D01*
X103084098Y-115384764D01*
X103153960Y-115385756D01*
X103212196Y-115424361D01*
X103231900Y-115456773D01*
X103303112Y-115628697D01*
X103303119Y-115628710D01*
X103411404Y-115790769D01*
X103411407Y-115790773D01*
X103549226Y-115928592D01*
X103549230Y-115928595D01*
X103711289Y-116036880D01*
X103711302Y-116036887D01*
X103891368Y-116111472D01*
X103891373Y-116111474D01*
X104082538Y-116149499D01*
X104082542Y-116149500D01*
X104082543Y-116149500D01*
X104277458Y-116149500D01*
X104277459Y-116149499D01*
X104468627Y-116111474D01*
X104648704Y-116036884D01*
X104810770Y-115928595D01*
X104948595Y-115790770D01*
X105056884Y-115628704D01*
X105131474Y-115448627D01*
X105169500Y-115257457D01*
X105169500Y-115062543D01*
X105169499Y-115062538D01*
X105730500Y-115062538D01*
X105730500Y-115257461D01*
X105768524Y-115448619D01*
X105768527Y-115448631D01*
X105843112Y-115628697D01*
X105843119Y-115628710D01*
X105951404Y-115790769D01*
X105951407Y-115790773D01*
X106089226Y-115928592D01*
X106089230Y-115928595D01*
X106251289Y-116036880D01*
X106251302Y-116036887D01*
X106431368Y-116111472D01*
X106431373Y-116111474D01*
X106622538Y-116149499D01*
X106622542Y-116149500D01*
X106622543Y-116149500D01*
X106817458Y-116149500D01*
X106817459Y-116149499D01*
X107008627Y-116111474D01*
X107188704Y-116036884D01*
X107350770Y-115928595D01*
X107488595Y-115790770D01*
X107596884Y-115628704D01*
X107671474Y-115448627D01*
X107709500Y-115257457D01*
X107709500Y-115062543D01*
X107671474Y-114871373D01*
X107656300Y-114834739D01*
X107596887Y-114691302D01*
X107596880Y-114691289D01*
X107488595Y-114529230D01*
X107488592Y-114529226D01*
X107350773Y-114391407D01*
X107350769Y-114391404D01*
X107188710Y-114283119D01*
X107188697Y-114283112D01*
X107008631Y-114208527D01*
X107008619Y-114208524D01*
X106817461Y-114170500D01*
X106817457Y-114170500D01*
X106622543Y-114170500D01*
X106622538Y-114170500D01*
X106431380Y-114208524D01*
X106431368Y-114208527D01*
X106251302Y-114283112D01*
X106251289Y-114283119D01*
X106089230Y-114391404D01*
X106089226Y-114391407D01*
X105951407Y-114529226D01*
X105951404Y-114529230D01*
X105843119Y-114691289D01*
X105843112Y-114691302D01*
X105768527Y-114871368D01*
X105768524Y-114871380D01*
X105730500Y-115062538D01*
X105169499Y-115062538D01*
X105131474Y-114871373D01*
X105116300Y-114834739D01*
X105056887Y-114691302D01*
X105056880Y-114691289D01*
X104948595Y-114529230D01*
X104948592Y-114529226D01*
X104810773Y-114391407D01*
X104810769Y-114391404D01*
X104648710Y-114283119D01*
X104648697Y-114283112D01*
X104468631Y-114208527D01*
X104468619Y-114208524D01*
X104277461Y-114170500D01*
X104277457Y-114170500D01*
X104082543Y-114170500D01*
X104082538Y-114170500D01*
X103891380Y-114208524D01*
X103891368Y-114208527D01*
X103711302Y-114283112D01*
X103711289Y-114283119D01*
X103549230Y-114391404D01*
X103549226Y-114391407D01*
X103411407Y-114529226D01*
X103411404Y-114529230D01*
X103303119Y-114691289D01*
X103303114Y-114691298D01*
X103231900Y-114863227D01*
X103188059Y-114917630D01*
X103121765Y-114939695D01*
X103054066Y-114922416D01*
X103006455Y-114871279D01*
X102996224Y-114839403D01*
X102995934Y-114839473D01*
X102995004Y-114835601D01*
X102994865Y-114835166D01*
X102994797Y-114834739D01*
X102927238Y-114626811D01*
X102927237Y-114626808D01*
X102827980Y-114432008D01*
X102783191Y-114370360D01*
X102077647Y-115075904D01*
X102054208Y-114988429D01*
X101995689Y-114887070D01*
X101912930Y-114804311D01*
X101811571Y-114745792D01*
X101724092Y-114722352D01*
X102429638Y-114016807D01*
X102429638Y-114016806D01*
X102367995Y-113972021D01*
X102367993Y-113972020D01*
X102173191Y-113872762D01*
X102173188Y-113872761D01*
X101965259Y-113805202D01*
X101749316Y-113771000D01*
X101530684Y-113771000D01*
X101314740Y-113805202D01*
X101106811Y-113872761D01*
X101106808Y-113872762D01*
X100912001Y-113972023D01*
X100850360Y-114016806D01*
X100850360Y-114016807D01*
X101555905Y-114722352D01*
X101468429Y-114745792D01*
X101367070Y-114804311D01*
X101284311Y-114887070D01*
X101225792Y-114988429D01*
X101202352Y-115075905D01*
X100496807Y-114370360D01*
X100496806Y-114370360D01*
X100452023Y-114432001D01*
X100352762Y-114626808D01*
X100352761Y-114626811D01*
X100285202Y-114834740D01*
X100251000Y-115050683D01*
X91025500Y-115050683D01*
X91025500Y-111569628D01*
X95316500Y-111569628D01*
X95316500Y-111765371D01*
X95347118Y-111958687D01*
X95407604Y-112144842D01*
X95496466Y-112319239D01*
X95611505Y-112477580D01*
X95749919Y-112615994D01*
X95898089Y-112723643D01*
X95908264Y-112731036D01*
X96019386Y-112787656D01*
X96082657Y-112819895D01*
X96082659Y-112819895D01*
X96082662Y-112819897D01*
X96182444Y-112852318D01*
X96268812Y-112880381D01*
X96462129Y-112911000D01*
X96462134Y-112911000D01*
X96657871Y-112911000D01*
X96851187Y-112880381D01*
X97037338Y-112819897D01*
X97211736Y-112731036D01*
X97300641Y-112666443D01*
X97370080Y-112615994D01*
X97370082Y-112615991D01*
X97370086Y-112615989D01*
X97508489Y-112477586D01*
X97508491Y-112477582D01*
X97508494Y-112477580D01*
X97558943Y-112408141D01*
X97623536Y-112319236D01*
X97712397Y-112144838D01*
X97772881Y-111958687D01*
X97803500Y-111765371D01*
X97803500Y-111569628D01*
X110556500Y-111569628D01*
X110556500Y-111765371D01*
X110587118Y-111958687D01*
X110647604Y-112144842D01*
X110736466Y-112319239D01*
X110851505Y-112477580D01*
X110989919Y-112615994D01*
X111138089Y-112723643D01*
X111148264Y-112731036D01*
X111259386Y-112787656D01*
X111322657Y-112819895D01*
X111322659Y-112819895D01*
X111322662Y-112819897D01*
X111422444Y-112852318D01*
X111508812Y-112880381D01*
X111702129Y-112911000D01*
X111702134Y-112911000D01*
X111897871Y-112911000D01*
X112091187Y-112880381D01*
X112277338Y-112819897D01*
X112451736Y-112731036D01*
X112540641Y-112666443D01*
X112610080Y-112615994D01*
X112610082Y-112615991D01*
X112610086Y-112615989D01*
X112748489Y-112477586D01*
X112748491Y-112477582D01*
X112748494Y-112477580D01*
X112798943Y-112408141D01*
X112863536Y-112319236D01*
X112952397Y-112144838D01*
X113012881Y-111958687D01*
X113043500Y-111765371D01*
X113043500Y-111569628D01*
X113012881Y-111376312D01*
X112952395Y-111190157D01*
X112920156Y-111126886D01*
X112863536Y-111015764D01*
X112856143Y-111005589D01*
X112748494Y-110857419D01*
X112610080Y-110719005D01*
X112451739Y-110603966D01*
X112451738Y-110603965D01*
X112451736Y-110603964D01*
X112397276Y-110576215D01*
X112277342Y-110515104D01*
X112091187Y-110454618D01*
X111897871Y-110424000D01*
X111897866Y-110424000D01*
X111702134Y-110424000D01*
X111702129Y-110424000D01*
X111508812Y-110454618D01*
X111322657Y-110515104D01*
X111148260Y-110603966D01*
X110989919Y-110719005D01*
X110851505Y-110857419D01*
X110736466Y-111015760D01*
X110647604Y-111190157D01*
X110587118Y-111376312D01*
X110556500Y-111569628D01*
X97803500Y-111569628D01*
X97772881Y-111376312D01*
X97712395Y-111190157D01*
X97680156Y-111126886D01*
X97623536Y-111015764D01*
X97616143Y-111005589D01*
X97508494Y-110857419D01*
X97370080Y-110719005D01*
X97211739Y-110603966D01*
X97211738Y-110603965D01*
X97211736Y-110603964D01*
X97157276Y-110576215D01*
X97037342Y-110515104D01*
X96851187Y-110454618D01*
X96657871Y-110424000D01*
X96657866Y-110424000D01*
X96462134Y-110424000D01*
X96462129Y-110424000D01*
X96268812Y-110454618D01*
X96082657Y-110515104D01*
X95908260Y-110603966D01*
X95749919Y-110719005D01*
X95611505Y-110857419D01*
X95496466Y-111015760D01*
X95407604Y-111190157D01*
X95347118Y-111376312D01*
X95316500Y-111569628D01*
X91025500Y-111569628D01*
X91025500Y-107442538D01*
X93030500Y-107442538D01*
X93030500Y-107637461D01*
X93068524Y-107828619D01*
X93068527Y-107828631D01*
X93143112Y-108008697D01*
X93143119Y-108008710D01*
X93251404Y-108170769D01*
X93251407Y-108170773D01*
X93389226Y-108308592D01*
X93389230Y-108308595D01*
X93551289Y-108416880D01*
X93551302Y-108416887D01*
X93730639Y-108491170D01*
X93731373Y-108491474D01*
X93902434Y-108525500D01*
X93922538Y-108529499D01*
X93922542Y-108529500D01*
X93922543Y-108529500D01*
X94117458Y-108529500D01*
X94117459Y-108529499D01*
X94308627Y-108491474D01*
X94488704Y-108416884D01*
X94650770Y-108308595D01*
X94788595Y-108170770D01*
X94896884Y-108008704D01*
X94971474Y-107828627D01*
X95009500Y-107637457D01*
X95009500Y-107442543D01*
X94971474Y-107251373D01*
X94971472Y-107251368D01*
X94896887Y-107071302D01*
X94896880Y-107071289D01*
X94788595Y-106909230D01*
X94788592Y-106909226D01*
X94650773Y-106771407D01*
X94650769Y-106771404D01*
X94641183Y-106764999D01*
X117147422Y-106764999D01*
X117148864Y-106779181D01*
X117149500Y-106791725D01*
X117149500Y-106863545D01*
X117164596Y-106939438D01*
X117165749Y-106945237D01*
X117167944Y-106966818D01*
X117173675Y-106985086D01*
X117174980Y-106991643D01*
X117174982Y-106991651D01*
X117187947Y-107056830D01*
X117187949Y-107056836D01*
X117219813Y-107133763D01*
X117219815Y-107133766D01*
X117221918Y-107138843D01*
X117228673Y-107160373D01*
X117237191Y-107175719D01*
X117239902Y-107182265D01*
X117239902Y-107182266D01*
X117263365Y-107238908D01*
X117263371Y-107238920D01*
X117313081Y-107313315D01*
X117313084Y-107313319D01*
X117315924Y-107317570D01*
X117327120Y-107337741D01*
X117337406Y-107349723D01*
X117341558Y-107355937D01*
X117372860Y-107402781D01*
X117372865Y-107402787D01*
X117440847Y-107470769D01*
X117444195Y-107474116D01*
X117459257Y-107491662D01*
X117470250Y-107500171D01*
X117475812Y-107505733D01*
X117475814Y-107505735D01*
X117512214Y-107542136D01*
X117512218Y-107542139D01*
X117601784Y-107601985D01*
X117619672Y-107615832D01*
X117630331Y-107621059D01*
X117676086Y-107651632D01*
X117782593Y-107695748D01*
X117801799Y-107705170D01*
X117811236Y-107707612D01*
X117858165Y-107727051D01*
X117979612Y-107751208D01*
X117998182Y-107756017D01*
X118005697Y-107756397D01*
X118045459Y-107764306D01*
X118051458Y-107765500D01*
X118185164Y-107765500D01*
X118200780Y-107766292D01*
X118205950Y-107765500D01*
X118248542Y-107765500D01*
X118294299Y-107756398D01*
X118391273Y-107737108D01*
X118401299Y-107735573D01*
X118403970Y-107734582D01*
X118441835Y-107727051D01*
X118589850Y-107665741D01*
X118591530Y-107665120D01*
X118591879Y-107664900D01*
X118623914Y-107651632D01*
X118787782Y-107542139D01*
X118927139Y-107402782D01*
X119036632Y-107238914D01*
X119112051Y-107056835D01*
X119129957Y-106966818D01*
X119150500Y-106863543D01*
X119150500Y-106666456D01*
X119112052Y-106473170D01*
X119112051Y-106473169D01*
X119112051Y-106473165D01*
X119080184Y-106396231D01*
X119036635Y-106291092D01*
X119036628Y-106291079D01*
X118927139Y-106127218D01*
X118927136Y-106127214D01*
X118787782Y-105987860D01*
X118623919Y-105878371D01*
X118623916Y-105878369D01*
X118623914Y-105878368D01*
X118623911Y-105878366D01*
X118623906Y-105878364D01*
X118596153Y-105866869D01*
X118591884Y-105865101D01*
X118591530Y-105864880D01*
X118589843Y-105864255D01*
X118521044Y-105835758D01*
X118441839Y-105802950D01*
X118441827Y-105802947D01*
X118412407Y-105797095D01*
X118412405Y-105797095D01*
X118403975Y-105795418D01*
X118401299Y-105794427D01*
X118391267Y-105792890D01*
X118388557Y-105792351D01*
X118388555Y-105792350D01*
X118248544Y-105764500D01*
X118248541Y-105764500D01*
X118205950Y-105764500D01*
X118200780Y-105763708D01*
X118185164Y-105764500D01*
X118051459Y-105764500D01*
X118014563Y-105771838D01*
X118014562Y-105771837D01*
X118005688Y-105773602D01*
X117998182Y-105773983D01*
X117979625Y-105778787D01*
X117976130Y-105779483D01*
X117858171Y-105802947D01*
X117858164Y-105802949D01*
X117819233Y-105819072D01*
X117819234Y-105819073D01*
X117811231Y-105822387D01*
X117801799Y-105824830D01*
X117782603Y-105834245D01*
X117778965Y-105835753D01*
X117778954Y-105835758D01*
X117676085Y-105878368D01*
X117637199Y-105904349D01*
X117637200Y-105904350D01*
X117630331Y-105908939D01*
X117619672Y-105914168D01*
X117601793Y-105928007D01*
X117598191Y-105930414D01*
X117598185Y-105930419D01*
X117512217Y-105987861D01*
X117475812Y-106024266D01*
X117475811Y-106024268D01*
X117470249Y-106029829D01*
X117459257Y-106038338D01*
X117444200Y-106055876D01*
X117440860Y-106059217D01*
X117440857Y-106059218D01*
X117372865Y-106127212D01*
X117372859Y-106127219D01*
X117341557Y-106174064D01*
X117337403Y-106180279D01*
X117327120Y-106192259D01*
X117315934Y-106212410D01*
X117313091Y-106216667D01*
X117263368Y-106291085D01*
X117263367Y-106291085D01*
X117239904Y-106347728D01*
X117239905Y-106347729D01*
X117237191Y-106354278D01*
X117228673Y-106369627D01*
X117221923Y-106391139D01*
X117219816Y-106396227D01*
X117219815Y-106396231D01*
X117187947Y-106473169D01*
X117174982Y-106538348D01*
X117173676Y-106544912D01*
X117167944Y-106563182D01*
X117165750Y-106584753D01*
X117164599Y-106590542D01*
X117164597Y-106590559D01*
X117153173Y-106647993D01*
X117150165Y-106663119D01*
X117149500Y-106666460D01*
X117149500Y-106738275D01*
X117148864Y-106750818D01*
X117147422Y-106764999D01*
X94641183Y-106764999D01*
X94488710Y-106663119D01*
X94488697Y-106663112D01*
X94308631Y-106588527D01*
X94308619Y-106588524D01*
X94117461Y-106550500D01*
X94117457Y-106550500D01*
X93922543Y-106550500D01*
X93922538Y-106550500D01*
X93731380Y-106588524D01*
X93731368Y-106588527D01*
X93551302Y-106663112D01*
X93551289Y-106663119D01*
X93389230Y-106771404D01*
X93389226Y-106771407D01*
X93251407Y-106909226D01*
X93251404Y-106909230D01*
X93143119Y-107071289D01*
X93143112Y-107071302D01*
X93068527Y-107251368D01*
X93068524Y-107251380D01*
X93030500Y-107442538D01*
X91025500Y-107442538D01*
X91025500Y-102350683D01*
X92631000Y-102350683D01*
X92631000Y-102569316D01*
X92665202Y-102785259D01*
X92732761Y-102993188D01*
X92732762Y-102993191D01*
X92832020Y-103187993D01*
X92832021Y-103187995D01*
X92876806Y-103249638D01*
X92876807Y-103249638D01*
X93582352Y-102544093D01*
X93605792Y-102631571D01*
X93664311Y-102732930D01*
X93747070Y-102815689D01*
X93848429Y-102874208D01*
X93935905Y-102897647D01*
X93230360Y-103603191D01*
X93292008Y-103647980D01*
X93486808Y-103747237D01*
X93486811Y-103747238D01*
X93694739Y-103814797D01*
X93695166Y-103814865D01*
X93695316Y-103814936D01*
X93699473Y-103815934D01*
X93699263Y-103816807D01*
X93758302Y-103844791D01*
X93795236Y-103904101D01*
X93794242Y-103973964D01*
X93755635Y-104032198D01*
X93723227Y-104051900D01*
X93551298Y-104123114D01*
X93551289Y-104123119D01*
X93389230Y-104231404D01*
X93389226Y-104231407D01*
X93251407Y-104369226D01*
X93251404Y-104369230D01*
X93143119Y-104531289D01*
X93143112Y-104531302D01*
X93068527Y-104711368D01*
X93068524Y-104711380D01*
X93030500Y-104902538D01*
X93030500Y-105097461D01*
X93068524Y-105288619D01*
X93068527Y-105288631D01*
X93143112Y-105468697D01*
X93143119Y-105468710D01*
X93251404Y-105630769D01*
X93251407Y-105630773D01*
X93389226Y-105768592D01*
X93389230Y-105768595D01*
X93551289Y-105876880D01*
X93551302Y-105876887D01*
X93731368Y-105951472D01*
X93731373Y-105951474D01*
X93914298Y-105987860D01*
X93922538Y-105989499D01*
X93922542Y-105989500D01*
X93922543Y-105989500D01*
X94117458Y-105989500D01*
X94117459Y-105989499D01*
X94308627Y-105951474D01*
X94485114Y-105878371D01*
X94488697Y-105876887D01*
X94488697Y-105876886D01*
X94488704Y-105876884D01*
X94650770Y-105768595D01*
X94788595Y-105630770D01*
X94896884Y-105468704D01*
X94971474Y-105288627D01*
X95009500Y-105097457D01*
X95009500Y-104902543D01*
X94971474Y-104711373D01*
X94971472Y-104711368D01*
X94896887Y-104531302D01*
X94896880Y-104531289D01*
X94788595Y-104369230D01*
X94788592Y-104369226D01*
X94650773Y-104231407D01*
X94650769Y-104231404D01*
X94488710Y-104123119D01*
X94488697Y-104123112D01*
X94316773Y-104051900D01*
X94262369Y-104008059D01*
X94240304Y-103941765D01*
X94257583Y-103874066D01*
X94308720Y-103826455D01*
X94340596Y-103816224D01*
X94340527Y-103815934D01*
X94344394Y-103815005D01*
X94344836Y-103814864D01*
X94345264Y-103814796D01*
X94553188Y-103747238D01*
X94553191Y-103747237D01*
X94747995Y-103647978D01*
X94809638Y-103603191D01*
X94809639Y-103603191D01*
X94104094Y-102897647D01*
X94191571Y-102874208D01*
X94292930Y-102815689D01*
X94375689Y-102732930D01*
X94434208Y-102631571D01*
X94457647Y-102544095D01*
X95163191Y-103249639D01*
X95163191Y-103249638D01*
X95207978Y-103187995D01*
X95307237Y-102993191D01*
X95307238Y-102993188D01*
X95374797Y-102785259D01*
X95409000Y-102569316D01*
X95409000Y-102350683D01*
X95374797Y-102134740D01*
X95307238Y-101926811D01*
X95307237Y-101926808D01*
X95207980Y-101732008D01*
X95163191Y-101670360D01*
X94457647Y-102375904D01*
X94434208Y-102288429D01*
X94375689Y-102187070D01*
X94292930Y-102104311D01*
X94191571Y-102045792D01*
X94104092Y-102022352D01*
X94809638Y-101316807D01*
X94809638Y-101316806D01*
X94747995Y-101272021D01*
X94747993Y-101272020D01*
X94553191Y-101172762D01*
X94553188Y-101172761D01*
X94345259Y-101105202D01*
X94129316Y-101071000D01*
X93910684Y-101071000D01*
X93694740Y-101105202D01*
X93486811Y-101172761D01*
X93486808Y-101172762D01*
X93292001Y-101272023D01*
X93230360Y-101316806D01*
X93230360Y-101316807D01*
X93935905Y-102022352D01*
X93848429Y-102045792D01*
X93747070Y-102104311D01*
X93664311Y-102187070D01*
X93605792Y-102288429D01*
X93582352Y-102375905D01*
X92876807Y-101670360D01*
X92876806Y-101670360D01*
X92832023Y-101732001D01*
X92732762Y-101926808D01*
X92732761Y-101926811D01*
X92665202Y-102134740D01*
X92631000Y-102350683D01*
X91025500Y-102350683D01*
X91025500Y-100855146D01*
X91025498Y-100855141D01*
X90991172Y-100772266D01*
X90920671Y-100701765D01*
X90920664Y-100701759D01*
X88453533Y-98234628D01*
X95316500Y-98234628D01*
X95316500Y-98430371D01*
X95347118Y-98623687D01*
X95407604Y-98809842D01*
X95496466Y-98984239D01*
X95611505Y-99142580D01*
X95749919Y-99280994D01*
X95898089Y-99388643D01*
X95908264Y-99396036D01*
X95982984Y-99434108D01*
X96082657Y-99484895D01*
X96082659Y-99484895D01*
X96082662Y-99484897D01*
X96182444Y-99517318D01*
X96268812Y-99545381D01*
X96462129Y-99576000D01*
X96462134Y-99576000D01*
X96657871Y-99576000D01*
X96851187Y-99545381D01*
X97037338Y-99484897D01*
X97211736Y-99396036D01*
X97334541Y-99306814D01*
X97370080Y-99280994D01*
X97370082Y-99280991D01*
X97370086Y-99280989D01*
X97508489Y-99142586D01*
X97508491Y-99142582D01*
X97508494Y-99142580D01*
X97577418Y-99047712D01*
X97623536Y-98984236D01*
X97712397Y-98809838D01*
X97772881Y-98623687D01*
X97775474Y-98607313D01*
X97803500Y-98430371D01*
X97803500Y-98234628D01*
X97772881Y-98041312D01*
X97712395Y-97855157D01*
X97636969Y-97707128D01*
X97623536Y-97680764D01*
X97555619Y-97587283D01*
X97508494Y-97522419D01*
X97370084Y-97384009D01*
X97370082Y-97384008D01*
X97360132Y-97376778D01*
X97360120Y-97376770D01*
X97230420Y-97282538D01*
X100015500Y-97282538D01*
X100015500Y-97477461D01*
X100053524Y-97668619D01*
X100053527Y-97668631D01*
X100128112Y-97848697D01*
X100128119Y-97848710D01*
X100236404Y-98010769D01*
X100236407Y-98010773D01*
X100374226Y-98148592D01*
X100374230Y-98148595D01*
X100536289Y-98256880D01*
X100536302Y-98256887D01*
X100662871Y-98309313D01*
X100716373Y-98331474D01*
X100893502Y-98366707D01*
X100907538Y-98369499D01*
X100907542Y-98369500D01*
X100907543Y-98369500D01*
X101102458Y-98369500D01*
X101102459Y-98369499D01*
X101293627Y-98331474D01*
X101473704Y-98256884D01*
X101635770Y-98148595D01*
X101773595Y-98010770D01*
X101881884Y-97848704D01*
X101956474Y-97668627D01*
X101994500Y-97477457D01*
X101994500Y-97282543D01*
X101994499Y-97282538D01*
X106365500Y-97282538D01*
X106365500Y-97477461D01*
X106403524Y-97668619D01*
X106403527Y-97668631D01*
X106478112Y-97848697D01*
X106478119Y-97848710D01*
X106586404Y-98010769D01*
X106586407Y-98010773D01*
X106724226Y-98148592D01*
X106724230Y-98148595D01*
X106886289Y-98256880D01*
X106886302Y-98256887D01*
X107012871Y-98309313D01*
X107066373Y-98331474D01*
X107243502Y-98366707D01*
X107257538Y-98369499D01*
X107257542Y-98369500D01*
X107257543Y-98369500D01*
X107452458Y-98369500D01*
X107452459Y-98369499D01*
X107643627Y-98331474D01*
X107823704Y-98256884D01*
X107857012Y-98234628D01*
X110556500Y-98234628D01*
X110556500Y-98430371D01*
X110587118Y-98623687D01*
X110647604Y-98809842D01*
X110736466Y-98984239D01*
X110851505Y-99142580D01*
X110989919Y-99280994D01*
X111138089Y-99388643D01*
X111148264Y-99396036D01*
X111222984Y-99434108D01*
X111322657Y-99484895D01*
X111322659Y-99484895D01*
X111322662Y-99484897D01*
X111422444Y-99517318D01*
X111508812Y-99545381D01*
X111702129Y-99576000D01*
X111702134Y-99576000D01*
X111897871Y-99576000D01*
X112091187Y-99545381D01*
X112277338Y-99484897D01*
X112451736Y-99396036D01*
X112574541Y-99306814D01*
X112610080Y-99280994D01*
X112610082Y-99280991D01*
X112610086Y-99280989D01*
X112748489Y-99142586D01*
X112748491Y-99142582D01*
X112748494Y-99142580D01*
X112817418Y-99047712D01*
X112863536Y-98984236D01*
X112952397Y-98809838D01*
X113012881Y-98623687D01*
X113015474Y-98607313D01*
X113043500Y-98430371D01*
X113043500Y-98234628D01*
X113012881Y-98041312D01*
X112952395Y-97855157D01*
X112876969Y-97707128D01*
X112863536Y-97680764D01*
X112795619Y-97587283D01*
X112748494Y-97522419D01*
X112610080Y-97384005D01*
X112451739Y-97268966D01*
X112451738Y-97268965D01*
X112451736Y-97268964D01*
X112397276Y-97241215D01*
X112277342Y-97180104D01*
X112091187Y-97119618D01*
X111897871Y-97089000D01*
X111897866Y-97089000D01*
X111702134Y-97089000D01*
X111702129Y-97089000D01*
X111508812Y-97119618D01*
X111322657Y-97180104D01*
X111148260Y-97268966D01*
X110989919Y-97384005D01*
X110851505Y-97522419D01*
X110736466Y-97680760D01*
X110647604Y-97855157D01*
X110587118Y-98041312D01*
X110556500Y-98234628D01*
X107857012Y-98234628D01*
X107985770Y-98148595D01*
X107985773Y-98148592D01*
X107992285Y-98142081D01*
X108123592Y-98010773D01*
X108123595Y-98010770D01*
X108231884Y-97848704D01*
X108306474Y-97668627D01*
X108344500Y-97477457D01*
X108344500Y-97282543D01*
X108306474Y-97091373D01*
X108280114Y-97027734D01*
X108231887Y-96911302D01*
X108231880Y-96911289D01*
X108123595Y-96749230D01*
X108123592Y-96749226D01*
X107985773Y-96611407D01*
X107985769Y-96611404D01*
X107823710Y-96503119D01*
X107823697Y-96503112D01*
X107643631Y-96428527D01*
X107643619Y-96428524D01*
X107452461Y-96390500D01*
X107452457Y-96390500D01*
X107257543Y-96390500D01*
X107257538Y-96390500D01*
X107066380Y-96428524D01*
X107066368Y-96428527D01*
X106886302Y-96503112D01*
X106886289Y-96503119D01*
X106724230Y-96611404D01*
X106724226Y-96611407D01*
X106586407Y-96749226D01*
X106586404Y-96749230D01*
X106478119Y-96911289D01*
X106478112Y-96911302D01*
X106403527Y-97091368D01*
X106403524Y-97091380D01*
X106365500Y-97282538D01*
X101994499Y-97282538D01*
X101956474Y-97091373D01*
X101930114Y-97027734D01*
X101881887Y-96911302D01*
X101881880Y-96911289D01*
X101773595Y-96749230D01*
X101773592Y-96749226D01*
X101635773Y-96611407D01*
X101635769Y-96611404D01*
X101473710Y-96503119D01*
X101473697Y-96503112D01*
X101293631Y-96428527D01*
X101293619Y-96428524D01*
X101102461Y-96390500D01*
X101102457Y-96390500D01*
X100907543Y-96390500D01*
X100907538Y-96390500D01*
X100716380Y-96428524D01*
X100716368Y-96428527D01*
X100536302Y-96503112D01*
X100536289Y-96503119D01*
X100374230Y-96611404D01*
X100374226Y-96611407D01*
X100236407Y-96749226D01*
X100236404Y-96749230D01*
X100128119Y-96911289D01*
X100128112Y-96911302D01*
X100053527Y-97091368D01*
X100053524Y-97091380D01*
X100015500Y-97282538D01*
X97230420Y-97282538D01*
X97211735Y-97268963D01*
X97037342Y-97180104D01*
X96851187Y-97119618D01*
X96657871Y-97089000D01*
X96657866Y-97089000D01*
X96462134Y-97089000D01*
X96462129Y-97089000D01*
X96268812Y-97119618D01*
X96082657Y-97180104D01*
X95908260Y-97268966D01*
X95749919Y-97384005D01*
X95611505Y-97522419D01*
X95496466Y-97680760D01*
X95407604Y-97855157D01*
X95347118Y-98041312D01*
X95316500Y-98234628D01*
X88453533Y-98234628D01*
X85961819Y-95742914D01*
X85928334Y-95681591D01*
X85925500Y-95655233D01*
X85925500Y-95019326D01*
X85945185Y-94952287D01*
X85987500Y-94911939D01*
X86007314Y-94900500D01*
X86100500Y-94807314D01*
X86166392Y-94693186D01*
X86200500Y-94565892D01*
X86200500Y-94434108D01*
X86166392Y-94306814D01*
X86160338Y-94296329D01*
X86127193Y-94238920D01*
X86100500Y-94192686D01*
X86007314Y-94099500D01*
X85933418Y-94056836D01*
X85893187Y-94033608D01*
X85829539Y-94016554D01*
X85765892Y-93999500D01*
X85634108Y-93999500D01*
X85506812Y-94033608D01*
X85392686Y-94099500D01*
X85392683Y-94099502D01*
X85299502Y-94192683D01*
X85299500Y-94192686D01*
X85233608Y-94306812D01*
X85199500Y-94434108D01*
X85199500Y-94565891D01*
X85233608Y-94693187D01*
X85257507Y-94734580D01*
X85299500Y-94807314D01*
X85392686Y-94900500D01*
X85412498Y-94911938D01*
X85460714Y-94962503D01*
X85474500Y-95019326D01*
X85474500Y-95745142D01*
X85474499Y-95745156D01*
X85474499Y-95844853D01*
X85474500Y-95844858D01*
X85498772Y-95903457D01*
X85508829Y-95927735D01*
X85508830Y-95927736D01*
X85572264Y-95991170D01*
X85572265Y-95991170D01*
X85589705Y-96008610D01*
X90538181Y-100957086D01*
X90571666Y-101018409D01*
X90574500Y-101044767D01*
X90574500Y-103656232D01*
X90554815Y-103723271D01*
X90502011Y-103769026D01*
X90432853Y-103778970D01*
X90369297Y-103749945D01*
X90362819Y-103743913D01*
X85126671Y-98507766D01*
X85093186Y-98446443D01*
X85094577Y-98387993D01*
X85100500Y-98365892D01*
X85100500Y-98234108D01*
X85066392Y-98106814D01*
X85000500Y-97992686D01*
X84907314Y-97899500D01*
X84830510Y-97855157D01*
X84793187Y-97833608D01*
X84729539Y-97816554D01*
X84665892Y-97799500D01*
X84534108Y-97799500D01*
X84406812Y-97833608D01*
X84292686Y-97899500D01*
X84292683Y-97899502D01*
X84199502Y-97992683D01*
X84199500Y-97992686D01*
X84133608Y-98106812D01*
X84118290Y-98163981D01*
X84099500Y-98234108D01*
X81274338Y-98234108D01*
X81300816Y-98207630D01*
X81366708Y-98093502D01*
X81400816Y-97966208D01*
X81400816Y-97834424D01*
X81366708Y-97707130D01*
X81300816Y-97593002D01*
X81300815Y-97593001D01*
X81300814Y-97592999D01*
X81298616Y-97590135D01*
X81297513Y-97587283D01*
X81296752Y-97585964D01*
X81296957Y-97585845D01*
X81273424Y-97524965D01*
X81287464Y-97456521D01*
X81309310Y-97426973D01*
X83400141Y-95336144D01*
X86587819Y-92148466D01*
X86649142Y-92114981D01*
X86718834Y-92119965D01*
X86774767Y-92161837D01*
X86799184Y-92227301D01*
X86799500Y-92236147D01*
X86799500Y-92365891D01*
X86833608Y-92493187D01*
X86853419Y-92527500D01*
X86899500Y-92607314D01*
X86992686Y-92700500D01*
X87106814Y-92766392D01*
X87234108Y-92800500D01*
X87234110Y-92800500D01*
X87365890Y-92800500D01*
X87365892Y-92800500D01*
X87493186Y-92766392D01*
X87607314Y-92700500D01*
X87700500Y-92607314D01*
X87710785Y-92589500D01*
X87761352Y-92541284D01*
X87818172Y-92527500D01*
X99945352Y-92527500D01*
X100012391Y-92547185D01*
X100058146Y-92599989D01*
X100059913Y-92604047D01*
X100128114Y-92768701D01*
X100128119Y-92768710D01*
X100236404Y-92930769D01*
X100236407Y-92930773D01*
X100374226Y-93068592D01*
X100374230Y-93068595D01*
X100536289Y-93176880D01*
X100536302Y-93176887D01*
X100688327Y-93239857D01*
X100716373Y-93251474D01*
X100907538Y-93289499D01*
X100907542Y-93289500D01*
X100907543Y-93289500D01*
X101102458Y-93289500D01*
X101102459Y-93289499D01*
X101293627Y-93251474D01*
X101473704Y-93176884D01*
X101635770Y-93068595D01*
X101773595Y-92930770D01*
X101881884Y-92768704D01*
X101956474Y-92588627D01*
X101994500Y-92397457D01*
X101994500Y-92202543D01*
X101994499Y-92202538D01*
X106365500Y-92202538D01*
X106365500Y-92397461D01*
X106403524Y-92588619D01*
X106403527Y-92588631D01*
X106478112Y-92768697D01*
X106478119Y-92768710D01*
X106586404Y-92930769D01*
X106586407Y-92930773D01*
X106724226Y-93068592D01*
X106724230Y-93068595D01*
X106886289Y-93176880D01*
X106886302Y-93176887D01*
X107038327Y-93239857D01*
X107066373Y-93251474D01*
X107257538Y-93289499D01*
X107257542Y-93289500D01*
X107257543Y-93289500D01*
X107452458Y-93289500D01*
X107452459Y-93289499D01*
X107643627Y-93251474D01*
X107823704Y-93176884D01*
X107985770Y-93068595D01*
X108123595Y-92930770D01*
X108231884Y-92768704D01*
X108233418Y-92765000D01*
X112147422Y-92765000D01*
X112147798Y-92768697D01*
X112148864Y-92779181D01*
X112149500Y-92791725D01*
X112149500Y-92863545D01*
X112164596Y-92939438D01*
X112165749Y-92945237D01*
X112167944Y-92966818D01*
X112173675Y-92985086D01*
X112174980Y-92991643D01*
X112174982Y-92991651D01*
X112187947Y-93056830D01*
X112187949Y-93056836D01*
X112219813Y-93133763D01*
X112219815Y-93133766D01*
X112221918Y-93138843D01*
X112228673Y-93160373D01*
X112237191Y-93175719D01*
X112239902Y-93182265D01*
X112239902Y-93182266D01*
X112263365Y-93238908D01*
X112263371Y-93238920D01*
X112313081Y-93313315D01*
X112313084Y-93313319D01*
X112315924Y-93317570D01*
X112327120Y-93337741D01*
X112337406Y-93349723D01*
X112341558Y-93355937D01*
X112372860Y-93402781D01*
X112372865Y-93402787D01*
X112440847Y-93470769D01*
X112444195Y-93474116D01*
X112459257Y-93491662D01*
X112470250Y-93500171D01*
X112475812Y-93505733D01*
X112475814Y-93505735D01*
X112512214Y-93542136D01*
X112512219Y-93542140D01*
X112535230Y-93557515D01*
X112601784Y-93601985D01*
X112619672Y-93615832D01*
X112630331Y-93621059D01*
X112676086Y-93651632D01*
X112782593Y-93695748D01*
X112801799Y-93705170D01*
X112811236Y-93707612D01*
X112858165Y-93727051D01*
X112979612Y-93751208D01*
X112998182Y-93756017D01*
X113005697Y-93756397D01*
X113045459Y-93764306D01*
X113051458Y-93765500D01*
X113185164Y-93765500D01*
X113200780Y-93766292D01*
X113205950Y-93765500D01*
X113248542Y-93765500D01*
X113294299Y-93756398D01*
X113391273Y-93737108D01*
X113401299Y-93735573D01*
X113403970Y-93734582D01*
X113441835Y-93727051D01*
X113589850Y-93665741D01*
X113591530Y-93665120D01*
X113591879Y-93664900D01*
X113623914Y-93651632D01*
X113787782Y-93542139D01*
X113927139Y-93402782D01*
X114036632Y-93238914D01*
X114112051Y-93056835D01*
X114129957Y-92966818D01*
X114150500Y-92863543D01*
X114150500Y-92666456D01*
X114112052Y-92473170D01*
X114112051Y-92473169D01*
X114112051Y-92473165D01*
X114080694Y-92397461D01*
X114036635Y-92291092D01*
X114036628Y-92291079D01*
X113927139Y-92127218D01*
X113927136Y-92127214D01*
X113787782Y-91987860D01*
X113623919Y-91878371D01*
X113623916Y-91878369D01*
X113623914Y-91878368D01*
X113623911Y-91878366D01*
X113623906Y-91878364D01*
X113596153Y-91866869D01*
X113591884Y-91865101D01*
X113591530Y-91864880D01*
X113589843Y-91864255D01*
X113574515Y-91857906D01*
X113441839Y-91802950D01*
X113441827Y-91802947D01*
X113412407Y-91797095D01*
X113412405Y-91797095D01*
X113403975Y-91795418D01*
X113401299Y-91794427D01*
X113391267Y-91792890D01*
X113388557Y-91792351D01*
X113388555Y-91792350D01*
X113248544Y-91764500D01*
X113248541Y-91764500D01*
X113205950Y-91764500D01*
X113200780Y-91763708D01*
X113185164Y-91764500D01*
X113051459Y-91764500D01*
X113014563Y-91771838D01*
X113014562Y-91771837D01*
X113005688Y-91773602D01*
X112998182Y-91773983D01*
X112979625Y-91778787D01*
X112976130Y-91779483D01*
X112858171Y-91802947D01*
X112858164Y-91802949D01*
X112819233Y-91819072D01*
X112819234Y-91819073D01*
X112811231Y-91822387D01*
X112801799Y-91824830D01*
X112782603Y-91834245D01*
X112778965Y-91835753D01*
X112778954Y-91835758D01*
X112676085Y-91878368D01*
X112637199Y-91904349D01*
X112637200Y-91904350D01*
X112630331Y-91908939D01*
X112619672Y-91914168D01*
X112601793Y-91928007D01*
X112598191Y-91930414D01*
X112598185Y-91930419D01*
X112512217Y-91987861D01*
X112475812Y-92024266D01*
X112475811Y-92024268D01*
X112470249Y-92029829D01*
X112459257Y-92038338D01*
X112444200Y-92055876D01*
X112440860Y-92059217D01*
X112440857Y-92059218D01*
X112372865Y-92127212D01*
X112372859Y-92127219D01*
X112341557Y-92174064D01*
X112337403Y-92180279D01*
X112327120Y-92192259D01*
X112315934Y-92212410D01*
X112313091Y-92216667D01*
X112263368Y-92291085D01*
X112263367Y-92291085D01*
X112239904Y-92347728D01*
X112239905Y-92347729D01*
X112237191Y-92354278D01*
X112228673Y-92369627D01*
X112221923Y-92391139D01*
X112219816Y-92396227D01*
X112219815Y-92396231D01*
X112187947Y-92473169D01*
X112174982Y-92538348D01*
X112173676Y-92544912D01*
X112167944Y-92563182D01*
X112165750Y-92584753D01*
X112164599Y-92590542D01*
X112164597Y-92590559D01*
X112149500Y-92666460D01*
X112149500Y-92738275D01*
X112148864Y-92750818D01*
X112147422Y-92765000D01*
X108233418Y-92765000D01*
X108306474Y-92588627D01*
X108344500Y-92397457D01*
X108344500Y-92202543D01*
X108306474Y-92011373D01*
X108298734Y-91992686D01*
X108231887Y-91831302D01*
X108231880Y-91831289D01*
X108123595Y-91669230D01*
X108123592Y-91669226D01*
X107985773Y-91531407D01*
X107985769Y-91531404D01*
X107823710Y-91423119D01*
X107823697Y-91423112D01*
X107643631Y-91348527D01*
X107643619Y-91348524D01*
X107452461Y-91310500D01*
X107452457Y-91310500D01*
X107257543Y-91310500D01*
X107257538Y-91310500D01*
X107066380Y-91348524D01*
X107066368Y-91348527D01*
X106886302Y-91423112D01*
X106886289Y-91423119D01*
X106724230Y-91531404D01*
X106724226Y-91531407D01*
X106586407Y-91669226D01*
X106586404Y-91669230D01*
X106478119Y-91831289D01*
X106478112Y-91831302D01*
X106403527Y-92011368D01*
X106403524Y-92011380D01*
X106365500Y-92202538D01*
X101994499Y-92202538D01*
X101956474Y-92011373D01*
X101948734Y-91992686D01*
X101881887Y-91831302D01*
X101881880Y-91831289D01*
X101773595Y-91669230D01*
X101773592Y-91669226D01*
X101635773Y-91531407D01*
X101635769Y-91531404D01*
X101473710Y-91423119D01*
X101473697Y-91423112D01*
X101293631Y-91348527D01*
X101293619Y-91348524D01*
X101102461Y-91310500D01*
X101102457Y-91310500D01*
X100907543Y-91310500D01*
X100907538Y-91310500D01*
X100716380Y-91348524D01*
X100716368Y-91348527D01*
X100536302Y-91423112D01*
X100536289Y-91423119D01*
X100374230Y-91531404D01*
X100374226Y-91531407D01*
X100236407Y-91669226D01*
X100236404Y-91669230D01*
X100128119Y-91831289D01*
X100128114Y-91831298D01*
X100059913Y-91995953D01*
X100016072Y-92050356D01*
X99949778Y-92072421D01*
X99945352Y-92072500D01*
X87818172Y-92072500D01*
X87751133Y-92052815D01*
X87710785Y-92010500D01*
X87702386Y-91995953D01*
X87700500Y-91992686D01*
X87607314Y-91899500D01*
X87544688Y-91863343D01*
X87493187Y-91833608D01*
X87429539Y-91816554D01*
X87365892Y-91799500D01*
X87236147Y-91799500D01*
X87169108Y-91779815D01*
X87123353Y-91727011D01*
X87113409Y-91657853D01*
X87142434Y-91594297D01*
X87148466Y-91587819D01*
X88120211Y-90616074D01*
X89101458Y-89634826D01*
X89158352Y-89603760D01*
X89158042Y-89602603D01*
X89165891Y-89600500D01*
X89165892Y-89600500D01*
X89293186Y-89566392D01*
X89407314Y-89500500D01*
X89500500Y-89407314D01*
X89566392Y-89293186D01*
X89600500Y-89165892D01*
X89600500Y-89034108D01*
X89566392Y-88906814D01*
X89500500Y-88792686D01*
X89407314Y-88699500D01*
X89350250Y-88666554D01*
X89293187Y-88633608D01*
X89229539Y-88616554D01*
X89165892Y-88599500D01*
X89118766Y-88599500D01*
X89051727Y-88579815D01*
X89005972Y-88527011D01*
X88996028Y-88457853D01*
X89025053Y-88394297D01*
X89031085Y-88387819D01*
X89255718Y-88163187D01*
X92056958Y-85361948D01*
X107324500Y-85361948D01*
X107324500Y-85543051D01*
X107352829Y-85721910D01*
X107408787Y-85894136D01*
X107408788Y-85894139D01*
X107491006Y-86055497D01*
X107597441Y-86201994D01*
X107597445Y-86201999D01*
X107725500Y-86330054D01*
X107725505Y-86330058D01*
X107729680Y-86333091D01*
X107872006Y-86436496D01*
X107977484Y-86490240D01*
X108033360Y-86518711D01*
X108033363Y-86518712D01*
X108119476Y-86546691D01*
X108205591Y-86574671D01*
X108288429Y-86587791D01*
X108384449Y-86603000D01*
X108384454Y-86603000D01*
X108565551Y-86603000D01*
X108652259Y-86589265D01*
X108744409Y-86574671D01*
X108916639Y-86518711D01*
X109077994Y-86436496D01*
X109224501Y-86330053D01*
X109352553Y-86202001D01*
X109458996Y-86055494D01*
X109541211Y-85894139D01*
X109597171Y-85721909D01*
X109621882Y-85565890D01*
X109625500Y-85543051D01*
X109625500Y-85361948D01*
X114334500Y-85361948D01*
X114334500Y-85543051D01*
X114362829Y-85721910D01*
X114418787Y-85894136D01*
X114418788Y-85894139D01*
X114501006Y-86055497D01*
X114607441Y-86201994D01*
X114607445Y-86201999D01*
X114735500Y-86330054D01*
X114735505Y-86330058D01*
X114739680Y-86333091D01*
X114882006Y-86436496D01*
X114987484Y-86490240D01*
X115043360Y-86518711D01*
X115043363Y-86518712D01*
X115129476Y-86546691D01*
X115215591Y-86574671D01*
X115298429Y-86587791D01*
X115394449Y-86603000D01*
X115394454Y-86603000D01*
X115575551Y-86603000D01*
X115662259Y-86589265D01*
X115754409Y-86574671D01*
X115926639Y-86518711D01*
X116087994Y-86436496D01*
X116234501Y-86330053D01*
X116362553Y-86202001D01*
X116468996Y-86055494D01*
X116551211Y-85894139D01*
X116607171Y-85721909D01*
X116631882Y-85565890D01*
X116635500Y-85543051D01*
X116635500Y-85361948D01*
X116619019Y-85257897D01*
X116607171Y-85183091D01*
X116551211Y-85010861D01*
X116551211Y-85010860D01*
X116479550Y-84870220D01*
X116468996Y-84849506D01*
X116430360Y-84796328D01*
X116362558Y-84703005D01*
X116362554Y-84703000D01*
X116234499Y-84574945D01*
X116234494Y-84574941D01*
X116087997Y-84468506D01*
X116087996Y-84468505D01*
X116087994Y-84468504D01*
X116036300Y-84442164D01*
X115926639Y-84386288D01*
X115926636Y-84386287D01*
X115754410Y-84330329D01*
X115575551Y-84302000D01*
X115575546Y-84302000D01*
X115394454Y-84302000D01*
X115394449Y-84302000D01*
X115215589Y-84330329D01*
X115043363Y-84386287D01*
X115043360Y-84386288D01*
X114882002Y-84468506D01*
X114735505Y-84574941D01*
X114735500Y-84574945D01*
X114607445Y-84703000D01*
X114607441Y-84703005D01*
X114501006Y-84849502D01*
X114418788Y-85010860D01*
X114418787Y-85010863D01*
X114362829Y-85183089D01*
X114334500Y-85361948D01*
X109625500Y-85361948D01*
X109609019Y-85257897D01*
X109597171Y-85183091D01*
X109541211Y-85010861D01*
X109541211Y-85010860D01*
X109469550Y-84870220D01*
X109458996Y-84849506D01*
X109420360Y-84796328D01*
X109352558Y-84703005D01*
X109352554Y-84703000D01*
X109224499Y-84574945D01*
X109224494Y-84574941D01*
X109077997Y-84468506D01*
X109077996Y-84468505D01*
X109077994Y-84468504D01*
X109026300Y-84442164D01*
X108916639Y-84386288D01*
X108916636Y-84386287D01*
X108744410Y-84330329D01*
X108565551Y-84302000D01*
X108565546Y-84302000D01*
X108384454Y-84302000D01*
X108384449Y-84302000D01*
X108205589Y-84330329D01*
X108033363Y-84386287D01*
X108033360Y-84386288D01*
X107872002Y-84468506D01*
X107725505Y-84574941D01*
X107725500Y-84574945D01*
X107597445Y-84703000D01*
X107597441Y-84703005D01*
X107491006Y-84849502D01*
X107408788Y-85010860D01*
X107408787Y-85010863D01*
X107352829Y-85183089D01*
X107324500Y-85361948D01*
X92056958Y-85361948D01*
X94194587Y-83224319D01*
X94255910Y-83190834D01*
X94282268Y-83188000D01*
X108679678Y-83188000D01*
X108746717Y-83207685D01*
X108792472Y-83260489D01*
X108794239Y-83264548D01*
X108860520Y-83424568D01*
X108860521Y-83424570D01*
X108967279Y-83584344D01*
X108967282Y-83584348D01*
X109103151Y-83720217D01*
X109103155Y-83720220D01*
X109262927Y-83826977D01*
X109262928Y-83826977D01*
X109262929Y-83826978D01*
X109262931Y-83826979D01*
X109440452Y-83900510D01*
X109440457Y-83900512D01*
X109628917Y-83937999D01*
X109628920Y-83938000D01*
X109628922Y-83938000D01*
X109821080Y-83938000D01*
X109821081Y-83937999D01*
X110009543Y-83900512D01*
X110187073Y-83826977D01*
X110346845Y-83720220D01*
X110482720Y-83584345D01*
X110589477Y-83424573D01*
X110663012Y-83247043D01*
X110700500Y-83058578D01*
X110700500Y-82866422D01*
X110700500Y-82866419D01*
X110700499Y-82866417D01*
X110681584Y-82771327D01*
X110663012Y-82677957D01*
X110621193Y-82576996D01*
X110589479Y-82500431D01*
X110589478Y-82500429D01*
X110563180Y-82461072D01*
X110482720Y-82340655D01*
X110482717Y-82340651D01*
X110346848Y-82204782D01*
X110346844Y-82204779D01*
X110187070Y-82098021D01*
X110187068Y-82098020D01*
X110009547Y-82024489D01*
X110009535Y-82024486D01*
X109942325Y-82011117D01*
X109880414Y-81978732D01*
X109845840Y-81918017D01*
X109849579Y-81848247D01*
X109890446Y-81791575D01*
X109955464Y-81765994D01*
X109966516Y-81765500D01*
X113983484Y-81765500D01*
X114050523Y-81785185D01*
X114096278Y-81837989D01*
X114106222Y-81907147D01*
X114077197Y-81970703D01*
X114018419Y-82008477D01*
X114007675Y-82011117D01*
X113940464Y-82024486D01*
X113940452Y-82024489D01*
X113762931Y-82098020D01*
X113762929Y-82098021D01*
X113603155Y-82204779D01*
X113603151Y-82204782D01*
X113467282Y-82340651D01*
X113467279Y-82340655D01*
X113360521Y-82500429D01*
X113360520Y-82500431D01*
X113286989Y-82677952D01*
X113286986Y-82677964D01*
X113249500Y-82866417D01*
X113249500Y-83058582D01*
X113286986Y-83247035D01*
X113286989Y-83247047D01*
X113360520Y-83424568D01*
X113360521Y-83424570D01*
X113467279Y-83584344D01*
X113467282Y-83584348D01*
X113603151Y-83720217D01*
X113603155Y-83720220D01*
X113762927Y-83826977D01*
X113762928Y-83826977D01*
X113762929Y-83826978D01*
X113762931Y-83826979D01*
X113940452Y-83900510D01*
X113940457Y-83900512D01*
X114128917Y-83937999D01*
X114128920Y-83938000D01*
X114128922Y-83938000D01*
X114321080Y-83938000D01*
X114321081Y-83937999D01*
X114509543Y-83900512D01*
X114687073Y-83826977D01*
X114846845Y-83720220D01*
X114982720Y-83584345D01*
X115089477Y-83424573D01*
X115163012Y-83247043D01*
X115200500Y-83058578D01*
X115200500Y-82866422D01*
X115200500Y-82866419D01*
X115200499Y-82866417D01*
X115181584Y-82771327D01*
X115163012Y-82677957D01*
X115121193Y-82576996D01*
X115089479Y-82500431D01*
X115089478Y-82500429D01*
X115063180Y-82461072D01*
X114982720Y-82340655D01*
X114982717Y-82340651D01*
X114846848Y-82204782D01*
X114846844Y-82204779D01*
X114687070Y-82098021D01*
X114687068Y-82098020D01*
X114509547Y-82024489D01*
X114509535Y-82024486D01*
X114442325Y-82011117D01*
X114380414Y-81978732D01*
X114345840Y-81918017D01*
X114349579Y-81848247D01*
X114390446Y-81791575D01*
X114455464Y-81765994D01*
X114466516Y-81765500D01*
X117147128Y-81765500D01*
X117152855Y-81765632D01*
X117480403Y-81780775D01*
X117486794Y-81781237D01*
X117561695Y-81788614D01*
X117566651Y-81789204D01*
X117853199Y-81829176D01*
X117860207Y-81830360D01*
X117929026Y-81844049D01*
X117933093Y-81844932D01*
X118220629Y-81912560D01*
X118228174Y-81914589D01*
X118285880Y-81932094D01*
X118289134Y-81933132D01*
X118579215Y-82030358D01*
X118587189Y-82033342D01*
X118626884Y-82049784D01*
X118629425Y-82050871D01*
X118743993Y-82101458D01*
X118925511Y-82181606D01*
X118933870Y-82185678D01*
X118941179Y-82189584D01*
X118943972Y-82191077D01*
X118943995Y-82191089D01*
X118945757Y-82192049D01*
X119250456Y-82361767D01*
X119260190Y-82367794D01*
X119453811Y-82500427D01*
X119555512Y-82570093D01*
X119564649Y-82576994D01*
X119840035Y-82805671D01*
X119848499Y-82813387D01*
X120101612Y-83066500D01*
X120109328Y-83074964D01*
X120338003Y-83350347D01*
X120344906Y-83359487D01*
X120547205Y-83654809D01*
X120553232Y-83664543D01*
X120722890Y-83969134D01*
X120723909Y-83971003D01*
X120729320Y-83981128D01*
X120733392Y-83989487D01*
X120864111Y-84285537D01*
X120865237Y-84288168D01*
X120881641Y-84327769D01*
X120884652Y-84335816D01*
X120905175Y-84397047D01*
X120981840Y-84625785D01*
X120982929Y-84629196D01*
X121000401Y-84686794D01*
X121002446Y-84694399D01*
X121070051Y-84981838D01*
X121070963Y-84986038D01*
X121084633Y-85054764D01*
X121085826Y-85061823D01*
X121125793Y-85348341D01*
X121126385Y-85353318D01*
X121133759Y-85428186D01*
X121134224Y-85434613D01*
X121149368Y-85762145D01*
X121149500Y-85767872D01*
X121149500Y-121763669D01*
X121149470Y-121766374D01*
X121132389Y-122549137D01*
X121132294Y-122551995D01*
X121124157Y-122733183D01*
X121124017Y-122735730D01*
X121078754Y-123426304D01*
X121078520Y-123429309D01*
X121062484Y-123607487D01*
X121062246Y-123609871D01*
X120986576Y-124300814D01*
X120986191Y-124303960D01*
X120962744Y-124477051D01*
X120962423Y-124479269D01*
X120855956Y-125170991D01*
X120855406Y-125174269D01*
X120825335Y-125339975D01*
X120824945Y-125342025D01*
X120687105Y-126034997D01*
X120686379Y-126038399D01*
X120650794Y-126194305D01*
X120650349Y-126196185D01*
X120480298Y-126891129D01*
X120479383Y-126894645D01*
X120439809Y-127038036D01*
X120439324Y-127039746D01*
X120235901Y-127737656D01*
X120234786Y-127741275D01*
X120193256Y-127869091D01*
X120192744Y-127870631D01*
X119954364Y-128572877D01*
X119953038Y-128576590D01*
X119912333Y-128685048D01*
X119911809Y-128686419D01*
X119636193Y-129395165D01*
X119634645Y-129398959D01*
X119598581Y-129483334D01*
X119598059Y-129484538D01*
X119282001Y-130202836D01*
X119280222Y-130206698D01*
X119254009Y-130261129D01*
X119253501Y-130262171D01*
X118892456Y-130994297D01*
X118890440Y-130998208D01*
X118881867Y-131014141D01*
X118881385Y-131015029D01*
X118471375Y-131762379D01*
X118468670Y-131767064D01*
X118018810Y-132508411D01*
X118015903Y-132512974D01*
X117534130Y-133233998D01*
X117531027Y-133238429D01*
X117018273Y-133937736D01*
X117014980Y-133942028D01*
X116472200Y-134618319D01*
X116468722Y-134622464D01*
X115896964Y-135274428D01*
X115893309Y-135278417D01*
X115293652Y-135904827D01*
X115289827Y-135908652D01*
X114663417Y-136508309D01*
X114659428Y-136511964D01*
X114007464Y-137083722D01*
X114003319Y-137087200D01*
X113327028Y-137629980D01*
X113322736Y-137633273D01*
X112623429Y-138146027D01*
X112618998Y-138149130D01*
X111897974Y-138630903D01*
X111893411Y-138633810D01*
X111152064Y-139083670D01*
X111147379Y-139086375D01*
X110400029Y-139496385D01*
X110399141Y-139496867D01*
X110383208Y-139505440D01*
X110379297Y-139507456D01*
X109647171Y-139868501D01*
X109646129Y-139869009D01*
X109591698Y-139895222D01*
X109587836Y-139897001D01*
X108869538Y-140213059D01*
X108868334Y-140213581D01*
X108783959Y-140249645D01*
X108780165Y-140251193D01*
X108071419Y-140526809D01*
X108070048Y-140527333D01*
X107961590Y-140568038D01*
X107957877Y-140569364D01*
X107255631Y-140807744D01*
X107254091Y-140808256D01*
X107126275Y-140849786D01*
X107122656Y-140850901D01*
X106424746Y-141054324D01*
X106423036Y-141054809D01*
X106279645Y-141094383D01*
X106276129Y-141095298D01*
X105581185Y-141265349D01*
X105579305Y-141265794D01*
X105423399Y-141301379D01*
X105419997Y-141302105D01*
X104727025Y-141439945D01*
X104724975Y-141440335D01*
X104559269Y-141470406D01*
X104555991Y-141470956D01*
X103864269Y-141577423D01*
X103862051Y-141577744D01*
X103688960Y-141601191D01*
X103685814Y-141601576D01*
X102994871Y-141677246D01*
X102992487Y-141677484D01*
X102814309Y-141693520D01*
X102811304Y-141693754D01*
X102120730Y-141739017D01*
X102118183Y-141739157D01*
X101936995Y-141747294D01*
X101934137Y-141747389D01*
X101151375Y-141764470D01*
X101148670Y-141764500D01*
X51151330Y-141764500D01*
X51148625Y-141764470D01*
X50365861Y-141747389D01*
X50363003Y-141747294D01*
X50181815Y-141739157D01*
X50179268Y-141739017D01*
X49488694Y-141693754D01*
X49485689Y-141693520D01*
X49307511Y-141677484D01*
X49305127Y-141677246D01*
X48614184Y-141601576D01*
X48611038Y-141601191D01*
X48437947Y-141577744D01*
X48435729Y-141577423D01*
X47744007Y-141470956D01*
X47740729Y-141470406D01*
X47575023Y-141440335D01*
X47572973Y-141439945D01*
X46880001Y-141302105D01*
X46876599Y-141301379D01*
X46720693Y-141265794D01*
X46718813Y-141265349D01*
X46023869Y-141095298D01*
X46020353Y-141094383D01*
X45876962Y-141054809D01*
X45875252Y-141054324D01*
X45177342Y-140850901D01*
X45173723Y-140849786D01*
X45045907Y-140808256D01*
X45044367Y-140807744D01*
X44342121Y-140569364D01*
X44338408Y-140568038D01*
X44229950Y-140527333D01*
X44228579Y-140526809D01*
X43519833Y-140251193D01*
X43516039Y-140249645D01*
X43431664Y-140213581D01*
X43430460Y-140213059D01*
X42712162Y-139897001D01*
X42708300Y-139895222D01*
X42653869Y-139869009D01*
X42652827Y-139868501D01*
X41920701Y-139507456D01*
X41916790Y-139505440D01*
X41900857Y-139496867D01*
X41900033Y-139496419D01*
X41299106Y-139166740D01*
X77149500Y-139166740D01*
X77149500Y-140753257D01*
X77159427Y-140821393D01*
X77210802Y-140926484D01*
X77293515Y-141009197D01*
X77293516Y-141009197D01*
X77293517Y-141009198D01*
X77398608Y-141060573D01*
X77398610Y-141060573D01*
X77398612Y-141060574D01*
X77420965Y-141063830D01*
X77466741Y-141070500D01*
X78533258Y-141070499D01*
X78601392Y-141060573D01*
X78706483Y-141009198D01*
X78789198Y-140926483D01*
X78840573Y-140821392D01*
X78850500Y-140753259D01*
X78850499Y-139616228D01*
X80149500Y-139616228D01*
X80149500Y-140303771D01*
X80182182Y-140468074D01*
X80182184Y-140468082D01*
X80246295Y-140622860D01*
X80339373Y-140762162D01*
X80457837Y-140880626D01*
X80526469Y-140926484D01*
X80597137Y-140973703D01*
X80751918Y-141037816D01*
X80916228Y-141070499D01*
X80916232Y-141070500D01*
X80916233Y-141070500D01*
X81083768Y-141070500D01*
X81083769Y-141070499D01*
X81248082Y-141037816D01*
X81402863Y-140973703D01*
X81542162Y-140880626D01*
X81660626Y-140762162D01*
X81753703Y-140622863D01*
X81817816Y-140468082D01*
X81850500Y-140303767D01*
X81850500Y-139616233D01*
X81817816Y-139451918D01*
X81753703Y-139297137D01*
X81722537Y-139250494D01*
X81660626Y-139157837D01*
X81542162Y-139039373D01*
X81402860Y-138946295D01*
X81248082Y-138882184D01*
X81248074Y-138882182D01*
X81083771Y-138849500D01*
X81083767Y-138849500D01*
X80916233Y-138849500D01*
X80916228Y-138849500D01*
X80751925Y-138882182D01*
X80751917Y-138882184D01*
X80597139Y-138946295D01*
X80457837Y-139039373D01*
X80339373Y-139157837D01*
X80246295Y-139297139D01*
X80182184Y-139451917D01*
X80182182Y-139451925D01*
X80149500Y-139616228D01*
X78850499Y-139616228D01*
X78850499Y-139166742D01*
X78840573Y-139098608D01*
X78789198Y-138993517D01*
X78789197Y-138993516D01*
X78789197Y-138993515D01*
X78706484Y-138910802D01*
X78647939Y-138882182D01*
X78601392Y-138859427D01*
X78601390Y-138859426D01*
X78601387Y-138859425D01*
X78533259Y-138849500D01*
X77466742Y-138849500D01*
X77398606Y-138859427D01*
X77293515Y-138910802D01*
X77210802Y-138993515D01*
X77159428Y-139098606D01*
X77159425Y-139098612D01*
X77149500Y-139166740D01*
X41299106Y-139166740D01*
X41174925Y-139098612D01*
X41152620Y-139086375D01*
X41147935Y-139083670D01*
X40406588Y-138633810D01*
X40402025Y-138630903D01*
X39680992Y-138149123D01*
X39676600Y-138146049D01*
X39358470Y-137912786D01*
X39358463Y-137912781D01*
X74114500Y-137912781D01*
X74114500Y-138087218D01*
X74148527Y-138258283D01*
X74148529Y-138258291D01*
X74215278Y-138419439D01*
X74215283Y-138419448D01*
X74312186Y-138564473D01*
X74312189Y-138564477D01*
X74435522Y-138687810D01*
X74435526Y-138687813D01*
X74580551Y-138784716D01*
X74580557Y-138784719D01*
X74580558Y-138784720D01*
X74741709Y-138851471D01*
X74896105Y-138882182D01*
X74912781Y-138885499D01*
X74912785Y-138885500D01*
X74912786Y-138885500D01*
X75087215Y-138885500D01*
X75087216Y-138885499D01*
X75258291Y-138851471D01*
X75419442Y-138784720D01*
X75564474Y-138687813D01*
X75687813Y-138564474D01*
X75784720Y-138419442D01*
X75851471Y-138258291D01*
X75885500Y-138087214D01*
X75885500Y-137912786D01*
X75885499Y-137912781D01*
X83114500Y-137912781D01*
X83114500Y-138087218D01*
X83148527Y-138258283D01*
X83148529Y-138258291D01*
X83215278Y-138419439D01*
X83215283Y-138419448D01*
X83312186Y-138564473D01*
X83312189Y-138564477D01*
X83435522Y-138687810D01*
X83435526Y-138687813D01*
X83580551Y-138784716D01*
X83580557Y-138784719D01*
X83580558Y-138784720D01*
X83741709Y-138851471D01*
X83896105Y-138882182D01*
X83912781Y-138885499D01*
X83912785Y-138885500D01*
X83912786Y-138885500D01*
X84087215Y-138885500D01*
X84087216Y-138885499D01*
X84258291Y-138851471D01*
X84419442Y-138784720D01*
X84564474Y-138687813D01*
X84687813Y-138564474D01*
X84784720Y-138419442D01*
X84851471Y-138258291D01*
X84885500Y-138087214D01*
X84885500Y-137912786D01*
X84851471Y-137741709D01*
X84784720Y-137580558D01*
X84784719Y-137580557D01*
X84784716Y-137580551D01*
X84687813Y-137435526D01*
X84687810Y-137435522D01*
X84564477Y-137312189D01*
X84564473Y-137312186D01*
X84419448Y-137215283D01*
X84419439Y-137215278D01*
X84258291Y-137148529D01*
X84258283Y-137148527D01*
X84087218Y-137114500D01*
X84087214Y-137114500D01*
X83912786Y-137114500D01*
X83912781Y-137114500D01*
X83741716Y-137148527D01*
X83741708Y-137148529D01*
X83580560Y-137215278D01*
X83580551Y-137215283D01*
X83435526Y-137312186D01*
X83435522Y-137312189D01*
X83312189Y-137435522D01*
X83312186Y-137435526D01*
X83215283Y-137580551D01*
X83215278Y-137580560D01*
X83148529Y-137741708D01*
X83148527Y-137741716D01*
X83114500Y-137912781D01*
X75885499Y-137912781D01*
X75851471Y-137741709D01*
X75784720Y-137580558D01*
X75784719Y-137580557D01*
X75784716Y-137580551D01*
X75687813Y-137435526D01*
X75687810Y-137435522D01*
X75564477Y-137312189D01*
X75564473Y-137312186D01*
X75419448Y-137215283D01*
X75419439Y-137215278D01*
X75258291Y-137148529D01*
X75258283Y-137148527D01*
X75087218Y-137114500D01*
X75087214Y-137114500D01*
X74912786Y-137114500D01*
X74912781Y-137114500D01*
X74741716Y-137148527D01*
X74741708Y-137148529D01*
X74580560Y-137215278D01*
X74580551Y-137215283D01*
X74435526Y-137312186D01*
X74435522Y-137312189D01*
X74312189Y-137435522D01*
X74312186Y-137435526D01*
X74215283Y-137580551D01*
X74215278Y-137580560D01*
X74148529Y-137741708D01*
X74148527Y-137741716D01*
X74114500Y-137912781D01*
X39358463Y-137912781D01*
X38977263Y-137633273D01*
X38972971Y-137629980D01*
X38296680Y-137087200D01*
X38292535Y-137083722D01*
X37640571Y-136511964D01*
X37636582Y-136508309D01*
X37010172Y-135908652D01*
X37006347Y-135904827D01*
X36756655Y-135643995D01*
X56599499Y-135643995D01*
X56626418Y-135779322D01*
X56626421Y-135779332D01*
X56679221Y-135906804D01*
X56679228Y-135906817D01*
X56755885Y-136021541D01*
X56755888Y-136021545D01*
X56853454Y-136119111D01*
X56853458Y-136119114D01*
X56968182Y-136195771D01*
X56968195Y-136195778D01*
X57078270Y-136241372D01*
X57095672Y-136248580D01*
X57095676Y-136248580D01*
X57095677Y-136248581D01*
X57231004Y-136275500D01*
X57231007Y-136275500D01*
X57368995Y-136275500D01*
X57460041Y-136257389D01*
X57504328Y-136248580D01*
X57606464Y-136206274D01*
X57631804Y-136195778D01*
X57631804Y-136195777D01*
X57631811Y-136195775D01*
X57746542Y-136119114D01*
X57844114Y-136021542D01*
X57920775Y-135906811D01*
X57973580Y-135779328D01*
X57986527Y-135714238D01*
X58000500Y-135643995D01*
X60999499Y-135643995D01*
X61026418Y-135779322D01*
X61026421Y-135779332D01*
X61079221Y-135906804D01*
X61079228Y-135906817D01*
X61155885Y-136021541D01*
X61155888Y-136021545D01*
X61253454Y-136119111D01*
X61253458Y-136119114D01*
X61368182Y-136195771D01*
X61368195Y-136195778D01*
X61478270Y-136241372D01*
X61495672Y-136248580D01*
X61495676Y-136248580D01*
X61495677Y-136248581D01*
X61631004Y-136275500D01*
X61631007Y-136275500D01*
X61768995Y-136275500D01*
X61860041Y-136257389D01*
X61904328Y-136248580D01*
X62006464Y-136206274D01*
X62031804Y-136195778D01*
X62031804Y-136195777D01*
X62031811Y-136195775D01*
X62146542Y-136119114D01*
X62244114Y-136021542D01*
X62320775Y-135906811D01*
X62373580Y-135779328D01*
X62386526Y-135714246D01*
X62394443Y-135674446D01*
X62394443Y-135674445D01*
X62398153Y-135655790D01*
X62400500Y-135643993D01*
X62400500Y-135506007D01*
X62400500Y-135506004D01*
X62373581Y-135370677D01*
X62373580Y-135370676D01*
X62373580Y-135370672D01*
X62366395Y-135353325D01*
X62320778Y-135243195D01*
X62320771Y-135243182D01*
X62244114Y-135128458D01*
X62244111Y-135128454D01*
X62146545Y-135030888D01*
X62146541Y-135030885D01*
X62031817Y-134954228D01*
X62031804Y-134954221D01*
X61971908Y-134929412D01*
X61904332Y-134901421D01*
X61904322Y-134901418D01*
X61768995Y-134874500D01*
X61768993Y-134874500D01*
X61631007Y-134874500D01*
X61631005Y-134874500D01*
X61495677Y-134901418D01*
X61495667Y-134901421D01*
X61368195Y-134954221D01*
X61368182Y-134954228D01*
X61253458Y-135030885D01*
X61253454Y-135030888D01*
X61155888Y-135128454D01*
X61155885Y-135128458D01*
X61079228Y-135243182D01*
X61079221Y-135243195D01*
X61026421Y-135370667D01*
X61026418Y-135370677D01*
X60999500Y-135506004D01*
X60999500Y-135506007D01*
X60999500Y-135643993D01*
X60999500Y-135643995D01*
X60999499Y-135643995D01*
X58000500Y-135643995D01*
X58000500Y-135506004D01*
X57973581Y-135370677D01*
X57973580Y-135370676D01*
X57973580Y-135370672D01*
X57966395Y-135353325D01*
X57920778Y-135243195D01*
X57920771Y-135243182D01*
X57844114Y-135128458D01*
X57844111Y-135128454D01*
X57746545Y-135030888D01*
X57746541Y-135030885D01*
X57631817Y-134954228D01*
X57631804Y-134954221D01*
X57504332Y-134901421D01*
X57504322Y-134901418D01*
X57368995Y-134874500D01*
X57368993Y-134874500D01*
X57231007Y-134874500D01*
X57231005Y-134874500D01*
X57095677Y-134901418D01*
X57095667Y-134901421D01*
X56968195Y-134954221D01*
X56968182Y-134954228D01*
X56853458Y-135030885D01*
X56853454Y-135030888D01*
X56755888Y-135128454D01*
X56755885Y-135128458D01*
X56679228Y-135243182D01*
X56679221Y-135243195D01*
X56626421Y-135370667D01*
X56626418Y-135370677D01*
X56599500Y-135506004D01*
X56599500Y-135506007D01*
X56599500Y-135643993D01*
X56599500Y-135643995D01*
X56599499Y-135643995D01*
X36756655Y-135643995D01*
X36700814Y-135585663D01*
X36406690Y-135278417D01*
X36403035Y-135274428D01*
X36002894Y-134818155D01*
X86626000Y-134818155D01*
X86626000Y-135250000D01*
X87472599Y-135250000D01*
X87455924Y-135266675D01*
X87405896Y-135353325D01*
X87380000Y-135449972D01*
X87380000Y-135550028D01*
X87405896Y-135646675D01*
X87455924Y-135733325D01*
X87472599Y-135750000D01*
X86626000Y-135750000D01*
X86626000Y-136181844D01*
X86632401Y-136241372D01*
X86632403Y-136241379D01*
X86682645Y-136376086D01*
X86682649Y-136376093D01*
X86768809Y-136491187D01*
X86768812Y-136491190D01*
X86883906Y-136577350D01*
X86883913Y-136577354D01*
X87018620Y-136627596D01*
X87018627Y-136627598D01*
X87078155Y-136633999D01*
X87078172Y-136634000D01*
X87510000Y-136634000D01*
X87510000Y-135787401D01*
X87526675Y-135804076D01*
X87613325Y-135854104D01*
X87709972Y-135880000D01*
X87810028Y-135880000D01*
X87906675Y-135854104D01*
X87993325Y-135804076D01*
X88010000Y-135787401D01*
X88010000Y-136634000D01*
X88441828Y-136634000D01*
X88441844Y-136633999D01*
X88501372Y-136627598D01*
X88501379Y-136627596D01*
X88636086Y-136577354D01*
X88636093Y-136577350D01*
X88751187Y-136491190D01*
X88751190Y-136491187D01*
X88837350Y-136376093D01*
X88837354Y-136376086D01*
X88887596Y-136241379D01*
X88887598Y-136241372D01*
X88893999Y-136181844D01*
X88894000Y-136181827D01*
X88894000Y-135750000D01*
X88047401Y-135750000D01*
X88064076Y-135733325D01*
X88114104Y-135646675D01*
X88140000Y-135550028D01*
X88140000Y-135449972D01*
X88114104Y-135353325D01*
X88064076Y-135266675D01*
X88047401Y-135250000D01*
X88894000Y-135250000D01*
X88894000Y-134818172D01*
X88893999Y-134818155D01*
X88887598Y-134758627D01*
X88887596Y-134758620D01*
X88837354Y-134623913D01*
X88837350Y-134623906D01*
X88751190Y-134508812D01*
X88751187Y-134508809D01*
X88636093Y-134422649D01*
X88636086Y-134422645D01*
X88501379Y-134372403D01*
X88501372Y-134372401D01*
X88441844Y-134366000D01*
X88010000Y-134366000D01*
X88010000Y-135212599D01*
X87993325Y-135195924D01*
X87906675Y-135145896D01*
X87810028Y-135120000D01*
X87709972Y-135120000D01*
X87613325Y-135145896D01*
X87526675Y-135195924D01*
X87510000Y-135212599D01*
X87510000Y-134366000D01*
X87078155Y-134366000D01*
X87018627Y-134372401D01*
X87018620Y-134372403D01*
X86883913Y-134422645D01*
X86883906Y-134422649D01*
X86768812Y-134508809D01*
X86768809Y-134508812D01*
X86682649Y-134623906D01*
X86682645Y-134623913D01*
X86632403Y-134758620D01*
X86632401Y-134758627D01*
X86626000Y-134818155D01*
X36002894Y-134818155D01*
X35831277Y-134622464D01*
X35827799Y-134618319D01*
X35285019Y-133942028D01*
X35281726Y-133937736D01*
X35029911Y-133594304D01*
X34768959Y-133238411D01*
X34765882Y-133234016D01*
X34284087Y-132512961D01*
X34281189Y-132508411D01*
X34110728Y-132227500D01*
X33831325Y-131767058D01*
X33828624Y-131762379D01*
X33418471Y-131014768D01*
X33418215Y-131014297D01*
X33409558Y-130998208D01*
X33407542Y-130994297D01*
X33405029Y-130989202D01*
X33296140Y-130768397D01*
X57949499Y-130768397D01*
X57949499Y-130900181D01*
X57964250Y-130955233D01*
X57983607Y-131027476D01*
X57999582Y-131055145D01*
X58049499Y-131141603D01*
X58142685Y-131234789D01*
X58256813Y-131300681D01*
X58384107Y-131334789D01*
X58384109Y-131334789D01*
X58515890Y-131334789D01*
X58515891Y-131334789D01*
X58535759Y-131329465D01*
X58605607Y-131331126D01*
X58655535Y-131361558D01*
X58992766Y-131698789D01*
X59026251Y-131760112D01*
X59029085Y-131786470D01*
X59029085Y-131792891D01*
X59063193Y-131920187D01*
X59096139Y-131977250D01*
X59129085Y-132034314D01*
X59222271Y-132127500D01*
X59336399Y-132193392D01*
X59463693Y-132227500D01*
X59463695Y-132227500D01*
X59595475Y-132227500D01*
X59595477Y-132227500D01*
X59722771Y-132193392D01*
X59836899Y-132127500D01*
X59930085Y-132034314D01*
X59995977Y-131920186D01*
X60030085Y-131792892D01*
X60030085Y-131661108D01*
X59995977Y-131533814D01*
X59930085Y-131419686D01*
X59836899Y-131326500D01*
X59775706Y-131291170D01*
X59722772Y-131260608D01*
X59626412Y-131234789D01*
X59595477Y-131226500D01*
X59463693Y-131226500D01*
X59336399Y-131260608D01*
X59336396Y-131260609D01*
X59336395Y-131260610D01*
X59331079Y-131263679D01*
X59263177Y-131280144D01*
X59197153Y-131257285D01*
X59181409Y-131243966D01*
X58977268Y-131039825D01*
X58943783Y-130978502D01*
X58945175Y-130920048D01*
X58950499Y-130900181D01*
X58950499Y-130768397D01*
X58916391Y-130641103D01*
X58850499Y-130526975D01*
X58757313Y-130433789D01*
X58700249Y-130400843D01*
X58643186Y-130367897D01*
X58579538Y-130350843D01*
X58515891Y-130333789D01*
X58384107Y-130333789D01*
X58256811Y-130367897D01*
X58142685Y-130433789D01*
X58142682Y-130433791D01*
X58049501Y-130526972D01*
X58049499Y-130526975D01*
X57983607Y-130641101D01*
X57968139Y-130698830D01*
X57949499Y-130768397D01*
X33296140Y-130768397D01*
X33046497Y-130262171D01*
X33045989Y-130261129D01*
X33019776Y-130206698D01*
X33017997Y-130202836D01*
X32701939Y-129484538D01*
X32701417Y-129483334D01*
X32665335Y-129398916D01*
X32663805Y-129395165D01*
X32388189Y-128686419D01*
X32387665Y-128685048D01*
X32346960Y-128576590D01*
X32345634Y-128572877D01*
X32107254Y-127870631D01*
X32106742Y-127869091D01*
X32065212Y-127741275D01*
X32064097Y-127737656D01*
X31860648Y-127039655D01*
X31860216Y-127038131D01*
X31820594Y-126894567D01*
X31819721Y-126891210D01*
X31649624Y-126196081D01*
X31649226Y-126194400D01*
X31613599Y-126038306D01*
X31612913Y-126035094D01*
X31475044Y-125341981D01*
X31474663Y-125339975D01*
X31471013Y-125319863D01*
X31444589Y-125174253D01*
X31444042Y-125170991D01*
X31434281Y-125107570D01*
X31337560Y-124479168D01*
X31337268Y-124477150D01*
X31313797Y-124303880D01*
X31313432Y-124300898D01*
X31237743Y-123609781D01*
X31237523Y-123607578D01*
X31221473Y-123429253D01*
X31221248Y-123426362D01*
X31175975Y-122735624D01*
X31175847Y-122733294D01*
X31167701Y-122551924D01*
X31167611Y-122549212D01*
X31150530Y-121766374D01*
X31150500Y-121763669D01*
X31150500Y-116764999D01*
X34147422Y-116764999D01*
X34148864Y-116779181D01*
X34149500Y-116791725D01*
X34149500Y-116863545D01*
X34164596Y-116939438D01*
X34165749Y-116945237D01*
X34167944Y-116966818D01*
X34173675Y-116985086D01*
X34174980Y-116991643D01*
X34174982Y-116991651D01*
X34187947Y-117056830D01*
X34187949Y-117056836D01*
X34219813Y-117133763D01*
X34219815Y-117133766D01*
X34221918Y-117138843D01*
X34228673Y-117160373D01*
X34237191Y-117175719D01*
X34239902Y-117182265D01*
X34239902Y-117182266D01*
X34263365Y-117238908D01*
X34263371Y-117238920D01*
X34313081Y-117313315D01*
X34313084Y-117313319D01*
X34315924Y-117317570D01*
X34327120Y-117337741D01*
X34337406Y-117349723D01*
X34341558Y-117355937D01*
X34372860Y-117402781D01*
X34372865Y-117402787D01*
X34440847Y-117470769D01*
X34444195Y-117474116D01*
X34459257Y-117491662D01*
X34470250Y-117500171D01*
X34475812Y-117505733D01*
X34475814Y-117505735D01*
X34512214Y-117542136D01*
X34512218Y-117542139D01*
X34601784Y-117601985D01*
X34619672Y-117615832D01*
X34630331Y-117621059D01*
X34676086Y-117651632D01*
X34782593Y-117695748D01*
X34801799Y-117705170D01*
X34811236Y-117707612D01*
X34858165Y-117727051D01*
X34979612Y-117751208D01*
X34998182Y-117756017D01*
X35005697Y-117756397D01*
X35045459Y-117764306D01*
X35051458Y-117765500D01*
X35185164Y-117765500D01*
X35200780Y-117766292D01*
X35205950Y-117765500D01*
X35248542Y-117765500D01*
X35294299Y-117756398D01*
X35391273Y-117737108D01*
X35401299Y-117735573D01*
X35403970Y-117734582D01*
X35441835Y-117727051D01*
X35589850Y-117665741D01*
X35591530Y-117665120D01*
X35591879Y-117664900D01*
X35623914Y-117651632D01*
X35787782Y-117542139D01*
X35927139Y-117402782D01*
X36036632Y-117238914D01*
X36112051Y-117056835D01*
X36129957Y-116966818D01*
X36150500Y-116863543D01*
X36150500Y-116666456D01*
X36112052Y-116473170D01*
X36112051Y-116473169D01*
X36112051Y-116473165D01*
X36101312Y-116447238D01*
X36041727Y-116303385D01*
X36036633Y-116291088D01*
X36036628Y-116291079D01*
X35927139Y-116127218D01*
X35927136Y-116127214D01*
X35787782Y-115987860D01*
X35623919Y-115878371D01*
X35623916Y-115878369D01*
X35623914Y-115878368D01*
X35623911Y-115878366D01*
X35623906Y-115878364D01*
X35596153Y-115866869D01*
X35591884Y-115865101D01*
X35591530Y-115864880D01*
X35589843Y-115864255D01*
X35521044Y-115835758D01*
X35441839Y-115802950D01*
X35441827Y-115802947D01*
X35412407Y-115797095D01*
X35412405Y-115797095D01*
X35403975Y-115795418D01*
X35401299Y-115794427D01*
X35391267Y-115792890D01*
X35388557Y-115792351D01*
X35388555Y-115792350D01*
X35248544Y-115764500D01*
X35248541Y-115764500D01*
X35205950Y-115764500D01*
X35200780Y-115763708D01*
X35185164Y-115764500D01*
X35051459Y-115764500D01*
X35014563Y-115771838D01*
X35014562Y-115771837D01*
X35005688Y-115773602D01*
X34998182Y-115773983D01*
X34979625Y-115778787D01*
X34976130Y-115779483D01*
X34858171Y-115802947D01*
X34858164Y-115802949D01*
X34819233Y-115819072D01*
X34819234Y-115819073D01*
X34811231Y-115822387D01*
X34801799Y-115824830D01*
X34782603Y-115834245D01*
X34778965Y-115835753D01*
X34778954Y-115835758D01*
X34676085Y-115878368D01*
X34637199Y-115904349D01*
X34637200Y-115904350D01*
X34630331Y-115908939D01*
X34619672Y-115914168D01*
X34601793Y-115928007D01*
X34598191Y-115930414D01*
X34598185Y-115930419D01*
X34512217Y-115987861D01*
X34475812Y-116024266D01*
X34475811Y-116024268D01*
X34470249Y-116029829D01*
X34459257Y-116038338D01*
X34444200Y-116055876D01*
X34440860Y-116059217D01*
X34440857Y-116059218D01*
X34372865Y-116127212D01*
X34372859Y-116127219D01*
X34341557Y-116174064D01*
X34337403Y-116180279D01*
X34327120Y-116192259D01*
X34315934Y-116212410D01*
X34313091Y-116216667D01*
X34263368Y-116291085D01*
X34263367Y-116291085D01*
X34239904Y-116347728D01*
X34239905Y-116347729D01*
X34237191Y-116354278D01*
X34228673Y-116369627D01*
X34221923Y-116391139D01*
X34219816Y-116396227D01*
X34219815Y-116396231D01*
X34187947Y-116473169D01*
X34174982Y-116538348D01*
X34173676Y-116544912D01*
X34167944Y-116563182D01*
X34165750Y-116584753D01*
X34164599Y-116590542D01*
X34164597Y-116590559D01*
X34149500Y-116666460D01*
X34149500Y-116738275D01*
X34148864Y-116750818D01*
X34147422Y-116764999D01*
X31150500Y-116764999D01*
X31150500Y-111569628D01*
X39886500Y-111569628D01*
X39886500Y-111765371D01*
X39917118Y-111958687D01*
X39977604Y-112144842D01*
X40066466Y-112319239D01*
X40181505Y-112477580D01*
X40319919Y-112615994D01*
X40468089Y-112723643D01*
X40478264Y-112731036D01*
X40589386Y-112787656D01*
X40652657Y-112819895D01*
X40652659Y-112819895D01*
X40652662Y-112819897D01*
X40752444Y-112852318D01*
X40838812Y-112880381D01*
X41032129Y-112911000D01*
X41032134Y-112911000D01*
X41227871Y-112911000D01*
X41421187Y-112880381D01*
X41607338Y-112819897D01*
X41781736Y-112731036D01*
X41870641Y-112666443D01*
X41940080Y-112615994D01*
X41940082Y-112615991D01*
X41940086Y-112615989D01*
X42078489Y-112477586D01*
X42078491Y-112477582D01*
X42078494Y-112477580D01*
X42128943Y-112408141D01*
X42193536Y-112319236D01*
X42282397Y-112144838D01*
X42342881Y-111958687D01*
X42373500Y-111765371D01*
X42373500Y-111569628D01*
X42342881Y-111376312D01*
X42282395Y-111190157D01*
X42250156Y-111126886D01*
X42193536Y-111015764D01*
X42186143Y-111005589D01*
X42078494Y-110857419D01*
X41940080Y-110719005D01*
X41781739Y-110603966D01*
X41781738Y-110603965D01*
X41781736Y-110603964D01*
X41727276Y-110576215D01*
X41607342Y-110515104D01*
X41421187Y-110454618D01*
X41227871Y-110424000D01*
X41227866Y-110424000D01*
X41032134Y-110424000D01*
X41032129Y-110424000D01*
X40838812Y-110454618D01*
X40652657Y-110515104D01*
X40478260Y-110603966D01*
X40319919Y-110719005D01*
X40181505Y-110857419D01*
X40066466Y-111015760D01*
X39977604Y-111190157D01*
X39917118Y-111376312D01*
X39886500Y-111569628D01*
X31150500Y-111569628D01*
X31150500Y-93765000D01*
X34147422Y-93765000D01*
X34148801Y-93778568D01*
X34148864Y-93779181D01*
X34149500Y-93791725D01*
X34149500Y-93863545D01*
X34164596Y-93939438D01*
X34165749Y-93945237D01*
X34167944Y-93966818D01*
X34173675Y-93985086D01*
X34174980Y-93991643D01*
X34174982Y-93991651D01*
X34187947Y-94056830D01*
X34187949Y-94056836D01*
X34219813Y-94133763D01*
X34219815Y-94133766D01*
X34221918Y-94138843D01*
X34228673Y-94160373D01*
X34237191Y-94175719D01*
X34239902Y-94182265D01*
X34239902Y-94182266D01*
X34263365Y-94238908D01*
X34263371Y-94238920D01*
X34313081Y-94313315D01*
X34313084Y-94313319D01*
X34315924Y-94317570D01*
X34327120Y-94337741D01*
X34337406Y-94349723D01*
X34341558Y-94355937D01*
X34372860Y-94402781D01*
X34372865Y-94402787D01*
X34440847Y-94470769D01*
X34444195Y-94474116D01*
X34459257Y-94491662D01*
X34470250Y-94500171D01*
X34475812Y-94505733D01*
X34475814Y-94505735D01*
X34512214Y-94542136D01*
X34512219Y-94542140D01*
X34519189Y-94546797D01*
X34601784Y-94601985D01*
X34619672Y-94615832D01*
X34630331Y-94621059D01*
X34676086Y-94651632D01*
X34782593Y-94695748D01*
X34801799Y-94705170D01*
X34811236Y-94707612D01*
X34858165Y-94727051D01*
X34979612Y-94751208D01*
X34998182Y-94756017D01*
X35005697Y-94756397D01*
X35045459Y-94764306D01*
X35051458Y-94765500D01*
X35185164Y-94765500D01*
X35200780Y-94766292D01*
X35205950Y-94765500D01*
X35248542Y-94765500D01*
X35294299Y-94756398D01*
X35391273Y-94737108D01*
X35401299Y-94735573D01*
X35403970Y-94734582D01*
X35441835Y-94727051D01*
X35589850Y-94665741D01*
X35591530Y-94665120D01*
X35591879Y-94664900D01*
X35623914Y-94651632D01*
X35787782Y-94542139D01*
X35927139Y-94402782D01*
X36036632Y-94238914D01*
X36112051Y-94056835D01*
X36129957Y-93966818D01*
X36150500Y-93863543D01*
X36150500Y-93666456D01*
X36112052Y-93473170D01*
X36112051Y-93473169D01*
X36112051Y-93473165D01*
X36080184Y-93396231D01*
X36036635Y-93291092D01*
X36036628Y-93291079D01*
X35927139Y-93127218D01*
X35927136Y-93127214D01*
X35787782Y-92987860D01*
X35623919Y-92878371D01*
X35623916Y-92878369D01*
X35623914Y-92878368D01*
X35623911Y-92878366D01*
X35623906Y-92878364D01*
X35596153Y-92866869D01*
X35591884Y-92865101D01*
X35591530Y-92864880D01*
X35589843Y-92864255D01*
X35521044Y-92835758D01*
X35441839Y-92802950D01*
X35441827Y-92802947D01*
X35412407Y-92797095D01*
X35412405Y-92797095D01*
X35403975Y-92795418D01*
X35401299Y-92794427D01*
X35391267Y-92792890D01*
X35388557Y-92792351D01*
X35388555Y-92792350D01*
X35248544Y-92764500D01*
X35248541Y-92764500D01*
X35205950Y-92764500D01*
X35200780Y-92763708D01*
X35185164Y-92764500D01*
X35051459Y-92764500D01*
X35014563Y-92771838D01*
X35014562Y-92771837D01*
X35005688Y-92773602D01*
X34998182Y-92773983D01*
X34979625Y-92778787D01*
X34976130Y-92779483D01*
X34858171Y-92802947D01*
X34858164Y-92802949D01*
X34819233Y-92819072D01*
X34819234Y-92819073D01*
X34811231Y-92822387D01*
X34801799Y-92824830D01*
X34782603Y-92834245D01*
X34778965Y-92835753D01*
X34778954Y-92835758D01*
X34676085Y-92878368D01*
X34637199Y-92904349D01*
X34637200Y-92904350D01*
X34630331Y-92908939D01*
X34619672Y-92914168D01*
X34601793Y-92928007D01*
X34598191Y-92930414D01*
X34598185Y-92930419D01*
X34512217Y-92987861D01*
X34475812Y-93024266D01*
X34475811Y-93024268D01*
X34470249Y-93029829D01*
X34459257Y-93038338D01*
X34444200Y-93055876D01*
X34440860Y-93059217D01*
X34440857Y-93059218D01*
X34372865Y-93127212D01*
X34372859Y-93127219D01*
X34341557Y-93174064D01*
X34337403Y-93180279D01*
X34327120Y-93192259D01*
X34315934Y-93212410D01*
X34313091Y-93216667D01*
X34263368Y-93291085D01*
X34263367Y-93291085D01*
X34239904Y-93347728D01*
X34239905Y-93347729D01*
X34237191Y-93354278D01*
X34228673Y-93369627D01*
X34221923Y-93391139D01*
X34219816Y-93396227D01*
X34219815Y-93396231D01*
X34187947Y-93473169D01*
X34174982Y-93538348D01*
X34173676Y-93544912D01*
X34167944Y-93563182D01*
X34165750Y-93584753D01*
X34164599Y-93590542D01*
X34164597Y-93590559D01*
X34153474Y-93646480D01*
X34149767Y-93665120D01*
X34149500Y-93666460D01*
X34149500Y-93738275D01*
X34148864Y-93750818D01*
X34147422Y-93765000D01*
X31150500Y-93765000D01*
X31150500Y-86511948D01*
X38124500Y-86511948D01*
X38124500Y-86693051D01*
X38152829Y-86871910D01*
X38208787Y-87044136D01*
X38208788Y-87044139D01*
X38250710Y-87126414D01*
X38288459Y-87200500D01*
X38291006Y-87205497D01*
X38397441Y-87351994D01*
X38397445Y-87351999D01*
X38525500Y-87480054D01*
X38525505Y-87480058D01*
X38557921Y-87503609D01*
X38672006Y-87586496D01*
X38777484Y-87640240D01*
X38833360Y-87668711D01*
X38833363Y-87668712D01*
X38919476Y-87696691D01*
X39005591Y-87724671D01*
X39088429Y-87737791D01*
X39184449Y-87753000D01*
X39184454Y-87753000D01*
X39365551Y-87753000D01*
X39452259Y-87739265D01*
X39544409Y-87724671D01*
X39716639Y-87668711D01*
X39877994Y-87586496D01*
X40024501Y-87480053D01*
X40152553Y-87352001D01*
X40258996Y-87205494D01*
X40341211Y-87044139D01*
X40397171Y-86871909D01*
X40411765Y-86779759D01*
X40425500Y-86693051D01*
X40425500Y-86511948D01*
X40406609Y-86392683D01*
X40397171Y-86333091D01*
X40354578Y-86202001D01*
X40341212Y-86160863D01*
X40341211Y-86160860D01*
X40293076Y-86066392D01*
X40258996Y-85999506D01*
X40229648Y-85959112D01*
X40152558Y-85853005D01*
X40152554Y-85853000D01*
X40024499Y-85724945D01*
X40024494Y-85724941D01*
X39877997Y-85618506D01*
X39877996Y-85618505D01*
X39877994Y-85618504D01*
X39826300Y-85592164D01*
X39716639Y-85536288D01*
X39716636Y-85536287D01*
X39544410Y-85480329D01*
X39365551Y-85452000D01*
X39365546Y-85452000D01*
X39184454Y-85452000D01*
X39184449Y-85452000D01*
X39005589Y-85480329D01*
X38833363Y-85536287D01*
X38833360Y-85536288D01*
X38672002Y-85618506D01*
X38525505Y-85724941D01*
X38525500Y-85724945D01*
X38397445Y-85853000D01*
X38397441Y-85853005D01*
X38291006Y-85999502D01*
X38208788Y-86160860D01*
X38208787Y-86160863D01*
X38152829Y-86333089D01*
X38124500Y-86511948D01*
X31150500Y-86511948D01*
X31150500Y-85767871D01*
X31150632Y-85762145D01*
X31160761Y-85543046D01*
X31165775Y-85434593D01*
X31166237Y-85428210D01*
X31173615Y-85353293D01*
X31174205Y-85348341D01*
X31179998Y-85306812D01*
X31214177Y-85061789D01*
X31215358Y-85054804D01*
X31229054Y-84985949D01*
X31229926Y-84981931D01*
X31297563Y-84694354D01*
X31299584Y-84686840D01*
X31317106Y-84629078D01*
X31318118Y-84625907D01*
X31415364Y-84335764D01*
X31418334Y-84327829D01*
X31434810Y-84288052D01*
X31435843Y-84285639D01*
X31566616Y-83989466D01*
X31570678Y-83981128D01*
X31576153Y-83970884D01*
X31577047Y-83969246D01*
X31746772Y-83664534D01*
X31752794Y-83654809D01*
X31955103Y-83359472D01*
X31961985Y-83350360D01*
X32190682Y-83074951D01*
X32198376Y-83066511D01*
X32451511Y-82813376D01*
X32459951Y-82805682D01*
X32735360Y-82576985D01*
X32744472Y-82570103D01*
X33039821Y-82367785D01*
X33049534Y-82361772D01*
X33354246Y-82192047D01*
X33355884Y-82191153D01*
X33366145Y-82185668D01*
X33374466Y-82181616D01*
X33670639Y-82050843D01*
X33673052Y-82049810D01*
X33712829Y-82033334D01*
X33720764Y-82030364D01*
X34010907Y-81933118D01*
X34014078Y-81932106D01*
X34071840Y-81914584D01*
X34079354Y-81912563D01*
X34366931Y-81844926D01*
X34370949Y-81844054D01*
X34439804Y-81830358D01*
X34446789Y-81829177D01*
X34733360Y-81789202D01*
X34738293Y-81788615D01*
X34813210Y-81781237D01*
X34819593Y-81780775D01*
X35117706Y-81766992D01*
X35147146Y-81765632D01*
X35152872Y-81765500D01*
X109483484Y-81765500D01*
X109550523Y-81785185D01*
G37*
%TD.AperFunction*%
%TA.AperFunction,Conductor*%
G36*
X38175792Y-102631571D02*
G01*
X38234311Y-102732930D01*
X38317070Y-102815689D01*
X38418429Y-102874208D01*
X38505905Y-102897647D01*
X37800360Y-103603191D01*
X37862008Y-103647980D01*
X38056808Y-103747237D01*
X38056811Y-103747238D01*
X38264739Y-103814797D01*
X38265166Y-103814865D01*
X38265316Y-103814936D01*
X38269473Y-103815934D01*
X38269263Y-103816807D01*
X38328302Y-103844791D01*
X38365236Y-103904101D01*
X38364242Y-103973964D01*
X38325635Y-104032198D01*
X38293227Y-104051900D01*
X38121298Y-104123114D01*
X38121289Y-104123119D01*
X37959230Y-104231404D01*
X37959226Y-104231407D01*
X37821407Y-104369226D01*
X37821404Y-104369230D01*
X37713119Y-104531289D01*
X37713114Y-104531298D01*
X37664061Y-104649725D01*
X37620220Y-104704128D01*
X37553926Y-104726193D01*
X37486227Y-104708914D01*
X37438616Y-104657777D01*
X37425500Y-104602272D01*
X37425500Y-103322308D01*
X37445185Y-103255269D01*
X37461819Y-103234627D01*
X38152352Y-102544093D01*
X38175792Y-102631571D01*
G37*
%TD.AperFunction*%
%TD*%
M02*
