M48
; DRILL file {KiCad 8.0.6} date 2025-03-30T10:46:02+0200
; FORMAT={-:-/ absolute / inch / decimal}
; #@! TF.CreationDate,2025-03-30T10:46:02+02:00
; #@! TF.GenerationSoftware,Kicad,Pcbnew,8.0.6
; #@! TF.FileFunction,Plated,1,2,PTH
FMAT,2
INCH
; #@! TA.AperFunction,Plated,PTH,ComponentDrill
T1C0.0079
; #@! TA.AperFunction,Plated,PTH,ViaDrill
T2C0.0157
; #@! TA.AperFunction,Plated,PTH,ComponentDrill
T3C0.0299
; #@! TA.AperFunction,Plated,PTH,ComponentDrill
T4C0.0350
; #@! TA.AperFunction,Plated,PTH,ComponentDrill
T5C0.0354
; #@! TA.AperFunction,Plated,PTH,ComponentDrill
T6C0.0390
; #@! TA.AperFunction,Plated,PTH,ComponentDrill
T7C0.0402
; #@! TA.AperFunction,Plated,PTH,ComponentDrill
T8C0.0512
; #@! TA.AperFunction,Plated,PTH,ComponentDrill
T9C0.0550
%
G90
G05
T1
X2.8287Y-3.5281
X2.8287Y-3.5881
X2.8588Y-3.498
X2.8588Y-3.5581
X2.8588Y-3.6181
X2.8888Y-3.5281
X2.8888Y-3.5881
X2.9188Y-3.498
X2.9188Y-3.5581
X2.9188Y-3.6181
X2.9488Y-3.5281
X2.9488Y-3.5881
T2
X1.3701Y-3.4331
X2.1496Y-4.9016
X2.1912Y-4.7937
X2.2244Y-4.9094
X2.2283Y-4.7913
X2.2323Y-4.8455
X2.3012Y-5.151
X2.3437Y-5.1861
X2.3898Y-3.2598
X2.3976Y-3.5748
X2.4016Y-3.315
X2.4291Y-4.937
X2.6024Y-4.1024
X2.6181Y-3.3228
X2.6457Y-4.9449
X2.7638Y-5.0886
X2.7677Y-4.0276
X2.8386Y-4.0472
X3.0472Y-4.0512
X3.1299Y-3.7717
X3.1535Y-3.3701
X3.185Y-3.6732
X3.2047Y-5.0945
X3.2835Y-4.2205
X3.3307Y-3.8701
X3.3454Y-3.5551
X3.3504Y-3.4134
X3.3622Y-3.3661
X3.3701Y-3.4634
X3.374Y-3.7205
X3.4252Y-3.5472
X3.437Y-3.6339
X3.5079Y-3.5079
X3.6575Y-3.3661
X4.0787Y-3.5157
X4.4488Y-4.874
T3
X3.4551Y-5.3346
X3.5551Y-5.3346
X3.6551Y-5.3346
X3.8563Y-5.3346
X3.9563Y-5.3346
X4.0563Y-5.3346
T4
X1.5193Y-4.0339
X1.5193Y-4.1339
X1.5193Y-4.2339
X1.8193Y-4.5339
X1.9193Y-4.5339
X2.0193Y-4.5339
X3.7016Y-4.0339
X3.7016Y-4.1339
X3.7016Y-4.2339
X4.0016Y-4.5339
X4.1016Y-4.5339
X4.2016Y-4.5339
T5
X1.7943Y-3.6339
X1.7943Y-3.8339
X2.0443Y-3.6339
X2.0443Y-3.8339
X3.9766Y-3.6339
X3.9766Y-3.8339
X4.2266Y-3.6339
X4.2266Y-3.8339
T6
X1.5955Y-3.3115
X1.7726Y-3.3115
X4.3199Y-3.2662
X4.497Y-3.2662
T7
X3.0394Y-5.4803
X3.1575Y-5.4803
T8
X1.5463Y-3.4095
X1.8222Y-3.4095
X4.2707Y-3.3643
X4.5467Y-3.3643
T9
X1.6193Y-3.8714
X1.6193Y-4.3964
X2.2193Y-3.8714
X2.2193Y-4.3964
X3.8016Y-3.8714
X3.8016Y-4.3964
X4.4016Y-3.8714
X4.4016Y-4.3964
M30
