%TF.GenerationSoftware,KiCad,Pcbnew,8.0.6*%
%TF.CreationDate,2025-03-25T19:51:35+01:00*%
%TF.ProjectId,CONTROL WIFI ESP32 S3 V4.0,434f4e54-524f-44c2-9057-494649204553,rev?*%
%TF.SameCoordinates,Original*%
%TF.FileFunction,Soldermask,Bot*%
%TF.FilePolarity,Negative*%
%FSLAX46Y46*%
G04 Gerber Fmt 4.6, Leading zero omitted, Abs format (unit mm)*
G04 Created by KiCad (PCBNEW 8.0.6) date 2025-03-25 19:51:35*
%MOMM*%
%LPD*%
G01*
G04 APERTURE LIST*
G04 Aperture macros list*
%AMRoundRect*
0 Rectangle with rounded corners*
0 $1 Rounding radius*
0 $2 $3 $4 $5 $6 $7 $8 $9 X,Y pos of 4 corners*
0 Add a 4 corners polygon primitive as box body*
4,1,4,$2,$3,$4,$5,$6,$7,$8,$9,$2,$3,0*
0 Add four circle primitives for the rounded corners*
1,1,$1+$1,$2,$3*
1,1,$1+$1,$4,$5*
1,1,$1+$1,$6,$7*
1,1,$1+$1,$8,$9*
0 Add four rect primitives between the rounded corners*
20,1,$1+$1,$2,$3,$4,$5,0*
20,1,$1+$1,$4,$5,$6,$7,0*
20,1,$1+$1,$6,$7,$8,$9,0*
20,1,$1+$1,$8,$9,$2,$3,0*%
G04 Aperture macros list end*
%ADD10RoundRect,0.102000X-0.634000X-0.634000X0.634000X-0.634000X0.634000X0.634000X-0.634000X0.634000X0*%
%ADD11C,1.472000*%
%ADD12C,2.100000*%
%ADD13C,1.750000*%
%ADD14C,1.270000*%
%ADD15RoundRect,0.250001X-0.499999X-0.759999X0.499999X-0.759999X0.499999X0.759999X-0.499999X0.759999X0*%
%ADD16O,1.500000X2.020000*%
%ADD17C,1.982000*%
%ADD18C,2.490000*%
%ADD19C,0.900000*%
G04 APERTURE END LIST*
D10*
%TO.C,POT1*%
X97950000Y-135500000D03*
D11*
X100490000Y-135500000D03*
X103030000Y-135500000D03*
%TD*%
D12*
%TO.C,SW1*%
X39275000Y-86602500D03*
X46285000Y-86602500D03*
D13*
X40525000Y-84112500D03*
X45025000Y-84112500D03*
%TD*%
D14*
%TO.C,J2*%
X74200000Y-137240000D03*
X83200000Y-137240000D03*
D15*
X77200000Y-139200000D03*
D16*
X80200000Y-139200000D03*
%TD*%
D17*
%TO.C,U5*%
X45575000Y-92300000D03*
X51925000Y-92300000D03*
X45575000Y-97380000D03*
X51925000Y-97380000D03*
X46210000Y-115160000D03*
X48750000Y-115160000D03*
X51290000Y-115160000D03*
D18*
X41130000Y-98332500D03*
X41130000Y-111667500D03*
X56370000Y-111667500D03*
X56370000Y-98332500D03*
D17*
X38590000Y-102460000D03*
X38590000Y-105000000D03*
X38590000Y-107540000D03*
%TD*%
%TO.C,U6*%
X101005000Y-92300000D03*
X107355000Y-92300000D03*
X101005000Y-97380000D03*
X107355000Y-97380000D03*
X101640000Y-115160000D03*
X104180000Y-115160000D03*
X106720000Y-115160000D03*
D18*
X96560000Y-98332500D03*
X96560000Y-111667500D03*
X111800000Y-111667500D03*
X111800000Y-98332500D03*
D17*
X94020000Y-102460000D03*
X94020000Y-105000000D03*
X94020000Y-107540000D03*
%TD*%
D12*
%TO.C,SW2*%
X108475000Y-85452500D03*
X115485000Y-85452500D03*
D13*
X109725000Y-82962500D03*
X114225000Y-82962500D03*
%TD*%
D10*
%TO.C,POT2*%
X87760000Y-135500000D03*
D11*
X90300000Y-135500000D03*
X92840000Y-135500000D03*
%TD*%
D19*
%TO.C,J1*%
X57300000Y-135575000D03*
X61700000Y-135575000D03*
%TD*%
M02*
