%TF.GenerationSoftware,KiCad,Pcbnew,8.0.6*%
%TF.CreationDate,2025-03-25T19:51:35+01:00*%
%TF.ProjectId,CONTROL WIFI ESP32 S3 V4.0,434f4e54-524f-44c2-9057-494649204553,rev?*%
%TF.SameCoordinates,Original*%
%TF.FileFunction,Soldermask,Top*%
%TF.FilePolarity,Negative*%
%FSLAX46Y46*%
G04 Gerber Fmt 4.6, Leading zero omitted, Abs format (unit mm)*
G04 Created by KiCad (PCBNEW 8.0.6) date 2025-03-25 19:51:35*
%MOMM*%
%LPD*%
G01*
G04 APERTURE LIST*
G04 Aperture macros list*
%AMRoundRect*
0 Rectangle with rounded corners*
0 $1 Rounding radius*
0 $2 $3 $4 $5 $6 $7 $8 $9 X,Y pos of 4 corners*
0 Add a 4 corners polygon primitive as box body*
4,1,4,$2,$3,$4,$5,$6,$7,$8,$9,$2,$3,0*
0 Add four circle primitives for the rounded corners*
1,1,$1+$1,$2,$3*
1,1,$1+$1,$4,$5*
1,1,$1+$1,$6,$7*
1,1,$1+$1,$8,$9*
0 Add four rect primitives between the rounded corners*
20,1,$1+$1,$2,$3,$4,$5,0*
20,1,$1+$1,$4,$5,$6,$7,0*
20,1,$1+$1,$6,$7,$8,$9,0*
20,1,$1+$1,$8,$9,$2,$3,0*%
G04 Aperture macros list end*
%ADD10RoundRect,0.200000X-0.275000X0.200000X-0.275000X-0.200000X0.275000X-0.200000X0.275000X0.200000X0*%
%ADD11RoundRect,0.102000X-0.634000X-0.634000X0.634000X-0.634000X0.634000X0.634000X-0.634000X0.634000X0*%
%ADD12C,1.472000*%
%ADD13RoundRect,0.100000X0.100000X-0.225000X0.100000X0.225000X-0.100000X0.225000X-0.100000X-0.225000X0*%
%ADD14R,1.500000X0.900000*%
%ADD15R,0.900000X1.500000*%
%ADD16C,0.600000*%
%ADD17R,4.200000X4.200000*%
%ADD18RoundRect,0.150000X0.512500X0.150000X-0.512500X0.150000X-0.512500X-0.150000X0.512500X-0.150000X0*%
%ADD19RoundRect,0.200000X0.275000X-0.200000X0.275000X0.200000X-0.275000X0.200000X-0.275000X-0.200000X0*%
%ADD20RoundRect,0.225000X0.225000X0.250000X-0.225000X0.250000X-0.225000X-0.250000X0.225000X-0.250000X0*%
%ADD21C,2.100000*%
%ADD22C,1.750000*%
%ADD23RoundRect,0.243750X-0.243750X-0.456250X0.243750X-0.456250X0.243750X0.456250X-0.243750X0.456250X0*%
%ADD24RoundRect,0.200000X0.200000X0.275000X-0.200000X0.275000X-0.200000X-0.275000X0.200000X-0.275000X0*%
%ADD25RoundRect,0.243750X0.456250X-0.243750X0.456250X0.243750X-0.456250X0.243750X-0.456250X-0.243750X0*%
%ADD26RoundRect,0.225000X-0.225000X-0.250000X0.225000X-0.250000X0.225000X0.250000X-0.225000X0.250000X0*%
%ADD27RoundRect,0.218750X0.218750X0.256250X-0.218750X0.256250X-0.218750X-0.256250X0.218750X-0.256250X0*%
%ADD28R,1.550000X1.300000*%
%ADD29RoundRect,0.200000X-0.200000X-0.275000X0.200000X-0.275000X0.200000X0.275000X-0.200000X0.275000X0*%
%ADD30R,2.400000X0.740000*%
%ADD31RoundRect,0.062500X0.062500X-0.337500X0.062500X0.337500X-0.062500X0.337500X-0.062500X-0.337500X0*%
%ADD32RoundRect,0.062500X0.337500X-0.062500X0.337500X0.062500X-0.337500X0.062500X-0.337500X-0.062500X0*%
%ADD33R,3.350000X3.350000*%
%ADD34R,1.250000X1.000000*%
%ADD35C,1.270000*%
%ADD36RoundRect,0.250001X-0.499999X-0.759999X0.499999X-0.759999X0.499999X0.759999X-0.499999X0.759999X0*%
%ADD37O,1.500000X2.020000*%
%ADD38RoundRect,0.150000X0.150000X-0.512500X0.150000X0.512500X-0.150000X0.512500X-0.150000X-0.512500X0*%
%ADD39C,1.982000*%
%ADD40C,2.490000*%
%ADD41C,0.900000*%
%ADD42R,0.500000X2.500000*%
%ADD43R,2.000000X2.500000*%
G04 APERTURE END LIST*
D10*
%TO.C,R13*%
X64200000Y-121500000D03*
X64200000Y-123150000D03*
%TD*%
D11*
%TO.C,POT1*%
X97950000Y-135500000D03*
D12*
X100490000Y-135500000D03*
X103030000Y-135500000D03*
%TD*%
D13*
%TO.C,Q1*%
X54580000Y-125220000D03*
X55230000Y-125220000D03*
X55880000Y-125220000D03*
X55880000Y-123320000D03*
X55230000Y-123320000D03*
X54580000Y-123320000D03*
%TD*%
D14*
%TO.C,U4*%
X65305000Y-83035000D03*
X65305000Y-84305000D03*
X65305000Y-85575000D03*
X65305000Y-86845000D03*
X65305000Y-88115000D03*
X65305000Y-89385000D03*
X65305000Y-90655000D03*
X65305000Y-91925000D03*
X65305000Y-93195000D03*
X65305000Y-94465000D03*
X65305000Y-95735000D03*
X65305000Y-97005000D03*
X65305000Y-98275000D03*
X65305000Y-99545000D03*
D15*
X68345000Y-100795000D03*
X69615000Y-100795000D03*
X70885000Y-100795000D03*
X72155000Y-100795000D03*
X73425000Y-100795000D03*
X74695000Y-100795000D03*
X75965000Y-100795000D03*
X77235000Y-100795000D03*
X78505000Y-100795000D03*
X79775000Y-100795000D03*
D14*
X82805000Y-99545000D03*
X82805000Y-98275000D03*
X82805000Y-97005000D03*
X82805000Y-95735000D03*
X82805000Y-94465000D03*
X82805000Y-93195000D03*
X82805000Y-91925000D03*
X82805000Y-90655000D03*
X82805000Y-89385000D03*
X82805000Y-88115000D03*
X82805000Y-86845000D03*
X82805000Y-85575000D03*
X82805000Y-84305000D03*
X82805000Y-83035000D03*
D16*
X71850000Y-89612500D03*
X71850000Y-91137500D03*
X72612500Y-88850000D03*
X72612500Y-90375000D03*
X72612500Y-91900000D03*
X73375000Y-89612500D03*
D17*
X73375000Y-90375000D03*
D16*
X73375000Y-91137500D03*
X74137500Y-88850000D03*
X74137500Y-90375000D03*
X74137500Y-91900000D03*
X74900000Y-89612500D03*
X74900000Y-91137500D03*
%TD*%
D18*
%TO.C,U2*%
X73425000Y-129250000D03*
X73425000Y-128300000D03*
X73425000Y-127350000D03*
X71150000Y-127350000D03*
X71150000Y-129250000D03*
%TD*%
D19*
%TO.C,R2*%
X73600000Y-134550000D03*
X73600000Y-132900000D03*
%TD*%
D20*
%TO.C,C3*%
X73575000Y-125800000D03*
X72025000Y-125800000D03*
%TD*%
D21*
%TO.C,SW1*%
X39275000Y-86602500D03*
X46285000Y-86602500D03*
D22*
X40525000Y-84112500D03*
X45025000Y-84112500D03*
%TD*%
D23*
%TO.C,D2*%
X75225000Y-129200000D03*
X77100000Y-129200000D03*
%TD*%
D24*
%TO.C,R3*%
X80450000Y-129200000D03*
X78800000Y-129200000D03*
%TD*%
D25*
%TO.C,D1*%
X71800000Y-134475000D03*
X71800000Y-132600000D03*
%TD*%
D26*
%TO.C,C9*%
X61750000Y-126200000D03*
X63300000Y-126200000D03*
%TD*%
D27*
%TO.C,FB1*%
X73275000Y-130800000D03*
X71700000Y-130800000D03*
%TD*%
D28*
%TO.C,SW3*%
X78020000Y-109450000D03*
X85980000Y-109450000D03*
X78020000Y-113950000D03*
X85980000Y-113950000D03*
%TD*%
D29*
%TO.C,R7*%
X84200000Y-107200000D03*
X85850000Y-107200000D03*
%TD*%
D20*
%TO.C,C1*%
X73575000Y-135950000D03*
X72025000Y-135950000D03*
%TD*%
D29*
%TO.C,R5*%
X35600000Y-87200000D03*
X37250000Y-87200000D03*
%TD*%
%TO.C,R12*%
X101050000Y-89200000D03*
X102700000Y-89200000D03*
%TD*%
D30*
%TO.C,J3*%
X87450000Y-85430000D03*
X91350000Y-85430000D03*
X87450000Y-86700000D03*
X91350000Y-86700000D03*
X87450000Y-87970000D03*
X91350000Y-87970000D03*
%TD*%
D31*
%TO.C,U7*%
X58700000Y-124650000D03*
X59200000Y-124650000D03*
X59700000Y-124650000D03*
X60200000Y-124650000D03*
X60700000Y-124650000D03*
X61200000Y-124650000D03*
X61700000Y-124650000D03*
D32*
X62650000Y-123700000D03*
X62650000Y-123200000D03*
X62650000Y-122700000D03*
X62650000Y-122200000D03*
X62650000Y-121700000D03*
X62650000Y-121200000D03*
X62650000Y-120700000D03*
D31*
X61700000Y-119750000D03*
X61200000Y-119750000D03*
X60700000Y-119750000D03*
X60200000Y-119750000D03*
X59700000Y-119750000D03*
X59200000Y-119750000D03*
X58700000Y-119750000D03*
D32*
X57750000Y-120700000D03*
X57750000Y-121200000D03*
X57750000Y-121700000D03*
X57750000Y-122200000D03*
X57750000Y-122700000D03*
X57750000Y-123200000D03*
X57750000Y-123700000D03*
D33*
X60200000Y-122200000D03*
%TD*%
D34*
%TO.C,BT1*%
X101050000Y-123800000D03*
X108800000Y-123800000D03*
%TD*%
D10*
%TO.C,R15*%
X52900000Y-123375000D03*
X52900000Y-125025000D03*
%TD*%
D29*
%TO.C,R14*%
X54400000Y-126800000D03*
X56050000Y-126800000D03*
%TD*%
D35*
%TO.C,J2*%
X74200000Y-137240000D03*
X83200000Y-137240000D03*
D36*
X77200000Y-139200000D03*
D37*
X80200000Y-139200000D03*
%TD*%
D38*
%TO.C,U3*%
X58350000Y-130037500D03*
X59300000Y-130037500D03*
X60250000Y-130037500D03*
X60250000Y-127762500D03*
X59300000Y-127762500D03*
X58350000Y-127762500D03*
%TD*%
D20*
%TO.C,C4*%
X69450000Y-129200000D03*
X67900000Y-129200000D03*
%TD*%
D29*
%TO.C,R8*%
X78150000Y-102800000D03*
X79800000Y-102800000D03*
%TD*%
%TO.C,R9*%
X61650000Y-84200000D03*
X63300000Y-84200000D03*
%TD*%
D26*
%TO.C,C5*%
X110625000Y-125400000D03*
X112175000Y-125400000D03*
%TD*%
D20*
%TO.C,C2*%
X70200000Y-130800000D03*
X68650000Y-130800000D03*
%TD*%
D28*
%TO.C,SW4*%
X41840000Y-121400000D03*
X49800000Y-121400000D03*
X41840000Y-125900000D03*
X49800000Y-125900000D03*
%TD*%
D20*
%TO.C,C8*%
X69350000Y-125550000D03*
X67800000Y-125550000D03*
%TD*%
D29*
%TO.C,R1*%
X68000000Y-136050000D03*
X69650000Y-136050000D03*
%TD*%
D39*
%TO.C,U5*%
X45575000Y-92300000D03*
X51925000Y-92300000D03*
X45575000Y-97380000D03*
X51925000Y-97380000D03*
X46210000Y-115160000D03*
X48750000Y-115160000D03*
X51290000Y-115160000D03*
D40*
X41130000Y-98332500D03*
X41130000Y-111667500D03*
X56370000Y-111667500D03*
X56370000Y-98332500D03*
D39*
X38590000Y-102460000D03*
X38590000Y-105000000D03*
X38590000Y-107540000D03*
%TD*%
D24*
%TO.C,R11*%
X63300000Y-90700000D03*
X61650000Y-90700000D03*
%TD*%
D26*
%TO.C,C6*%
X61750000Y-85800000D03*
X63300000Y-85800000D03*
%TD*%
D20*
%TO.C,C7*%
X63250000Y-82600000D03*
X61700000Y-82600000D03*
%TD*%
D24*
%TO.C,R10*%
X112350000Y-122200000D03*
X110700000Y-122200000D03*
%TD*%
D18*
%TO.C,U1*%
X69800000Y-134450000D03*
X69800000Y-133500000D03*
X69800000Y-132550000D03*
X67525000Y-132550000D03*
X67525000Y-134450000D03*
%TD*%
D24*
%TO.C,R6*%
X71400000Y-102700000D03*
X69750000Y-102700000D03*
%TD*%
D39*
%TO.C,U6*%
X101005000Y-92300000D03*
X107355000Y-92300000D03*
X101005000Y-97380000D03*
X107355000Y-97380000D03*
X101640000Y-115160000D03*
X104180000Y-115160000D03*
X106720000Y-115160000D03*
D40*
X96560000Y-98332500D03*
X96560000Y-111667500D03*
X111800000Y-111667500D03*
X111800000Y-98332500D03*
D39*
X94020000Y-102460000D03*
X94020000Y-105000000D03*
X94020000Y-107540000D03*
%TD*%
D21*
%TO.C,SW2*%
X108475000Y-85452500D03*
X115485000Y-85452500D03*
D22*
X109725000Y-82962500D03*
X114225000Y-82962500D03*
%TD*%
D24*
%TO.C,R4*%
X112250000Y-123800000D03*
X110600000Y-123800000D03*
%TD*%
D11*
%TO.C,POT2*%
X87760000Y-135500000D03*
D12*
X90300000Y-135500000D03*
X92840000Y-135500000D03*
%TD*%
D41*
%TO.C,J1*%
X57300000Y-135575000D03*
X61700000Y-135575000D03*
D42*
X57900000Y-132975000D03*
X58700000Y-132975000D03*
X59500000Y-132975000D03*
X60300000Y-132975000D03*
X61100000Y-132975000D03*
D43*
X55100000Y-132975000D03*
X55100000Y-138475000D03*
X63900000Y-132975000D03*
X63900000Y-138475000D03*
%TD*%
M02*
